<svg width="26" height="26" viewBox="0 0 26 26" fill="none" xmlns="http://www.w3.org/2000/svg">
<path d="M20.9663 23.62C20.7731 24.1696 20.414 24.6457 19.9387 24.9825C19.4633 25.3192 18.8951 25.5001 18.3125 25.5H5.8125C4.40354 25.5 3.05228 24.9403 2.056 23.944C1.05971 22.9477 0.5 21.5965 0.5 20.1875V7.6875C0.499929 7.10493 0.680769 6.53671 1.01754 6.06134C1.35431 5.58597 1.83038 5.2269 2.38 5.03375L2.375 7.655V20.1875C2.375 21.0992 2.73716 21.9735 3.38182 22.6182C4.02648 23.2628 4.90082 23.625 5.8125 23.625H18.3125L18.3763 23.62H20.9663ZM25.5 19.5575C25.5 20.3034 25.2037 21.0188 24.6762 21.5462C24.1488 22.0737 23.4334 22.37 22.6875 22.37H6.44125C5.69533 22.37 4.97996 22.0737 4.45251 21.5462C3.92507 21.0188 3.62875 20.3034 3.62875 19.5575V3.3125C3.62875 2.56658 3.92507 1.85121 4.45251 1.32376C4.97996 0.796316 5.69533 0.5 6.44125 0.5L22.6875 0.5C23.4334 0.5 24.1488 0.796316 24.6762 1.32376C25.2037 1.85121 25.5 2.56658 25.5 3.3125V19.5588V19.5575ZM23.625 19.5575V3.3125C23.625 3.06386 23.5262 2.8254 23.3504 2.64959C23.1746 2.47377 22.9361 2.375 22.6875 2.375L6.44125 2.375C5.92375 2.375 5.50375 2.795 5.50375 3.3125V19.5588C5.50375 19.8074 5.60252 20.0458 5.77834 20.2217C5.95415 20.3975 6.19261 20.4963 6.44125 20.4963H22.6875C22.9361 20.4963 23.1746 20.3975 23.3504 20.2217C23.5262 20.0458 23.625 19.8074 23.625 19.5588V19.5575Z" fill="black"/>
</svg>
