<svg width="43" height="40" viewBox="0 0 43 40" fill="none" xmlns="http://www.w3.org/2000/svg">
<path d="M40.5256 17.0307C42.0645 17.0307 42.707 15.0535 41.4569 14.1421L22.4365 0.306298C22.1649 0.107288 21.8369 0 21.5002 0C21.1635 0 20.8355 0.107288 20.5639 0.306298L1.54345 14.1421C0.293351 15.0485 0.935831 17.0307 2.47978 17.0307H5.56269V35.6577H1.97675C1.75761 35.6577 1.57831 35.837 1.57831 36.0561V38.646C1.57831 38.8651 1.75761 39.0444 1.97675 39.0444H41.0236C41.2428 39.0444 41.4221 38.8651 41.4221 38.646V36.0561C41.4221 35.837 41.2428 35.6577 41.0236 35.6577H37.4377V17.0307H40.5256ZM14.9758 35.6577H9.14862V17.0307H14.9758V35.6577ZM24.3889 35.6577H18.5617V17.0307H24.3889V35.6577ZM33.8517 35.6577H27.9748V17.0307H33.8517V35.6577Z" fill="#1164F5"/>
</svg>
