<svg width="43" height="42" viewBox="0 0 43 42" fill="none" xmlns="http://www.w3.org/2000/svg">
<path d="M35.989 14.3753H26.8428V5.22922C26.8428 4.18963 26.4299 3.19262 25.6948 2.45752C24.9597 1.72242 23.9627 1.30945 22.9231 1.30945H7.24399C6.2044 1.30945 5.20739 1.72242 4.47229 2.45752C3.73719 3.19262 3.32422 4.18963 3.32422 5.22922V39.2006C3.32422 39.5471 3.46188 39.8794 3.70691 40.1245C3.95194 40.3695 4.28428 40.5071 4.63081 40.5071H13.1236C13.2969 40.5071 13.4631 40.4383 13.5856 40.3158C13.7081 40.1933 13.7769 40.0271 13.7769 39.8539V34.0109C13.7769 33.3078 14.3175 32.7044 15.0206 32.6692C15.1973 32.6607 15.3739 32.6882 15.5396 32.7499C15.7054 32.8116 15.8568 32.9064 15.9849 33.0284C16.1129 33.1504 16.2149 33.2972 16.2845 33.4597C16.3542 33.6223 16.3901 33.7973 16.3901 33.9742V39.8539C16.3901 40.0271 16.4589 40.1933 16.5815 40.3158C16.704 40.4383 16.8701 40.5071 17.0434 40.5071H38.6021C38.9487 40.5071 39.281 40.3695 39.5261 40.1245C39.7711 39.8794 39.9087 39.5471 39.9087 39.2006V18.2951C39.9087 17.2555 39.4958 16.2585 38.7607 15.5234C38.0256 14.7883 37.0286 14.3753 35.989 14.3753ZM8.72044 35.2702C8.44983 35.3056 8.17494 35.2553 7.93434 35.1265C7.69374 34.9977 7.49951 34.7968 7.3789 34.552C7.25831 34.3072 7.21739 34.0308 7.2619 33.7615C7.30642 33.4922 7.43412 33.2437 7.6271 33.0507C7.82007 32.8577 8.06863 32.73 8.33788 32.6855C8.60714 32.641 8.88357 32.6819 9.12839 32.8025C9.3732 32.9231 9.57411 33.1174 9.70291 33.358C9.83171 33.5986 9.88194 33.8734 9.84655 34.1441C9.8092 34.4296 9.67855 34.6949 9.4749 34.8985C9.27124 35.1022 9.00601 35.2328 8.72044 35.2702ZM8.72044 28.7372C8.44983 28.7726 8.17494 28.7224 7.93434 28.5936C7.69374 28.4648 7.49951 28.2639 7.3789 28.0191C7.25831 27.7742 7.21739 27.4978 7.2619 27.2286C7.30642 26.9593 7.43412 26.7107 7.6271 26.5178C7.82007 26.3248 8.06863 26.1971 8.33788 26.1526C8.60714 26.1081 8.88357 26.149 9.12839 26.2696C9.3732 26.3902 9.57411 26.5844 9.70291 26.825C9.83171 27.0656 9.88194 27.3405 9.84655 27.6111C9.8092 27.8967 9.67855 28.1619 9.4749 28.3656C9.27124 28.5692 9.00601 28.6999 8.72044 28.7372ZM8.72044 22.2043C8.44983 22.2397 8.17494 22.1894 7.93434 22.0606C7.69374 21.9318 7.49951 21.7309 7.3789 21.4861C7.25831 21.2413 7.21739 20.9649 7.2619 20.6956C7.30642 20.4263 7.43412 20.1778 7.6271 19.9848C7.82007 19.7918 8.06863 19.6641 8.33788 19.6196C8.60714 19.5751 8.88357 19.616 9.12839 19.7366C9.3732 19.8572 9.57411 20.0515 9.70291 20.2921C9.83171 20.5327 9.88194 20.8075 9.84655 21.0782C9.8092 21.3637 9.67855 21.629 9.4749 21.8326C9.27124 22.0363 9.00601 22.1669 8.72044 22.2043ZM8.72044 15.6713C8.44983 15.7067 8.17494 15.6565 7.93434 15.5277C7.69374 15.3989 7.49951 15.198 7.3789 14.9532C7.25831 14.7083 7.21739 14.4319 7.2619 14.1627C7.30642 13.8934 7.43412 13.6448 7.6271 13.4519C7.82007 13.2589 8.06863 13.1312 8.33788 13.0867C8.60714 13.0422 8.88357 13.0831 9.12839 13.2037C9.3732 13.3243 9.57411 13.5185 9.70291 13.7591C9.83171 13.9997 9.88194 14.2746 9.84655 14.5452C9.8092 14.8308 9.67855 15.096 9.4749 15.2997C9.27124 15.5033 9.00601 15.634 8.72044 15.6713ZM8.72044 9.13837C8.44983 9.17376 8.17494 9.12353 7.93434 8.99473C7.69374 8.86593 7.49951 8.66502 7.3789 8.42021C7.25831 8.17539 7.21739 7.89896 7.2619 7.6297C7.30642 7.36045 7.43412 7.11189 7.6271 6.91892C7.82007 6.72594 8.06863 6.59824 8.33788 6.55372C8.60714 6.50921 8.88357 6.55012 9.12839 6.67072C9.3732 6.79132 9.57411 6.98555 9.70291 7.22616C9.83171 7.46676 9.88194 7.74165 9.84655 8.01225C9.8092 8.29783 9.67855 8.56306 9.4749 8.76671C9.27124 8.97037 9.00601 9.10102 8.72044 9.13837ZM15.2534 28.7372C14.9828 28.7726 14.7079 28.7224 14.4673 28.5936C14.2267 28.4648 14.0325 28.2639 13.9119 28.0191C13.7913 27.7742 13.7503 27.4978 13.7949 27.2286C13.8394 26.9593 13.9671 26.7107 14.16 26.5178C14.353 26.3248 14.6016 26.1971 14.8708 26.1526C15.1401 26.1081 15.4165 26.149 15.6613 26.2696C15.9062 26.3902 16.1071 26.5844 16.2359 26.825C16.3647 27.0656 16.4149 27.3405 16.3795 27.6111C16.3422 27.8967 16.2115 28.1619 16.0078 28.3656C15.8042 28.5692 15.539 28.6999 15.2534 28.7372ZM15.2534 22.2043C14.9828 22.2397 14.7079 22.1894 14.4673 22.0606C14.2267 21.9318 14.0325 21.7309 13.9119 21.4861C13.7913 21.2413 13.7503 20.9649 13.7949 20.6956C13.8394 20.4263 13.9671 20.1778 14.16 19.9848C14.353 19.7918 14.6016 19.6641 14.8708 19.6196C15.1401 19.5751 15.4165 19.616 15.6613 19.7366C15.9062 19.8572 16.1071 20.0515 16.2359 20.2921C16.3647 20.5327 16.4149 20.8075 16.3795 21.0782C16.3422 21.3637 16.2115 21.629 16.0078 21.8326C15.8042 22.0363 15.539 22.1669 15.2534 22.2043ZM15.2534 15.6713C14.9828 15.7067 14.7079 15.6565 14.4673 15.5277C14.2267 15.3989 14.0325 15.198 13.9119 14.9532C13.7913 14.7083 13.7503 14.4319 13.7949 14.1627C13.8394 13.8934 13.9671 13.6448 14.16 13.4519C14.353 13.2589 14.6016 13.1312 14.8708 13.0867C15.1401 13.0422 15.4165 13.0831 15.6613 13.2037C15.9062 13.3243 16.1071 13.5185 16.2359 13.7591C16.3647 13.9997 16.4149 14.2746 16.3795 14.5452C16.3422 14.8308 16.2115 15.096 16.0078 15.2997C15.8042 15.5033 15.539 15.634 15.2534 15.6713ZM15.2534 9.13837C14.9828 9.17376 14.7079 9.12353 14.4673 8.99473C14.2267 8.86593 14.0325 8.66502 13.9119 8.42021C13.7913 8.17539 13.7503 7.89896 13.7949 7.6297C13.8394 7.36045 13.9671 7.11189 14.16 6.91892C14.353 6.72594 14.6016 6.59824 14.8708 6.55372C15.1401 6.50921 15.4165 6.55012 15.6613 6.67072C15.9062 6.79132 16.1071 6.98555 16.2359 7.22616C16.3647 7.46676 16.4149 7.74165 16.3795 8.01225C16.3422 8.29783 16.2115 8.56306 16.0078 8.76671C15.8042 8.97037 15.539 9.10102 15.2534 9.13837ZM21.7863 35.2702C21.5157 35.3056 21.2408 35.2553 21.0002 35.1265C20.7596 34.9977 20.5654 34.7968 20.4448 34.552C20.3242 34.3072 20.2833 34.0308 20.3278 33.7615C20.3723 33.4922 20.5 33.2437 20.693 33.0507C20.886 32.8577 21.1345 32.73 21.4038 32.6855C21.673 32.641 21.9495 32.6819 22.1943 32.8025C22.4391 32.9231 22.64 33.1174 22.7688 33.358C22.8976 33.5986 22.9478 33.8734 22.9125 34.1441C22.8751 34.4296 22.7444 34.6949 22.5408 34.8985C22.3371 35.1022 22.0719 35.2328 21.7863 35.2702ZM21.7863 28.7372C21.5157 28.7726 21.2408 28.7224 21.0002 28.5936C20.7596 28.4648 20.5654 28.2639 20.4448 28.0191C20.3242 27.7742 20.2833 27.4978 20.3278 27.2286C20.3723 26.9593 20.5 26.7107 20.693 26.5178C20.886 26.3248 21.1345 26.1971 21.4038 26.1526C21.673 26.1081 21.9495 26.149 22.1943 26.2696C22.4391 26.3902 22.64 26.5844 22.7688 26.825C22.8976 27.0656 22.9478 27.3405 22.9125 27.6111C22.8751 27.8967 22.7444 28.1619 22.5408 28.3656C22.3371 28.5692 22.0719 28.6999 21.7863 28.7372ZM21.7863 22.2043C21.5157 22.2397 21.2408 22.1894 21.0002 22.0606C20.7596 21.9318 20.5654 21.7309 20.4448 21.4861C20.3242 21.2413 20.2833 20.9649 20.3278 20.6956C20.3723 20.4263 20.5 20.1778 20.693 19.9848C20.886 19.7918 21.1345 19.6641 21.4038 19.6196C21.673 19.5751 21.9495 19.616 22.1943 19.7366C22.4391 19.8572 22.64 20.0515 22.7688 20.2921C22.8976 20.5327 22.9478 20.8075 22.9125 21.0782C22.8751 21.3637 22.7444 21.629 22.5408 21.8326C22.3371 22.0363 22.0719 22.1669 21.7863 22.2043ZM21.7863 15.6713C21.5157 15.7067 21.2408 15.6565 21.0002 15.5277C20.7596 15.3989 20.5654 15.198 20.4448 14.9532C20.3242 14.7083 20.2833 14.4319 20.3278 14.1627C20.3723 13.8934 20.5 13.6448 20.693 13.4519C20.886 13.2589 21.1345 13.1312 21.4038 13.0867C21.673 13.0422 21.9495 13.0831 22.1943 13.2037C22.4391 13.3243 22.64 13.5185 22.7688 13.7591C22.8976 13.9997 22.9478 14.2746 22.9125 14.5452C22.8751 14.8308 22.7444 15.096 22.5408 15.2997C22.3371 15.5033 22.0719 15.634 21.7863 15.6713ZM21.7863 9.13837C21.5157 9.17376 21.2408 9.12353 21.0002 8.99473C20.7596 8.86593 20.5654 8.66502 20.4448 8.42021C20.3242 8.17539 20.2833 7.89896 20.3278 7.6297C20.3723 7.36045 20.5 7.11189 20.693 6.91892C20.886 6.72594 21.1345 6.59824 21.4038 6.55372C21.673 6.50921 21.9495 6.55012 22.1943 6.67072C22.4391 6.79132 22.64 6.98555 22.7688 7.22616C22.8976 7.46676 22.9478 7.74165 22.9125 8.01225C22.8751 8.29783 22.7444 8.56306 22.5408 8.76671C22.3371 8.97037 22.0719 9.10102 21.7863 9.13837ZM36.9689 37.894H26.8428V16.9885H35.989C36.3355 16.9885 36.6678 17.1262 36.9129 17.3712C37.1579 17.6163 37.2956 17.9486 37.2956 18.2951V37.5673C37.2956 37.654 37.2611 37.737 37.1999 37.7983C37.1386 37.8596 37.0555 37.894 36.9689 37.894Z" fill="#8D97A4"/>
<path d="M33.3759 32.6676C33.1175 32.6676 32.8649 32.7442 32.65 32.8878C32.4352 33.0314 32.2677 33.2354 32.1688 33.4742C32.0699 33.7129 32.044 33.9756 32.0944 34.2291C32.1449 34.4826 32.2693 34.7154 32.452 34.8981C32.6348 35.0808 32.8676 35.2053 33.121 35.2557C33.3745 35.3061 33.6372 35.2802 33.8759 35.1813C34.1147 35.0824 34.3188 34.915 34.4623 34.7001C34.6059 34.4852 34.6825 34.2326 34.6825 33.9742C34.6825 33.6277 34.5449 33.2953 34.2998 33.0503C34.0548 32.8053 33.7225 32.6676 33.3759 32.6676Z" fill="#8D97A4"/>
<path d="M33.3759 26.1347C33.1175 26.1347 32.8649 26.2113 32.65 26.3549C32.4352 26.4984 32.2677 26.7025 32.1688 26.9413C32.0699 27.18 32.044 27.4427 32.0944 27.6962C32.1449 27.9496 32.2693 28.1824 32.452 28.3652C32.6348 28.5479 32.8676 28.6723 33.121 28.7228C33.3745 28.7732 33.6372 28.7473 33.8759 28.6484C34.1147 28.5495 34.3188 28.382 34.4623 28.1672C34.6059 27.9523 34.6825 27.6997 34.6825 27.4413C34.6825 27.0947 34.5449 26.7624 34.2998 26.5174C34.0548 26.2723 33.7225 26.1347 33.3759 26.1347Z" fill="#8D97A4"/>
<path d="M33.3759 19.6017C33.1175 19.6017 32.8649 19.6783 32.65 19.8219C32.4352 19.9655 32.2677 20.1695 32.1688 20.4083C32.0699 20.647 32.044 20.9098 32.0944 21.1632C32.1449 21.4167 32.2693 21.6495 32.452 21.8322C32.6348 22.0149 32.8676 22.1394 33.121 22.1898C33.3745 22.2402 33.6372 22.2143 33.8759 22.1154C34.1147 22.0166 34.3188 21.8491 34.4623 21.6342C34.6059 21.4193 34.6825 21.1667 34.6825 20.9083C34.6825 20.5618 34.5449 20.2294 34.2998 19.9844C34.0548 19.7394 33.7225 19.6017 33.3759 19.6017Z" fill="#8D97A4"/>
<path d="M28.1494 32.6676C27.8909 32.6676 27.6383 32.7442 27.4235 32.8878C27.2086 33.0314 27.0411 33.2354 26.9422 33.4742C26.8433 33.7129 26.8175 33.9756 26.8679 34.2291C26.9183 34.4826 27.0427 34.7154 27.2255 34.8981C27.4082 35.0808 27.641 35.2053 27.8945 35.2557C28.1479 35.3061 28.4106 35.2802 28.6494 35.1813C28.8881 35.0824 29.0922 34.915 29.2358 34.7001C29.3793 34.4852 29.456 34.2326 29.456 33.9742C29.456 33.6277 29.3183 33.2953 29.0733 33.0503C28.8282 32.8053 28.4959 32.6676 28.1494 32.6676Z" fill="#8D97A4"/>
<path d="M28.1494 26.1347C27.8909 26.1347 27.6383 26.2113 27.4235 26.3549C27.2086 26.4984 27.0411 26.7025 26.9422 26.9413C26.8433 27.18 26.8175 27.4427 26.8679 27.6962C26.9183 27.9496 27.0427 28.1824 27.2255 28.3652C27.4082 28.5479 27.641 28.6723 27.8945 28.7228C28.1479 28.7732 28.4106 28.7473 28.6494 28.6484C28.8881 28.5495 29.0922 28.382 29.2358 28.1672C29.3793 27.9523 29.456 27.6997 29.456 27.4413C29.456 27.0947 29.3183 26.7624 29.0733 26.5174C28.8282 26.2723 28.4959 26.1347 28.1494 26.1347Z" fill="#8D97A4"/>
<path d="M28.1494 19.6017C27.8909 19.6017 27.6383 19.6783 27.4235 19.8219C27.2086 19.9655 27.0411 20.1695 26.9422 20.4083C26.8433 20.647 26.8175 20.9098 26.8679 21.1632C26.9183 21.4167 27.0427 21.6495 27.2255 21.8322C27.4082 22.0149 27.641 22.1394 27.8945 22.1898C28.1479 22.2402 28.4106 22.2143 28.6494 22.1154C28.8881 22.0166 29.0922 21.8491 29.2358 21.6342C29.3793 21.4193 29.456 21.1667 29.456 20.9083C29.456 20.5618 29.3183 20.2294 29.0733 19.9844C28.8282 19.7394 28.4959 19.6017 28.1494 19.6017Z" fill="#8D97A4"/>
</svg>
