<svg width="25" height="25" viewBox="0 0 25 25" fill="none" xmlns="http://www.w3.org/2000/svg">
<path d="M23.4993 21.233V17.8459C23.513 17.2921 23.3224 16.7526 22.9635 16.33C21.9518 15.1382 18.4818 14.376 17.1063 14.6687C16.0342 14.897 15.2839 15.9735 14.5505 16.7055C11.7183 15.0981 9.37322 12.7577 7.76274 9.931C8.49612 9.19911 9.57484 8.45045 9.80354 7.38035C10.0964 6.00971 9.33516 2.56186 8.15164 1.54605C7.73536 1.18875 7.20308 0.99471 6.65406 1.00011H3.26013C1.96697 1.00132 0.891094 2.16119 1.00883 3.46149C0.999994 14.6687 9.75004 23.5 21.033 23.4911C22.3403 23.6091 23.5045 22.5279 23.4993 21.233Z" stroke="white" stroke-width="1.5" stroke-linecap="round" stroke-linejoin="round"/>
</svg>
