<svg width="23" height="24" viewBox="0 0 23 24" fill="none" xmlns="http://www.w3.org/2000/svg">
<path d="M10.5889 15.1918L8.81601 16.9514C8.44227 17.3223 7.8481 17.3223 7.46477 16.9609C7.35935 16.8562 7.25393 16.7611 7.14852 16.6565C6.16143 15.6674 5.27018 14.6307 4.47477 13.5465C3.68893 12.4622 3.05643 11.378 2.59643 10.3033C2.14602 9.21903 1.91602 8.18235 1.91602 7.19322C1.91602 6.54648 2.03102 5.92827 2.26102 5.35762C2.49102 4.77746 2.85518 4.24485 3.3631 3.76931C3.97643 3.17013 4.64727 2.87529 5.35643 2.87529C5.62477 2.87529 5.8931 2.93236 6.13268 3.04649C6.38185 3.16062 6.60227 3.33181 6.77477 3.57909L8.9981 6.68914C9.1706 6.92691 9.29518 7.14566 9.38143 7.3549C9.46768 7.55463 9.5156 7.75436 9.5156 7.93506C9.5156 8.16332 9.44852 8.39158 9.31435 8.61033C9.18977 8.82908 9.00768 9.05734 8.77768 9.28561L8.04935 10.037C7.94393 10.1416 7.89601 10.2652 7.89601 10.4174C7.89601 10.4935 7.9056 10.5601 7.92477 10.6361C7.95352 10.7122 7.98227 10.7693 8.00143 10.8264C8.17393 11.1402 8.47101 11.5492 8.89268 12.0438C9.32393 12.5383 9.78393 13.0424 10.2823 13.5465C10.3781 13.6416 10.4835 13.7367 10.5793 13.8318C10.9627 14.2027 10.9723 14.8114 10.5889 15.1918Z" fill="#1164F5"/>
<path d="M21.0538 18.4065C21.0538 18.6728 21.0059 18.9486 20.9101 19.2149C20.8813 19.291 20.8526 19.3671 20.8142 19.4432C20.6513 19.7856 20.4405 20.109 20.1626 20.4133C19.693 20.9269 19.1755 21.2978 18.5909 21.5356C18.5813 21.5356 18.5717 21.5451 18.5621 21.5451C17.9967 21.7734 17.3834 21.897 16.7221 21.897C15.7446 21.897 14.7001 21.6687 13.598 21.2027C12.4959 20.7367 11.3938 20.109 10.3013 19.3196C9.92755 19.0437 9.5538 18.7679 9.19922 18.4731L12.333 15.363C12.6013 15.5628 12.8409 15.7149 13.0421 15.8196C13.0901 15.8386 13.1476 15.8671 13.2146 15.8956C13.2913 15.9242 13.368 15.9337 13.4542 15.9337C13.6171 15.9337 13.7417 15.8766 13.8471 15.772L14.5755 15.0587C14.8151 14.8209 15.0451 14.6402 15.2655 14.5261C15.4859 14.3929 15.7063 14.3264 15.9459 14.3264C16.128 14.3264 16.3196 14.3644 16.5305 14.45C16.7413 14.5356 16.9617 14.6592 17.2013 14.8209L20.3734 17.056C20.6226 17.2272 20.7951 17.4269 20.9005 17.6647C20.9963 17.9024 21.0538 18.1402 21.0538 18.4065Z" fill="#1164F5"/>
</svg>
