<svg width="23" height="23" viewBox="0 0 23 23" fill="none" xmlns="http://www.w3.org/2000/svg">
<path d="M10.5889 14.3271L8.81601 16.1C8.44227 16.4738 7.8481 16.4738 7.46477 16.1096C7.35935 16.0042 7.25393 15.9083 7.14852 15.8029C6.16143 14.8063 5.27018 13.7617 4.47477 12.6692C3.68893 11.5767 3.05643 10.4842 2.59643 9.40126C2.14602 8.30876 1.91602 7.26417 1.91602 6.26751C1.91602 5.61584 2.03102 4.99292 2.26102 4.41792C2.49102 3.83334 2.85518 3.29667 3.3631 2.81751C3.97643 2.21376 4.64727 1.91667 5.35643 1.91667C5.62477 1.91667 5.8931 1.97417 6.13268 2.08917C6.38185 2.20417 6.60227 2.37667 6.77477 2.62584L8.9981 5.75959C9.1706 5.99917 9.29518 6.21959 9.38143 6.43042C9.46768 6.63167 9.5156 6.83292 9.5156 7.01501C9.5156 7.24501 9.44852 7.47501 9.31435 7.69542C9.18977 7.91584 9.00768 8.14584 8.77768 8.37584L8.04935 9.13292C7.94393 9.23834 7.89601 9.36292 7.89601 9.51626C7.89601 9.59292 7.9056 9.66001 7.92477 9.73667C7.95352 9.81334 7.98227 9.87084 8.00143 9.92834C8.17393 10.2446 8.47101 10.6567 8.89268 11.155C9.32393 11.6533 9.78393 12.1613 10.2823 12.6692C10.3781 12.765 10.4835 12.8608 10.5793 12.9567C10.9627 13.3304 10.9723 13.9438 10.5889 14.3271Z" fill="#A9B1BC"/>
<path d="M21.0538 17.5663C21.0538 17.8346 21.0059 18.1125 20.9101 18.3808C20.8813 18.4575 20.8526 18.5342 20.8142 18.6108C20.6513 18.9558 20.4405 19.2817 20.1626 19.5883C19.693 20.1058 19.1755 20.4796 18.5909 20.7192C18.5813 20.7192 18.5717 20.7288 18.5621 20.7288C17.9967 20.9588 17.3834 21.0833 16.7221 21.0833C15.7446 21.0833 14.7001 20.8533 13.598 20.3838C12.4959 19.9142 11.3938 19.2817 10.3013 18.4863C9.92755 18.2083 9.5538 17.9304 9.19922 17.6333L12.333 14.4996C12.6013 14.7008 12.8409 14.8542 13.0421 14.9596C13.0901 14.9788 13.1476 15.0075 13.2146 15.0363C13.2913 15.065 13.368 15.0746 13.4542 15.0746C13.6171 15.0746 13.7417 15.0171 13.8471 14.9117L14.5755 14.1929C14.8151 13.9533 15.0451 13.7713 15.2655 13.6563C15.4859 13.5221 15.7063 13.455 15.9459 13.455C16.128 13.455 16.3196 13.4933 16.5305 13.5796C16.7413 13.6658 16.9617 13.7904 17.2013 13.9533L20.3734 16.2054C20.6226 16.3779 20.7951 16.5792 20.9005 16.8188C20.9963 17.0583 21.0538 17.2979 21.0538 17.5663Z" fill="#A9B1BC"/>
</svg>
