<svg width="383" height="528" viewBox="0 0 383 528" fill="none" xmlns="http://www.w3.org/2000/svg">
<path d="M348.67 434.788L201.157 434.101C183.419 434.021 169.094 419.577 169.173 401.825L170.734 31.9977C170.813 14.2464 185.258 -0.0790368 203.022 0.000328184L350.536 0.688164C368.274 0.767529 382.599 15.212 382.52 32.9633L380.959 402.791C380.866 420.542 366.422 434.881 348.67 434.788Z" fill="#263238"/>
<path d="M350.313 13.466L321.715 13.3337C317.879 13.3205 314.757 16.548 314.744 20.5559L314.717 25.7411C314.704 29.749 311.582 32.9898 307.747 32.9633L251.993 32.712C248.157 32.6988 245.061 29.4316 245.075 25.4236L245.101 20.2385C245.114 16.2305 242.019 12.9633 238.183 12.9501L228.13 12.8972L203.104 12.7781C190.67 12.7252 180.551 22.7517 180.498 35.1855L178.977 396.164C178.924 408.585 188.95 418.704 201.371 418.77L348.593 419.445C361.027 419.497 371.146 409.471 371.199 397.037L372.72 36.0586C372.773 23.6379 362.746 13.5189 350.313 13.466Z" fill="#FAFAFA"/>
<path d="M297.182 57.9996L259.206 57.8244L259.174 64.7952L297.15 64.9705L297.182 57.9996Z" fill="#455A64"/>
<path d="M214.977 115.013C215.559 115.08 215.877 115.093 215.863 115.146C215.863 115.093 216.154 115.093 216.697 115.027L214.977 115.013Z" fill="#455A64"/>
<path d="M225.386 95.8865C224.698 94.9473 223.852 94.0875 222.86 93.3865C220.915 91.9314 218.428 91.1113 215.862 91.0849C213.296 91.1113 210.809 91.9314 208.865 93.3865C207.886 94.0875 207.026 94.9473 206.339 95.8865C205.637 96.8124 205.082 97.8309 204.712 98.8759C203.905 100.966 203.839 103.162 204.169 105.119C204.5 107.09 205.36 108.796 206.365 110.146C206.51 110.344 206.669 110.503 206.815 110.688C207.688 108.188 209.632 105.397 213.984 104.736C211.973 103.902 210.545 101.826 210.558 99.3918C210.571 96.2304 212.992 93.6775 215.955 93.6907C218.918 93.7039 221.312 96.2833 221.299 99.4447C221.286 101.865 219.87 103.916 217.886 104.749C222.159 105.397 224.063 108.162 224.923 110.675C225.069 110.503 225.214 110.344 225.36 110.159C226.365 108.797 227.212 107.09 227.555 105.132C227.886 103.188 227.807 100.979 227.013 98.9023C226.63 97.8309 226.074 96.8124 225.386 95.8865Z" fill="#FAFAFA"/>
<path d="M227.676 98.6379C227.292 97.5135 226.71 96.4421 225.983 95.45C225.255 94.4447 224.356 93.5321 223.324 92.7781C221.274 91.2173 218.615 90.3442 215.877 90.3178C213.139 90.3442 210.493 91.2173 208.43 92.7781C207.385 93.5321 206.485 94.4447 205.771 95.45C205.03 96.4421 204.448 97.5268 204.078 98.6379C203.244 100.86 203.205 103.188 203.575 105.238C203.959 107.302 204.885 109.088 205.956 110.476C208.165 113.307 210.969 114.484 212.861 114.894C213.813 115.106 214.58 115.172 215.096 115.172C215.612 115.172 215.877 115.159 215.877 115.133C215.877 115.08 215.559 115.08 214.99 115L216.71 115.014C216.168 115.08 215.877 115.093 215.877 115.133C215.877 115.159 216.141 115.172 216.657 115.172C217.173 115.185 217.94 115.119 218.893 114.894C220.784 114.484 223.588 113.294 225.797 110.476C226.882 109.074 227.795 107.302 228.178 105.238C228.549 103.188 228.496 100.86 227.676 98.6379ZM227.557 105.119C227.226 107.09 226.366 108.797 225.361 110.146C225.215 110.331 225.07 110.49 224.924 110.662C224.065 108.148 222.16 105.384 217.887 104.736C219.871 103.902 221.287 101.852 221.3 99.4315C221.313 96.2702 218.919 93.6908 215.956 93.6776C212.993 93.6643 210.572 96.2172 210.559 99.3786C210.546 101.812 211.975 103.889 213.985 104.723C209.633 105.384 207.702 108.162 206.816 110.675C206.67 110.503 206.512 110.331 206.366 110.133C205.361 108.77 204.514 107.064 204.17 105.106C203.84 103.148 203.919 100.953 204.713 98.8627C205.083 97.8178 205.639 96.7993 206.34 95.8733C207.028 94.9342 207.874 94.0744 208.866 93.3733C210.811 91.9183 213.297 91.0982 215.863 91.0717C218.43 91.0982 220.916 91.9183 222.861 93.3733C223.84 94.0744 224.699 94.9342 225.387 95.8733C226.088 96.7993 226.644 97.8178 227.014 98.8627C227.808 100.966 227.874 103.162 227.557 105.119Z" fill="#455A64"/>
<path d="M358.775 126.151C358.775 126.125 359.158 126.151 359.872 126.005C360.573 125.86 361.658 125.503 362.69 124.524C363.722 123.572 364.621 121.892 364.476 119.802C364.462 117.699 364.449 115.291 364.436 112.566C364.423 107.117 364.396 100.463 364.37 92.7383C364.37 90.8071 364.357 88.8098 364.357 86.7463C364.476 84.7357 363.431 82.659 361.592 81.6008C359.767 80.45 357.399 80.9526 355.097 80.8468C352.782 80.8468 350.401 80.86 347.981 80.86C309.039 80.8865 255.283 80.9261 195.904 80.9791C194.158 80.9791 192.465 81.8521 191.473 83.2674C190.957 83.9685 190.653 84.7886 190.534 85.6351C190.428 86.4552 190.494 87.4341 190.468 88.3336C190.468 91.9976 190.468 95.6484 190.468 99.2595C190.468 106.482 190.468 113.611 190.481 120.595C190.534 122.236 191.394 123.81 192.73 124.749C193.378 125.225 194.145 125.556 194.939 125.688C195.719 125.834 196.592 125.767 197.452 125.781C200.891 125.781 204.29 125.781 207.663 125.781C214.396 125.781 220.997 125.794 227.425 125.794C253.153 125.82 276.327 125.847 295.798 125.873C315.243 125.926 330.984 125.966 341.896 125.992C347.319 126.019 351.539 126.045 354.423 126.058C355.838 126.072 356.923 126.085 357.677 126.098C358.404 126.125 358.775 126.151 358.775 126.151C358.775 126.151 358.404 126.177 357.663 126.191C356.909 126.204 355.825 126.217 354.409 126.23C351.526 126.244 347.306 126.27 341.883 126.296C330.97 126.323 315.243 126.363 295.785 126.416C276.314 126.442 253.153 126.468 227.412 126.495C220.984 126.495 214.383 126.508 207.65 126.508C204.277 126.508 200.878 126.508 197.439 126.508C196.579 126.495 195.719 126.561 194.793 126.402C193.88 126.244 193.021 125.873 192.267 125.331C190.759 124.259 189.78 122.474 189.714 120.609C189.714 113.598 189.701 106.468 189.701 99.233C189.701 95.6219 189.701 91.9711 189.701 88.3071C189.727 87.3812 189.648 86.5082 189.767 85.5029C189.912 84.5373 190.256 83.5849 190.838 82.7912C191.962 81.1775 193.92 80.1722 195.891 80.1722C255.269 80.2119 309.026 80.2516 347.968 80.2912C350.401 80.2912 352.769 80.3045 355.084 80.3045C356.235 80.3045 357.386 80.3045 358.51 80.3177C359.661 80.278 360.851 80.569 361.817 81.1643C363.814 82.315 364.939 84.6034 364.793 86.733C364.793 88.7965 364.78 90.7939 364.78 92.7251C364.753 100.45 364.727 107.103 364.714 112.553C364.7 115.265 364.687 117.685 364.674 119.789C364.806 121.931 363.854 123.677 362.769 124.63C361.685 125.622 360.573 125.953 359.859 126.072C359.158 126.204 358.775 126.151 358.775 126.151Z" fill="#455A64"/>
<path d="M282.398 92.4209H239.436V95.6484H282.398V92.4209Z" fill="#455A64"/>
<path d="M314.7 110.635H239.436V113.863H314.7V110.635Z" fill="#455A64"/>
<path d="M348.51 101.31H239.436V104.537H348.51V101.31Z" fill="#455A64"/>
<path d="M214.977 228.982C215.559 229.048 215.877 229.061 215.863 229.114C215.863 229.061 216.154 229.061 216.697 228.995L214.977 228.982Z" fill="#455A64"/>
<path d="M225.386 209.855C224.698 208.916 223.852 208.056 222.86 207.355C220.915 205.9 218.428 205.08 215.862 205.053C213.296 205.08 210.809 205.9 208.865 207.355C207.886 208.056 207.026 208.916 206.339 209.855C205.637 210.781 205.082 211.799 204.712 212.844C203.905 214.934 203.839 217.13 204.169 219.088C204.5 221.058 205.36 222.765 206.365 224.114C206.51 224.312 206.669 224.471 206.815 224.656C207.688 222.156 209.632 219.365 213.984 218.704C211.973 217.871 210.545 215.794 210.558 213.36C210.571 210.199 212.992 207.646 215.955 207.659C218.918 207.672 221.312 210.252 221.299 213.413C221.286 215.834 219.87 217.884 217.886 218.717C222.159 219.365 224.063 222.13 224.923 224.643C225.069 224.471 225.214 224.312 225.36 224.127C226.365 222.765 227.212 221.058 227.555 219.101C227.886 217.156 227.807 214.947 227.013 212.871C226.63 211.799 226.074 210.794 225.386 209.855Z" fill="#FAFAFA"/>
<path d="M227.676 212.619C227.292 211.508 226.71 210.424 225.983 209.431C225.255 208.426 224.356 207.513 223.324 206.759C221.274 205.199 218.615 204.326 215.877 204.299C213.139 204.326 210.493 205.199 208.43 206.759C207.385 207.513 206.485 208.426 205.771 209.431C205.03 210.424 204.448 211.508 204.078 212.619C203.244 214.841 203.205 217.17 203.575 219.22C203.959 221.283 204.885 223.069 205.956 224.458C208.165 227.289 210.969 228.466 212.861 228.876C213.813 229.088 214.58 229.154 215.096 229.154C215.612 229.154 215.877 229.14 215.877 229.114C215.877 229.061 215.559 229.061 214.99 228.982L216.71 228.995C216.168 229.061 215.877 229.074 215.877 229.114C215.877 229.14 216.141 229.154 216.657 229.154C217.173 229.167 217.94 229.101 218.893 228.876C220.784 228.466 223.588 227.275 225.797 224.458C226.882 223.056 227.795 221.283 228.178 219.22C228.549 217.156 228.496 214.841 227.676 212.619ZM227.557 219.088C227.226 221.058 226.366 222.765 225.361 224.114C225.215 224.299 225.07 224.458 224.924 224.63C224.065 222.117 222.16 219.352 217.887 218.704C219.871 217.871 221.287 215.82 221.3 213.4C221.313 210.238 218.919 207.659 215.956 207.646C212.993 207.632 210.572 210.185 210.559 213.347C210.546 215.781 211.975 217.857 213.985 218.691C209.633 219.352 207.702 222.13 206.816 224.643C206.67 224.471 206.512 224.299 206.366 224.101C205.361 222.738 204.514 221.032 204.17 219.074C203.84 217.117 203.919 214.921 204.713 212.831C205.083 211.786 205.639 210.767 206.34 209.841C207.028 208.902 207.874 208.043 208.866 207.341C210.811 205.886 213.297 205.066 215.863 205.04C218.43 205.066 220.916 205.886 222.861 207.341C223.84 208.043 224.699 208.902 225.387 209.841C226.088 210.767 226.644 211.786 227.014 212.831C227.808 214.947 227.874 217.143 227.557 219.088Z" fill="#455A64"/>
<path d="M358.775 240.132C358.775 240.106 359.158 240.132 359.872 239.987C360.573 239.841 361.658 239.484 362.69 238.506C363.722 237.553 364.621 235.873 364.476 233.783C364.462 231.68 364.449 229.273 364.436 226.548C364.423 221.098 364.396 214.445 364.37 206.72C364.37 204.789 364.357 202.791 364.357 200.728C364.476 198.717 363.431 196.64 361.592 195.582C359.767 194.431 357.399 194.934 355.097 194.828C352.782 194.828 350.401 194.842 347.981 194.842C309.039 194.868 255.283 194.908 195.904 194.961C194.158 194.961 192.465 195.834 191.473 197.249C190.957 197.95 190.653 198.77 190.534 199.617C190.428 200.437 190.494 201.416 190.468 202.315C190.468 205.979 190.468 209.63 190.468 213.241C190.468 220.463 190.468 227.593 190.481 234.577C190.534 236.217 191.394 237.791 192.73 238.73C193.378 239.207 194.145 239.537 194.939 239.67C195.719 239.815 196.592 239.749 197.452 239.762C200.891 239.762 204.29 239.762 207.663 239.762C214.396 239.762 220.997 239.775 227.425 239.775C253.153 239.802 276.327 239.828 295.798 239.855C315.243 239.908 330.984 239.947 341.896 239.974C347.319 240 351.539 240.027 354.423 240.04C355.838 240.053 356.923 240.066 357.677 240.08C358.404 240.106 358.775 240.132 358.775 240.132C358.775 240.132 358.404 240.159 357.663 240.172C356.909 240.185 355.825 240.199 354.409 240.212C351.526 240.225 347.306 240.252 341.883 240.278C330.97 240.304 315.243 240.344 295.785 240.397C276.314 240.423 253.153 240.45 227.412 240.476C220.984 240.476 214.383 240.49 207.65 240.49C204.277 240.49 200.878 240.49 197.439 240.49C196.579 240.476 195.719 240.543 194.793 240.384C193.88 240.225 193.021 239.855 192.267 239.312C190.759 238.241 189.78 236.455 189.714 234.59C189.714 227.58 189.701 220.45 189.701 213.215C189.701 209.603 189.701 205.953 189.701 202.289C189.727 201.363 189.648 200.49 189.767 199.484C189.912 198.519 190.256 197.566 190.838 196.773C191.962 195.159 193.92 194.154 195.891 194.154C255.269 194.193 309.026 194.233 347.968 194.273C350.401 194.273 352.769 194.286 355.084 194.286C356.235 194.286 357.386 194.286 358.51 194.299C359.661 194.26 360.851 194.551 361.817 195.146C363.814 196.297 364.939 198.585 364.793 200.715C364.793 202.778 364.78 204.775 364.78 206.707C364.753 214.431 364.727 221.085 364.714 226.535C364.7 229.246 364.687 231.667 364.674 233.77C364.806 235.913 363.854 237.659 362.769 238.611C361.685 239.603 360.573 239.934 359.859 240.053C359.158 240.185 358.775 240.132 358.775 240.132Z" fill="#455A64"/>
<path d="M282.398 206.402H239.436V209.63H282.398V206.402Z" fill="#455A64"/>
<path d="M314.7 224.603H239.436V227.831H314.7V224.603Z" fill="#455A64"/>
<path d="M348.51 215.291H239.436V218.519H348.51V215.291Z" fill="#455A64"/>
<path d="M359.702 182.183L195.602 181.707C192.731 181.693 190.403 179.365 190.417 176.495L190.522 141.323C190.536 138.453 192.864 136.125 195.734 136.138L359.834 136.614C362.705 136.627 365.033 138.955 365.02 141.826L364.914 176.998C364.914 179.868 362.586 182.183 359.702 182.183Z" fill="#E8505B"/>
<path d="M282.818 148.237L239.855 148.114L239.846 151.342L282.809 151.465L282.818 148.237Z" fill="#FAFAFA"/>
<path d="M315.066 166.537L239.802 166.322L239.793 169.55L315.057 169.765L315.066 166.537Z" fill="#FAFAFA"/>
<path d="M348.9 157.3L239.826 156.988L239.817 160.215L348.891 160.528L348.9 157.3Z" fill="#FAFAFA"/>
<path d="M218.312 160.304C220.283 159.431 221.645 157.355 221.606 154.934C221.553 151.773 219.106 149.246 216.13 149.299C213.167 149.352 210.799 151.958 210.865 155.119C210.905 157.553 212.373 159.603 214.397 160.397C209.886 161.177 208.034 164.207 207.254 166.799C209.185 168.889 211.831 170.304 214.794 170.662L218.1 170.609C221.103 170.146 223.722 168.611 225.574 166.402C224.727 163.823 222.783 160.886 218.312 160.304Z" fill="#FAFAFA"/>
<path d="M216.516 170.754C216.503 170.675 217.6 170.701 219.452 170.185C221.264 169.669 223.923 168.373 225.921 165.582C226.899 164.193 227.72 162.474 228.011 160.49C228.302 158.532 228.183 156.323 227.336 154.246C226.939 153.201 226.37 152.196 225.643 151.283C224.942 150.357 224.069 149.511 223.063 148.836C221.093 147.421 218.566 146.654 216 146.68C213.421 146.759 210.947 147.632 209.029 149.14C208.05 149.868 207.217 150.741 206.556 151.707C205.881 152.659 205.339 153.677 204.995 154.749C204.241 156.865 204.214 159.061 204.585 161.019C204.968 162.976 205.854 164.669 206.899 166.005C209.016 168.704 211.727 169.881 213.566 170.318C215.431 170.754 216.529 170.662 216.516 170.754C216.516 170.754 215.431 170.939 213.5 170.569C211.608 170.199 208.778 169.061 206.516 166.296C205.405 164.921 204.452 163.162 204.029 161.111C203.619 159.074 203.619 156.759 204.399 154.524C204.757 153.4 205.312 152.315 206.026 151.31C206.727 150.291 207.6 149.365 208.632 148.598C210.643 147.011 213.275 146.072 216 145.992C218.725 145.953 221.384 146.773 223.473 148.281C224.532 149.008 225.444 149.894 226.185 150.886C226.939 151.865 227.548 152.923 227.944 154.035C228.817 156.23 228.923 158.545 228.593 160.595C228.249 162.659 227.376 164.458 226.331 165.873C224.188 168.744 221.41 169.987 219.545 170.45C217.614 170.886 216.516 170.754 216.516 170.754Z" fill="#FAFAFA"/>
<path d="M266.991 384.894C266.991 386.336 265.616 387.5 263.949 387.487C262.269 387.474 260.92 386.31 260.92 384.868C260.92 383.426 262.296 382.262 263.962 382.275C265.642 382.275 267.005 383.452 266.991 384.894Z" fill="#455A64"/>
<path d="M276.408 384.934C276.408 386.376 275.032 387.54 273.366 387.527C271.686 387.513 270.336 386.349 270.336 384.908C270.336 383.466 271.712 382.302 273.379 382.315C275.059 382.315 276.408 383.492 276.408 384.934Z" fill="#455A64"/>
<path d="M285.827 384.974C285.827 386.415 284.452 387.579 282.785 387.566C281.105 387.553 279.756 386.389 279.756 384.947C279.756 383.505 281.132 382.341 282.798 382.355C284.478 382.355 285.827 383.532 285.827 384.974Z" fill="#455A64"/>
<path d="M214.977 288.095C215.559 288.162 215.877 288.175 215.863 288.228C215.863 288.175 216.154 288.175 216.697 288.109L214.977 288.095Z" fill="#455A64"/>
<path d="M225.386 268.968C224.698 268.029 223.852 267.169 222.86 266.468C220.915 265.013 218.428 264.193 215.862 264.167C213.296 264.193 210.809 265.013 208.865 266.468C207.886 267.169 207.026 268.029 206.339 268.968C205.637 269.894 205.082 270.913 204.712 271.958C203.905 274.048 203.839 276.244 204.169 278.201C204.5 280.159 205.36 281.878 206.365 283.228C206.51 283.426 206.669 283.585 206.815 283.77C207.688 281.27 209.632 278.479 213.984 277.818C211.973 276.984 210.545 274.908 210.558 272.474C210.571 269.312 212.992 266.759 215.955 266.773C218.918 266.786 221.312 269.365 221.299 272.527C221.286 274.947 219.87 276.998 217.886 277.831C222.159 278.479 224.063 281.244 224.923 283.757C225.069 283.585 225.214 283.426 225.36 283.241C226.365 281.878 227.212 280.172 227.555 278.214C227.886 276.27 227.807 274.061 227.013 271.984C226.63 270.913 226.074 269.908 225.386 268.968Z" fill="#FAFAFA"/>
<path d="M227.676 271.72C227.292 270.595 226.71 269.524 225.983 268.532C225.255 267.527 224.356 266.614 223.324 265.86C221.274 264.299 218.615 263.426 215.877 263.4C213.139 263.426 210.493 264.299 208.43 265.86C207.385 266.614 206.485 267.527 205.771 268.532C205.03 269.524 204.448 270.609 204.078 271.72C203.244 273.942 203.205 276.27 203.575 278.32C203.959 280.384 204.885 282.169 205.956 283.558C208.165 286.389 210.969 287.566 212.861 287.976C213.813 288.188 214.58 288.254 215.096 288.254C215.612 288.254 215.877 288.241 215.877 288.214C215.877 288.162 215.559 288.161 214.99 288.082L216.71 288.095C216.168 288.162 215.877 288.175 215.877 288.214C215.877 288.241 216.141 288.254 216.657 288.254C217.173 288.267 217.94 288.201 218.893 287.976C220.784 287.566 223.588 286.376 225.797 283.558C226.882 282.156 227.795 280.384 228.178 278.32C228.549 276.27 228.496 273.942 227.676 271.72ZM227.557 278.201C227.226 280.172 226.366 281.878 225.361 283.228C225.215 283.413 225.07 283.572 224.924 283.744C224.065 281.23 222.16 278.466 217.887 277.818C219.871 276.984 221.287 274.934 221.3 272.513C221.313 269.352 218.919 266.773 215.956 266.759C212.993 266.746 210.572 269.299 210.559 272.46C210.546 274.894 211.975 276.971 213.985 277.804C209.633 278.466 207.702 281.244 206.816 283.757C206.67 283.585 206.512 283.413 206.366 283.214C205.361 281.852 204.514 280.146 204.17 278.188C203.84 276.23 203.919 274.035 204.713 271.945C205.083 270.9 205.639 269.881 206.34 268.955C207.028 268.016 207.874 267.156 208.866 266.455C210.811 265 213.297 264.18 215.863 264.154C218.43 264.18 220.916 265 222.861 266.455C223.84 267.156 224.699 268.016 225.387 268.955C226.088 269.881 226.644 270.9 227.014 271.945C227.808 274.061 227.874 276.257 227.557 278.201Z" fill="#455A64"/>
<path d="M358.775 299.246C358.775 299.22 359.158 299.246 359.872 299.101C360.573 298.955 361.658 298.598 362.69 297.619C363.722 296.667 364.621 294.987 364.476 292.897C364.462 290.794 364.449 288.386 364.436 285.662C364.423 280.212 364.396 273.558 364.37 265.833C364.37 263.902 364.357 261.905 364.357 259.841C364.476 257.831 363.431 255.754 361.592 254.696C359.767 253.545 357.399 254.048 355.097 253.942C352.782 253.942 350.401 253.955 347.981 253.955C309.039 253.982 255.283 254.021 195.904 254.074C194.158 254.074 192.465 254.947 191.473 256.363C190.957 257.064 190.653 257.884 190.534 258.73C190.428 259.55 190.494 260.529 190.468 261.429C190.468 265.093 190.468 268.744 190.468 272.355C190.468 279.577 190.468 286.706 190.481 293.691C190.534 295.331 191.394 296.905 192.73 297.844C193.378 298.32 194.145 298.651 194.939 298.783C195.719 298.929 196.592 298.863 197.452 298.876C200.891 298.876 204.29 298.876 207.663 298.876C214.396 298.876 220.997 298.889 227.425 298.889C253.153 298.915 276.327 298.942 295.798 298.968C315.243 299.021 330.984 299.061 341.896 299.087C347.319 299.114 351.539 299.14 354.423 299.154C355.838 299.167 356.923 299.18 357.677 299.193C358.404 299.22 358.775 299.246 358.775 299.246C358.775 299.246 358.404 299.273 357.663 299.286C356.909 299.299 355.825 299.312 354.409 299.326C351.526 299.339 347.306 299.365 341.883 299.392C330.97 299.418 315.243 299.458 295.785 299.511C276.314 299.537 253.153 299.564 227.412 299.59C220.984 299.59 214.383 299.603 207.65 299.603C204.277 299.603 200.878 299.603 197.439 299.603C196.579 299.59 195.719 299.656 194.793 299.497C193.88 299.339 193.021 298.968 192.267 298.426C190.759 297.355 189.78 295.569 189.714 293.704C189.714 286.693 189.701 279.564 189.701 272.328C189.701 268.717 189.701 265.066 189.701 261.402C189.727 260.476 189.648 259.603 189.767 258.598C189.912 257.632 190.256 256.68 190.838 255.886C191.962 254.273 193.92 253.267 195.891 253.267C255.269 253.307 309.026 253.347 347.968 253.386C350.401 253.386 352.769 253.4 355.084 253.4C356.235 253.4 357.386 253.4 358.51 253.413C359.661 253.373 360.851 253.664 361.817 254.259C363.814 255.41 364.939 257.699 364.793 259.815C364.793 261.878 364.78 263.876 364.78 265.807C364.753 273.532 364.727 280.185 364.714 285.635C364.7 288.347 364.687 290.767 364.674 292.871C364.806 295.013 363.854 296.759 362.769 297.712C361.685 298.704 360.573 299.035 359.859 299.154C359.158 299.299 358.775 299.246 358.775 299.246Z" fill="#455A64"/>
<path d="M282.398 265.516H239.436V268.744H282.398V265.516Z" fill="#455A64"/>
<path d="M314.7 283.717H239.436V286.945H314.7V283.717Z" fill="#455A64"/>
<path d="M348.51 274.392H239.436V277.619H348.51V274.392Z" fill="#455A64"/>
<path d="M214.977 346.032C215.559 346.098 215.877 346.111 215.863 346.164C215.863 346.111 216.154 346.111 216.697 346.045L214.977 346.032Z" fill="#455A64"/>
<path d="M225.386 326.905C224.698 325.966 223.852 325.106 222.86 324.405C220.915 322.95 218.428 322.13 215.862 322.103C213.296 322.13 210.809 322.95 208.865 324.405C207.886 325.106 207.026 325.966 206.339 326.905C205.637 327.831 205.082 328.849 204.712 329.894C203.905 331.984 203.839 334.18 204.169 336.138C204.5 338.109 205.36 339.815 206.365 341.164C206.51 341.363 206.669 341.521 206.815 341.706C207.688 339.206 209.632 336.415 213.984 335.754C211.973 334.921 210.545 332.844 210.558 330.41C210.571 327.249 212.992 324.696 215.955 324.709C218.918 324.722 221.312 327.302 221.299 330.463C221.286 332.884 219.87 334.934 217.886 335.767C222.159 336.415 224.063 339.18 224.923 341.693C225.069 341.521 225.214 341.363 225.36 341.177C226.365 339.815 227.212 338.109 227.555 336.151C227.886 334.206 227.807 331.997 227.013 329.921C226.63 328.849 226.074 327.831 225.386 326.905Z" fill="#FAFAFA"/>
<path d="M227.676 329.656C227.292 328.545 226.71 327.46 225.983 326.468C225.255 325.463 224.356 324.55 223.324 323.796C221.274 322.236 218.615 321.363 215.877 321.336C213.139 321.363 210.493 322.236 208.43 323.796C207.385 324.55 206.485 325.463 205.771 326.468C205.03 327.46 204.448 328.545 204.078 329.656C203.244 331.878 203.205 334.207 203.575 336.257C203.959 338.32 204.885 340.106 205.956 341.495C208.165 344.326 210.969 345.503 212.861 345.913C213.813 346.125 214.58 346.191 215.096 346.191C215.612 346.191 215.877 346.177 215.877 346.151C215.877 346.098 215.559 346.098 214.99 346.019L216.71 346.032C216.168 346.098 215.877 346.111 215.877 346.151C215.877 346.177 216.141 346.191 216.657 346.191C217.173 346.204 217.94 346.138 218.893 345.913C220.784 345.503 223.588 344.312 225.797 341.495C226.882 340.093 227.795 338.32 228.178 336.257C228.549 334.207 228.496 331.878 227.676 329.656ZM227.557 336.138C227.226 338.095 226.366 339.815 225.361 341.164C225.215 341.349 225.07 341.508 224.924 341.68C224.065 339.167 222.16 336.402 217.887 335.754C219.871 334.921 221.287 332.871 221.3 330.45C221.313 327.289 218.919 324.709 215.956 324.696C212.993 324.683 210.572 327.236 210.559 330.397C210.546 332.831 211.975 334.908 213.985 335.741C209.633 336.402 207.702 339.18 206.816 341.693C206.67 341.521 206.512 341.349 206.366 341.151C205.361 339.789 204.514 338.082 204.17 336.125C203.84 334.18 203.919 331.971 204.713 329.881C205.083 328.836 205.639 327.818 206.34 326.892C207.028 325.953 207.874 325.093 208.866 324.392C210.811 322.937 213.297 322.117 215.863 322.09C218.43 322.117 220.916 322.937 222.861 324.392C223.84 325.093 224.699 325.953 225.387 326.892C226.088 327.818 226.644 328.836 227.014 329.881C227.808 331.984 227.874 334.18 227.557 336.138Z" fill="#455A64"/>
<path d="M358.775 357.169C358.775 357.143 359.158 357.169 359.872 357.024C360.573 356.878 361.658 356.521 362.69 355.542C363.722 354.59 364.621 352.91 364.476 350.82C364.462 348.717 364.449 346.31 364.436 343.585C364.423 338.135 364.396 331.482 364.37 323.757C364.37 321.826 364.357 319.828 364.357 317.765C364.476 315.754 363.431 313.677 361.592 312.619C359.767 311.468 357.399 311.971 355.097 311.865C352.782 311.865 350.401 311.878 347.981 311.878C309.039 311.905 255.283 311.945 195.904 311.998C194.158 311.998 192.465 312.871 191.473 314.286C190.957 314.987 190.653 315.807 190.534 316.654C190.428 317.474 190.494 318.453 190.468 319.352C190.468 323.016 190.468 326.667 190.468 330.278C190.468 337.5 190.468 344.63 190.481 351.614C190.534 353.254 191.394 354.828 192.73 355.767C193.378 356.244 194.145 356.574 194.939 356.706C195.719 356.852 196.592 356.786 197.452 356.799C200.891 356.799 204.29 356.799 207.663 356.799C214.396 356.799 220.997 356.812 227.425 356.812C253.153 356.839 276.327 356.865 295.798 356.892C315.243 356.945 330.984 356.984 341.896 357.011C347.319 357.037 351.539 357.064 354.423 357.077C355.838 357.09 356.923 357.103 357.677 357.117C358.404 357.143 358.775 357.169 358.775 357.169C358.775 357.169 358.404 357.196 357.663 357.209C356.909 357.222 355.825 357.236 354.409 357.249C351.526 357.262 347.306 357.288 341.883 357.315C330.97 357.341 315.243 357.381 295.785 357.434C276.314 357.46 253.153 357.487 227.412 357.513C220.984 357.513 214.383 357.527 207.65 357.527C204.277 357.527 200.878 357.527 197.439 357.527C196.579 357.513 195.719 357.58 194.793 357.421C193.88 357.262 193.021 356.892 192.267 356.349C190.759 355.278 189.78 353.492 189.714 351.627C189.714 344.617 189.701 337.487 189.701 330.251C189.701 326.64 189.701 322.99 189.701 319.326C189.727 318.4 189.648 317.527 189.767 316.521C189.912 315.556 190.256 314.603 190.838 313.81C191.962 312.196 193.92 311.191 195.891 311.191C255.269 311.23 309.026 311.27 347.968 311.31C350.401 311.31 352.769 311.323 355.084 311.323C356.235 311.323 357.386 311.323 358.51 311.336C359.661 311.296 360.851 311.587 361.817 312.183C363.814 313.333 364.939 315.622 364.793 317.751C364.793 319.815 364.78 321.812 364.78 323.744C364.753 331.468 364.727 338.122 364.714 343.572C364.7 346.283 364.687 348.704 364.674 350.807C364.806 352.95 363.854 354.696 362.769 355.648C361.685 356.64 360.573 356.971 359.859 357.09C359.158 357.222 358.775 357.169 358.775 357.169Z" fill="#455A64"/>
<path d="M282.398 323.453H239.436V326.68H282.398V323.453Z" fill="#455A64"/>
<path d="M314.7 341.654H239.436V344.881H314.7V341.654Z" fill="#455A64"/>
<path d="M348.51 332.328H239.436V335.556H348.51V332.328Z" fill="#455A64"/>
<path d="M359.292 148.704C364.158 148.704 368.102 144.76 368.102 139.894C368.102 135.029 364.158 131.085 359.292 131.085C354.427 131.085 350.483 135.029 350.483 139.894C350.483 144.76 354.427 148.704 359.292 148.704Z" fill="#263238"/>
<path d="M354.98 139.18L358.67 142.434L363.604 137.341" stroke="#FAFAFA" stroke-miterlimit="10" stroke-linecap="round" stroke-linejoin="round"/>
<path d="M55.8256 513.492L53.6562 526.019L72.9684 527.434L73.0346 515.119L55.8256 513.492Z" fill="url(#paint0_linear_607_3254)"/>
<path d="M64.5152 513.664C64.6739 513.677 64.5152 516.243 64.1713 519.391C63.8274 522.54 63.4041 525.066 63.2454 525.053C63.0866 525.04 63.2454 522.474 63.5893 519.325C63.9464 516.177 64.3565 513.638 64.5152 513.664Z" fill="url(#paint1_linear_607_3254)"/>
<path d="M72.9698 526.071C72.9565 526.151 71.8851 526.045 70.1787 525.86C68.2475 525.648 65.9856 525.397 63.4724 525.119C60.8533 524.815 58.4724 524.497 56.7661 524.206C55.0597 523.915 54.0147 523.664 54.028 523.585C54.0412 523.505 55.1126 523.611 56.819 523.796C58.7502 524.008 61.0121 524.259 63.5385 524.537C66.1576 524.841 68.5253 525.159 70.2449 525.45C71.938 525.754 72.983 526.005 72.9698 526.071Z" fill="url(#paint2_linear_607_3254)"/>
<path d="M125.526 520.331L125.565 509.1L104.52 508.902L104.295 525.331L105.605 525.423C111.412 525.807 135.142 526.931 139.031 525.794C143.369 524.524 125.526 520.331 125.526 520.331Z" fill="url(#paint3_linear_607_3254)"/>
<g opacity="0.38">
<g opacity="0.38">
<path opacity="0.38" d="M111.923 525.238C111.645 523.479 110.68 521.839 109.278 520.727C107.876 519.616 106.156 519.021 104.37 519.153L104.304 525.04L111.923 525.238Z" fill="url(#paint4_linear_607_3254)"/>
</g>
</g>
<g opacity="0.38">
<g opacity="0.38">
<path opacity="0.38" d="M134.237 522.685C134.237 522.685 140.48 524.55 139.7 525.582C138.906 526.6 114.885 526.362 104.303 525.331L104.342 524.854L132.358 525.37C132.345 525.37 133.006 522.725 134.237 522.685Z" fill="url(#paint5_linear_607_3254)"/>
</g>
</g>
<path d="M104.002 524.841C104.002 524.855 104.121 524.868 104.359 524.881C104.677 524.908 105.007 524.921 105.391 524.96C106.436 525.013 107.706 525.08 109.214 525.159C112.441 525.304 116.912 525.45 121.833 525.503C126.767 525.556 131.237 525.503 134.465 525.423C135.973 525.37 137.256 525.331 138.288 525.304C138.671 525.291 139.015 525.265 139.333 525.251C139.571 525.238 139.69 525.225 139.69 525.212C139.69 525.199 139.571 525.199 139.333 525.199C139.015 525.199 138.684 525.199 138.288 525.199C137.243 525.212 135.973 525.225 134.465 525.238C131.237 525.265 126.766 525.291 121.846 525.238C116.912 525.185 112.454 525.066 109.227 524.96C107.719 524.908 106.436 524.868 105.404 524.841C105.02 524.828 104.677 524.828 104.359 524.815C104.121 524.828 104.002 524.828 104.002 524.841Z" fill="url(#paint6_linear_607_3254)"/>
<path d="M132.335 525.701C132.415 525.714 132.481 524.801 133.063 523.889C133.631 522.963 134.425 522.5 134.385 522.434C134.372 522.368 133.46 522.751 132.851 523.743C132.229 524.735 132.269 525.714 132.335 525.701Z" fill="url(#paint7_linear_607_3254)"/>
<path d="M126.154 522.487C126.206 522.526 126.511 522.169 126.828 521.68C127.146 521.204 127.344 520.78 127.291 520.741C127.238 520.701 126.934 521.058 126.617 521.548C126.299 522.037 126.101 522.447 126.154 522.487Z" fill="url(#paint8_linear_607_3254)"/>
<path d="M124.465 521.574C124.517 521.627 124.848 521.402 125.205 521.085C125.576 520.767 125.827 520.463 125.787 520.41C125.734 520.357 125.404 520.582 125.047 520.9C124.676 521.217 124.425 521.521 124.465 521.574Z" fill="url(#paint9_linear_607_3254)"/>
<path d="M123.406 519.577C123.406 519.643 123.896 519.709 124.504 519.722C125.113 519.735 125.602 519.682 125.602 519.616C125.602 519.55 125.113 519.484 124.504 519.471C123.909 519.458 123.406 519.51 123.406 519.577Z" fill="url(#paint10_linear_607_3254)"/>
<path d="M123.053 518.175C123.027 518.241 123.556 518.479 124.27 518.545C124.984 518.611 125.553 518.452 125.54 518.386C125.527 518.307 124.971 518.347 124.297 518.294C123.622 518.227 123.08 518.108 123.053 518.175Z" fill="url(#paint11_linear_607_3254)"/>
<path d="M126.896 520.661C126.896 520.688 127.412 520.754 128.245 520.661C128.668 520.622 129.158 520.516 129.687 520.357C129.952 520.265 130.229 520.198 130.52 520.026C130.653 519.934 130.811 519.815 130.864 519.616C130.917 519.418 130.811 519.18 130.666 519.074C129.383 518.386 128.073 519.101 127.597 519.762C127.333 520.106 127.2 520.437 127.147 520.661C127.094 520.886 127.094 521.019 127.108 521.032C127.161 521.045 127.2 520.503 127.729 519.881C127.994 519.577 128.391 519.286 128.893 519.14C129.37 519.008 130.057 518.968 130.507 519.272C130.719 519.431 130.639 519.683 130.388 519.828C130.163 519.974 129.872 520.053 129.621 520.145C129.105 520.317 128.629 520.423 128.219 520.489C127.412 520.622 126.896 520.622 126.896 520.661Z" fill="url(#paint12_linear_607_3254)"/>
<path d="M127.243 520.727C127.256 520.741 127.468 520.397 127.415 519.788C127.388 519.484 127.283 519.14 127.058 518.796C126.82 518.492 126.515 518.082 125.933 518.095C125.616 518.135 125.457 518.492 125.51 518.717C125.536 518.955 125.642 519.153 125.735 519.325C125.933 519.669 126.158 519.947 126.37 520.145C126.793 520.569 127.124 520.727 127.137 520.701C127.163 520.675 126.872 520.45 126.502 520.026C126.317 519.815 126.118 519.537 125.947 519.206C125.761 518.915 125.642 518.399 125.986 518.347C126.33 518.32 126.661 518.664 126.872 518.929C127.084 519.22 127.203 519.537 127.243 519.815C127.322 520.37 127.203 520.727 127.243 520.727Z" fill="url(#paint13_linear_607_3254)"/>
<path d="M104.494 519.087C104.494 519.14 105.103 519.034 106.042 519.153C106.981 519.273 108.291 519.669 109.415 520.582C110.539 521.508 111.201 522.698 111.505 523.598C111.823 524.497 111.836 525.106 111.889 525.106C111.902 525.106 111.915 524.947 111.889 524.683C111.875 524.405 111.809 524.021 111.677 523.545C111.412 522.606 110.751 521.349 109.574 520.384C108.397 519.431 107.021 519.034 106.055 518.968C105.566 518.929 105.169 518.955 104.891 518.982C104.627 519.034 104.481 519.074 104.494 519.087Z" fill="url(#paint14_linear_607_3254)"/>
<path d="M106.748 510.357C106.682 510.357 106.576 512.288 106.523 514.682C106.47 517.077 106.484 519.008 106.55 519.008C106.616 519.008 106.722 517.077 106.775 514.682C106.828 512.288 106.814 510.357 106.748 510.357Z" fill="url(#paint15_linear_607_3254)"/>
<path d="M114.583 523.214C114.569 523.28 115.945 523.518 117.651 523.545C119.358 523.585 120.733 523.399 120.733 523.333C120.733 523.254 119.358 523.333 117.665 523.294C115.972 523.254 114.596 523.135 114.583 523.214Z" fill="url(#paint16_linear_607_3254)"/>
<path d="M110.47 523.161C110.417 523.214 110.576 523.452 110.722 523.77C110.867 524.087 110.933 524.365 110.999 524.365C111.066 524.365 111.105 524.034 110.947 523.664C110.788 523.307 110.51 523.108 110.47 523.161Z" fill="url(#paint17_linear_607_3254)"/>
<path d="M108.938 521.217C108.885 521.27 109.017 521.481 109.242 521.706C109.454 521.931 109.679 522.077 109.718 522.024C109.771 521.971 109.639 521.759 109.414 521.534C109.202 521.296 108.978 521.164 108.938 521.217Z" fill="url(#paint18_linear_607_3254)"/>
<path d="M106.717 520.304C106.73 520.37 107.008 520.37 107.312 520.489C107.616 520.595 107.841 520.767 107.894 520.714C107.947 520.674 107.775 520.37 107.391 520.238C107.021 520.119 106.703 520.238 106.717 520.304Z" fill="url(#paint19_linear_607_3254)"/>
<path d="M105.14 519.868C105.113 519.934 105.233 520.04 105.404 520.106C105.576 520.172 105.735 520.172 105.762 520.119C105.788 520.053 105.669 519.947 105.497 519.881C105.325 519.815 105.166 519.802 105.14 519.868Z" fill="url(#paint20_linear_607_3254)"/>
<path d="M93.6146 178.955C93.7733 175.662 94.1172 171.932 94.1172 171.932C94.1172 171.932 102.265 171.032 102.768 162.619C103.257 154.193 102.768 134.789 102.768 134.789L87.9267 127.223L71.604 140.106L74.0775 182.196L89.104 183.148C91.4585 183.307 93.4955 181.429 93.6146 178.955Z" fill="url(#paint21_linear_607_3254)"/>
<path d="M95.0852 155.966C95.1117 155.966 95.1117 156.125 94.9529 156.323C94.8074 156.521 94.4767 156.746 94.0138 156.733C93.0614 156.693 92.1619 155.648 91.818 154.365C91.6461 153.717 91.6461 153.056 91.7783 152.5C91.8841 151.945 92.2016 151.389 92.6646 151.23C92.8894 151.151 93.1143 151.151 93.2863 151.244C93.4582 151.336 93.564 151.469 93.6169 151.588C93.7228 151.839 93.6434 151.984 93.6169 151.984C93.5773 151.984 93.5905 151.839 93.4714 151.68C93.3524 151.521 93.0746 151.376 92.7704 151.535C92.4529 151.68 92.2413 152.077 92.1619 152.593C92.0693 153.096 92.0826 153.678 92.2281 154.26C92.5191 155.397 93.3127 156.336 94.027 156.429C94.3709 156.469 94.6619 156.336 94.8207 156.217C95.0058 156.072 95.0587 155.953 95.0852 155.966Z" fill="#EB996E"/>
<path d="M95.0324 161.164C95.1382 160.86 95.2176 160.529 95.297 160.212C95.3631 159.974 95.4292 159.749 95.4954 159.511H95.4822C95.6144 158.823 95.707 158.122 95.7202 157.408C94.2785 157.976 92.5457 157.593 91.4478 156.482C90.3499 155.371 89.9398 153.572 90.4425 152.064C91.0245 150.331 92.6118 149.167 94.252 148.479C95.8922 147.791 97.6515 147.447 99.2652 146.68C102.678 145.053 105.046 141.693 106.646 138.162C107.771 135.688 108.617 132.857 107.85 130.238C106.712 126.363 102.599 124.431 98.8419 123.373C93.1277 121.76 86.9372 121.032 81.3684 123.096C75.7864 125.146 69.0801 128.77 69.0801 134.934C65.7864 134.656 63.9081 137.553 62.5986 141.125C61.8314 143.241 61.1436 147.897 61.1436 147.897" fill="url(#paint22_linear_607_3254)"/>
<path d="M73.5624 173.585C73.5624 173.585 60.2819 165.569 61.1153 147.884C61.9618 130.212 95.0174 161.151 95.0174 161.151C95.0174 161.151 88.6814 181.971 74.237 173.572" fill="url(#paint23_linear_607_3254)"/>
<path d="M68.6551 155.966C68.5625 155.887 69.2371 155.265 69.7662 153.982C70.3085 152.738 70.626 150.701 69.8059 148.783C68.9593 146.865 67.2529 145.728 65.9699 145.278C64.6603 144.802 63.7609 144.868 63.7609 144.749C63.7477 144.683 64.6736 144.431 66.1154 144.815C67.5307 145.172 69.4752 146.349 70.4408 148.506C71.3667 150.675 70.917 152.897 70.2159 154.18C69.5016 155.516 68.6947 156.019 68.6551 155.966Z" fill="#E8505B"/>
<path d="M61.8435 145.146C61.8435 145.185 61.5128 145.199 60.9837 144.961C60.4546 144.736 59.7536 144.207 59.2377 143.281C58.7086 142.368 58.497 141.085 58.6689 139.736C58.8409 138.4 59.2377 136.958 60.0314 135.596C60.8118 134.233 62.0287 133.175 63.3118 132.685C64.5948 132.17 65.9573 132.236 66.9097 132.672C67.8753 133.082 68.4705 133.744 68.7615 134.233C69.0525 134.736 69.079 135.053 69.0525 135.066C68.9599 135.146 68.5499 133.797 66.7377 133.122C65.8647 132.791 64.7007 132.778 63.5631 133.267C62.4255 133.744 61.3541 134.683 60.6266 135.939C59.2113 138.466 58.8277 141.363 59.6742 143.043C60.5208 144.802 61.9229 145.053 61.8435 145.146Z" fill="#263238"/>
<path d="M212.042 151.111C211.447 150.503 209.992 150.794 209.992 150.794C209.992 150.794 210.243 149.074 209.979 148.228C209.714 147.394 207.849 147.553 207.849 147.553C207.849 147.553 207.73 146.746 207.902 145.45C207.942 145.119 207.77 144.881 207.466 144.709C206.579 144.18 204.688 144.207 204.688 144.207C203.55 143.387 208.167 136.945 209.873 134.881C211.566 132.844 211.275 131.204 209.754 131.204C208.709 131.204 203.325 137.408 201.685 139.484C200.045 141.561 195.64 147.355 195.481 142.738C195.336 138.122 193.471 134.617 192.32 134.021C191.156 133.426 189.913 134.828 190.548 136.111C191.063 137.143 191.394 139.141 191.579 140.662C191.738 141.905 191.685 143.175 191.407 144.392C190.64 147.857 189.807 150.106 189.423 151.059L189.304 150.992C189.304 150.992 157.069 181.905 154.741 184.114C152.651 186.098 110.759 181.76 102.373 180.873C100.085 180.622 96.6852 180.159 93.7355 180.291C90.0979 180.45 89.4498 180.966 85.799 181.019C74.6482 181.164 66.844 182.011 59.926 183.175C51.5662 184.59 46.9498 191.138 44.3704 199.22C35.9048 225.648 12.9816 287.884 9.56888 323.043C6.88369 328.095 3.86782 334.008 2.65089 337.328C0.283163 343.783 0.851946 344.008 1.65882 344.154C3.80168 344.55 6.262 332.95 7.18792 335.741C8.10062 338.545 2.53184 349.59 4.79375 349.908C7.74348 350.331 10.0847 338.135 10.3625 337.117C10.6271 336.125 12.1218 336.455 11.8175 337.368C11.3943 338.664 7.22761 352.447 10.1244 352.884C11.725 353.135 11.8969 350.212 11.8969 350.212C11.8969 350.212 14.8334 337.037 16.1958 337.289C17.5715 337.553 16.1165 345.344 15.4287 347.937C14.7541 350.503 15.7064 351.865 17.0821 351.217C18.0213 350.781 20.2964 342.884 20.9048 340.304C21.5133 337.725 23.0742 330.622 25.1509 334.749C27.2408 338.876 30.389 341.257 31.6985 341.31C33.008 341.363 33.5503 339.564 32.426 338.677C31.5133 337.95 30.3757 336.283 29.5689 334.987C28.9075 333.929 28.4181 332.752 28.1535 331.535C27.1218 326.812 27.1218 324.061 27.1218 324.061L26.8837 322.54C30.1906 306.151 41.4075 250.331 55.0979 219.63L59.053 238.995L61.5001 247.58L46.4868 284.696L110.601 283.849L101.037 247.011L112.651 208.598C125.217 208.876 157.505 209.352 162.929 206.918C169.688 203.902 204.688 159.775 204.688 159.775C207.056 157.897 209.45 155.86 211.235 154.101C211.235 154.114 213.325 152.434 212.042 151.111Z" fill="url(#paint24_linear_607_3254)"/>
<path d="M43.6982 257.368C45.55 251.019 55.1135 219.617 55.1135 219.617C55.1135 219.617 59.8093 245.212 58.5659 248.294C57.1506 251.852 54.5315 255.913 54.5315 255.913C43.685 272.421 45.1135 280.675 45.1135 280.675L110.603 278.677C110.762 269.524 105.338 248.228 104.214 244.828C103.076 241.442 106.846 230.304 106.846 230.304C106.846 230.304 114.24 222.791 113.963 218.916C113.381 211.125 112.666 208.611 112.666 208.611L161.172 209.537L155.748 183.162L108.976 179.749L93.4204 178.294C85.6029 184.894 73.8569 178.294 73.8569 178.294C58.9363 179.749 56.7537 182.143 50.6294 188.254C43.3675 195.516 23.7114 250.979 23.7114 250.979L43.6982 257.368Z" fill="url(#paint25_linear_607_3254)"/>
<path d="M82.4297 250.979C82.4297 251.085 81.107 251.164 78.9773 251.151C76.8477 251.138 73.898 251.005 70.6572 250.675C67.4165 250.344 64.5064 249.894 62.4165 249.484C60.3266 249.074 59.0567 248.73 59.0699 248.625C59.0964 248.519 60.3927 248.677 62.5091 248.942C64.6123 249.22 67.5223 249.59 70.7366 249.908C73.9509 250.225 76.8742 250.45 78.9906 250.595C81.107 250.767 82.4297 250.86 82.4297 250.979Z" fill="url(#paint26_linear_607_3254)"/>
<path d="M86.8988 245.41C86.9253 245.503 85.5761 246.019 83.3274 246.627C81.0787 247.236 77.9173 247.91 74.3724 248.334C70.8274 248.757 67.5999 248.836 65.2718 248.77C62.9438 248.704 61.502 248.519 61.5152 248.426C61.5152 248.307 62.957 248.307 65.2718 248.228C67.5866 248.162 70.7745 247.99 74.293 247.566C77.7983 247.143 80.9464 246.561 83.2083 246.098C85.4702 245.622 86.8724 245.291 86.8988 245.41Z" fill="url(#paint27_linear_607_3254)"/>
<path d="M108.939 220.569C109.045 220.595 108.873 221.865 108.489 223.915C108.106 225.952 107.51 228.77 106.757 231.839C106.003 234.921 105.235 237.685 104.627 239.669C104.018 241.653 103.582 242.87 103.476 242.844C103.37 242.817 103.622 241.561 104.098 239.537C104.653 237.235 105.302 234.59 106.003 231.667C106.73 228.743 107.378 226.111 107.947 223.81C108.476 221.773 108.833 220.542 108.939 220.569Z" fill="url(#paint28_linear_607_3254)"/>
<path d="M44.6738 281.125L110.163 279.127L138.642 390.397L133.391 518.029H98.7346L103.034 393.109L77.7029 315.648L81.5521 519.339L46.5521 519.855L42.9278 328.611C42.769 323.201 40.9966 310.979 41.6579 305.595L44.6738 281.125Z" fill="url(#paint29_linear_607_3254)"/>
<path d="M86.4256 317.222C86.4124 317.328 85.1822 317.262 83.2113 317.037C81.2404 316.799 78.5288 316.389 75.5658 315.794C72.6029 315.199 69.9309 314.524 68.0262 313.982C66.1214 313.439 64.9574 313.016 64.9838 312.91C65.0367 312.699 69.7987 313.849 75.7113 315.04C81.624 316.23 86.4521 316.998 86.4256 317.222Z" fill="url(#paint30_linear_607_3254)"/>
<path d="M133.074 511.032C133.074 511.243 125.23 511.415 115.547 511.415C105.865 511.415 98.9731 511.124 98.9731 510.9C98.9731 510.688 105.865 510.635 115.547 510.635C125.23 510.648 133.074 510.82 133.074 511.032Z" fill="url(#paint31_linear_607_3254)"/>
<path d="M81.0513 511.415C81.0513 511.627 73.4323 511.799 64.054 511.799C54.6624 511.799 47.0566 511.627 47.0566 511.415C47.0566 511.204 54.6624 511.032 64.054 511.032C73.4323 511.032 81.0513 511.204 81.0513 511.415Z" fill="url(#paint32_linear_607_3254)"/>
<path d="M76.7798 511.415C76.5682 511.415 75.6423 467.381 74.7296 413.069C73.8037 358.73 73.2349 314.696 73.4465 314.696C73.6581 314.696 74.5841 358.717 75.4968 413.056C76.4095 467.368 76.9915 511.402 76.7798 511.415Z" fill="url(#paint33_linear_607_3254)"/>
<path d="M128.417 511.032C128.403 511.032 128.403 510.833 128.403 510.423C128.417 509.987 128.417 509.405 128.43 508.651C128.47 507.05 128.536 504.775 128.628 501.852C128.84 495.913 129.131 487.368 129.501 476.852C130.308 455.701 131.419 426.561 132.649 394.365C132.663 394.074 132.676 393.77 132.689 393.492L132.702 393.598C124.938 362.513 117.927 334.431 112.835 314.061C110.335 303.916 108.311 295.701 106.909 289.974C106.234 287.156 105.705 284.961 105.335 283.413C105.176 282.685 105.044 282.13 104.951 281.707C104.872 281.323 104.832 281.125 104.845 281.125C104.859 281.125 104.925 281.31 105.03 281.693C105.15 282.103 105.295 282.672 105.493 283.387C105.89 284.921 106.472 287.103 107.2 289.908C108.668 295.622 110.771 303.823 113.364 313.942C118.509 334.299 125.599 362.368 133.443 393.426L133.456 393.479V393.532C133.443 393.81 133.43 394.101 133.417 394.405C132.094 426.601 130.903 455.741 130.03 476.878C129.567 487.408 129.184 495.926 128.919 501.878C128.774 504.802 128.655 507.077 128.575 508.677C128.536 509.418 128.496 510.013 128.47 510.45C128.456 510.82 128.43 511.032 128.417 511.032Z" fill="url(#paint34_linear_607_3254)"/>
<path d="M117.124 390.9C117.164 391.111 113.725 391.865 109.466 392.606C106.278 393.148 103.527 393.532 102.336 393.598V393.294C102.733 393.4 102.945 393.492 102.945 393.545C102.931 393.598 102.707 393.611 102.296 393.598L101.397 393.558L102.296 393.294C103.447 392.95 106.172 392.394 109.347 391.852C113.606 391.111 117.098 390.688 117.124 390.9Z" fill="url(#paint35_linear_607_3254)"/>
<path d="M116.462 395.146C116.435 395.357 113.353 395.119 109.57 394.828C105.787 394.524 102.705 394.286 102.705 394.074C102.705 393.863 105.814 393.77 109.623 394.061C113.446 394.352 116.488 394.934 116.462 395.146Z" fill="url(#paint36_linear_607_3254)"/>
<path d="M44.3828 283.466C45.9701 285.688 48.2188 286.482 50.8511 286.905C53.4701 287.328 56.1553 287.05 58.7876 286.759C75.6923 284.881 93.6024 283.148 110.163 279.127C88.7346 280.331 66.1024 279.921 44.6738 281.125C44.6738 281.125 44.4886 282.593 44.449 282.95" fill="url(#paint37_linear_607_3254)"/>
<path d="M66.4731 313.677L78.5366 360.543L77.6901 315.648L66.4731 313.677Z" fill="url(#paint38_linear_607_3254)"/>
<path d="M64.0429 145.688C59.3868 144.458 54.5323 149.405 54.3603 154.22C54.3074 155.596 54.5058 157.183 53.5402 158.148C52.5085 159.18 50.8021 158.876 49.3471 158.995C46.3577 159.233 43.7122 161.812 43.4344 164.802C43.2228 166.945 44.0826 169.246 43.1831 171.204C42.3365 173.069 40.2069 173.955 38.7651 175.41C36.9133 177.289 36.2651 180.093 36.4503 182.725C36.6355 185.357 37.5746 187.871 38.5006 190.344C39.3471 192.606 40.4582 195.119 42.7334 195.926H62.2968L63.7651 188.545L66.1593 195.926H69.3471L67.6408 147.99C67.6143 148.003 67.6011 146.627 64.0429 145.688Z" fill="url(#paint39_linear_607_3254)"/>
<path d="M37.2829 168.572C37.2829 168.611 37.0713 168.519 36.7538 168.677C36.4496 168.823 36.066 169.312 36.2909 169.947C36.476 170.569 37.1374 171.217 38.0633 171.389C38.976 171.601 40.1401 171.125 40.5898 170.027C40.8279 169.498 40.8676 168.876 40.6295 168.294C40.4178 167.699 39.9945 167.143 39.558 166.521C38.6189 165.318 38.0898 163.585 38.3411 161.839C38.5527 160.106 39.6242 158.347 41.3041 157.408C42.9443 156.442 45.1533 156.23 47.0051 157.077C48.8173 157.857 50.3782 159.008 52.0977 158.783C52.9178 158.704 53.685 158.307 54.0157 157.633C54.3596 156.958 54.3067 156.111 54.2803 155.278C54.1215 151.852 55.4443 148.77 57.3755 147.011C59.3067 145.225 61.5422 144.802 62.9443 144.868C63.6586 144.894 64.2141 145.04 64.5713 145.146C64.9284 145.278 65.1004 145.357 65.1004 145.384C65.0871 145.45 64.3464 145.133 62.9575 145.146C61.6083 145.172 59.5051 145.648 57.7194 147.381C55.9602 149.074 54.7565 152.011 54.9284 155.278C54.9549 156.098 55.0607 157.037 54.6109 157.95C54.1612 158.876 53.1295 159.392 52.1771 159.484C51.2115 159.59 50.193 159.379 49.3199 158.968C48.4337 158.585 47.6136 158.095 46.7538 157.738C45.0739 156.971 43.1427 157.17 41.648 158.016C40.1268 158.849 39.1877 160.384 38.976 161.958C38.7379 163.545 39.1744 165.066 40.0342 166.217C40.4443 166.826 40.894 167.421 41.1321 168.135C41.3834 168.836 41.3305 169.643 41.0263 170.252C40.7353 170.873 40.2459 171.363 39.6771 171.614C39.1083 171.879 38.4999 171.892 37.984 171.786C36.9258 171.561 36.2115 170.781 36.0395 170.04C35.8279 169.26 36.3438 168.677 36.7141 168.572C37.0977 168.426 37.2961 168.572 37.2829 168.572Z" fill="url(#paint40_linear_607_3254)"/>
<path d="M113.077 208.162C113.077 208.201 112.535 208.228 111.569 208.135C110.604 208.043 109.202 207.712 107.614 206.984C106.027 206.257 104.268 205.053 102.72 203.307C101.172 201.574 99.9026 199.246 99.3867 196.588C98.9238 193.916 99.2941 191.297 100.127 189.127C100.961 186.945 102.178 185.199 103.408 183.955C104.638 182.712 105.829 181.905 106.702 181.482C107.575 181.045 108.09 180.886 108.104 180.926C108.196 181.072 106.08 181.773 103.765 184.299C102.614 185.543 101.49 187.249 100.723 189.352C99.9555 191.442 99.6248 193.942 100.061 196.468C100.551 198.982 101.741 201.204 103.196 202.897C104.651 204.59 106.318 205.794 107.826 206.548C110.881 208.069 113.117 207.99 113.077 208.162Z" fill="#263238"/>
<defs>
<linearGradient id="paint0_linear_607_3254" x1="53.656" y1="520.458" x2="73.0373" y2="520.458" gradientUnits="userSpaceOnUse">
<stop stop-color="#E5908C"/>
<stop offset="1" stop-color="#DF6F63"/>
</linearGradient>
<linearGradient id="paint1_linear_607_3254" x1="63.1832" y1="519.349" x2="64.5755" y2="519.349" gradientUnits="userSpaceOnUse">
<stop stop-color="#E5908C"/>
<stop offset="1" stop-color="#DF6F63"/>
</linearGradient>
<linearGradient id="paint2_linear_607_3254" x1="54.024" y1="524.833" x2="72.9764" y2="524.833" gradientUnits="userSpaceOnUse">
<stop stop-color="#E5908C"/>
<stop offset="1" stop-color="#DF6F63"/>
</linearGradient>
<linearGradient id="paint3_linear_607_3254" x1="104.292" y1="517.589" x2="139.703" y2="517.589" gradientUnits="userSpaceOnUse">
<stop stop-color="#E5908C"/>
<stop offset="1" stop-color="#DF6F63"/>
</linearGradient>
<linearGradient id="paint4_linear_607_3254" x1="104.312" y1="522.181" x2="111.918" y2="522.181" gradientUnits="userSpaceOnUse">
<stop stop-color="#E5908C"/>
<stop offset="1" stop-color="#DF6F63"/>
</linearGradient>
<linearGradient id="paint5_linear_607_3254" x1="104.286" y1="524.46" x2="139.758" y2="524.46" gradientUnits="userSpaceOnUse">
<stop stop-color="#E5908C"/>
<stop offset="1" stop-color="#DF6F63"/>
</linearGradient>
<linearGradient id="paint6_linear_607_3254" x1="103.998" y1="525.18" x2="139.703" y2="525.18" gradientUnits="userSpaceOnUse">
<stop stop-color="#E5908C"/>
<stop offset="1" stop-color="#DF6F63"/>
</linearGradient>
<linearGradient id="paint7_linear_607_3254" x1="132.304" y1="524.066" x2="134.391" y2="524.066" gradientUnits="userSpaceOnUse">
<stop stop-color="#E5908C"/>
<stop offset="1" stop-color="#DF6F63"/>
</linearGradient>
<linearGradient id="paint8_linear_607_3254" x1="126.147" y1="521.621" x2="127.297" y2="521.621" gradientUnits="userSpaceOnUse">
<stop stop-color="#E5908C"/>
<stop offset="1" stop-color="#DF6F63"/>
</linearGradient>
<linearGradient id="paint9_linear_607_3254" x1="124.461" y1="520.99" x2="125.797" y2="520.99" gradientUnits="userSpaceOnUse">
<stop stop-color="#E5908C"/>
<stop offset="1" stop-color="#DF6F63"/>
</linearGradient>
<linearGradient id="paint10_linear_607_3254" x1="123.41" y1="519.6" x2="125.608" y2="519.6" gradientUnits="userSpaceOnUse">
<stop stop-color="#E5908C"/>
<stop offset="1" stop-color="#DF6F63"/>
</linearGradient>
<linearGradient id="paint11_linear_607_3254" x1="123.057" y1="518.354" x2="125.546" y2="518.354" gradientUnits="userSpaceOnUse">
<stop stop-color="#E5908C"/>
<stop offset="1" stop-color="#DF6F63"/>
</linearGradient>
<linearGradient id="paint12_linear_607_3254" x1="126.891" y1="519.915" x2="130.868" y2="519.915" gradientUnits="userSpaceOnUse">
<stop stop-color="#E5908C"/>
<stop offset="1" stop-color="#DF6F63"/>
</linearGradient>
<linearGradient id="paint13_linear_607_3254" x1="125.5" y1="519.419" x2="127.419" y2="519.419" gradientUnits="userSpaceOnUse">
<stop stop-color="#E5908C"/>
<stop offset="1" stop-color="#DF6F63"/>
</linearGradient>
<linearGradient id="paint14_linear_607_3254" x1="104.488" y1="522.034" x2="111.909" y2="522.034" gradientUnits="userSpaceOnUse">
<stop stop-color="#E5908C"/>
<stop offset="1" stop-color="#DF6F63"/>
</linearGradient>
<linearGradient id="paint15_linear_607_3254" x1="106.49" y1="514.676" x2="106.812" y2="514.676" gradientUnits="userSpaceOnUse">
<stop stop-color="#E5908C"/>
<stop offset="1" stop-color="#DF6F63"/>
</linearGradient>
<linearGradient id="paint16_linear_607_3254" x1="114.587" y1="523.367" x2="120.736" y2="523.367" gradientUnits="userSpaceOnUse">
<stop stop-color="#E5908C"/>
<stop offset="1" stop-color="#DF6F63"/>
</linearGradient>
<linearGradient id="paint17_linear_607_3254" x1="110.455" y1="523.757" x2="111.056" y2="523.757" gradientUnits="userSpaceOnUse">
<stop stop-color="#E5908C"/>
<stop offset="1" stop-color="#DF6F63"/>
</linearGradient>
<linearGradient id="paint18_linear_607_3254" x1="108.922" y1="521.614" x2="109.723" y2="521.614" gradientUnits="userSpaceOnUse">
<stop stop-color="#E5908C"/>
<stop offset="1" stop-color="#DF6F63"/>
</linearGradient>
<linearGradient id="paint19_linear_607_3254" x1="106.718" y1="520.458" x2="107.915" y2="520.458" gradientUnits="userSpaceOnUse">
<stop stop-color="#E5908C"/>
<stop offset="1" stop-color="#DF6F63"/>
</linearGradient>
<linearGradient id="paint20_linear_607_3254" x1="105.133" y1="519.997" x2="105.77" y2="519.997" gradientUnits="userSpaceOnUse">
<stop stop-color="#E5908C"/>
<stop offset="1" stop-color="#DF6F63"/>
</linearGradient>
<linearGradient id="paint21_linear_607_3254" x1="71.5951" y1="155.199" x2="102.989" y2="155.199" gradientUnits="userSpaceOnUse">
<stop stop-color="#ECB9B8"/>
<stop offset="1" stop-color="#E5908C"/>
</linearGradient>
<linearGradient id="paint22_linear_607_3254" x1="61.12" y1="141.5" x2="108.128" y2="141.5" gradientUnits="userSpaceOnUse">
<stop stop-color="#0F005C"/>
<stop offset="1" stop-color="#1E168C"/>
</linearGradient>
<linearGradient id="paint23_linear_607_3254" x1="61.0798" y1="159.014" x2="95.0256" y2="159.014" gradientUnits="userSpaceOnUse">
<stop stop-color="#0F005C"/>
<stop offset="1" stop-color="#1E168C"/>
</linearGradient>
<linearGradient id="paint24_linear_607_3254" x1="0.963454" y1="242.053" x2="212.455" y2="242.053" gradientUnits="userSpaceOnUse">
<stop stop-color="#ECB9B8"/>
<stop offset="1" stop-color="#E5908C"/>
</linearGradient>
<linearGradient id="paint25_linear_607_3254" x1="23.6887" y1="229.486" x2="161.16" y2="229.486" gradientUnits="userSpaceOnUse">
<stop stop-color="#E5908C"/>
<stop offset="1" stop-color="#DF6F63"/>
</linearGradient>
<linearGradient id="paint26_linear_607_3254" x1="59.0661" y1="249.873" x2="82.4232" y2="249.873" gradientUnits="userSpaceOnUse">
<stop stop-color="#E5908C"/>
<stop offset="1" stop-color="#DF6F63"/>
</linearGradient>
<linearGradient id="paint27_linear_607_3254" x1="61.5123" y1="247.089" x2="86.9052" y2="247.089" gradientUnits="userSpaceOnUse">
<stop stop-color="#E5908C"/>
<stop offset="1" stop-color="#DF6F63"/>
</linearGradient>
<linearGradient id="paint28_linear_607_3254" x1="103.452" y1="231.698" x2="108.966" y2="231.698" gradientUnits="userSpaceOnUse">
<stop stop-color="#E5908C"/>
<stop offset="1" stop-color="#DF6F63"/>
</linearGradient>
<linearGradient id="paint29_linear_607_3254" x1="41.496" y1="399.49" x2="138.638" y2="399.49" gradientUnits="userSpaceOnUse">
<stop stop-color="#4344DC"/>
<stop offset="1" stop-color="#5153FA"/>
</linearGradient>
<linearGradient id="paint30_linear_607_3254" x1="64.9875" y1="315.079" x2="86.4218" y2="315.079" gradientUnits="userSpaceOnUse">
<stop stop-color="#4344DC"/>
<stop offset="1" stop-color="#5153FA"/>
</linearGradient>
<linearGradient id="paint31_linear_607_3254" x1="98.9765" y1="511.027" x2="133.078" y2="511.027" gradientUnits="userSpaceOnUse">
<stop stop-color="#4344DC"/>
<stop offset="1" stop-color="#5153FA"/>
</linearGradient>
<linearGradient id="paint32_linear_607_3254" x1="47.041" y1="511.412" x2="81.0464" y2="511.412" gradientUnits="userSpaceOnUse">
<stop stop-color="#4344DC"/>
<stop offset="1" stop-color="#5153FA"/>
</linearGradient>
<linearGradient id="paint33_linear_607_3254" x1="73.3925" y1="413.049" x2="76.8224" y2="413.049" gradientUnits="userSpaceOnUse">
<stop stop-color="#4344DC"/>
<stop offset="1" stop-color="#5153FA"/>
</linearGradient>
<linearGradient id="paint34_linear_607_3254" x1="104.842" y1="396.073" x2="133.464" y2="396.073" gradientUnits="userSpaceOnUse">
<stop stop-color="#4344DC"/>
<stop offset="1" stop-color="#5153FA"/>
</linearGradient>
<linearGradient id="paint35_linear_607_3254" x1="101.391" y1="392.22" x2="117.129" y2="392.22" gradientUnits="userSpaceOnUse">
<stop stop-color="#4344DC"/>
<stop offset="1" stop-color="#5153FA"/>
</linearGradient>
<linearGradient id="paint36_linear_607_3254" x1="102.71" y1="394.549" x2="116.465" y2="394.549" gradientUnits="userSpaceOnUse">
<stop stop-color="#4344DC"/>
<stop offset="1" stop-color="#5153FA"/>
</linearGradient>
<linearGradient id="paint37_linear_607_3254" x1="44.3782" y1="283.125" x2="110.156" y2="283.125" gradientUnits="userSpaceOnUse">
<stop stop-color="#4344DC"/>
<stop offset="1" stop-color="#5153FA"/>
</linearGradient>
<linearGradient id="paint38_linear_607_3254" x1="66.4669" y1="337.108" x2="78.5397" y2="337.108" gradientUnits="userSpaceOnUse">
<stop stop-color="#4344DC"/>
<stop offset="1" stop-color="#5153FA"/>
</linearGradient>
<linearGradient id="paint39_linear_607_3254" x1="36.4033" y1="170.712" x2="69.3274" y2="170.712" gradientUnits="userSpaceOnUse">
<stop stop-color="#0F005C"/>
<stop offset="1" stop-color="#1E168C"/>
</linearGradient>
<linearGradient id="paint40_linear_607_3254" x1="35.9825" y1="158.347" x2="65.1141" y2="158.347" gradientUnits="userSpaceOnUse">
<stop stop-color="#0F005C"/>
<stop offset="1" stop-color="#1E168C"/>
</linearGradient>
</defs>
</svg>
