<svg width="45" height="45" viewBox="0 0 45 45" fill="none" xmlns="http://www.w3.org/2000/svg">
<path d="M15.8759 35.4902H14.942C7.47024 35.4902 3.73438 33.6222 3.73438 24.2826V14.9429C3.73438 7.47121 7.47024 3.73535 14.942 3.73535H29.8854C37.3571 3.73535 41.093 7.47121 41.093 14.9429V24.2826C41.093 31.7543 37.3571 35.4902 29.8854 35.4902H28.9514C28.3724 35.4902 27.812 35.7704 27.4571 36.2373L24.6552 39.9732C23.4224 41.617 21.405 41.617 20.1722 39.9732L17.3703 36.2373C17.0714 35.8264 16.3803 35.4902 15.8759 35.4902Z" stroke="#3E82F9" stroke-width="4" stroke-miterlimit="10" stroke-linecap="round" stroke-linejoin="round"/>
<path d="M13.0762 14.9429H31.7555" stroke="#3E82F9" stroke-width="4" stroke-linecap="round" stroke-linejoin="round"/>
<path d="M13.0762 24.2837H24.2838" stroke="#3E82F9" stroke-width="4" stroke-linecap="round" stroke-linejoin="round"/>
</svg>
