<svg width="28" height="28" viewBox="0 0 28 28" fill="none" xmlns="http://www.w3.org/2000/svg">
<path d="M25.9993 23.5819V19.969C26.014 19.3783 25.8106 18.8028 25.4278 18.352C24.3486 17.0808 20.6473 16.2678 19.1801 16.58C18.0365 16.8235 17.2362 17.9718 16.4539 18.7526C13.4329 17.038 10.9315 14.5416 9.21361 11.5264C9.99588 10.7457 11.1465 9.94716 11.3905 8.80572C11.7029 7.3437 10.8909 3.66599 9.62844 2.58245C9.18439 2.20133 8.61663 1.99436 8.03101 2.00012H4.41081C3.03144 2.00141 1.88383 3.2386 2.00942 4.62559C1.99999 16.58 11.3334 26 23.3686 25.9906C24.763 26.1164 26.0049 24.9631 25.9993 23.5819Z" stroke="#5B6676" stroke-width="2.5" stroke-linecap="round" stroke-linejoin="round"/>
</svg>
