<svg width="37" height="38" viewBox="0 0 37 38" fill="none" xmlns="http://www.w3.org/2000/svg">
<path d="M34.999 32.5744V27.456C35.0191 26.6193 34.7396 25.804 34.2132 25.1654C32.7293 23.3645 27.64 22.2127 25.6226 22.655C24.0501 23 22.9498 24.6267 21.8741 25.7328C17.7202 23.3039 14.2807 19.7673 11.9187 15.4958C12.9943 14.3898 14.5764 13.2585 14.9119 11.6414C15.3414 9.57025 14.2249 4.36015 12.4891 2.82514C11.8785 2.28522 11.0979 1.99201 10.2926 2.00017H5.31486C3.41822 2.002 1.84027 3.75468 2.01295 5.71959C1.99999 22.655 14.8334 36.0001 31.3818 35.9867C33.2991 36.165 35.0067 34.5311 34.999 32.5744Z" stroke="#3E82F9" stroke-width="4" stroke-linecap="round" stroke-linejoin="round"/>
</svg>
