<svg width="25" height="25" viewBox="0 0 25 25" fill="none" xmlns="http://www.w3.org/2000/svg">
<path d="M10.6241 4.30557C8.25885 4.30557 6.33594 6.22849 6.33594 8.59377C6.33594 10.9139 8.15052 12.7917 10.5158 12.8729C10.588 12.8639 10.6602 12.8639 10.7144 12.8729C10.7325 12.8729 10.7415 12.8729 10.7595 12.8729C10.7686 12.8729 10.7686 12.8729 10.7776 12.8729C13.0887 12.7917 14.9033 10.9139 14.9123 8.59377C14.9123 6.22849 12.9894 4.30557 10.6241 4.30557Z" fill="#1164F5"/>
<path d="M15.2112 15.2743C12.6924 13.5952 8.58481 13.5952 6.048 15.2743C4.90148 16.0417 4.26953 17.0799 4.26953 18.1903C4.26953 19.3007 4.90148 20.3299 6.03898 21.0882C7.30286 21.9368 8.96398 22.3611 10.6251 22.3611C12.2862 22.3611 13.9473 21.9368 15.2112 21.0882C16.3487 20.3209 16.9806 19.2917 16.9806 18.1722C16.9716 17.0618 16.3487 16.0327 15.2112 15.2743Z" fill="#1164F5"/>
<path d="M20.5466 9.12644C20.6911 10.8778 19.4452 12.4125 17.7209 12.6202C17.7119 12.6202 17.7119 12.6202 17.7029 12.6202H17.6758C17.6216 12.6202 17.5674 12.6202 17.5223 12.6382C16.6466 12.6834 15.8431 12.4035 15.2383 11.8889C16.1681 11.0584 16.7008 9.81255 16.5924 8.45838C16.5293 7.72713 16.2765 7.05907 15.8973 6.49032C16.2404 6.3188 16.6376 6.21046 17.0438 6.17435C18.8133 6.02088 20.3931 7.33894 20.5466 9.12644Z" fill="#1164F5"/>
<path d="M22.3511 17.4771C22.2789 18.3528 21.7192 19.1111 20.7803 19.6257C19.8775 20.1223 18.74 20.357 17.6115 20.3299C18.2615 19.7431 18.6407 19.0118 18.7129 18.2354C18.8032 17.116 18.2706 16.0417 17.2053 15.1841C16.6004 14.7056 15.8963 14.3264 15.1289 14.0466C17.124 13.4688 19.6338 13.857 21.1775 15.1028C22.0081 15.7709 22.4324 16.6104 22.3511 17.4771Z" fill="#1164F5"/>
</svg>
