<svg width="23" height="22" viewBox="0 0 23 22" fill="none" xmlns="http://www.w3.org/2000/svg">
<path d="M8.62413 1.81335C6.25885 1.81335 4.33594 3.72173 4.33594 6.06912C4.33594 8.37171 6.15052 10.2353 8.5158 10.3159C8.58802 10.307 8.66024 10.307 8.71441 10.3159C8.73247 10.3159 8.74149 10.3159 8.75955 10.3159C8.76858 10.3159 8.76858 10.3159 8.7776 10.3159C11.0887 10.2353 12.9033 8.37171 12.9123 6.06912C12.9123 3.72173 10.9894 1.81335 8.62413 1.81335Z" fill="#A9B1BC"/>
<path d="M13.2112 12.6991C10.6924 11.0327 6.58481 11.0327 4.048 12.6991C2.90148 13.4607 2.26953 14.491 2.26953 15.593C2.26953 16.6951 2.90148 17.7164 4.03898 18.469C5.30286 19.3112 6.96398 19.7323 8.62509 19.7323C10.2862 19.7323 11.9473 19.3112 13.2112 18.469C14.3487 17.7075 14.9806 16.6861 14.9806 15.5751C14.9716 14.4731 14.3487 13.4517 13.2112 12.6991Z" fill="#A9B1BC"/>
<path d="M18.5466 6.59773C18.6911 8.33587 17.4452 9.85899 15.7209 10.0651C15.7119 10.0651 15.7119 10.0651 15.7029 10.0651H15.6758C15.6216 10.0651 15.5674 10.0651 15.5223 10.083C14.6466 10.1278 13.8431 9.85003 13.2383 9.33933C14.1681 8.51506 14.7008 7.27865 14.5924 5.93473C14.5293 5.20901 14.2765 4.546 13.8973 3.98156C14.2404 3.81133 14.6376 3.70381 15.0438 3.66797C16.8133 3.51566 18.3931 4.82375 18.5466 6.59773Z" fill="#A9B1BC"/>
<path d="M20.3511 14.8852C20.2789 15.7543 19.7192 16.5069 18.7803 17.0176C17.8775 17.5104 16.74 17.7433 15.6115 17.7165C16.2615 17.1341 16.6407 16.4084 16.7129 15.6378C16.8032 14.5269 16.2706 13.4607 15.2053 12.6095C14.6004 12.1347 13.8963 11.7584 13.1289 11.4806C15.124 10.9072 17.6338 11.2925 19.1775 12.5289C20.0081 13.1919 20.4324 14.0251 20.3511 14.8852Z" fill="#A9B1BC"/>
</svg>
