<svg width="28" height="28" viewBox="0 0 28 28" fill="none" xmlns="http://www.w3.org/2000/svg">
<path d="M22.75 1.75H26.25V5.25H22.75V1.75Z" fill="#4385F5"/>
<path d="M22.75 7H26.25V10.5H22.75V7Z" fill="#4385F5"/>
<path d="M17.5 1.75H21V5.25H17.5V1.75Z" fill="#4385F5"/>
<path d="M17.5 7H21V10.5H17.5V7Z" fill="#4385F5"/>
<path d="M24.5 14V19.25H3.5V5.25H14V3.5H3.5C3.03587 3.5 2.59075 3.68437 2.26256 4.01256C1.93437 4.34075 1.75 4.78587 1.75 5.25V19.25C1.75 19.7141 1.93437 20.1592 2.26256 20.4874C2.59075 20.8156 3.03587 21 3.5 21H10.5V24.5H7V26.25H21V24.5H17.5V21H24.5C24.9641 21 25.4092 20.8156 25.7374 20.4874C26.0656 20.1592 26.25 19.7141 26.25 19.25V14H24.5ZM15.75 24.5H12.25V21H15.75V24.5Z" fill="#4385F5"/>
</svg>
