<svg width="28" height="28" viewBox="0 0 28 28" fill="none" xmlns="http://www.w3.org/2000/svg">
<path d="M23.625 1.75H4.375C2.926 1.75 1.75 2.926 1.75 4.375V23.625C1.75 25.074 2.926 26.25 4.375 26.25H23.625C25.074 26.25 26.25 25.074 26.25 23.625V4.375C26.25 2.926 25.074 1.75 23.625 1.75ZM8.69575 21.0271C8.55071 21.278 8.31196 21.461 8.03201 21.5358C7.75207 21.6106 7.45386 21.5712 7.203 21.4261C6.95214 21.2811 6.76917 21.0423 6.69434 20.7624C6.61951 20.4824 6.65896 20.1842 6.804 19.9334L7.58625 18.5824C8.4665 18.3146 9.18838 18.522 9.75187 19.2054L8.69575 21.0271ZM16.2916 18.0801H6.34375C5.74175 18.0801 5.25 17.5875 5.25 16.9864C5.25 16.3853 5.74262 15.8926 6.34375 15.8926H9.13325L12.7094 9.702L11.5885 7.7665C11.4442 7.51546 11.4052 7.21752 11.48 6.9378C11.5548 6.65808 11.7372 6.41934 11.9875 6.27375C12.2385 6.12949 12.5365 6.09048 12.8162 6.16525C13.0959 6.24002 13.3347 6.42248 13.4803 6.67275L13.9668 7.5145L14.4532 6.67275C14.5251 6.54854 14.6206 6.43968 14.7345 6.35241C14.8484 6.26513 14.9784 6.20114 15.117 6.16409C15.2556 6.12704 15.4002 6.11766 15.5424 6.13647C15.6846 6.15529 15.8218 6.20193 15.946 6.27375C16.0702 6.34557 16.1791 6.44115 16.2663 6.55503C16.3536 6.66891 16.4176 6.79887 16.4547 6.93749C16.4917 7.0761 16.5011 7.22066 16.4823 7.3629C16.4635 7.50514 16.4168 7.64229 16.345 7.7665L11.6532 15.8935H15.0491C16.1534 15.8935 16.772 17.1894 16.2908 18.081L16.2916 18.0801ZM21.6562 18.0801H20.0699L21.1418 19.9342C21.4428 20.4592 21.2616 21.1269 20.7428 21.427C20.2177 21.728 19.5501 21.5469 19.25 21.028C17.451 17.9165 16.1053 15.5759 15.2031 14.0227C14.2896 12.4364 14.9406 10.8509 15.5916 10.3154C16.3083 11.557 17.3801 13.4164 18.8125 15.8935H21.6562C21.9463 15.8935 22.2245 16.0087 22.4296 16.2139C22.6348 16.419 22.75 16.6972 22.75 16.9872C22.75 17.2773 22.6348 17.5555 22.4296 17.7606C22.2245 17.9658 21.9463 18.081 21.6562 18.081V18.0801Z" fill="#4385F5"/>
</svg>
