<svg width="527" height="440" viewBox="0 0 527 440" fill="none" xmlns="http://www.w3.org/2000/svg">
<path d="M179.067 33.3701C189.443 33.3701 199.586 36.447 208.214 42.2116C216.841 47.9763 223.566 56.1699 227.536 65.7562C231.507 75.3425 232.546 85.891 230.522 96.0678C228.497 106.245 223.501 115.592 216.164 122.93C208.827 130.267 199.479 135.263 189.302 137.287C179.125 139.312 168.577 138.273 158.991 134.302C149.404 130.331 141.211 123.607 135.446 114.98C129.681 106.352 126.604 96.2089 126.604 85.8328C126.603 78.9428 127.958 72.12 130.594 65.7541C133.23 59.3882 137.094 53.6041 141.966 48.7321C146.838 43.8601 152.623 39.9958 158.988 37.3599C165.354 34.7241 172.177 33.3683 179.067 33.3701ZM179.067 31.7807C168.376 31.7794 157.925 34.9483 149.036 40.8868C140.146 46.8254 133.217 55.2667 129.125 65.1433C125.033 75.0199 123.961 85.8882 126.046 96.3737C128.131 106.859 133.278 116.491 140.837 124.051C148.396 131.611 158.028 136.76 168.513 138.846C178.998 140.932 189.867 139.862 199.744 135.771C209.621 131.68 218.063 124.752 224.003 115.863C229.942 106.974 233.112 96.5236 233.112 85.8328C233.109 71.4995 227.414 57.7543 217.279 47.6185C207.145 37.4827 193.4 31.7861 179.067 31.7807ZM444.997 13.4288C450.939 13.5257 456.792 14.8823 462.171 17.409C484.469 27.7669 503.339 59.029 503.339 117.135C503.339 219.603 419.156 350.396 269.991 392.097C195.466 412.934 119.21 397.121 69.4409 362.727C44.5565 345.533 26.3056 323.7 18.1365 299.529C9.96743 275.359 11.8599 248.831 27.3495 222.02C56.8808 170.871 91.1466 159.799 131.096 157.86C171.046 155.92 216.626 163.315 268.032 149.239C370.398 121.21 398.872 43.6538 399.087 43.0747C410.24 23.7665 427.635 13.1527 445.031 13.4423L444.997 13.4288ZM445.058 11.8597C427.036 11.597 409.048 22.5879 397.66 42.3137C397.634 42.3535 397.614 42.3965 397.599 42.4416C397.599 42.4416 369.704 119.762 267.58 147.724C216.539 161.698 171.188 154.331 130.982 156.284C90.7762 158.237 55.6888 169.713 25.9218 221.246C10.2503 248.386 8.30397 275.46 16.6078 300.041C24.9116 324.622 43.4116 346.692 68.5183 364.02C118.725 398.717 195.399 414.577 270.395 393.612C420.274 351.736 504.922 220.471 504.922 117.135C504.922 58.6855 485.93 26.6961 462.844 15.9678C457.272 13.357 451.21 11.9569 445.058 11.8597ZM370.452 1.5961C372.29 1.5961 374.087 2.14118 375.615 3.1624C377.143 4.18361 378.335 5.63509 379.038 7.33331C379.741 9.03153 379.925 10.9002 379.567 12.703C379.208 14.5058 378.323 16.1618 377.023 17.4616C375.724 18.7613 374.068 19.6465 372.265 20.0051C370.462 20.3637 368.593 20.1797 366.895 19.4762C365.197 18.7728 363.745 17.5816 362.724 16.0532C361.703 14.5249 361.158 12.728 361.158 10.8899C361.156 9.66891 361.395 8.45959 361.862 7.33121C362.328 6.20284 363.013 5.1776 363.876 4.31424C364.739 3.45088 365.765 2.76637 366.893 2.29994C368.021 1.83352 369.231 1.59433 370.452 1.5961ZM370.452 2.0834e-06C368.298 -0.00133008 366.191 0.63622 364.4 1.83201C362.608 3.02779 361.211 4.7281 360.386 6.71785C359.561 8.70759 359.344 10.8974 359.763 13.0103C360.183 15.1232 361.22 17.0642 362.742 18.5878C364.265 20.1115 366.205 21.1493 368.318 21.57C370.431 21.9908 372.621 21.7755 374.611 20.9515C376.601 20.1275 378.302 18.7317 379.499 16.9407C380.696 15.1497 381.335 13.044 381.335 10.8899C381.333 8.00343 380.186 5.23559 378.146 3.19392C376.105 1.15225 373.338 0.00356948 370.452 2.0834e-06Z" fill="#F4CCC7"/>
<path d="M41.5864 3.81853H224.836C227.186 3.8132 229.514 4.27227 231.686 5.16938C233.858 6.06649 235.832 7.38396 237.493 9.04608C239.155 10.7082 240.471 12.6822 241.368 14.8548C242.264 17.0273 242.722 19.3555 242.716 21.7057V320.757C242.721 323.106 242.262 325.434 241.366 327.606C240.469 329.777 239.152 331.751 237.491 333.412C235.829 335.073 233.856 336.39 231.684 337.287C229.513 338.184 227.185 338.642 224.836 338.637H41.5864C39.2367 338.642 36.9093 338.182 34.7376 337.285C32.5659 336.388 30.5925 335.072 28.9308 333.41C27.269 331.749 25.9515 329.776 25.0537 327.605C24.156 325.434 23.6957 323.106 23.6992 320.757V21.6788C23.6975 19.3306 24.1591 17.0051 25.0577 14.8356C25.9563 12.6662 27.2743 10.6953 28.9359 9.03617C30.5976 7.37699 32.5704 6.06204 34.7412 5.1667C36.912 4.27135 39.2382 3.81321 41.5864 3.81853Z" fill="white"/>
<path d="M41.5864 3.81853C39.236 3.8132 36.9076 4.27223 34.735 5.16925C32.5624 6.06628 30.5884 7.38363 28.9264 9.04567C27.2644 10.7077 25.947 12.6817 25.05 14.8543C24.153 17.0269 23.6939 19.3552 23.6993 21.7057V39.6131H242.716V21.6788C242.719 19.3309 242.258 17.0055 241.36 14.8361C240.462 12.6667 239.145 10.6958 237.484 9.03658C235.823 7.37731 233.85 6.06226 231.68 5.16683C229.509 4.2714 227.183 3.81321 224.836 3.81853H41.5864Z" fill="#4F469C"/>
<path d="M186.489 19.8671C186.49 20.7425 186.232 21.5987 185.747 22.3272C185.261 23.0557 184.571 23.6238 183.762 23.9598C182.954 24.2957 182.064 24.3843 181.205 24.2143C180.346 24.0443 179.557 23.6235 178.938 23.0049C178.319 22.3864 177.896 21.598 177.725 20.7396C177.554 19.8811 177.641 18.9911 177.976 18.1822C178.31 17.3733 178.878 16.6819 179.605 16.1954C180.333 15.7089 181.189 15.4492 182.064 15.4492C183.237 15.4492 184.361 15.9145 185.191 16.7428C186.02 17.5711 186.487 18.6948 186.489 19.8671Z" fill="white"/>
<path d="M204.174 19.8671C204.175 20.7425 203.916 21.5987 203.431 22.3272C202.946 23.0557 202.255 23.6238 201.447 23.9598C200.638 24.2957 199.749 24.3843 198.89 24.2143C198.031 24.0443 197.242 23.6235 196.623 23.0049C196.003 22.3864 195.581 21.598 195.41 20.7396C195.238 19.8811 195.326 18.9911 195.66 18.1822C195.995 17.3733 196.562 16.6819 197.29 16.1954C198.018 15.7089 198.873 15.4492 199.749 15.4492C200.921 15.4492 202.046 15.9145 202.875 16.7428C203.705 17.5711 204.172 18.6948 204.174 19.8671Z" fill="white"/>
<path d="M222.687 19.8671C222.689 20.7425 222.43 21.5987 221.945 22.3272C221.459 23.0557 220.769 23.6238 219.96 23.9598C219.152 24.2957 218.262 24.3843 217.403 24.2143C216.545 24.0443 215.756 23.6235 215.136 23.0049C214.517 22.3864 214.095 21.598 213.923 20.7396C213.752 19.8811 213.839 18.9911 214.174 18.1822C214.509 17.3733 215.076 16.6819 215.804 16.1954C216.531 15.7089 217.387 15.4492 218.263 15.4492C219.435 15.4492 220.559 15.9145 221.389 16.7428C222.218 17.5711 222.685 18.6948 222.687 19.8671Z" fill="white"/>
<path d="M363.467 287.649H377.226L350.705 440H343.775L363.467 287.649Z" fill="black"/>
<path d="M462.272 287.649H448.513L475.027 440H481.964L462.272 287.649Z" fill="black"/>
<path d="M351.797 277.918H470.326C474.185 277.918 477.29 280.841 477.29 284.477C477.29 288.114 474.185 291.037 470.326 291.037H351.797C347.938 291.037 344.833 288.114 344.833 284.477C344.833 280.841 347.917 277.918 351.797 277.918Z" fill="#F5933D"/>
<path d="M411.311 363.629L470.528 417.668H352.093L411.311 363.629ZM367.367 321.437H455.254L411.311 361.542L367.367 321.437ZM365.387 319.625L365.071 319.935H364.606V320.38L364.283 320.703L364.606 321.006V321.437H365.078L410.166 362.585L348.16 419.156H472.172L472.515 419.466L472.838 419.156H473.296V418.712L473.62 418.389L473.296 418.086V417.654H472.818L412.456 362.572L459.187 319.922H365.724L365.387 319.612V319.625Z" fill="black"/>
<path d="M291.609 365.124L293.758 417.58H308.136C308.136 417.58 313.894 378.984 313.908 365.124C313.921 351.265 294.573 352.261 291.609 365.124Z" fill="#F9B098"/>
<path d="M304.365 355.097C301.412 355.056 298.535 356.03 296.214 357.855C293.892 359.68 292.267 362.246 291.609 365.125C291.609 365.125 302.654 370.721 313.685 370.802C313.827 368.653 313.908 366.721 313.908 365.125C313.908 358.39 309.382 355.177 304.365 355.097Z" fill="black"/>
<path d="M292.774 391.349L293.758 417.614H308.136C308.136 417.614 309.793 405.101 311.335 391.349H292.774Z" fill="#EF9F34"/>
<path d="M344.349 365.508L355.441 417.58H369.812C369.812 417.58 369.253 379.368 366.647 365.508C364.041 351.648 344.874 352.645 344.349 365.508Z" fill="#F9B098"/>
<path d="M355.205 355.48C349.817 355.4 344.618 358.848 344.342 365.508C344.342 365.508 356.464 371.105 367.489 371.186C367.226 369.037 366.943 367.104 366.647 365.508C365.381 358.774 360.236 355.561 355.198 355.48H355.205Z" fill="black"/>
<path d="M349.877 391.349L355.44 417.614H369.811C369.811 417.614 369.973 405.101 368.916 391.349H349.877Z" fill="#EF9F34"/>
<path d="M369.69 408.125C368.128 409.6 365.191 411.189 361.339 412.078L354.544 413.634L355.44 417.58H369.811C369.951 414.438 369.911 411.29 369.69 408.152V408.125Z" fill="black"/>
<path d="M373.697 423.231C372.101 414.57 371.205 412.853 364.861 414.045C364.861 414.045 366.087 422.8 369.165 423.945C372.242 425.089 373.697 423.231 373.697 423.231Z" fill="white"/>
<path d="M351.958 414.112C352.632 420.591 340.22 431.582 339.061 433.077C335.795 437.306 338.294 439.993 338.294 439.993H376.829C378.23 433.312 376.903 425.076 373.711 423.231C367.939 424.78 364.875 414.045 364.875 414.045H360.646C359.77 410.765 351.945 409.108 351.945 414.112H351.958Z" fill="#4385F5"/>
<path d="M376.614 428.437L369.933 435.124H343.513C342.631 436.713 341.796 438.323 341.075 439.993H376.816C377.604 436.222 378.311 431.764 376.614 428.437Z" fill="black"/>
<path d="M337.816 435.124C336.564 438.155 338.267 439.993 338.267 439.993H359.508C359.508 439.993 362.391 439.993 359.609 436.343C359.221 435.875 358.767 435.464 358.263 435.124H337.816Z" fill="black"/>
<path d="M359.697 417.365C360.102 417.381 360.499 417.48 360.864 417.656C361.229 417.833 361.554 418.082 361.818 418.389C363.111 419.803 363.354 422.355 362.902 424.234C362.768 424.966 362.435 425.646 361.939 426.201C361.84 426.31 361.703 426.377 361.555 426.389C361.377 426.38 361.21 426.3 361.091 426.167C358.929 424.315 355.777 420.066 355.084 419.129C355.746 418.577 356.495 418.135 357.299 417.823C358.056 417.498 358.874 417.342 359.697 417.365ZM359.791 415.924C358.754 415.885 357.722 416.076 356.767 416.483C355.615 416.96 354.536 417.597 353.561 418.375C353.421 418.492 353.331 418.658 353.308 418.84C353.286 419.021 353.333 419.204 353.44 419.352C353.44 419.352 357.4 424.901 360.175 427.258C360.562 427.617 361.068 427.821 361.596 427.831C362.097 427.822 362.577 427.628 362.943 427.285C363.674 426.549 364.167 425.611 364.357 424.591C364.896 422.342 364.707 419.392 362.929 417.446C362.138 416.565 361.033 416.029 359.852 415.951L359.791 415.924Z" fill="white"/>
<path d="M348.349 417.365C349.172 417.342 349.99 417.498 350.746 417.823C351.552 418.134 352.3 418.575 352.962 419.129C352.289 420.072 349.117 424.315 346.955 426.167C346.835 426.3 346.668 426.38 346.49 426.389C346.343 426.377 346.206 426.31 346.106 426.201C345.61 425.646 345.277 424.966 345.143 424.234C344.692 422.355 344.941 419.803 346.234 418.389C346.497 418.082 346.821 417.833 347.185 417.657C347.549 417.481 347.945 417.381 348.349 417.365ZM348.254 415.924C347.072 416.004 345.966 416.54 345.17 417.419C343.392 419.365 343.203 422.322 343.742 424.564C343.933 425.584 344.425 426.523 345.157 427.258C345.522 427.601 346.002 427.795 346.503 427.804C347.03 427.795 347.534 427.591 347.918 427.231C350.679 424.874 354.652 419.325 354.652 419.325C354.76 419.177 354.807 418.994 354.784 418.813C354.762 418.631 354.671 418.465 354.531 418.348C353.56 417.569 352.483 416.932 351.332 416.456C350.375 416.049 349.341 415.858 348.302 415.897L348.254 415.924Z" fill="white"/>
<path d="M351.358 424.463C351.228 424.603 351.159 424.79 351.166 424.981C351.172 425.172 351.255 425.353 351.395 425.484C351.536 425.614 351.722 425.683 351.913 425.676C352.105 425.669 352.285 425.587 352.416 425.446C352.584 425.255 352.791 425.103 353.023 424.999C353.256 424.896 353.508 424.844 353.763 424.847C354.067 424.862 354.364 424.944 354.633 425.087C354.902 425.23 355.136 425.431 355.318 425.675C355.38 425.749 355.456 425.81 355.542 425.853C355.628 425.897 355.721 425.923 355.817 425.93C355.913 425.937 356.01 425.925 356.101 425.894C356.192 425.863 356.276 425.814 356.348 425.75C356.42 425.687 356.478 425.609 356.52 425.522C356.561 425.435 356.585 425.341 356.59 425.245C356.594 425.149 356.579 425.053 356.546 424.962C356.513 424.872 356.462 424.789 356.396 424.719C356.079 424.323 355.681 423.998 355.23 423.766C354.778 423.534 354.283 423.399 353.776 423.372C353.328 423.372 352.884 423.466 352.475 423.648C352.065 423.83 351.699 424.096 351.399 424.43L351.358 424.463Z" fill="white"/>
<path d="M348.981 429.016C348.863 429.157 348.804 429.338 348.815 429.522C348.826 429.706 348.907 429.878 349.042 430.004C349.176 430.13 349.354 430.2 349.538 430.199C349.722 430.198 349.899 430.126 350.032 429.999C350.2 429.808 350.407 429.656 350.64 429.553C350.872 429.449 351.124 429.397 351.379 429.4C351.683 429.415 351.98 429.497 352.249 429.64C352.518 429.783 352.752 429.984 352.934 430.228C353.063 430.365 353.24 430.447 353.427 430.456C353.615 430.464 353.798 430.399 353.939 430.275C354.079 430.15 354.166 429.975 354.179 429.788C354.193 429.601 354.133 429.416 354.012 429.272C353.692 428.881 353.294 428.563 352.842 428.338C352.391 428.112 351.896 427.985 351.392 427.965C350.944 427.963 350.501 428.055 350.091 428.236C349.681 428.417 349.314 428.683 349.015 429.016H348.981Z" fill="white"/>
<path d="M377.361 233.974C377.361 233.974 305.758 270.51 294.902 276.908C284.046 283.305 286.45 299.617 286.45 299.617C286.861 311.577 289.191 340.085 290.491 355.514C286.06 362.505 290.855 365.805 291.373 365.717H313.678C314.473 365.933 321.996 364.485 316.85 356.194C319.719 346.059 323.753 327.518 325.605 299.623C325.915 300.815 334.939 345.109 339.398 356.996C336.805 365.811 341.93 365.421 344.321 365.515L366.801 364.518C368.889 364.518 371.32 359.393 366.511 355.655C367.252 345.062 365.919 327.155 361.615 299.866V299.623C361.615 299.623 418.86 288.026 434.619 278.948C443.96 273.56 444.613 267.365 444.801 260.091C445.078 249.565 439.414 237.813 432.794 233.968L377.361 233.974Z" fill="#4385F5"/>
<path d="M309.085 410.193C304.068 412.119 296.289 413.903 293.643 414.476L293.764 417.58H308.136C308.136 417.58 308.526 414.624 309.085 410.172V410.193Z" fill="black"/>
<path d="M311.247 423.493C308.043 423.128 304.867 422.554 301.738 421.776C297.481 420.638 298.721 414.045 298.721 414.045C313.139 412.375 311.247 416.146 311.247 423.473V423.493Z" fill="white"/>
<path d="M313.833 440C317.032 434.464 315.598 429.683 311.247 423.493C303.098 422.753 300.021 421.278 298.721 414.065H295.098C295.098 414.065 290.269 409.64 287.75 417.331C285.231 425.022 267.102 426.356 260.017 430.356C252.05 434.882 252.057 440 258.044 440H313.833Z" fill="#4385F5"/>
<path d="M314.083 428.221C312.008 429.415 310.093 430.868 308.385 432.545C305.287 435.643 299.475 435.131 299.475 435.131H254.475C252.811 437.865 254.178 440 258.044 440H313.834C316.177 435.959 316.029 432.309 314.083 428.221Z" fill="black"/>
<path d="M290.76 418.389C292.198 418.424 293.581 418.948 294.682 419.873C295.784 420.798 296.538 422.07 296.821 423.48C296.942 424.205 296.899 424.948 296.695 425.654C296.491 426.36 296.132 427.012 295.643 427.561C295.265 428.077 294.742 428.468 294.141 428.686C293.68 428.821 293.186 428.788 292.747 428.591C291.505 427.935 290.45 426.974 289.683 425.797C288.443 424.06 287.412 422.184 286.612 420.207C287.727 419.115 289.202 418.467 290.76 418.382V418.389ZM280.315 415.068C279.776 415.068 279.241 415.147 278.726 415.304C278.027 415.517 277.391 415.897 276.872 416.411C276.353 416.925 275.968 417.557 275.749 418.254C275.304 419.661 275.897 422.894 276.86 424.914C277.321 424.778 277.76 424.578 278.167 424.322C277.278 422.456 276.82 419.675 277.123 418.685C277.283 418.216 277.548 417.79 277.898 417.44C278.248 417.09 278.674 416.824 279.143 416.664C282.692 415.19 284.982 420.214 284.995 420.254C285.928 422.504 287.105 424.645 288.504 426.638C289.555 428.066 290.76 429.332 292.215 429.918C292.95 430.222 293.766 430.269 294.532 430.053C295.407 429.754 296.176 429.203 296.741 428.47C297.353 427.758 297.804 426.921 298.061 426.018C298.318 425.114 298.375 424.165 298.229 423.237C297.918 421.504 297.007 419.936 295.656 418.806C294.274 417.628 292.516 416.983 290.7 416.988C288.951 417.026 287.267 417.658 285.925 418.779C285.463 417.783 284.755 416.921 283.868 416.274C282.981 415.627 281.943 415.217 280.854 415.082C280.67 415.072 280.485 415.072 280.301 415.082L280.315 415.068Z" fill="white"/>
<path d="M279.029 420.894C278.933 420.9 278.838 420.925 278.752 420.968C278.665 421.011 278.588 421.071 278.525 421.145C278.462 421.218 278.415 421.304 278.386 421.396C278.357 421.488 278.347 421.585 278.356 421.682C278.363 421.778 278.388 421.872 278.432 421.958C278.475 422.044 278.535 422.121 278.609 422.183C278.682 422.246 278.767 422.294 278.859 422.323C278.951 422.353 279.048 422.363 279.144 422.355C279.39 422.324 279.641 422.345 279.878 422.417C280.116 422.489 280.336 422.61 280.524 422.773C280.741 422.987 280.909 423.245 281.016 423.53C281.122 423.815 281.166 424.119 281.144 424.423C281.134 424.523 281.146 424.624 281.177 424.719C281.209 424.815 281.26 424.902 281.328 424.977C281.395 425.051 281.478 425.111 281.569 425.151C281.661 425.192 281.761 425.213 281.861 425.213C281.962 425.213 282.061 425.192 282.153 425.151C282.245 425.111 282.327 425.051 282.395 424.977C282.462 424.902 282.514 424.815 282.545 424.719C282.577 424.624 282.588 424.523 282.578 424.423C282.594 423.923 282.504 423.425 282.317 422.961C282.129 422.497 281.846 422.078 281.487 421.729C281.151 421.432 280.756 421.208 280.328 421.073C279.9 420.937 279.449 420.892 279.002 420.941L279.029 420.894Z" fill="white"/>
<path d="M274.295 423.615C274.198 423.621 274.104 423.646 274.017 423.689C273.931 423.732 273.854 423.792 273.791 423.866C273.728 423.939 273.681 424.025 273.652 424.117C273.622 424.209 273.612 424.306 273.621 424.403C273.627 424.499 273.652 424.592 273.695 424.678C273.738 424.765 273.797 424.841 273.87 424.904C273.943 424.967 274.028 425.014 274.119 425.044C274.21 425.073 274.307 425.084 274.403 425.076C274.644 425.048 274.888 425.071 275.12 425.143C275.352 425.215 275.567 425.334 275.75 425.494C275.969 425.705 276.139 425.963 276.248 426.249C276.356 426.534 276.4 426.839 276.376 427.144C276.375 427.238 276.393 427.332 276.428 427.419C276.464 427.506 276.516 427.586 276.583 427.653C276.649 427.72 276.728 427.773 276.815 427.809C276.902 427.846 276.995 427.864 277.09 427.864C277.184 427.864 277.278 427.846 277.366 427.809C277.453 427.773 277.532 427.72 277.599 427.653C277.666 427.586 277.719 427.507 277.756 427.419C277.792 427.332 277.81 427.238 277.81 427.144C277.826 426.643 277.737 426.144 277.548 425.68C277.359 425.216 277.074 424.797 276.713 424.45C276.379 424.153 275.986 423.93 275.56 423.794C275.135 423.658 274.685 423.613 274.241 423.662L274.295 423.615Z" fill="white"/>
<path d="M322.326 302.923C322.209 302.925 322.093 302.953 321.988 303.005C321.883 303.058 321.791 303.133 321.72 303.227C319.814 305.658 317.39 308.843 315.295 311.874C313.201 314.904 311.436 317.706 310.83 319.679C309.981 322.454 308.204 331.128 306.601 339.311C304.998 347.493 303.59 354.955 303.59 354.955C303.57 355.055 303.57 355.158 303.59 355.258L305.718 365.697H307.341L305.18 355.097C305.18 354.955 306.567 347.688 308.156 339.607C309.746 331.525 311.598 322.595 312.352 320.137C312.817 318.629 314.541 315.76 316.602 312.769C318.662 309.779 321.08 306.614 322.979 304.196C323.072 304.08 323.13 303.94 323.147 303.792C323.163 303.645 323.137 303.495 323.073 303.361C323.008 303.227 322.907 303.115 322.78 303.036C322.654 302.957 322.508 302.916 322.36 302.917L322.326 302.923ZM363.071 241.268L361.299 242.177C366.33 244.871 374.331 249.141 377.186 250.259C389.327 254.867 402.297 256.883 415.264 256.178C420.786 255.869 425.554 255.384 429.683 254.831C431.703 256.818 433.461 258.731 435.461 260.32C432.302 261.337 405.505 274.847 391.295 279.743C383.214 282.531 374.971 285.461 368.472 287.973C365.219 289.225 362.411 290.377 360.249 291.34C358.087 292.303 356.652 293.044 355.871 293.818C355.09 294.593 354.908 296.02 355.029 297.637C355.232 299.611 355.62 301.561 356.188 303.462C357.737 308.654 359.569 313.758 361.676 318.75C362.909 321.753 364.175 324.683 365.374 327.384C365.194 325.66 364.994 323.864 364.774 321.996C364.229 320.723 363.683 319.423 363.151 318.117C361.065 313.185 359.253 308.142 357.723 303.011C357.185 301.208 356.815 299.36 356.619 297.489C356.511 296.054 356.767 295.152 356.996 294.916C358.216 294.052 359.528 293.327 360.909 292.754C363.017 291.798 365.812 290.653 369.044 289.387C375.509 286.888 383.732 283.965 391.814 281.177C407.674 275.709 436.491 261.586 437.064 261.404C437.313 261.566 437.569 261.721 437.838 261.876C439.926 263.044 442.233 263.766 444.613 263.997C444.661 263.479 444.694 262.953 444.728 262.421C442.583 262.204 440.505 261.546 438.626 260.489C436.087 259.041 434.087 256.899 431.649 254.475C435.8 253.855 439.904 252.955 443.933 251.781C443.819 251.262 443.684 250.75 443.543 250.238C437.764 251.963 428.767 253.754 415.176 254.515C402.448 255.186 389.72 253.192 377.806 248.663C375.489 247.78 367.866 243.726 363.131 241.194L363.071 241.268Z" fill="#A96EAE"/>
<path d="M325.626 299.617C325.626 299.617 324.07 291.623 324.211 288.074C324.275 287.003 324.561 285.958 325.05 285.004C325.539 284.05 326.221 283.208 327.053 282.531C327.053 282.531 317.248 284.801 318.386 296.175C319.524 307.55 323.935 318.4 323.935 318.4L325.626 299.59V299.617Z" fill="black"/>
<path d="M316.851 356.174H308.298C308.298 356.174 306.877 354.154 310.574 352.443C314.271 350.733 319.928 343.729 319.928 343.729L316.851 356.174Z" fill="black"/>
<path d="M366.532 355.649H356.753C356.753 355.649 355.191 353.723 359.885 351.736C364.579 349.749 366.418 340.509 366.418 340.509C366.418 340.509 367.765 352.598 366.532 355.649Z" fill="black"/>
<path d="M205.258 144.922C205.305 149.819 214.343 159.772 217.219 161.086C220.094 162.399 232.237 159.59 237.631 158.439C237.631 157.981 250.791 160.884 264.146 163.51L258.266 144.997L234.776 146.067C234.776 146.067 228.715 142.384 225.799 140.76C222.883 139.137 217.872 134.834 215.973 133.386C214.074 131.938 212.915 134.922 214.626 137.649C215.583 139.13 216.431 140.679 217.165 142.283C217.165 142.283 210.296 142.222 208.767 142.222C206.221 142.222 205.231 143.293 205.251 144.916L205.258 144.922Z" fill="#F9B098"/>
<path d="M258.266 145.01L255.263 161.658L264.146 163.523L258.266 145.01Z" fill="black"/>
<path d="M234.775 146.067L236.93 151.455C236.93 151.455 237.469 151.933 237.947 150.573C238.426 149.212 240.055 145.859 240.055 145.859L234.775 146.034V146.067Z" fill="black"/>
<path d="M217.178 142.282C217.178 142.282 220.417 146.236 223.441 147.051C226.465 147.865 231.408 154.115 230.735 156.695C230.061 159.274 228.815 159.584 228.526 159.388C228.236 159.193 225.738 152.708 222.754 150.593C220.172 148.856 217.433 147.365 214.572 146.141C213.083 145.468 217.151 142.282 217.151 142.282H217.178Z" fill="black"/>
<path d="M350.207 140.188C351.096 140.188 351.924 140.188 352.672 140.235C374.115 140.996 378.061 162.85 364.484 170.763C364.343 170.851 364.202 170.925 364.06 170.999C361.572 172.213 358.754 172.575 356.039 172.029C356.039 172.029 275.224 164.352 269.587 163.948C269.688 159.301 268.112 153.004 265.809 148.458C264.765 146.391 263.667 145.259 262.637 144.687L280.82 143.34C280.82 143.34 340.927 140.148 350.187 140.195L350.207 140.188Z" fill="#EF9F34"/>
<path d="M258.267 145.01L260.065 163.193C260.065 163.193 264.826 172.494 267.971 169.362C271.116 166.231 269.318 155.354 265.809 148.485C262.301 141.616 258.267 145.037 258.267 145.037V145.01Z" fill="white"/>
<path d="M366.309 69.8179C366.309 69.8179 367.656 84.7822 362.942 93.6113C343.627 129.567 379.664 122.698 379.664 122.698C379.664 122.698 376.128 71.9932 366.343 69.8179H366.309Z" fill="#C84F49"/>
<path d="M373.092 225.186C372.802 225.186 366.162 235.564 370.869 236.21C397.195 239.86 410.273 240.877 435.986 236.21C440.377 235.416 430.336 223.617 430.053 223.623L373.092 225.186Z" fill="white"/>
<path d="M399.808 127.682L442.411 143.313C442.411 143.313 425.676 189.176 427.258 210.592C429.46 221.367 436.249 226.162 431.972 228.95C407.532 231.994 397.895 234.008 370.788 228.95C365.441 216.269 367.994 215.117 366.748 206.807C366.748 206.807 351.352 147.542 350.49 143.313C354.955 140.39 375.408 128.443 375.408 128.443L399.801 127.682H399.808Z" fill="#CCDEF2"/>
<path d="M399.808 127.682L375.415 128.443C375.415 128.443 367.725 132.941 360.707 137.117C369.933 151.805 378.399 158.668 382.554 159.267C386.709 159.867 408.462 149.765 419.399 134.874L399.808 127.682Z" fill="#F9B098"/>
<path d="M404.792 203.871C404.792 203.871 407.998 212.04 415.843 214.249C420.12 215.334 424.499 215.969 428.909 216.141C428.198 214.343 427.646 212.486 427.259 210.592C427.205 209.831 427.178 209.043 427.164 208.221C420.625 208.026 411.109 207.13 404.792 203.871Z" fill="black"/>
<path d="M396.952 125.432C396.952 125.432 397.82 160.614 400.993 181.956C404.165 203.298 401.208 209.447 411.768 210.403C415.874 210.841 420.003 211.034 424.133 210.982C428.483 210.827 437.656 211.555 432.82 199.917C434.888 188.61 438.828 169.362 440.942 163.887C443.838 156.385 445.657 147.724 442.384 143.313C439.11 138.902 402.575 127.924 396.925 125.432H396.952Z" fill="#EF9F34"/>
<path d="M395.632 97.2952L396.4 124.907C396.4 145.535 374.176 145.448 374.176 128.463L378.217 109.141L395.612 97.3154L395.632 97.2952Z" fill="#F9B098"/>
<path d="M389.127 101.72L378.237 109.128L376.459 117.634C379.941 117.917 384.871 117.634 388.716 114.61C395.35 109.424 389.127 101.733 389.127 101.733V101.72Z" fill="black"/>
<path d="M368.572 73.5623L370.815 101.141C370.815 101.141 372.795 111.956 380.863 111.956C386.588 111.956 395.619 101.242 395.679 95.6653C395.74 90.089 395.679 81.1253 395.679 72.4039C395.679 63.6826 367.394 59.6687 368.525 73.5623H368.572Z" fill="#F9B098"/>
<path d="M373.307 86.0282C373.307 86.0282 370.37 89.7053 369.057 89.7053C367.744 89.7053 368.653 93.1399 371.266 92.9716C373.879 92.8032 375.394 83.9472 373.286 86.0282H373.307Z" fill="black"/>
<path d="M375.603 69.6225C375.603 69.6225 378.87 86.3446 386.561 91.0588C394.252 95.7731 398.575 91.8266 398.575 91.8266L393.383 96.1502C393.383 96.1502 381.658 95.672 376.95 81.2532C372.243 66.8344 376.277 62.9889 376.277 62.9889L375.603 69.6225Z" fill="#C84F49"/>
<path d="M376.284 141.683C376.284 141.683 377.55 164.103 378.432 179.168C379.314 194.233 378.924 204.254 378.924 204.254C378.924 204.254 369.495 156.964 370.074 148.027C370.654 139.09 373.88 141.198 376.284 141.683Z" fill="black"/>
<path d="M375.415 128.443C375.415 128.443 349.945 139.568 348.948 141.333C348.099 142.828 356.275 181.862 360.484 197.399C361.252 200.227 358.747 201.944 359.912 204.409C363.279 211.481 375.961 209.299 378.237 208.45C380.513 207.602 380.048 203.965 379.079 199.21C378.109 194.456 370.701 144.02 371.421 140.215C372.142 136.41 375.415 128.409 375.415 128.409V128.443Z" fill="#EF9F34"/>
<path d="M396.952 125.432C396.952 125.432 388.743 130.557 380.917 130.611C373.361 131.09 376.371 124.368 375.381 122.772C375.381 122.772 370.438 120.658 366.29 123.446C362.141 126.234 366.505 129.217 365.434 131.042C364.364 132.867 361.394 139.69 375.806 145.65C390.218 151.61 404.158 145.65 408.085 139.885C412.011 134.12 410.024 128.16 408.65 125.661C407.277 123.163 396.528 123.446 396.528 123.446L396.973 125.432H396.952Z" fill="white"/>
<path d="M389.302 129.237C389.302 129.237 393.343 136.915 392.238 142.033C391.134 147.152 386.251 146.316 381.961 145.3C379.752 144.774 379.005 145.71 378.789 146.741C384.852 148.599 391.333 148.599 397.397 146.741C398.245 143.333 397.228 137.763 389.315 129.231L389.302 129.237Z" fill="#CCDEF2"/>
<path d="M386.554 129.985C386.554 129.985 393.808 130.18 395.808 142.384C397.808 154.587 394.366 164.109 396.016 168.911C397.666 173.713 397.606 172.952 397.606 172.952C400.829 174.085 404.258 174.512 407.661 174.205C413.048 173.625 415.938 170.938 415.938 170.938C415.938 170.938 412.139 168.339 412.018 161.133C411.897 153.927 412.691 142.195 408.543 133.642C404.394 125.089 396.468 122.496 391.437 124.213C386.406 125.931 381.274 130.611 381.274 130.611C383.295 130.665 384.81 130.201 386.554 129.978V129.985Z" fill="white"/>
<path d="M388.689 55.325C387.046 55.2858 385.402 55.3736 383.772 55.5876L384.446 56.5978C380.937 55.7627 376.964 56.6921 372.748 60.78C372.748 60.78 367.151 54.6111 362.801 57.1972C358.45 59.7833 366.309 69.8179 366.309 69.8179L368.572 73.5489C368.572 71.4477 369.246 66.949 373.785 69.5485C377.374 71.6093 381.395 90.7559 392.676 88.1698C393.156 88.0596 393.63 87.9247 394.097 87.7657C394.245 90.8165 394.097 93.9279 393.383 96.1368C391.362 102.198 385.793 114.583 391.753 121.6C397.713 128.618 414.247 125.641 417.796 117.465C421.345 109.29 409.916 97.8676 410.59 89.5975C411.263 81.3274 414.63 69.8987 406.266 61.6286C401.04 56.4631 393.558 55.3923 388.689 55.3115V55.325Z" fill="#C84F49"/>
<path d="M398.77 74.0405C398.77 74.0405 394.251 59.8978 385.025 58.1872C377.489 56.7729 372.721 60.78 372.721 60.78C372.721 60.78 376.539 54.6313 386.533 55.2105C396.528 55.7897 407.323 71.7507 398.77 74.0674V74.0405Z" fill="black"/>
<path d="M365.474 129.615C365.567 129.842 365.611 130.087 365.604 130.333C365.597 130.578 365.539 130.82 365.434 131.042C365.053 131.693 364.775 132.4 364.612 133.137C365.21 133.585 365.856 133.965 366.538 134.268C369.515 135.554 374.842 135.016 369.232 132.295C367.813 131.643 366.529 130.729 365.447 129.601L365.474 129.615Z" fill="black"/>
<path d="M407.028 180.481C407.061 180.607 407.065 180.739 407.038 180.867C407.012 180.995 406.956 181.115 406.875 181.217C406.793 181.319 406.689 181.401 406.571 181.455C406.452 181.51 406.323 181.536 406.192 181.532C405.896 181.52 405.612 181.41 405.384 181.22C405.157 181.03 404.998 180.77 404.933 180.481C404.899 180.355 404.895 180.223 404.922 180.096C404.948 179.969 405.004 179.849 405.086 179.747C405.167 179.646 405.271 179.565 405.39 179.511C405.508 179.457 405.638 179.432 405.768 179.437C406.064 179.449 406.347 179.558 406.574 179.746C406.802 179.935 406.961 180.193 407.028 180.481Z" fill="black"/>
<path d="M407.856 191.081C407.889 191.208 407.893 191.34 407.867 191.467C407.84 191.595 407.784 191.715 407.703 191.817C407.621 191.919 407.517 192.001 407.399 192.056C407.281 192.11 407.151 192.137 407.021 192.132C406.724 192.12 406.44 192.011 406.212 191.821C405.985 191.631 405.826 191.371 405.761 191.081C405.727 190.956 405.723 190.824 405.75 190.696C405.776 190.569 405.833 190.449 405.914 190.348C405.995 190.246 406.099 190.165 406.218 190.111C406.337 190.057 406.466 190.032 406.596 190.038C406.892 190.049 407.175 190.158 407.403 190.346C407.63 190.535 407.789 190.793 407.856 191.081Z" fill="black"/>
<path d="M408.981 202.093C409.014 202.219 409.018 202.351 408.992 202.479C408.965 202.606 408.909 202.726 408.828 202.828C408.746 202.93 408.642 203.012 408.524 203.067C408.406 203.121 408.276 203.148 408.146 203.143C407.849 203.131 407.565 203.022 407.338 202.832C407.11 202.642 406.951 202.382 406.886 202.093C406.852 201.967 406.848 201.835 406.875 201.707C406.901 201.58 406.958 201.461 407.039 201.359C407.12 201.257 407.224 201.176 407.343 201.122C407.462 201.068 407.591 201.043 407.721 201.049C408.017 201.06 408.3 201.169 408.528 201.358C408.755 201.546 408.914 201.805 408.981 202.093Z" fill="black"/>
<path d="M417.19 233.368C417.176 233.297 417.176 233.224 417.19 233.153C417.244 232.843 417.473 232.621 417.931 232.533C420.012 232.149 427.905 231.786 430.727 230.836C433.548 229.886 441.744 228.311 441.744 228.311L456.689 210.127L471.04 221.36C460.938 230.216 451.867 236.507 451.409 236.897C448.964 241.14 443.28 250.643 440.633 251.787C437.192 253.262 427.555 251.612 425.702 251.956C423.85 252.299 416.725 249.976 418.665 246.689C419.338 245.518 426.255 237.463 426.255 237.463C426.255 237.463 424.14 237.187 421.318 236.702C419.251 236.352 417.277 234.473 417.224 233.335L417.19 233.368Z" fill="#F9B098"/>
<path d="M436.445 141.205C436.283 141.205 436.121 141.205 435.96 141.205C420.241 141.622 413.21 162.688 431.65 173.652C441.987 179.808 471.04 192.725 471.04 192.725L459.464 206.793C460.588 206.45 462.157 206.436 464.38 207.103C469.249 208.571 474.893 211.784 478.179 215.07C482.354 211.299 486.301 207.615 489.372 204.504C492.308 201.534 499.016 194.523 491.392 185.802C489.257 183.364 484.079 178.784 479.802 174.979L443.981 144.148C441.861 142.365 439.212 141.33 436.445 141.205Z" fill="#EF9F34"/>
<path d="M444.606 224.755L441.73 228.311L448.263 232.688C448.263 232.688 449.455 233.523 449.32 232.015C449.206 230.782 446.775 226.492 444.606 224.755Z" fill="black"/>
<path d="M456.675 210.154L471.033 221.401C471.033 221.401 481.047 224.378 480.96 219.939C480.872 215.501 471.747 209.305 464.379 207.083C457.012 204.861 456.675 210.154 456.675 210.154Z" fill="white"/>
<path d="M471.04 192.705L478.252 188.765C478.252 188.765 478.926 188.26 477.518 187.633C476.111 187.007 464.844 189.916 464.844 189.916L471.04 192.705Z" fill="black"/>
<path d="M456.675 210.154L467.322 224.526L471.026 221.394L456.675 210.154Z" fill="black"/>
<path d="M421.884 236.796C423.305 237.157 424.757 237.382 426.221 237.47C427.123 234.042 424.874 236.19 421.884 236.796Z" fill="black"/>
<path d="M199.042 125.715C199.89 125.109 207.602 128.51 209.319 130.908L211.339 133.729C213.057 136.127 204.389 142.336 202.672 139.932L200.651 137.117C198.934 134.713 198.193 126.342 199.042 125.715Z" fill="#F9B098"/>
<path d="M200.752 137.218L227.239 174.205C228.062 175.354 229.307 176.129 230.701 176.361C232.096 176.592 233.525 176.26 234.674 175.437C235.824 174.614 236.599 173.369 236.83 171.975C237.061 170.58 236.729 169.151 235.907 168.002L209.419 131.009L206.234 131.116L205.298 134.046L201.931 134.154L200.765 137.211L200.752 137.218Z" fill="#EF9F34"/>
<path d="M223.476 168.958L227.24 174.211C228.063 175.361 229.308 176.136 230.703 176.367C232.097 176.599 233.526 176.266 234.675 175.444C235.825 174.621 236.6 173.376 236.831 171.982C237.062 170.587 236.73 169.158 235.908 168.009L232.143 162.756L223.476 168.965V168.958Z" fill="#C84F49"/>
<path d="M199.042 125.715C198.611 126.025 198.591 128.369 198.907 130.901L203.999 127.257C201.702 126.146 199.48 125.405 199.042 125.715Z" fill="black"/>
<path d="M223.476 168.958L225.408 171.652L234.076 165.449L232.143 162.749L223.476 168.958Z" fill="white"/>
<path d="M222.579 167.706L223.475 168.958L232.142 162.749L230.209 160.055L222.579 167.706Z" fill="black"/>
<path d="M463.511 405.876C462.999 405.872 462.494 405.99 462.036 406.219C458.871 407.815 457.867 414.799 459.309 425.076C456.157 421.668 453.348 419.87 451.173 419.877C450.583 419.871 450.002 420.022 449.489 420.315C446.54 422.032 445.873 428.632 447.685 438.269H485.446C478.772 419.682 469.397 405.876 463.511 405.876Z" fill="#43AD67"/>
<path d="M500.889 373.967C494.686 374.061 485.689 390.339 480.503 410.873C477.951 420.975 476.671 430.828 476.947 438.263H524.238C526.716 432.639 527.16 428.511 525.504 426.564C525.097 426.134 524.599 425.8 524.047 425.585C523.495 425.371 522.902 425.282 522.312 425.325C520.163 425.325 517.281 426.329 513.866 428.235C522.325 413.897 525.113 402.434 520.722 400.057C520.117 399.747 519.442 399.596 518.762 399.619C515.395 399.619 510.176 402.67 504.168 408.152C508.115 389.234 506.916 374.694 501.367 373.994C501.208 373.984 501.048 373.984 500.889 373.994V373.967Z" fill="#56BB6A"/>
<path d="M504.161 408.152C504.161 408.152 500.349 413.008 498.713 418.126L497.083 423.238C497.136 418.651 497.778 414.09 498.996 409.667C500.089 405.618 502.425 402.014 505.676 399.363C505.676 399.363 504.633 406.489 504.161 408.118V408.152Z" fill="black"/>
<path d="M62.4704 363.346C69.104 363.387 78.5325 379.22 86.2099 403.182C90.547 394.797 94.8101 390.568 98.3323 391.201C103.949 392.218 106.865 405.613 105.936 426.147C119.095 428.767 126.645 432.747 126.759 437.111C126.766 437.502 126.716 437.892 126.611 438.269H0C1.52203 435.373 6.23627 432.551 13.6309 430.127C6.2228 418.557 3.71752 410.152 6.84238 407.007C10.5128 403.31 21.4498 407.303 36.0033 417.661C33.4105 407.842 33.727 401.411 36.9058 399.478C40.6704 397.222 48.1256 401.498 57.4531 411.31C53.1497 384.513 54.8266 365.023 61.5679 363.434C61.8723 363.361 62.1843 363.325 62.4973 363.326L62.4704 363.346Z" fill="#56BB6A"/>
<path d="M55.8037 398.932C56.2011 402.906 56.7466 407.061 57.4268 411.331C57.4268 411.331 63.4408 420.254 66.0538 426.484L68.6668 432.713C68.6668 432.713 66.8283 412.859 55.8037 398.932Z" fill="black"/>
<path d="M13.6034 430.12L18.7824 438.263C15.5319 436.66 12.809 434.159 10.9365 431.056L13.6304 430.12H13.6034Z" fill="black"/>
<path d="M173.895 105.033C173.895 115.823 169.609 126.171 161.979 133.801C154.349 141.431 144.001 145.717 133.211 145.717C122.42 145.717 112.072 141.431 104.441 133.801C96.8101 126.172 92.5223 115.824 92.5205 105.033C92.5205 94.2413 96.8075 83.8915 104.439 76.2605C112.069 68.6296 122.419 64.3425 133.211 64.3425C138.554 64.3425 143.845 65.3951 148.782 67.4401C153.718 69.485 158.203 72.4824 161.981 76.2609C165.759 80.0395 168.756 84.5253 170.8 89.462C172.844 94.3988 173.896 99.6899 173.895 105.033Z" fill="black"/>
<path d="M173.895 99.5175C173.896 104.861 172.844 110.152 170.8 115.089C168.756 120.025 165.759 124.511 161.981 128.29C158.203 132.068 153.718 135.066 148.782 137.111C143.845 139.156 138.554 140.208 133.211 140.208C122.419 140.208 112.069 135.921 104.439 128.29C96.8075 120.659 92.5205 110.309 92.5205 99.5175C92.5205 88.7257 96.8075 78.3759 104.439 70.7449C112.069 63.1139 122.419 58.8269 133.211 58.8269C138.554 58.8269 143.845 59.8794 148.782 61.9244C153.718 63.9694 158.203 66.9668 161.981 70.7453C165.759 74.5239 168.756 79.0096 170.8 83.9464C172.844 88.8832 173.896 94.1743 173.895 99.5175Z" fill="#EBBF38"/>
<path d="M145.959 85.6577C145.957 89.0383 144.614 92.28 142.223 94.6704C139.833 97.0608 136.591 98.4046 133.211 98.4064C129.829 98.4064 126.587 97.0632 124.196 94.6724C121.805 92.2815 120.462 89.0389 120.462 85.6577C120.461 83.9833 120.79 82.3251 121.431 80.778C122.071 79.2308 123.01 77.8251 124.194 76.6411C125.378 75.4571 126.784 74.5181 128.331 73.8777C129.878 73.2373 131.536 72.9082 133.211 72.9091C136.592 72.9091 139.834 74.2522 142.225 76.643C144.616 79.0339 145.959 82.2765 145.959 85.6577Z" fill="#CCDEF2"/>
<path d="M133.211 107.363C117.048 107.363 103.794 116.118 103.282 127.082C107.092 131.22 111.719 134.523 116.871 136.782C122.022 139.042 127.586 140.208 133.211 140.208C138.836 140.208 144.4 139.042 149.551 136.782C154.702 134.523 159.329 131.22 163.14 127.082C162.628 116.091 149.381 107.363 133.211 107.363Z" fill="#CCDEF2"/>
<path d="M70.9091 200.874H195.5C198.331 200.944 201.023 202.119 203.001 204.146C204.979 206.174 206.085 208.894 206.085 211.726C206.085 214.559 204.979 217.279 203.001 219.307C201.023 221.334 198.331 222.509 195.5 222.579H70.9091C68.0775 222.509 65.3857 221.334 63.4079 219.307C61.4302 217.279 60.3232 214.559 60.3232 211.726C60.3232 208.894 61.4302 206.174 63.4079 204.146C65.3857 202.119 68.0775 200.944 70.9091 200.874Z" fill="#DAD5E3"/>
<path d="M71.2929 236.89H195.883C198.715 236.961 201.407 238.135 203.385 240.163C205.362 242.191 206.469 244.911 206.469 247.743C206.469 250.576 205.362 253.296 203.385 255.324C201.407 257.351 198.715 258.526 195.883 258.596H71.2929C68.4613 258.526 65.7695 257.351 63.7917 255.324C61.814 253.296 60.707 250.576 60.707 247.743C60.707 244.911 61.814 242.191 63.7917 240.163C65.7695 238.135 68.4613 236.961 71.2929 236.89Z" fill="#DAD5E3"/>
<path d="M85.4354 252.596C84.9707 252.939 82.5529 251.66 81.9805 251.66C81.408 251.66 79.0105 253.006 78.5458 252.65C78.0811 252.293 78.5458 249.619 78.3707 249.08C78.1956 248.541 76.1954 246.662 76.3503 246.117C76.5052 245.571 79.226 245.188 79.7177 244.844C80.2093 244.501 81.3407 242.029 81.9131 242.029C82.4856 242.029 83.6911 244.48 84.1558 244.81C84.6205 245.14 87.3345 245.484 87.5231 246.029C87.7117 246.575 85.7384 248.481 85.57 249.026C85.4017 249.572 85.9068 252.259 85.4488 252.596H85.4354Z" fill="black"/>
<path d="M111.263 252.596C110.798 252.939 108.38 251.66 107.808 251.66C107.235 251.66 104.838 253.006 104.373 252.65C103.908 252.293 104.373 249.619 104.198 249.08C104.023 248.541 102.023 246.662 102.177 246.117C102.332 245.571 105.06 245.188 105.545 244.844C106.03 244.501 107.168 242.029 107.74 242.029C108.313 242.029 109.518 244.48 109.983 244.81C110.448 245.14 113.162 245.484 113.35 246.029C113.539 246.575 111.566 248.481 111.397 249.026C111.229 249.572 111.734 252.259 111.276 252.596H111.263Z" fill="black"/>
<path d="M137.124 252.596C136.659 252.939 134.241 251.659 133.669 251.659C133.097 251.659 130.699 253.006 130.234 252.649C129.77 252.292 130.234 249.619 130.059 249.08C129.884 248.541 127.884 246.662 128.039 246.117C128.194 245.571 130.921 245.187 131.406 244.844C131.891 244.501 133.029 242.029 133.602 242.029C134.174 242.029 135.38 244.48 135.844 244.81C136.309 245.14 139.023 245.484 139.212 246.029C139.4 246.575 137.427 248.481 137.259 249.026C137.09 249.572 137.595 252.259 137.137 252.596H137.124Z" fill="black"/>
<path d="M162.918 252.596C162.453 252.939 160.035 251.66 159.463 251.66C158.89 251.66 156.493 253.006 156.028 252.65C155.564 252.293 156.028 249.619 155.853 249.08C155.678 248.541 153.678 246.662 153.833 246.117C153.988 245.571 156.715 245.188 157.2 244.844C157.685 244.501 158.83 242.029 159.402 242.029C159.975 242.029 161.174 244.48 161.638 244.81C162.103 245.14 164.817 245.484 165.006 246.029C165.194 246.575 163.221 248.481 163.052 249.026C162.884 249.572 163.389 252.259 162.931 252.596H162.918Z" fill="black"/>
<path d="M188.745 252.596C188.287 252.939 185.862 251.66 185.297 251.66C184.731 251.66 182.32 253.006 181.855 252.65C181.391 252.293 181.855 249.619 181.68 249.08C181.505 248.541 179.505 246.662 179.66 246.117C179.815 245.571 182.542 245.188 183.027 244.844C183.512 244.501 184.657 242.029 185.229 242.029C185.802 242.029 187.001 244.48 187.465 244.81C187.93 245.14 190.644 245.484 190.833 246.029C191.021 246.575 189.055 248.481 188.88 249.026C188.705 249.572 189.216 252.259 188.758 252.596H188.745Z" fill="black"/>
<path d="M98.0222 284.39H168.399C169.825 284.387 171.238 284.666 172.557 285.211C173.875 285.755 175.073 286.555 176.082 287.564C177.09 288.572 177.89 289.77 178.434 291.088C178.979 292.407 179.258 293.82 179.255 295.246V301.981C179.258 303.407 178.979 304.819 178.434 306.137C177.889 307.455 177.09 308.653 176.081 309.661C175.072 310.669 173.875 311.468 172.556 312.012C171.238 312.556 169.825 312.834 168.399 312.83H98.0222C96.5962 312.834 95.1834 312.556 93.8651 312.012C92.5468 311.468 91.3489 310.669 90.3402 309.661C89.3315 308.653 88.5318 307.455 87.9871 306.137C87.4424 304.819 87.1634 303.407 87.166 301.981V295.246C87.1634 293.82 87.4424 292.407 87.987 291.088C88.5316 289.77 89.3312 288.572 90.3398 287.564C91.3484 286.555 92.5463 285.755 93.8646 285.211C95.1829 284.666 96.5958 284.387 98.0222 284.39Z" fill="#56BB6A"/>
<path d="M102.104 297.704C101.894 297.704 101.691 297.788 101.542 297.937C101.393 298.086 101.31 298.288 101.31 298.499C101.308 298.604 101.327 298.708 101.366 298.805C101.406 298.902 101.464 298.991 101.538 299.065C101.613 299.139 101.701 299.197 101.798 299.237C101.895 299.276 102 299.295 102.104 299.293H164.332C164.543 299.293 164.745 299.21 164.894 299.061C165.043 298.912 165.127 298.71 165.127 298.499C165.127 298.288 165.043 298.086 164.894 297.937C164.745 297.788 164.543 297.704 164.332 297.704H102.104Z" fill="black"/>
<path d="M78.2166 211.306C78.0058 211.306 77.8037 211.389 77.6546 211.538C77.5056 211.687 77.4219 211.89 77.4219 212.1C77.4219 212.311 77.5056 212.513 77.6546 212.662C77.8037 212.811 78.0058 212.895 78.2166 212.895H188.206C188.417 212.895 188.619 212.811 188.768 212.662C188.917 212.513 189.001 212.311 189.001 212.1C189.001 211.89 188.917 211.687 188.768 211.538C188.619 211.389 188.417 211.306 188.206 211.306H78.2166Z" fill="black"/>
<path d="M114.024 175.949C113.813 175.949 113.611 175.865 113.462 175.716C113.313 175.567 113.229 175.365 113.229 175.154C113.229 174.943 113.313 174.741 113.462 174.592C113.611 174.443 113.813 174.359 114.024 174.359H152.412C152.622 174.359 152.824 174.443 152.973 174.592C153.123 174.741 153.206 174.943 153.206 175.154C153.206 175.365 153.123 175.567 152.973 175.716C152.824 175.865 152.622 175.949 152.412 175.949H114.024Z" fill="black"/>
<path d="M82.1961 161.739C81.9853 161.739 81.7832 161.655 81.6341 161.506C81.4851 161.357 81.4014 161.155 81.4014 160.944C81.4014 160.733 81.4851 160.531 81.6341 160.382C81.7832 160.233 81.9853 160.149 82.1961 160.149H184.226C184.436 160.149 184.639 160.233 184.788 160.382C184.937 160.531 185.02 160.733 185.02 160.944C185.02 161.155 184.937 161.357 184.788 161.506C184.639 161.655 184.436 161.739 184.226 161.739H82.1961Z" fill="black"/>
</svg>
