<svg width="24" height="24" viewBox="0 0 24 24" fill="none" xmlns="http://www.w3.org/2000/svg">
<path d="M11.9971 9.887V14.472H18.5311C18.132 15.8828 17.2714 17.119 16.0869 17.983C14.9023 18.847 13.4623 19.2889 11.9971 19.238C10.83 19.2388 9.68011 18.9574 8.64531 18.4178C7.61052 17.8782 6.72156 17.0963 6.05421 16.1389C5.38686 15.1815 4.96092 14.0769 4.81269 12.9193C4.66446 11.7617 4.79834 10.5855 5.20292 9.4908C5.6075 8.39613 6.27078 7.41552 7.13622 6.63257C8.00165 5.84962 9.04358 5.28755 10.1732 4.99427C11.3028 4.701 12.4865 4.68521 13.6235 4.94826C14.7605 5.21132 15.8171 5.74541 16.7031 6.505L20.0801 3.128C18.6387 1.81526 16.8991 0.87348 15.0119 0.38414C13.1248 -0.105199 11.1468 -0.127362 9.24909 0.319569C7.35141 0.7665 5.5912 1.66907 4.12075 2.94918C2.65029 4.22929 1.51388 5.8484 0.80982 7.66643C0.105761 9.48446 -0.144738 11.4467 0.0799941 13.3833C0.304726 15.3199 0.997922 17.1725 2.09961 18.781C3.2013 20.3895 4.6783 21.7053 6.40283 22.6147C8.12736 23.524 10.0475 23.9995 11.9971 24C22.0721 24 24.2971 14.58 23.3081 9.9L11.9971 9.887Z" fill="white"/>
</svg>
