<svg width="436" height="530" viewBox="0 0 436 530" fill="none" xmlns="http://www.w3.org/2000/svg">
<path d="M19.3176 437.324L19.3176 437.324C19.6769 433.254 21.3924 429.496 23.1529 425.697L23.2415 425.506C24.9669 421.783 26.7137 418.015 27.161 413.929C27.5226 410.655 27.0262 407.419 26.3771 404.208C26.2281 403.471 26.0712 402.736 25.9145 402.002C25.3866 399.528 24.8613 397.067 24.6484 394.582C24.374 391.375 24.9468 387.824 26.3757 384.954C27.8023 382.09 30.0667 379.931 33.1725 379.428C38.9665 378.967 43.4442 380.75 46.6379 384.075C49.8405 387.41 51.7737 392.318 52.418 398.136L52.418 398.137C52.7124 400.728 52.5624 403.366 52.4116 406.019C52.3742 406.678 52.3367 407.338 52.3059 407.998C52.152 411.302 52.1689 414.603 53.2501 417.753C54.1866 420.481 55.8682 422.906 57.5162 425.283C57.7665 425.644 58.016 426.004 58.262 426.363C60.1386 429.106 61.8182 431.843 62.22 435.031C62.5569 437.714 61.9362 440.34 61.1647 443.009C61.0439 443.427 60.9193 443.847 60.7943 444.267C60.1252 446.519 59.4438 448.812 59.269 451.159C58.9873 454.928 60.0141 458.584 61.0757 462.197C61.1166 462.336 61.1575 462.475 61.1984 462.614C62.2245 466.099 63.2396 469.547 63.1705 473.09L63.1705 473.091C63.0271 480.974 56.7511 488.32 48.9983 489.701C41.2454 491.082 32.8164 486.359 29.9497 479.023C29.1014 476.843 28.7075 474.54 28.4022 472.188C28.3275 471.614 28.2581 471.035 28.1885 470.455C27.9744 468.67 27.7583 466.868 27.3818 465.107L27.3818 465.106C26.5788 461.371 25.038 457.772 23.5175 454.22C23.0853 453.21 22.6546 452.204 22.243 451.2C20.3769 446.647 18.8934 442.114 19.3176 437.324Z" fill="#56BB6A" stroke="black" stroke-width="0.5"/>
<path d="M0.324636 435.82C-0.773247 446.653 4.02834 459.405 9.59712 468.77C15.1659 478.135 23.8167 485.622 33.8564 489.828C34.9939 490.304 36.396 490.701 37.3484 489.921C38.1288 489.286 38.2214 488.148 38.2347 487.143C38.314 475.741 34.5971 464.339 27.8246 455.159C21.0521 445.992 11.2506 439.101 0.324636 435.82Z" fill="#56BB6A"/>
<path d="M47.5311 512.487C47.5179 512.5 47.4121 512.288 47.2269 511.878C47.0285 511.415 46.7639 510.82 46.4597 510.106C45.8116 508.558 44.8327 506.336 43.5893 503.598C41.1158 498.122 37.4518 490.675 32.8222 482.765C28.1925 474.854 23.4968 468.003 19.9518 463.161C18.1793 460.741 16.7111 458.796 15.6793 457.474C15.2031 456.852 14.8195 456.336 14.5153 455.926C14.2507 455.569 14.1185 455.37 14.1449 455.357C14.1582 455.344 14.3301 455.516 14.6211 455.847C14.9518 456.23 15.3619 456.72 15.8777 457.315C16.9624 458.598 18.4835 460.503 20.3089 462.897C23.9597 467.685 28.7216 474.511 33.3645 482.447C37.9941 490.384 41.6184 497.884 43.9862 503.413C45.1766 506.177 46.0893 508.439 46.6713 510.013C46.9359 510.754 47.1608 511.349 47.3327 511.825C47.4915 512.262 47.5576 512.474 47.5311 512.487Z" fill="#353736"/>
<path d="M40.5621 409.167C40.5886 409.167 40.6282 409.524 40.6811 410.212C40.7341 410.953 40.8134 411.945 40.8928 413.201C41.0648 415.847 41.3028 419.59 41.5938 424.18C42.1759 433.453 42.996 446.27 44.0013 460.41C44.9933 474.55 45.9722 487.355 46.6997 496.627C47.0568 501.217 47.3346 504.947 47.533 507.606C47.6124 508.863 47.6917 509.855 47.7314 510.595C47.7711 511.283 47.7843 511.64 47.7579 511.64C47.7314 511.64 47.6785 511.283 47.5991 510.609C47.5198 509.881 47.4139 508.876 47.2817 507.632C47.0303 504.987 46.6864 501.257 46.2499 496.68C45.4166 487.421 44.3716 474.63 43.3796 460.476C42.3875 446.336 41.6335 433.519 41.1573 424.233C40.9457 419.63 40.7737 415.886 40.6415 413.241C40.6018 411.984 40.5621 410.992 40.5356 410.252C40.5356 409.524 40.5357 409.167 40.5621 409.167Z" fill="#282C29"/>
<path d="M30.5869 497.037H57.7297V516.971C57.7297 524.167 51.8964 530 44.7007 530C37.7694 530 32.0552 524.577 31.6848 517.672L30.5869 497.037Z" fill="#AAC6CE"/>
<path d="M401.67 434.788L254.157 434.101C236.419 434.021 222.094 419.577 222.173 401.825L223.734 31.9977C223.813 14.2464 238.258 -0.0790368 256.022 0.000328184L403.536 0.688164C421.274 0.767529 435.599 15.212 435.52 32.9633L433.959 402.791C433.866 420.542 419.422 434.881 401.67 434.788Z" fill="#263238"/>
<path d="M403.313 13.466L374.715 13.3337C370.879 13.3205 367.757 16.548 367.744 20.5559L367.717 25.7411C367.704 29.749 364.582 32.9898 360.747 32.9633L304.993 32.712C301.157 32.6988 298.061 29.4316 298.075 25.4236L298.101 20.2385C298.114 16.2305 295.019 12.9633 291.183 12.9501L281.13 12.8972L256.104 12.7781C243.67 12.7252 233.551 22.7517 233.498 35.1855L231.977 396.164C231.924 408.585 241.95 418.704 254.371 418.77L401.593 419.445C414.027 419.497 424.146 409.471 424.199 397.037L425.72 36.0586C425.773 23.6379 415.746 13.5189 403.313 13.466Z" fill="#FAFAFA"/>
<path d="M350.182 57.9996L312.206 57.8244L312.174 64.7952L350.15 64.9705L350.182 57.9996Z" fill="#455A64"/>
<path d="M267.977 115.013C268.559 115.08 268.877 115.093 268.863 115.146C268.863 115.093 269.154 115.093 269.697 115.027L267.977 115.013Z" fill="#455A64"/>
<path d="M278.386 95.8865C277.698 94.9473 276.852 94.0875 275.86 93.3865C273.915 91.9314 271.428 91.1113 268.862 91.0849C266.296 91.1113 263.809 91.9314 261.865 93.3865C260.886 94.0875 260.026 94.9473 259.339 95.8865C258.637 96.8124 258.082 97.8309 257.712 98.8759C256.905 100.966 256.839 103.162 257.169 105.119C257.5 107.09 258.36 108.796 259.365 110.146C259.51 110.344 259.669 110.503 259.815 110.688C260.688 108.188 262.632 105.397 266.984 104.736C264.973 103.902 263.545 101.826 263.558 99.3918C263.571 96.2304 265.992 93.6775 268.955 93.6907C271.918 93.7039 274.312 96.2833 274.299 99.4447C274.286 101.865 272.87 103.916 270.886 104.749C275.159 105.397 277.063 108.162 277.923 110.675C278.069 110.503 278.214 110.344 278.36 110.159C279.365 108.797 280.212 107.09 280.555 105.132C280.886 103.188 280.807 100.979 280.013 98.9023C279.63 97.8309 279.074 96.8124 278.386 95.8865Z" fill="#FAFAFA"/>
<path d="M280.676 98.6379C280.292 97.5135 279.71 96.4421 278.983 95.45C278.255 94.4447 277.356 93.5321 276.324 92.7781C274.274 91.2173 271.615 90.3442 268.877 90.3178C266.139 90.3442 263.493 91.2173 261.43 92.7781C260.385 93.5321 259.485 94.4447 258.771 95.45C258.03 96.4421 257.448 97.5268 257.078 98.6379C256.244 100.86 256.205 103.188 256.575 105.238C256.959 107.302 257.885 109.088 258.956 110.476C261.165 113.307 263.969 114.484 265.861 114.894C266.813 115.106 267.58 115.172 268.096 115.172C268.612 115.172 268.877 115.159 268.877 115.133C268.877 115.08 268.559 115.08 267.99 115L269.71 115.014C269.168 115.08 268.877 115.093 268.877 115.133C268.877 115.159 269.141 115.172 269.657 115.172C270.173 115.185 270.94 115.119 271.893 114.894C273.784 114.484 276.588 113.294 278.797 110.476C279.882 109.074 280.795 107.302 281.178 105.238C281.549 103.188 281.496 100.86 280.676 98.6379ZM280.557 105.119C280.226 107.09 279.366 108.797 278.361 110.146C278.215 110.331 278.07 110.49 277.924 110.662C277.065 108.148 275.16 105.384 270.887 104.736C272.871 103.902 274.287 101.852 274.3 99.4315C274.313 96.2702 271.919 93.6908 268.956 93.6776C265.993 93.6643 263.572 96.2172 263.559 99.3786C263.546 101.812 264.975 103.889 266.985 104.723C262.633 105.384 260.702 108.162 259.816 110.675C259.67 110.503 259.512 110.331 259.366 110.133C258.361 108.77 257.514 107.064 257.17 105.106C256.84 103.148 256.919 100.953 257.713 98.8627C258.083 97.8178 258.639 96.7993 259.34 95.8733C260.028 94.9342 260.874 94.0744 261.866 93.3733C263.811 91.9183 266.297 91.0982 268.863 91.0717C271.43 91.0982 273.916 91.9183 275.861 93.3733C276.84 94.0744 277.699 94.9342 278.387 95.8733C279.088 96.7993 279.644 97.8178 280.014 98.8627C280.808 100.966 280.874 103.162 280.557 105.119Z" fill="#455A64"/>
<path d="M411.775 126.151C411.775 126.125 412.158 126.151 412.872 126.005C413.573 125.86 414.658 125.503 415.69 124.524C416.722 123.572 417.621 121.892 417.476 119.802C417.462 117.699 417.449 115.291 417.436 112.566C417.423 107.117 417.396 100.463 417.37 92.7383C417.37 90.8071 417.357 88.8098 417.357 86.7463C417.476 84.7357 416.431 82.659 414.592 81.6008C412.767 80.45 410.399 80.9526 408.097 80.8468C405.782 80.8468 403.401 80.86 400.981 80.86C362.039 80.8865 308.283 80.9261 248.904 80.9791C247.158 80.9791 245.465 81.8521 244.473 83.2674C243.957 83.9685 243.653 84.7886 243.534 85.6351C243.428 86.4552 243.494 87.4341 243.468 88.3336C243.468 91.9976 243.468 95.6484 243.468 99.2595C243.468 106.482 243.468 113.611 243.481 120.595C243.534 122.236 244.394 123.81 245.73 124.749C246.378 125.225 247.145 125.556 247.939 125.688C248.719 125.834 249.592 125.767 250.452 125.781C253.891 125.781 257.29 125.781 260.663 125.781C267.396 125.781 273.997 125.794 280.425 125.794C306.153 125.82 329.327 125.847 348.798 125.873C368.243 125.926 383.984 125.966 394.896 125.992C400.319 126.019 404.539 126.045 407.423 126.058C408.838 126.072 409.923 126.085 410.677 126.098C411.404 126.125 411.775 126.151 411.775 126.151C411.775 126.151 411.404 126.177 410.663 126.191C409.909 126.204 408.825 126.217 407.409 126.23C404.526 126.244 400.306 126.27 394.883 126.296C383.97 126.323 368.243 126.363 348.785 126.416C329.314 126.442 306.153 126.468 280.412 126.495C273.984 126.495 267.383 126.508 260.65 126.508C257.277 126.508 253.878 126.508 250.439 126.508C249.579 126.495 248.719 126.561 247.793 126.402C246.88 126.244 246.021 125.873 245.267 125.331C243.759 124.259 242.78 122.474 242.714 120.609C242.714 113.598 242.701 106.468 242.701 99.233C242.701 95.6219 242.701 91.9711 242.701 88.3071C242.727 87.3812 242.648 86.5082 242.767 85.5029C242.912 84.5373 243.256 83.5849 243.838 82.7912C244.962 81.1775 246.92 80.1722 248.891 80.1722C308.269 80.2119 362.026 80.2516 400.968 80.2912C403.401 80.2912 405.769 80.3045 408.084 80.3045C409.235 80.3045 410.386 80.3045 411.51 80.3177C412.661 80.278 413.851 80.569 414.817 81.1643C416.814 82.315 417.939 84.6034 417.793 86.733C417.793 88.7965 417.78 90.7939 417.78 92.7251C417.753 100.45 417.727 107.103 417.714 112.553C417.7 115.265 417.687 117.685 417.674 119.789C417.806 121.931 416.854 123.677 415.769 124.63C414.685 125.622 413.573 125.953 412.859 126.072C412.158 126.204 411.775 126.151 411.775 126.151Z" fill="#455A64"/>
<path d="M335.398 92.4209H292.436V95.6484H335.398V92.4209Z" fill="#455A64"/>
<path d="M367.7 110.635H292.436V113.863H367.7V110.635Z" fill="#455A64"/>
<path d="M401.51 101.31H292.436V104.537H401.51V101.31Z" fill="#455A64"/>
<path d="M267.977 228.982C268.559 229.048 268.877 229.061 268.863 229.114C268.863 229.061 269.154 229.061 269.697 228.995L267.977 228.982Z" fill="#455A64"/>
<path d="M278.386 209.855C277.698 208.916 276.852 208.056 275.86 207.355C273.915 205.9 271.428 205.08 268.862 205.053C266.296 205.08 263.809 205.9 261.865 207.355C260.886 208.056 260.026 208.916 259.339 209.855C258.637 210.781 258.082 211.799 257.712 212.844C256.905 214.934 256.839 217.13 257.169 219.088C257.5 221.058 258.36 222.765 259.365 224.114C259.51 224.312 259.669 224.471 259.815 224.656C260.688 222.156 262.632 219.365 266.984 218.704C264.973 217.871 263.545 215.794 263.558 213.36C263.571 210.199 265.992 207.646 268.955 207.659C271.918 207.672 274.312 210.252 274.299 213.413C274.286 215.834 272.87 217.884 270.886 218.717C275.159 219.365 277.063 222.13 277.923 224.643C278.069 224.471 278.214 224.312 278.36 224.127C279.365 222.765 280.212 221.058 280.555 219.101C280.886 217.156 280.807 214.947 280.013 212.871C279.63 211.799 279.074 210.794 278.386 209.855Z" fill="#FAFAFA"/>
<path d="M280.676 212.619C280.292 211.508 279.71 210.424 278.983 209.431C278.255 208.426 277.356 207.513 276.324 206.759C274.274 205.199 271.615 204.326 268.877 204.299C266.139 204.326 263.493 205.199 261.43 206.759C260.385 207.513 259.485 208.426 258.771 209.431C258.03 210.424 257.448 211.508 257.078 212.619C256.244 214.841 256.205 217.17 256.575 219.22C256.959 221.283 257.885 223.069 258.956 224.458C261.165 227.289 263.969 228.466 265.861 228.876C266.813 229.088 267.58 229.154 268.096 229.154C268.612 229.154 268.877 229.14 268.877 229.114C268.877 229.061 268.559 229.061 267.99 228.982L269.71 228.995C269.168 229.061 268.877 229.074 268.877 229.114C268.877 229.14 269.141 229.154 269.657 229.154C270.173 229.167 270.94 229.101 271.893 228.876C273.784 228.466 276.588 227.275 278.797 224.458C279.882 223.056 280.795 221.283 281.178 219.22C281.549 217.156 281.496 214.841 280.676 212.619ZM280.557 219.088C280.226 221.058 279.366 222.765 278.361 224.114C278.215 224.299 278.07 224.458 277.924 224.63C277.065 222.117 275.16 219.352 270.887 218.704C272.871 217.871 274.287 215.82 274.3 213.4C274.313 210.238 271.919 207.659 268.956 207.646C265.993 207.632 263.572 210.185 263.559 213.347C263.546 215.781 264.975 217.857 266.985 218.691C262.633 219.352 260.702 222.13 259.816 224.643C259.67 224.471 259.512 224.299 259.366 224.101C258.361 222.738 257.514 221.032 257.17 219.074C256.84 217.117 256.919 214.921 257.713 212.831C258.083 211.786 258.639 210.767 259.34 209.841C260.028 208.902 260.874 208.043 261.866 207.341C263.811 205.886 266.297 205.066 268.863 205.04C271.43 205.066 273.916 205.886 275.861 207.341C276.84 208.043 277.699 208.902 278.387 209.841C279.088 210.767 279.644 211.786 280.014 212.831C280.808 214.947 280.874 217.143 280.557 219.088Z" fill="#455A64"/>
<path d="M411.775 240.132C411.775 240.106 412.158 240.132 412.872 239.987C413.573 239.841 414.658 239.484 415.69 238.506C416.722 237.553 417.621 235.873 417.476 233.783C417.462 231.68 417.449 229.273 417.436 226.548C417.423 221.098 417.396 214.445 417.37 206.72C417.37 204.789 417.357 202.791 417.357 200.728C417.476 198.717 416.431 196.64 414.592 195.582C412.767 194.431 410.399 194.934 408.097 194.828C405.782 194.828 403.401 194.842 400.981 194.842C362.039 194.868 308.283 194.908 248.904 194.961C247.158 194.961 245.465 195.834 244.473 197.249C243.957 197.95 243.653 198.77 243.534 199.617C243.428 200.437 243.494 201.416 243.468 202.315C243.468 205.979 243.468 209.63 243.468 213.241C243.468 220.463 243.468 227.593 243.481 234.577C243.534 236.217 244.394 237.791 245.73 238.73C246.378 239.207 247.145 239.537 247.939 239.67C248.719 239.815 249.592 239.749 250.452 239.762C253.891 239.762 257.29 239.762 260.663 239.762C267.396 239.762 273.997 239.775 280.425 239.775C306.153 239.802 329.327 239.828 348.798 239.855C368.243 239.908 383.984 239.947 394.896 239.974C400.319 240 404.539 240.027 407.423 240.04C408.838 240.053 409.923 240.066 410.677 240.08C411.404 240.106 411.775 240.132 411.775 240.132C411.775 240.132 411.404 240.159 410.663 240.172C409.909 240.185 408.825 240.199 407.409 240.212C404.526 240.225 400.306 240.252 394.883 240.278C383.97 240.304 368.243 240.344 348.785 240.397C329.314 240.423 306.153 240.45 280.412 240.476C273.984 240.476 267.383 240.49 260.65 240.49C257.277 240.49 253.878 240.49 250.439 240.49C249.579 240.476 248.719 240.543 247.793 240.384C246.88 240.225 246.021 239.855 245.267 239.312C243.759 238.241 242.78 236.455 242.714 234.59C242.714 227.58 242.701 220.45 242.701 213.215C242.701 209.603 242.701 205.953 242.701 202.289C242.727 201.363 242.648 200.49 242.767 199.484C242.912 198.519 243.256 197.566 243.838 196.773C244.962 195.159 246.92 194.154 248.891 194.154C308.269 194.193 362.026 194.233 400.968 194.273C403.401 194.273 405.769 194.286 408.084 194.286C409.235 194.286 410.386 194.286 411.51 194.299C412.661 194.26 413.851 194.551 414.817 195.146C416.814 196.297 417.939 198.585 417.793 200.715C417.793 202.778 417.78 204.775 417.78 206.707C417.753 214.431 417.727 221.085 417.714 226.535C417.7 229.246 417.687 231.667 417.674 233.77C417.806 235.913 416.854 237.659 415.769 238.611C414.685 239.603 413.573 239.934 412.859 240.053C412.158 240.185 411.775 240.132 411.775 240.132Z" fill="#455A64"/>
<path d="M335.398 206.402H292.436V209.63H335.398V206.402Z" fill="#455A64"/>
<path d="M367.7 224.603H292.436V227.831H367.7V224.603Z" fill="#455A64"/>
<path d="M401.51 215.291H292.436V218.519H401.51V215.291Z" fill="#455A64"/>
<path d="M412.702 182.183L248.602 181.707C245.731 181.693 243.403 179.365 243.417 176.495L243.522 141.323C243.536 138.453 245.864 136.125 248.734 136.138L412.834 136.614C415.705 136.627 418.033 138.955 418.02 141.826L417.914 176.998C417.914 179.868 415.586 182.183 412.702 182.183Z" fill="#E8505B"/>
<path d="M335.818 148.237L292.855 148.114L292.846 151.342L335.809 151.465L335.818 148.237Z" fill="#FAFAFA"/>
<path d="M368.066 166.537L292.802 166.322L292.793 169.55L368.057 169.765L368.066 166.537Z" fill="#FAFAFA"/>
<path d="M401.9 157.3L292.826 156.988L292.817 160.215L401.891 160.528L401.9 157.3Z" fill="#FAFAFA"/>
<path d="M271.312 160.304C273.283 159.431 274.645 157.355 274.606 154.934C274.553 151.773 272.106 149.246 269.13 149.299C266.167 149.352 263.799 151.958 263.865 155.119C263.905 157.553 265.373 159.603 267.397 160.397C262.886 161.177 261.034 164.207 260.254 166.799C262.185 168.889 264.831 170.304 267.794 170.662L271.1 170.609C274.103 170.146 276.722 168.611 278.574 166.402C277.727 163.823 275.783 160.886 271.312 160.304Z" fill="#FAFAFA"/>
<path d="M269.516 170.754C269.503 170.675 270.6 170.701 272.452 170.185C274.264 169.669 276.923 168.373 278.921 165.582C279.899 164.193 280.72 162.474 281.011 160.49C281.302 158.532 281.183 156.323 280.336 154.246C279.939 153.201 279.37 152.196 278.643 151.283C277.942 150.357 277.069 149.511 276.063 148.836C274.093 147.421 271.566 146.654 269 146.68C266.421 146.759 263.947 147.632 262.029 149.14C261.05 149.868 260.217 150.741 259.556 151.707C258.881 152.659 258.339 153.677 257.995 154.749C257.241 156.865 257.214 159.061 257.585 161.019C257.968 162.976 258.854 164.669 259.899 166.005C262.016 168.704 264.727 169.881 266.566 170.318C268.431 170.754 269.529 170.662 269.516 170.754C269.516 170.754 268.431 170.939 266.5 170.569C264.608 170.199 261.778 169.061 259.516 166.296C258.405 164.921 257.452 163.162 257.029 161.111C256.619 159.074 256.619 156.759 257.399 154.524C257.757 153.4 258.312 152.315 259.026 151.31C259.727 150.291 260.6 149.365 261.632 148.598C263.643 147.011 266.275 146.072 269 145.992C271.725 145.953 274.384 146.773 276.473 148.281C277.532 149.008 278.444 149.894 279.185 150.886C279.939 151.865 280.548 152.923 280.944 154.035C281.817 156.23 281.923 158.545 281.593 160.595C281.249 162.659 280.376 164.458 279.331 165.873C277.188 168.744 274.41 169.987 272.545 170.45C270.614 170.886 269.516 170.754 269.516 170.754Z" fill="#FAFAFA"/>
<path d="M319.991 384.894C319.991 386.336 318.616 387.5 316.949 387.487C315.269 387.474 313.92 386.31 313.92 384.868C313.92 383.426 315.296 382.262 316.962 382.275C318.642 382.275 320.005 383.452 319.991 384.894Z" fill="#455A64"/>
<path d="M329.408 384.934C329.408 386.376 328.032 387.54 326.366 387.527C324.686 387.513 323.336 386.349 323.336 384.908C323.336 383.466 324.712 382.302 326.379 382.315C328.059 382.315 329.408 383.492 329.408 384.934Z" fill="#455A64"/>
<path d="M338.827 384.974C338.827 386.415 337.452 387.579 335.785 387.566C334.105 387.553 332.756 386.389 332.756 384.947C332.756 383.505 334.132 382.341 335.798 382.355C337.478 382.355 338.827 383.532 338.827 384.974Z" fill="#455A64"/>
<path d="M267.977 288.095C268.559 288.162 268.877 288.175 268.863 288.228C268.863 288.175 269.154 288.175 269.697 288.109L267.977 288.095Z" fill="#455A64"/>
<path d="M278.386 268.968C277.698 268.029 276.852 267.169 275.86 266.468C273.915 265.013 271.428 264.193 268.862 264.167C266.296 264.193 263.809 265.013 261.865 266.468C260.886 267.169 260.026 268.029 259.339 268.968C258.637 269.894 258.082 270.913 257.712 271.958C256.905 274.048 256.839 276.244 257.169 278.201C257.5 280.159 258.36 281.878 259.365 283.228C259.51 283.426 259.669 283.585 259.815 283.77C260.688 281.27 262.632 278.479 266.984 277.818C264.973 276.984 263.545 274.908 263.558 272.474C263.571 269.312 265.992 266.759 268.955 266.773C271.918 266.786 274.312 269.365 274.299 272.527C274.286 274.947 272.87 276.998 270.886 277.831C275.159 278.479 277.063 281.244 277.923 283.757C278.069 283.585 278.214 283.426 278.36 283.241C279.365 281.878 280.212 280.172 280.555 278.214C280.886 276.27 280.807 274.061 280.013 271.984C279.63 270.913 279.074 269.908 278.386 268.968Z" fill="#FAFAFA"/>
<path d="M280.676 271.72C280.292 270.595 279.71 269.524 278.983 268.532C278.255 267.527 277.356 266.614 276.324 265.86C274.274 264.299 271.615 263.426 268.877 263.4C266.139 263.426 263.493 264.299 261.43 265.86C260.385 266.614 259.485 267.527 258.771 268.532C258.03 269.524 257.448 270.609 257.078 271.72C256.244 273.942 256.205 276.27 256.575 278.32C256.959 280.384 257.885 282.169 258.956 283.558C261.165 286.389 263.969 287.566 265.861 287.976C266.813 288.188 267.58 288.254 268.096 288.254C268.612 288.254 268.877 288.241 268.877 288.214C268.877 288.162 268.559 288.161 267.99 288.082L269.71 288.095C269.168 288.162 268.877 288.175 268.877 288.214C268.877 288.241 269.141 288.254 269.657 288.254C270.173 288.267 270.94 288.201 271.893 287.976C273.784 287.566 276.588 286.376 278.797 283.558C279.882 282.156 280.795 280.384 281.178 278.32C281.549 276.27 281.496 273.942 280.676 271.72ZM280.557 278.201C280.226 280.172 279.366 281.878 278.361 283.228C278.215 283.413 278.07 283.572 277.924 283.744C277.065 281.23 275.16 278.466 270.887 277.818C272.871 276.984 274.287 274.934 274.3 272.513C274.313 269.352 271.919 266.773 268.956 266.759C265.993 266.746 263.572 269.299 263.559 272.46C263.546 274.894 264.975 276.971 266.985 277.804C262.633 278.466 260.702 281.244 259.816 283.757C259.67 283.585 259.512 283.413 259.366 283.214C258.361 281.852 257.514 280.146 257.17 278.188C256.84 276.23 256.919 274.035 257.713 271.945C258.083 270.9 258.639 269.881 259.34 268.955C260.028 268.016 260.874 267.156 261.866 266.455C263.811 265 266.297 264.18 268.863 264.154C271.43 264.18 273.916 265 275.861 266.455C276.84 267.156 277.699 268.016 278.387 268.955C279.088 269.881 279.644 270.9 280.014 271.945C280.808 274.061 280.874 276.257 280.557 278.201Z" fill="#455A64"/>
<path d="M411.775 299.246C411.775 299.22 412.158 299.246 412.872 299.101C413.573 298.955 414.658 298.598 415.69 297.619C416.722 296.667 417.621 294.987 417.476 292.897C417.462 290.794 417.449 288.386 417.436 285.662C417.423 280.212 417.396 273.558 417.37 265.833C417.37 263.902 417.357 261.905 417.357 259.841C417.476 257.831 416.431 255.754 414.592 254.696C412.767 253.545 410.399 254.048 408.097 253.942C405.782 253.942 403.401 253.955 400.981 253.955C362.039 253.982 308.283 254.021 248.904 254.074C247.158 254.074 245.465 254.947 244.473 256.363C243.957 257.064 243.653 257.884 243.534 258.73C243.428 259.55 243.494 260.529 243.468 261.429C243.468 265.093 243.468 268.744 243.468 272.355C243.468 279.577 243.468 286.706 243.481 293.691C243.534 295.331 244.394 296.905 245.73 297.844C246.378 298.32 247.145 298.651 247.939 298.783C248.719 298.929 249.592 298.863 250.452 298.876C253.891 298.876 257.29 298.876 260.663 298.876C267.396 298.876 273.997 298.889 280.425 298.889C306.153 298.915 329.327 298.942 348.798 298.968C368.243 299.021 383.984 299.061 394.896 299.087C400.319 299.114 404.539 299.14 407.423 299.154C408.838 299.167 409.923 299.18 410.677 299.193C411.404 299.22 411.775 299.246 411.775 299.246C411.775 299.246 411.404 299.273 410.663 299.286C409.909 299.299 408.825 299.312 407.409 299.326C404.526 299.339 400.306 299.365 394.883 299.392C383.97 299.418 368.243 299.458 348.785 299.511C329.314 299.537 306.153 299.564 280.412 299.59C273.984 299.59 267.383 299.603 260.65 299.603C257.277 299.603 253.878 299.603 250.439 299.603C249.579 299.59 248.719 299.656 247.793 299.497C246.88 299.339 246.021 298.968 245.267 298.426C243.759 297.355 242.78 295.569 242.714 293.704C242.714 286.693 242.701 279.564 242.701 272.328C242.701 268.717 242.701 265.066 242.701 261.402C242.727 260.476 242.648 259.603 242.767 258.598C242.912 257.632 243.256 256.68 243.838 255.886C244.962 254.273 246.92 253.267 248.891 253.267C308.269 253.307 362.026 253.347 400.968 253.386C403.401 253.386 405.769 253.4 408.084 253.4C409.235 253.4 410.386 253.4 411.51 253.413C412.661 253.373 413.851 253.664 414.817 254.259C416.814 255.41 417.939 257.699 417.793 259.815C417.793 261.878 417.78 263.876 417.78 265.807C417.753 273.532 417.727 280.185 417.714 285.635C417.7 288.347 417.687 290.767 417.674 292.871C417.806 295.013 416.854 296.759 415.769 297.712C414.685 298.704 413.573 299.035 412.859 299.154C412.158 299.299 411.775 299.246 411.775 299.246Z" fill="#455A64"/>
<path d="M335.398 265.516H292.436V268.744H335.398V265.516Z" fill="#455A64"/>
<path d="M367.7 283.717H292.436V286.945H367.7V283.717Z" fill="#455A64"/>
<path d="M401.51 274.392H292.436V277.619H401.51V274.392Z" fill="#455A64"/>
<path d="M267.977 346.032C268.559 346.098 268.877 346.111 268.863 346.164C268.863 346.111 269.154 346.111 269.697 346.045L267.977 346.032Z" fill="#455A64"/>
<path d="M278.386 326.905C277.698 325.966 276.852 325.106 275.86 324.405C273.915 322.95 271.428 322.13 268.862 322.103C266.296 322.13 263.809 322.95 261.865 324.405C260.886 325.106 260.026 325.966 259.339 326.905C258.637 327.831 258.082 328.849 257.712 329.894C256.905 331.984 256.839 334.18 257.169 336.138C257.5 338.109 258.36 339.815 259.365 341.164C259.51 341.363 259.669 341.521 259.815 341.706C260.688 339.206 262.632 336.415 266.984 335.754C264.973 334.921 263.545 332.844 263.558 330.41C263.571 327.249 265.992 324.696 268.955 324.709C271.918 324.722 274.312 327.302 274.299 330.463C274.286 332.884 272.87 334.934 270.886 335.767C275.159 336.415 277.063 339.18 277.923 341.693C278.069 341.521 278.214 341.363 278.36 341.177C279.365 339.815 280.212 338.109 280.555 336.151C280.886 334.206 280.807 331.997 280.013 329.921C279.63 328.849 279.074 327.831 278.386 326.905Z" fill="#FAFAFA"/>
<path d="M280.676 329.656C280.292 328.545 279.71 327.46 278.983 326.468C278.255 325.463 277.356 324.55 276.324 323.796C274.274 322.236 271.615 321.363 268.877 321.336C266.139 321.363 263.493 322.236 261.43 323.796C260.385 324.55 259.485 325.463 258.771 326.468C258.03 327.46 257.448 328.545 257.078 329.656C256.244 331.878 256.205 334.207 256.575 336.257C256.959 338.32 257.885 340.106 258.956 341.495C261.165 344.326 263.969 345.503 265.861 345.913C266.813 346.125 267.58 346.191 268.096 346.191C268.612 346.191 268.877 346.177 268.877 346.151C268.877 346.098 268.559 346.098 267.99 346.019L269.71 346.032C269.168 346.098 268.877 346.111 268.877 346.151C268.877 346.177 269.141 346.191 269.657 346.191C270.173 346.204 270.94 346.138 271.893 345.913C273.784 345.503 276.588 344.312 278.797 341.495C279.882 340.093 280.795 338.32 281.178 336.257C281.549 334.207 281.496 331.878 280.676 329.656ZM280.557 336.138C280.226 338.095 279.366 339.815 278.361 341.164C278.215 341.349 278.07 341.508 277.924 341.68C277.065 339.167 275.16 336.402 270.887 335.754C272.871 334.921 274.287 332.871 274.3 330.45C274.313 327.289 271.919 324.709 268.956 324.696C265.993 324.683 263.572 327.236 263.559 330.397C263.546 332.831 264.975 334.908 266.985 335.741C262.633 336.402 260.702 339.18 259.816 341.693C259.67 341.521 259.512 341.349 259.366 341.151C258.361 339.789 257.514 338.082 257.17 336.125C256.84 334.18 256.919 331.971 257.713 329.881C258.083 328.836 258.639 327.818 259.34 326.892C260.028 325.953 260.874 325.093 261.866 324.392C263.811 322.937 266.297 322.117 268.863 322.09C271.43 322.117 273.916 322.937 275.861 324.392C276.84 325.093 277.699 325.953 278.387 326.892C279.088 327.818 279.644 328.836 280.014 329.881C280.808 331.984 280.874 334.18 280.557 336.138Z" fill="#455A64"/>
<path d="M411.775 357.169C411.775 357.143 412.158 357.169 412.872 357.024C413.573 356.878 414.658 356.521 415.69 355.542C416.722 354.59 417.621 352.91 417.476 350.82C417.462 348.717 417.449 346.31 417.436 343.585C417.423 338.135 417.396 331.482 417.37 323.757C417.37 321.826 417.357 319.828 417.357 317.765C417.476 315.754 416.431 313.677 414.592 312.619C412.767 311.468 410.399 311.971 408.097 311.865C405.782 311.865 403.401 311.878 400.981 311.878C362.039 311.905 308.283 311.945 248.904 311.998C247.158 311.998 245.465 312.871 244.473 314.286C243.957 314.987 243.653 315.807 243.534 316.654C243.428 317.474 243.494 318.453 243.468 319.352C243.468 323.016 243.468 326.667 243.468 330.278C243.468 337.5 243.468 344.63 243.481 351.614C243.534 353.254 244.394 354.828 245.73 355.767C246.378 356.244 247.145 356.574 247.939 356.706C248.719 356.852 249.592 356.786 250.452 356.799C253.891 356.799 257.29 356.799 260.663 356.799C267.396 356.799 273.997 356.812 280.425 356.812C306.153 356.839 329.327 356.865 348.798 356.892C368.243 356.945 383.984 356.984 394.896 357.011C400.319 357.037 404.539 357.064 407.423 357.077C408.838 357.09 409.923 357.103 410.677 357.117C411.404 357.143 411.775 357.169 411.775 357.169C411.775 357.169 411.404 357.196 410.663 357.209C409.909 357.222 408.825 357.236 407.409 357.249C404.526 357.262 400.306 357.288 394.883 357.315C383.97 357.341 368.243 357.381 348.785 357.434C329.314 357.46 306.153 357.487 280.412 357.513C273.984 357.513 267.383 357.527 260.65 357.527C257.277 357.527 253.878 357.527 250.439 357.527C249.579 357.513 248.719 357.58 247.793 357.421C246.88 357.262 246.021 356.892 245.267 356.349C243.759 355.278 242.78 353.492 242.714 351.627C242.714 344.617 242.701 337.487 242.701 330.251C242.701 326.64 242.701 322.99 242.701 319.326C242.727 318.4 242.648 317.527 242.767 316.521C242.912 315.556 243.256 314.603 243.838 313.81C244.962 312.196 246.92 311.191 248.891 311.191C308.269 311.23 362.026 311.27 400.968 311.31C403.401 311.31 405.769 311.323 408.084 311.323C409.235 311.323 410.386 311.323 411.51 311.336C412.661 311.296 413.851 311.587 414.817 312.183C416.814 313.333 417.939 315.622 417.793 317.751C417.793 319.815 417.78 321.812 417.78 323.744C417.753 331.468 417.727 338.122 417.714 343.572C417.7 346.283 417.687 348.704 417.674 350.807C417.806 352.95 416.854 354.696 415.769 355.648C414.685 356.64 413.573 356.971 412.859 357.09C412.158 357.222 411.775 357.169 411.775 357.169Z" fill="#455A64"/>
<path d="M335.398 323.453H292.436V326.68H335.398V323.453Z" fill="#455A64"/>
<path d="M367.7 341.654H292.436V344.881H367.7V341.654Z" fill="#455A64"/>
<path d="M401.51 332.328H292.436V335.556H401.51V332.328Z" fill="#455A64"/>
<path d="M412.292 148.704C417.158 148.704 421.102 144.76 421.102 139.894C421.102 135.029 417.158 131.085 412.292 131.085C407.427 131.085 403.483 135.029 403.483 139.894C403.483 144.76 407.427 148.704 412.292 148.704Z" fill="#263238"/>
<path d="M407.98 139.18L411.67 142.434L416.604 137.341" stroke="#FAFAFA" stroke-miterlimit="10" stroke-linecap="round" stroke-linejoin="round"/>
<path d="M108.826 513.492L106.656 526.019L125.968 527.434L126.035 515.119L108.826 513.492Z" fill="url(#paint0_linear_607_3231)"/>
<path d="M117.515 513.664C117.674 513.677 117.515 516.243 117.171 519.391C116.827 522.54 116.404 525.066 116.245 525.053C116.087 525.04 116.245 522.474 116.589 519.325C116.946 516.177 117.356 513.638 117.515 513.664Z" fill="url(#paint1_linear_607_3231)"/>
<path d="M125.97 526.071C125.957 526.151 124.885 526.045 123.179 525.86C121.248 525.648 118.986 525.397 116.472 525.119C113.853 524.815 111.472 524.497 109.766 524.206C108.06 523.915 107.015 523.664 107.028 523.585C107.041 523.505 108.113 523.611 109.819 523.796C111.75 524.008 114.012 524.259 116.539 524.537C119.158 524.841 121.525 525.159 123.245 525.45C124.938 525.754 125.983 526.005 125.97 526.071Z" fill="url(#paint2_linear_607_3231)"/>
<path d="M178.526 520.331L178.565 509.1L157.52 508.902L157.295 525.331L158.605 525.423C164.412 525.807 188.142 526.931 192.031 525.794C196.369 524.524 178.526 520.331 178.526 520.331Z" fill="url(#paint3_linear_607_3231)"/>
<g opacity="0.38">
<g opacity="0.38">
<path opacity="0.38" d="M164.923 525.238C164.645 523.479 163.68 521.839 162.278 520.727C160.876 519.616 159.156 519.021 157.37 519.153L157.304 525.04L164.923 525.238Z" fill="url(#paint4_linear_607_3231)"/>
</g>
</g>
<g opacity="0.38">
<g opacity="0.38">
<path opacity="0.38" d="M187.237 522.685C187.237 522.685 193.48 524.55 192.7 525.582C191.906 526.6 167.885 526.362 157.303 525.331L157.342 524.854L185.358 525.37C185.345 525.37 186.006 522.725 187.237 522.685Z" fill="url(#paint5_linear_607_3231)"/>
</g>
</g>
<path d="M157.002 524.841C157.002 524.855 157.121 524.868 157.359 524.881C157.677 524.908 158.007 524.921 158.391 524.96C159.436 525.013 160.706 525.08 162.214 525.159C165.441 525.304 169.912 525.45 174.833 525.503C179.767 525.556 184.237 525.503 187.465 525.423C188.973 525.37 190.256 525.331 191.288 525.304C191.671 525.291 192.015 525.265 192.333 525.251C192.571 525.238 192.69 525.225 192.69 525.212C192.69 525.199 192.571 525.199 192.333 525.199C192.015 525.199 191.684 525.199 191.288 525.199C190.243 525.212 188.973 525.225 187.465 525.238C184.237 525.265 179.766 525.291 174.846 525.238C169.912 525.185 165.454 525.066 162.227 524.96C160.719 524.908 159.436 524.868 158.404 524.841C158.02 524.828 157.677 524.828 157.359 524.815C157.121 524.828 157.002 524.828 157.002 524.841Z" fill="url(#paint6_linear_607_3231)"/>
<path d="M185.335 525.701C185.415 525.714 185.481 524.801 186.063 523.889C186.631 522.963 187.425 522.5 187.385 522.434C187.372 522.368 186.46 522.751 185.851 523.743C185.229 524.735 185.269 525.714 185.335 525.701Z" fill="url(#paint7_linear_607_3231)"/>
<path d="M179.154 522.487C179.206 522.526 179.511 522.169 179.828 521.68C180.146 521.204 180.344 520.78 180.291 520.741C180.238 520.701 179.934 521.058 179.617 521.548C179.299 522.037 179.101 522.447 179.154 522.487Z" fill="url(#paint8_linear_607_3231)"/>
<path d="M177.465 521.574C177.517 521.627 177.848 521.402 178.205 521.085C178.576 520.767 178.827 520.463 178.787 520.41C178.734 520.357 178.404 520.582 178.047 520.9C177.676 521.217 177.425 521.521 177.465 521.574Z" fill="url(#paint9_linear_607_3231)"/>
<path d="M176.406 519.577C176.406 519.643 176.896 519.709 177.504 519.722C178.113 519.735 178.602 519.682 178.602 519.616C178.602 519.55 178.113 519.484 177.504 519.471C176.909 519.458 176.406 519.51 176.406 519.577Z" fill="url(#paint10_linear_607_3231)"/>
<path d="M176.053 518.175C176.027 518.241 176.556 518.479 177.27 518.545C177.984 518.611 178.553 518.452 178.54 518.386C178.527 518.307 177.971 518.347 177.297 518.294C176.622 518.227 176.08 518.108 176.053 518.175Z" fill="url(#paint11_linear_607_3231)"/>
<path d="M179.896 520.661C179.896 520.688 180.412 520.754 181.245 520.661C181.668 520.622 182.158 520.516 182.687 520.357C182.952 520.265 183.229 520.198 183.52 520.026C183.653 519.934 183.811 519.815 183.864 519.616C183.917 519.418 183.811 519.18 183.666 519.074C182.383 518.386 181.073 519.101 180.597 519.762C180.333 520.106 180.2 520.437 180.147 520.661C180.094 520.886 180.094 521.019 180.108 521.032C180.161 521.045 180.2 520.503 180.729 519.881C180.994 519.577 181.391 519.286 181.893 519.14C182.37 519.008 183.057 518.968 183.507 519.272C183.719 519.431 183.639 519.683 183.388 519.828C183.163 519.974 182.872 520.053 182.621 520.145C182.105 520.317 181.629 520.423 181.219 520.489C180.412 520.622 179.896 520.622 179.896 520.661Z" fill="url(#paint12_linear_607_3231)"/>
<path d="M180.243 520.727C180.256 520.741 180.468 520.397 180.415 519.788C180.388 519.484 180.283 519.14 180.058 518.796C179.82 518.492 179.515 518.082 178.933 518.095C178.616 518.135 178.457 518.492 178.51 518.717C178.536 518.955 178.642 519.153 178.735 519.325C178.933 519.669 179.158 519.947 179.37 520.145C179.793 520.569 180.124 520.727 180.137 520.701C180.163 520.675 179.872 520.45 179.502 520.026C179.317 519.815 179.118 519.537 178.947 519.206C178.761 518.915 178.642 518.399 178.986 518.347C179.33 518.32 179.661 518.664 179.872 518.929C180.084 519.22 180.203 519.537 180.243 519.815C180.322 520.37 180.203 520.727 180.243 520.727Z" fill="url(#paint13_linear_607_3231)"/>
<path d="M157.494 519.087C157.494 519.14 158.103 519.034 159.042 519.153C159.981 519.273 161.291 519.669 162.415 520.582C163.539 521.508 164.201 522.698 164.505 523.598C164.823 524.497 164.836 525.106 164.889 525.106C164.902 525.106 164.915 524.947 164.889 524.683C164.875 524.405 164.809 524.021 164.677 523.545C164.412 522.606 163.751 521.349 162.574 520.384C161.397 519.431 160.021 519.034 159.055 518.968C158.566 518.929 158.169 518.955 157.891 518.982C157.627 519.034 157.481 519.074 157.494 519.087Z" fill="url(#paint14_linear_607_3231)"/>
<path d="M159.748 510.357C159.682 510.357 159.576 512.288 159.523 514.682C159.47 517.077 159.484 519.008 159.55 519.008C159.616 519.008 159.722 517.077 159.775 514.682C159.828 512.288 159.814 510.357 159.748 510.357Z" fill="url(#paint15_linear_607_3231)"/>
<path d="M167.583 523.214C167.569 523.28 168.945 523.518 170.651 523.545C172.358 523.585 173.733 523.399 173.733 523.333C173.733 523.254 172.358 523.333 170.665 523.294C168.972 523.254 167.596 523.135 167.583 523.214Z" fill="url(#paint16_linear_607_3231)"/>
<path d="M163.47 523.161C163.417 523.214 163.576 523.452 163.722 523.77C163.867 524.087 163.933 524.365 163.999 524.365C164.066 524.365 164.105 524.034 163.947 523.664C163.788 523.307 163.51 523.108 163.47 523.161Z" fill="url(#paint17_linear_607_3231)"/>
<path d="M161.938 521.217C161.885 521.27 162.017 521.481 162.242 521.706C162.454 521.931 162.679 522.077 162.718 522.024C162.771 521.971 162.639 521.759 162.414 521.534C162.202 521.296 161.978 521.164 161.938 521.217Z" fill="url(#paint18_linear_607_3231)"/>
<path d="M159.717 520.304C159.73 520.37 160.008 520.37 160.312 520.489C160.616 520.595 160.841 520.767 160.894 520.714C160.947 520.674 160.775 520.37 160.391 520.238C160.021 520.119 159.703 520.238 159.717 520.304Z" fill="url(#paint19_linear_607_3231)"/>
<path d="M158.14 519.868C158.113 519.934 158.233 520.04 158.404 520.106C158.576 520.172 158.735 520.172 158.762 520.119C158.788 520.053 158.669 519.947 158.497 519.881C158.325 519.815 158.166 519.802 158.14 519.868Z" fill="url(#paint20_linear_607_3231)"/>
<path d="M146.615 178.955C146.773 175.662 147.117 171.932 147.117 171.932C147.117 171.932 155.265 171.032 155.768 162.619C156.257 154.193 155.768 134.789 155.768 134.789L140.927 127.223L124.604 140.106L127.078 182.196L142.104 183.148C144.458 183.307 146.496 181.429 146.615 178.955Z" fill="url(#paint21_linear_607_3231)"/>
<path d="M148.085 155.966C148.112 155.966 148.112 156.125 147.953 156.323C147.807 156.521 147.477 156.746 147.014 156.733C146.061 156.693 145.162 155.648 144.818 154.365C144.646 153.717 144.646 153.056 144.778 152.5C144.884 151.945 145.202 151.389 145.665 151.23C145.889 151.151 146.114 151.151 146.286 151.244C146.458 151.336 146.564 151.469 146.617 151.588C146.723 151.839 146.643 151.984 146.617 151.984C146.577 151.984 146.59 151.839 146.471 151.68C146.352 151.521 146.075 151.376 145.77 151.535C145.453 151.68 145.241 152.077 145.162 152.593C145.069 153.096 145.083 153.678 145.228 154.26C145.519 155.397 146.313 156.336 147.027 156.429C147.371 156.469 147.662 156.336 147.821 156.217C148.006 156.072 148.059 155.953 148.085 155.966Z" fill="#EB996E"/>
<path d="M148.032 161.164C148.138 160.86 148.218 160.529 148.297 160.212C148.363 159.974 148.429 159.749 148.495 159.511H148.482C148.614 158.823 148.707 158.122 148.72 157.408C147.278 157.976 145.546 157.593 144.448 156.482C143.35 155.371 142.94 153.572 143.442 152.064C144.024 150.331 145.612 149.167 147.252 148.479C148.892 147.791 150.651 147.447 152.265 146.68C155.678 145.053 158.046 141.693 159.646 138.162C160.771 135.688 161.617 132.857 160.85 130.238C159.712 126.363 155.599 124.431 151.842 123.373C146.128 121.76 139.937 121.032 134.368 123.096C128.786 125.146 122.08 128.77 122.08 134.934C118.786 134.656 116.908 137.553 115.599 141.125C114.831 143.241 114.144 147.897 114.144 147.897" fill="url(#paint22_linear_607_3231)"/>
<path d="M126.562 173.585C126.562 173.585 113.282 165.569 114.115 147.884C114.962 130.212 148.017 161.151 148.017 161.151C148.017 161.151 141.681 181.971 127.237 173.572" fill="url(#paint23_linear_607_3231)"/>
<path d="M121.655 155.966C121.562 155.887 122.237 155.265 122.766 153.982C123.309 152.738 123.626 150.701 122.806 148.783C121.959 146.865 120.253 145.728 118.97 145.278C117.66 144.802 116.761 144.868 116.761 144.749C116.748 144.683 117.674 144.431 119.115 144.815C120.531 145.172 122.475 146.349 123.441 148.506C124.367 150.675 123.917 152.897 123.216 154.18C122.502 155.516 121.695 156.019 121.655 155.966Z" fill="#E8505B"/>
<path d="M114.844 145.146C114.844 145.185 114.513 145.199 113.984 144.961C113.455 144.736 112.754 144.207 112.238 143.281C111.709 142.368 111.497 141.085 111.669 139.736C111.841 138.4 112.238 136.958 113.031 135.596C113.812 134.233 115.029 133.175 116.312 132.685C117.595 132.17 118.957 132.236 119.91 132.672C120.875 133.082 121.471 133.744 121.762 134.233C122.053 134.736 122.079 135.053 122.053 135.066C121.96 135.146 121.55 133.797 119.738 133.122C118.865 132.791 117.701 132.778 116.563 133.267C115.426 133.744 114.354 134.683 113.627 135.939C112.211 138.466 111.828 141.363 112.674 143.043C113.521 144.802 114.923 145.053 114.844 145.146Z" fill="#263238"/>
<path d="M265.042 151.111C264.447 150.503 262.992 150.794 262.992 150.794C262.992 150.794 263.243 149.074 262.979 148.228C262.714 147.394 260.849 147.553 260.849 147.553C260.849 147.553 260.73 146.746 260.902 145.45C260.942 145.119 260.77 144.881 260.466 144.709C259.579 144.18 257.688 144.207 257.688 144.207C256.55 143.387 261.167 136.945 262.873 134.881C264.566 132.844 264.275 131.204 262.754 131.204C261.709 131.204 256.325 137.408 254.685 139.484C253.045 141.561 248.64 147.355 248.481 142.738C248.336 138.122 246.471 134.617 245.32 134.021C244.156 133.426 242.913 134.828 243.548 136.111C244.063 137.143 244.394 139.141 244.579 140.662C244.738 141.905 244.685 143.175 244.407 144.392C243.64 147.857 242.807 150.106 242.423 151.059L242.304 150.992C242.304 150.992 210.069 181.905 207.741 184.114C205.651 186.098 163.759 181.76 155.373 180.873C153.085 180.622 149.685 180.159 146.735 180.291C143.098 180.45 142.45 180.966 138.799 181.019C127.648 181.164 119.844 182.011 112.926 183.175C104.566 184.59 99.9498 191.138 97.3704 199.22C88.9048 225.648 65.9816 287.884 62.5689 323.043C59.8837 328.095 56.8678 334.008 55.6509 337.328C53.2832 343.783 53.8519 344.008 54.6588 344.154C56.8017 344.55 59.262 332.95 60.1879 335.741C61.1006 338.545 55.5318 349.59 57.7937 349.908C60.7435 350.331 63.0847 338.135 63.3625 337.117C63.6271 336.125 65.1218 336.455 64.8175 337.368C64.3943 338.664 60.2276 352.447 63.1244 352.884C64.725 353.135 64.8969 350.212 64.8969 350.212C64.8969 350.212 67.8334 337.037 69.1958 337.289C70.5715 337.553 69.1165 345.344 68.4287 347.937C67.7541 350.503 68.7064 351.865 70.0821 351.217C71.0213 350.781 73.2964 342.884 73.9048 340.304C74.5133 337.725 76.0742 330.622 78.1509 334.749C80.2408 338.876 83.389 341.257 84.6985 341.31C86.008 341.363 86.5503 339.564 85.426 338.677C84.5133 337.95 83.3757 336.283 82.5689 334.987C81.9075 333.929 81.4181 332.752 81.1535 331.535C80.1218 326.812 80.1218 324.061 80.1218 324.061L79.8837 322.54C83.1906 306.151 94.4075 250.331 108.098 219.63L112.053 238.995L114.5 247.58L99.4868 284.696L163.601 283.849L154.037 247.011L165.651 208.598C178.217 208.876 210.505 209.352 215.929 206.918C222.688 203.902 257.688 159.775 257.688 159.775C260.056 157.897 262.45 155.86 264.235 154.101C264.235 154.114 266.325 152.434 265.042 151.111Z" fill="url(#paint24_linear_607_3231)"/>
<path d="M96.6982 257.368C98.55 251.019 108.114 219.617 108.114 219.617C108.114 219.617 112.809 245.212 111.566 248.294C110.151 251.852 107.532 255.913 107.532 255.913C96.685 272.421 98.1135 280.675 98.1135 280.675L163.603 278.677C163.762 269.524 158.338 248.228 157.214 244.828C156.076 241.442 159.846 230.304 159.846 230.304C159.846 230.304 167.24 222.791 166.963 218.916C166.381 211.125 165.666 208.611 165.666 208.611L214.172 209.537L208.748 183.162L161.976 179.749L146.42 178.294C138.603 184.894 126.857 178.294 126.857 178.294C111.936 179.749 109.754 182.143 103.629 188.254C96.3675 195.516 76.7114 250.979 76.7114 250.979L96.6982 257.368Z" fill="url(#paint25_linear_607_3231)"/>
<path d="M135.43 250.979C135.43 251.085 134.107 251.164 131.977 251.151C129.848 251.138 126.898 251.005 123.657 250.675C120.416 250.344 117.506 249.894 115.417 249.484C113.327 249.074 112.057 248.73 112.07 248.625C112.096 248.519 113.393 248.677 115.509 248.942C117.612 249.22 120.522 249.59 123.737 249.908C126.951 250.225 129.874 250.45 131.991 250.595C134.107 250.767 135.43 250.86 135.43 250.979Z" fill="url(#paint26_linear_607_3231)"/>
<path d="M139.899 245.41C139.925 245.503 138.576 246.019 136.327 246.627C134.079 247.236 130.917 247.91 127.372 248.334C123.827 248.757 120.6 248.836 118.272 248.77C115.944 248.704 114.502 248.519 114.515 248.426C114.515 248.307 115.957 248.307 118.272 248.228C120.587 248.162 123.774 247.99 127.293 247.566C130.798 247.143 133.946 246.561 136.208 246.098C138.47 245.622 139.872 245.291 139.899 245.41Z" fill="url(#paint27_linear_607_3231)"/>
<path d="M161.939 220.569C162.045 220.595 161.873 221.865 161.489 223.915C161.106 225.952 160.51 228.77 159.757 231.839C159.003 234.921 158.235 237.685 157.627 239.669C157.018 241.653 156.582 242.87 156.476 242.844C156.37 242.817 156.622 241.561 157.098 239.537C157.653 237.235 158.302 234.59 159.003 231.667C159.73 228.743 160.378 226.111 160.947 223.81C161.476 221.773 161.833 220.542 161.939 220.569Z" fill="url(#paint28_linear_607_3231)"/>
<path d="M97.6738 281.125L163.163 279.127L191.642 390.397L186.391 518.029H151.735L156.034 393.109L130.703 315.648L134.552 519.339L99.5521 519.855L95.9278 328.611C95.769 323.201 93.9966 310.979 94.6579 305.595L97.6738 281.125Z" fill="url(#paint29_linear_607_3231)"/>
<path d="M139.426 317.222C139.412 317.328 138.182 317.262 136.211 317.037C134.24 316.799 131.529 316.389 128.566 315.794C125.603 315.199 122.931 314.524 121.026 313.982C119.121 313.439 117.957 313.016 117.984 312.91C118.037 312.699 122.799 313.849 128.711 315.04C134.624 316.23 139.452 316.998 139.426 317.222Z" fill="url(#paint30_linear_607_3231)"/>
<path d="M186.074 511.032C186.074 511.243 178.23 511.415 168.547 511.415C158.865 511.415 151.973 511.124 151.973 510.9C151.973 510.688 158.865 510.635 168.547 510.635C178.23 510.648 186.074 510.82 186.074 511.032Z" fill="url(#paint31_linear_607_3231)"/>
<path d="M134.051 511.415C134.051 511.627 126.432 511.799 117.054 511.799C107.662 511.799 100.057 511.627 100.057 511.415C100.057 511.204 107.662 511.032 117.054 511.032C126.432 511.032 134.051 511.204 134.051 511.415Z" fill="url(#paint32_linear_607_3231)"/>
<path d="M129.78 511.415C129.568 511.415 128.642 467.381 127.73 413.069C126.804 358.73 126.235 314.696 126.447 314.696C126.658 314.696 127.584 358.717 128.497 413.056C129.409 467.368 129.991 511.402 129.78 511.415Z" fill="url(#paint33_linear_607_3231)"/>
<path d="M181.417 511.032C181.403 511.032 181.403 510.833 181.403 510.423C181.417 509.987 181.417 509.405 181.43 508.651C181.47 507.05 181.536 504.775 181.628 501.852C181.84 495.913 182.131 487.368 182.501 476.852C183.308 455.701 184.419 426.561 185.649 394.365C185.663 394.074 185.676 393.77 185.689 393.492L185.702 393.598C177.938 362.513 170.927 334.431 165.835 314.061C163.335 303.916 161.311 295.701 159.909 289.974C159.234 287.156 158.705 284.961 158.335 283.413C158.176 282.685 158.044 282.13 157.951 281.707C157.872 281.323 157.832 281.125 157.845 281.125C157.859 281.125 157.925 281.31 158.03 281.693C158.15 282.103 158.295 282.672 158.493 283.387C158.89 284.921 159.472 287.103 160.2 289.908C161.668 295.622 163.771 303.823 166.364 313.942C171.509 334.299 178.599 362.368 186.443 393.426L186.456 393.479V393.532C186.443 393.81 186.43 394.101 186.417 394.405C185.094 426.601 183.903 455.741 183.03 476.878C182.567 487.408 182.184 495.926 181.919 501.878C181.774 504.802 181.655 507.077 181.575 508.677C181.536 509.418 181.496 510.013 181.47 510.45C181.456 510.82 181.43 511.032 181.417 511.032Z" fill="url(#paint34_linear_607_3231)"/>
<path d="M170.124 390.9C170.164 391.111 166.725 391.865 162.466 392.606C159.278 393.148 156.527 393.532 155.336 393.598V393.294C155.733 393.4 155.945 393.492 155.945 393.545C155.931 393.598 155.707 393.611 155.296 393.598L154.397 393.558L155.296 393.294C156.447 392.95 159.172 392.394 162.347 391.852C166.606 391.111 170.098 390.688 170.124 390.9Z" fill="url(#paint35_linear_607_3231)"/>
<path d="M169.462 395.146C169.435 395.357 166.353 395.119 162.57 394.828C158.787 394.524 155.705 394.286 155.705 394.074C155.705 393.863 158.814 393.77 162.623 394.061C166.446 394.352 169.488 394.934 169.462 395.146Z" fill="url(#paint36_linear_607_3231)"/>
<path d="M97.3828 283.466C98.9701 285.688 101.219 286.482 103.851 286.905C106.47 287.328 109.155 287.05 111.788 286.759C128.692 284.881 146.602 283.148 163.163 279.127C141.735 280.331 119.102 279.921 97.6738 281.125C97.6738 281.125 97.4886 282.593 97.449 282.95" fill="url(#paint37_linear_607_3231)"/>
<path d="M119.473 313.677L131.537 360.543L130.69 315.648L119.473 313.677Z" fill="url(#paint38_linear_607_3231)"/>
<path d="M117.043 145.688C112.387 144.458 107.532 149.405 107.36 154.22C107.307 155.596 107.506 157.183 106.54 158.148C105.508 159.18 103.802 158.876 102.347 158.995C99.3577 159.233 96.7122 161.812 96.4344 164.802C96.2228 166.945 97.0826 169.246 96.1831 171.204C95.3365 173.069 93.2069 173.955 91.7651 175.41C89.9133 177.289 89.2651 180.093 89.4503 182.725C89.6355 185.357 90.5746 187.871 91.5006 190.344C92.3471 192.606 93.4582 195.119 95.7334 195.926H115.297L116.765 188.545L119.159 195.926H122.347L120.641 147.99C120.614 148.003 120.601 146.627 117.043 145.688Z" fill="url(#paint39_linear_607_3231)"/>
<path d="M90.2829 168.572C90.2829 168.611 90.0713 168.519 89.7538 168.677C89.4496 168.823 89.066 169.312 89.2909 169.947C89.476 170.569 90.1374 171.217 91.0633 171.389C91.976 171.601 93.1401 171.125 93.5898 170.027C93.8279 169.498 93.8676 168.876 93.6295 168.294C93.4178 167.699 92.9945 167.143 92.558 166.521C91.6189 165.318 91.0898 163.585 91.3411 161.839C91.5527 160.106 92.6242 158.347 94.3041 157.408C95.9443 156.442 98.1533 156.23 100.005 157.077C101.817 157.857 103.378 159.008 105.098 158.783C105.918 158.704 106.685 158.307 107.016 157.633C107.36 156.958 107.307 156.111 107.28 155.278C107.122 151.852 108.444 148.77 110.375 147.011C112.307 145.225 114.542 144.802 115.944 144.868C116.659 144.894 117.214 145.04 117.571 145.146C117.928 145.278 118.1 145.357 118.1 145.384C118.087 145.45 117.346 145.133 115.957 145.146C114.608 145.172 112.505 145.648 110.719 147.381C108.96 149.074 107.756 152.011 107.928 155.278C107.955 156.098 108.061 157.037 107.611 157.95C107.161 158.876 106.129 159.392 105.177 159.484C104.211 159.59 103.193 159.379 102.32 158.968C101.434 158.585 100.614 158.095 99.7538 157.738C98.0739 156.971 96.1427 157.17 94.648 158.016C93.1268 158.849 92.1877 160.384 91.976 161.958C91.7379 163.545 92.1744 165.066 93.0342 166.217C93.4443 166.826 93.894 167.421 94.1321 168.135C94.3834 168.836 94.3305 169.643 94.0263 170.252C93.7353 170.873 93.2459 171.363 92.6771 171.614C92.1083 171.879 91.4999 171.892 90.984 171.786C89.9258 171.561 89.2115 170.781 89.0395 170.04C88.8279 169.26 89.3438 168.677 89.7141 168.572C90.0977 168.426 90.2961 168.572 90.2829 168.572Z" fill="url(#paint40_linear_607_3231)"/>
<path d="M166.077 208.162C166.077 208.201 165.535 208.228 164.569 208.135C163.604 208.043 162.202 207.712 160.614 206.984C159.027 206.257 157.268 205.053 155.72 203.307C154.172 201.574 152.903 199.246 152.387 196.588C151.924 193.916 152.294 191.297 153.127 189.127C153.961 186.945 155.178 185.199 156.408 183.955C157.638 182.712 158.829 181.905 159.702 181.482C160.575 181.045 161.09 180.886 161.104 180.926C161.196 181.072 159.08 181.773 156.765 184.299C155.614 185.543 154.49 187.249 153.723 189.352C152.956 191.442 152.625 193.942 153.061 196.468C153.551 198.982 154.741 201.204 156.196 202.897C157.651 204.59 159.318 205.794 160.826 206.548C163.881 208.069 166.117 207.99 166.077 208.162Z" fill="#263238"/>
<defs>
<linearGradient id="paint0_linear_607_3231" x1="106.656" y1="520.458" x2="126.037" y2="520.458" gradientUnits="userSpaceOnUse">
<stop stop-color="#E5908C"/>
<stop offset="1" stop-color="#DF6F63"/>
</linearGradient>
<linearGradient id="paint1_linear_607_3231" x1="116.183" y1="519.349" x2="117.576" y2="519.349" gradientUnits="userSpaceOnUse">
<stop stop-color="#E5908C"/>
<stop offset="1" stop-color="#DF6F63"/>
</linearGradient>
<linearGradient id="paint2_linear_607_3231" x1="107.024" y1="524.833" x2="125.976" y2="524.833" gradientUnits="userSpaceOnUse">
<stop stop-color="#E5908C"/>
<stop offset="1" stop-color="#DF6F63"/>
</linearGradient>
<linearGradient id="paint3_linear_607_3231" x1="157.292" y1="517.589" x2="192.703" y2="517.589" gradientUnits="userSpaceOnUse">
<stop stop-color="#E5908C"/>
<stop offset="1" stop-color="#DF6F63"/>
</linearGradient>
<linearGradient id="paint4_linear_607_3231" x1="157.312" y1="522.181" x2="164.918" y2="522.181" gradientUnits="userSpaceOnUse">
<stop stop-color="#E5908C"/>
<stop offset="1" stop-color="#DF6F63"/>
</linearGradient>
<linearGradient id="paint5_linear_607_3231" x1="157.286" y1="524.46" x2="192.758" y2="524.46" gradientUnits="userSpaceOnUse">
<stop stop-color="#E5908C"/>
<stop offset="1" stop-color="#DF6F63"/>
</linearGradient>
<linearGradient id="paint6_linear_607_3231" x1="156.998" y1="525.18" x2="192.703" y2="525.18" gradientUnits="userSpaceOnUse">
<stop stop-color="#E5908C"/>
<stop offset="1" stop-color="#DF6F63"/>
</linearGradient>
<linearGradient id="paint7_linear_607_3231" x1="185.304" y1="524.066" x2="187.391" y2="524.066" gradientUnits="userSpaceOnUse">
<stop stop-color="#E5908C"/>
<stop offset="1" stop-color="#DF6F63"/>
</linearGradient>
<linearGradient id="paint8_linear_607_3231" x1="179.147" y1="521.621" x2="180.297" y2="521.621" gradientUnits="userSpaceOnUse">
<stop stop-color="#E5908C"/>
<stop offset="1" stop-color="#DF6F63"/>
</linearGradient>
<linearGradient id="paint9_linear_607_3231" x1="177.461" y1="520.99" x2="178.797" y2="520.99" gradientUnits="userSpaceOnUse">
<stop stop-color="#E5908C"/>
<stop offset="1" stop-color="#DF6F63"/>
</linearGradient>
<linearGradient id="paint10_linear_607_3231" x1="176.41" y1="519.6" x2="178.608" y2="519.6" gradientUnits="userSpaceOnUse">
<stop stop-color="#E5908C"/>
<stop offset="1" stop-color="#DF6F63"/>
</linearGradient>
<linearGradient id="paint11_linear_607_3231" x1="176.057" y1="518.354" x2="178.546" y2="518.354" gradientUnits="userSpaceOnUse">
<stop stop-color="#E5908C"/>
<stop offset="1" stop-color="#DF6F63"/>
</linearGradient>
<linearGradient id="paint12_linear_607_3231" x1="179.891" y1="519.915" x2="183.868" y2="519.915" gradientUnits="userSpaceOnUse">
<stop stop-color="#E5908C"/>
<stop offset="1" stop-color="#DF6F63"/>
</linearGradient>
<linearGradient id="paint13_linear_607_3231" x1="178.5" y1="519.419" x2="180.419" y2="519.419" gradientUnits="userSpaceOnUse">
<stop stop-color="#E5908C"/>
<stop offset="1" stop-color="#DF6F63"/>
</linearGradient>
<linearGradient id="paint14_linear_607_3231" x1="157.488" y1="522.034" x2="164.909" y2="522.034" gradientUnits="userSpaceOnUse">
<stop stop-color="#E5908C"/>
<stop offset="1" stop-color="#DF6F63"/>
</linearGradient>
<linearGradient id="paint15_linear_607_3231" x1="159.49" y1="514.676" x2="159.812" y2="514.676" gradientUnits="userSpaceOnUse">
<stop stop-color="#E5908C"/>
<stop offset="1" stop-color="#DF6F63"/>
</linearGradient>
<linearGradient id="paint16_linear_607_3231" x1="167.587" y1="523.367" x2="173.736" y2="523.367" gradientUnits="userSpaceOnUse">
<stop stop-color="#E5908C"/>
<stop offset="1" stop-color="#DF6F63"/>
</linearGradient>
<linearGradient id="paint17_linear_607_3231" x1="163.455" y1="523.757" x2="164.056" y2="523.757" gradientUnits="userSpaceOnUse">
<stop stop-color="#E5908C"/>
<stop offset="1" stop-color="#DF6F63"/>
</linearGradient>
<linearGradient id="paint18_linear_607_3231" x1="161.922" y1="521.614" x2="162.723" y2="521.614" gradientUnits="userSpaceOnUse">
<stop stop-color="#E5908C"/>
<stop offset="1" stop-color="#DF6F63"/>
</linearGradient>
<linearGradient id="paint19_linear_607_3231" x1="159.718" y1="520.458" x2="160.915" y2="520.458" gradientUnits="userSpaceOnUse">
<stop stop-color="#E5908C"/>
<stop offset="1" stop-color="#DF6F63"/>
</linearGradient>
<linearGradient id="paint20_linear_607_3231" x1="158.133" y1="519.997" x2="158.77" y2="519.997" gradientUnits="userSpaceOnUse">
<stop stop-color="#E5908C"/>
<stop offset="1" stop-color="#DF6F63"/>
</linearGradient>
<linearGradient id="paint21_linear_607_3231" x1="124.595" y1="155.199" x2="155.989" y2="155.199" gradientUnits="userSpaceOnUse">
<stop stop-color="#ECB9B8"/>
<stop offset="1" stop-color="#E5908C"/>
</linearGradient>
<linearGradient id="paint22_linear_607_3231" x1="114.12" y1="141.5" x2="161.128" y2="141.5" gradientUnits="userSpaceOnUse">
<stop stop-color="#0F005C"/>
<stop offset="1" stop-color="#1E168C"/>
</linearGradient>
<linearGradient id="paint23_linear_607_3231" x1="114.08" y1="159.014" x2="148.026" y2="159.014" gradientUnits="userSpaceOnUse">
<stop stop-color="#0F005C"/>
<stop offset="1" stop-color="#1E168C"/>
</linearGradient>
<linearGradient id="paint24_linear_607_3231" x1="53.9635" y1="242.053" x2="265.455" y2="242.053" gradientUnits="userSpaceOnUse">
<stop stop-color="#ECB9B8"/>
<stop offset="1" stop-color="#E5908C"/>
</linearGradient>
<linearGradient id="paint25_linear_607_3231" x1="76.6887" y1="229.486" x2="214.16" y2="229.486" gradientUnits="userSpaceOnUse">
<stop stop-color="#E5908C"/>
<stop offset="1" stop-color="#DF6F63"/>
</linearGradient>
<linearGradient id="paint26_linear_607_3231" x1="112.066" y1="249.873" x2="135.423" y2="249.873" gradientUnits="userSpaceOnUse">
<stop stop-color="#E5908C"/>
<stop offset="1" stop-color="#DF6F63"/>
</linearGradient>
<linearGradient id="paint27_linear_607_3231" x1="114.512" y1="247.089" x2="139.905" y2="247.089" gradientUnits="userSpaceOnUse">
<stop stop-color="#E5908C"/>
<stop offset="1" stop-color="#DF6F63"/>
</linearGradient>
<linearGradient id="paint28_linear_607_3231" x1="156.452" y1="231.698" x2="161.966" y2="231.698" gradientUnits="userSpaceOnUse">
<stop stop-color="#E5908C"/>
<stop offset="1" stop-color="#DF6F63"/>
</linearGradient>
<linearGradient id="paint29_linear_607_3231" x1="94.496" y1="399.49" x2="191.638" y2="399.49" gradientUnits="userSpaceOnUse">
<stop stop-color="#4344DC"/>
<stop offset="1" stop-color="#5153FA"/>
</linearGradient>
<linearGradient id="paint30_linear_607_3231" x1="117.988" y1="315.079" x2="139.422" y2="315.079" gradientUnits="userSpaceOnUse">
<stop stop-color="#4344DC"/>
<stop offset="1" stop-color="#5153FA"/>
</linearGradient>
<linearGradient id="paint31_linear_607_3231" x1="151.976" y1="511.027" x2="186.078" y2="511.027" gradientUnits="userSpaceOnUse">
<stop stop-color="#4344DC"/>
<stop offset="1" stop-color="#5153FA"/>
</linearGradient>
<linearGradient id="paint32_linear_607_3231" x1="100.041" y1="511.412" x2="134.046" y2="511.412" gradientUnits="userSpaceOnUse">
<stop stop-color="#4344DC"/>
<stop offset="1" stop-color="#5153FA"/>
</linearGradient>
<linearGradient id="paint33_linear_607_3231" x1="126.393" y1="413.049" x2="129.822" y2="413.049" gradientUnits="userSpaceOnUse">
<stop stop-color="#4344DC"/>
<stop offset="1" stop-color="#5153FA"/>
</linearGradient>
<linearGradient id="paint34_linear_607_3231" x1="157.842" y1="396.073" x2="186.464" y2="396.073" gradientUnits="userSpaceOnUse">
<stop stop-color="#4344DC"/>
<stop offset="1" stop-color="#5153FA"/>
</linearGradient>
<linearGradient id="paint35_linear_607_3231" x1="154.391" y1="392.22" x2="170.129" y2="392.22" gradientUnits="userSpaceOnUse">
<stop stop-color="#4344DC"/>
<stop offset="1" stop-color="#5153FA"/>
</linearGradient>
<linearGradient id="paint36_linear_607_3231" x1="155.71" y1="394.549" x2="169.465" y2="394.549" gradientUnits="userSpaceOnUse">
<stop stop-color="#4344DC"/>
<stop offset="1" stop-color="#5153FA"/>
</linearGradient>
<linearGradient id="paint37_linear_607_3231" x1="97.3782" y1="283.125" x2="163.156" y2="283.125" gradientUnits="userSpaceOnUse">
<stop stop-color="#4344DC"/>
<stop offset="1" stop-color="#5153FA"/>
</linearGradient>
<linearGradient id="paint38_linear_607_3231" x1="119.467" y1="337.108" x2="131.54" y2="337.108" gradientUnits="userSpaceOnUse">
<stop stop-color="#4344DC"/>
<stop offset="1" stop-color="#5153FA"/>
</linearGradient>
<linearGradient id="paint39_linear_607_3231" x1="89.4033" y1="170.712" x2="122.327" y2="170.712" gradientUnits="userSpaceOnUse">
<stop stop-color="#0F005C"/>
<stop offset="1" stop-color="#1E168C"/>
</linearGradient>
<linearGradient id="paint40_linear_607_3231" x1="88.9825" y1="158.347" x2="118.114" y2="158.347" gradientUnits="userSpaceOnUse">
<stop stop-color="#0F005C"/>
<stop offset="1" stop-color="#1E168C"/>
</linearGradient>
</defs>
</svg>
