<svg width="24" height="20" viewBox="0 0 24 20" fill="none" xmlns="http://www.w3.org/2000/svg">
<path d="M24 2.3C23.1158 2.71549 22.1703 2.98562 21.2 3.1C22.2154 2.47222 22.9902 1.52127 23.4 0.4C22.4489 0.986451 21.3981 1.3932 20.3 1.6C19.8196 1.10202 19.2453 0.704213 18.6102 0.429581C17.9751 0.154949 17.2919 0.00894131 16.6 0C15.301 0.00185174 14.0557 0.518695 13.1372 1.43722C12.2187 2.35575 11.7019 3.60101 11.7 4.9C11.6781 5.2696 11.7118 5.6404 11.8 6C9.85014 5.91951 7.94006 5.42277 6.19802 4.54313C4.45599 3.66349 2.92232 2.42131 1.7 0.9C1.21467 1.64131 0.970187 2.51445 1 3.4C1.00809 4.21031 1.21246 5.00659 1.59561 5.72065C1.97876 6.4347 2.52927 7.04525 3.2 7.5C2.43917 7.41963 1.69629 7.21703 1 6.9V7C0.99055 8.12874 1.37478 9.22548 2.08657 10.1015C2.79837 10.9776 3.79323 11.5782 4.9 11.8C4.47703 11.9221 4.04011 11.9893 3.6 12C3.29653 12.0168 2.99238 11.983 2.7 11.9C2.99284 12.8898 3.60031 13.7571 4.43038 14.3707C5.26044 14.9842 6.26786 15.3104 7.3 15.3C5.5545 16.6547 3.40949 17.3931 1.2 17.4C0.797427 17.4154 0.394477 17.3818 0 17.3C2.2407 18.7299 4.84193 19.4929 7.5 19.5C9.34322 19.517 11.1713 19.1664 12.8776 18.4688C14.5838 17.7713 16.1339 16.7407 17.4373 15.4373C18.7407 14.1339 19.7713 12.5838 20.4688 10.8776C21.1664 9.17134 21.517 7.34322 21.5 5.5V4.9C22.4802 4.18765 23.3266 3.3074 24 2.3Z" fill="#5C5655"/>
</svg>
