<svg width="494" height="472" viewBox="0 0 494 472" fill="none" xmlns="http://www.w3.org/2000/svg">
<path opacity="0.42" d="M104.839 460.704H389.173C452.55 417.021 493.983 344.966 493.983 263.415C493.983 130.116 383.417 2.92415 246.992 2.92415C110.595 2.92415 0 130.116 0 263.415C0.0292194 344.966 41.4623 416.992 104.839 460.704Z" fill="url(#paint0_linear_609_3835)"/>
<path opacity="0.43" d="M241.556 471.691C354.824 471.691 446.647 467.099 446.647 461.435C446.647 455.771 354.824 451.179 241.556 451.179C128.287 451.179 36.4648 455.771 36.4648 461.435C36.4648 467.099 128.287 471.691 241.556 471.691Z" fill="#CEE5ED"/>
<path d="M212.629 423.099L214.149 432.771L206.902 442.296L188.085 433.413L185.923 424.56L209.181 420.732L212.629 423.099Z" fill="#F2BF75"/>
<path d="M197.961 454.481L196.003 452.114C195.653 451.676 194.981 451.676 194.63 452.114L192.731 454.422C191.971 455.357 190.802 455.883 189.604 455.883L146.126 455.737C145.279 454.89 145.045 453.458 146.009 452.464C152.291 445.949 186.419 434.378 188.114 433.413C189.809 432.449 200.416 440.455 214.178 432.771C214.178 432.771 216.574 443.611 217.012 450.653C217.187 453.516 214.938 455.971 212.074 455.971L201.029 455.942C199.831 455.912 198.692 455.386 197.961 454.481Z" fill="#1E394C"/>
<path d="M282.26 423.479L283.809 433.15L276.563 442.705L257.745 433.793L255.583 424.969L278.812 421.112L282.26 423.479Z" fill="#F2BF75"/>
<path d="M267.592 454.89L265.634 452.523C265.284 452.085 264.612 452.085 264.261 452.523L262.362 454.831C261.602 455.766 260.433 456.292 259.235 456.292L215.757 456.146C214.909 455.299 214.676 453.867 215.64 452.873C221.922 446.358 256.05 434.787 257.745 433.822C259.44 432.858 270.046 440.864 283.809 433.18C283.809 433.18 286.205 444.02 286.643 451.062C286.818 453.925 284.568 456.38 281.705 456.38L270.66 456.351C269.462 456.321 268.352 455.795 267.592 454.89Z" fill="#1E394C"/>
<path d="M182.038 110.335L168.802 160.855L132.803 136.807L116.499 149.752L163.513 193.756L197.349 162.404L182.038 110.335Z" fill="#CEE5ED"/>
<path d="M132.745 136.837L122.255 116.149C121.116 113.929 118.34 113.14 116.207 114.425C110.392 117.873 107.383 124.623 108.814 131.227C110.246 137.83 112.642 145.632 116.499 149.752L132.745 136.837Z" fill="#F2BF75"/>
<path d="M119.8 96.8937L108.317 95.9587C106.651 95.8126 105.57 96.8937 105.95 98.3547L114.102 130.642C114.482 132.074 116.118 133.389 117.784 133.506L129.267 134.441C131.955 134.645 133.504 139.408 131.634 132.045L123.482 99.7572C123.131 98.3254 121.466 97.0398 119.8 96.8937Z" fill="#1E394C"/>
<path d="M132.773 136.924L135.169 129.269C136.192 127.311 135.608 124.915 133.796 123.659L129.793 120.883C128.595 120.065 126.988 120.269 126.024 121.35C124.943 122.578 125.118 124.477 126.433 125.47L128.274 126.902L130.144 128.305L125.702 135.025L132.773 136.924Z" fill="#F2BF75"/>
<path d="M284.597 425.729C284.597 414.45 271.478 226.599 271.478 226.599C271.478 226.599 245.005 200.827 230.6 203.574C216.194 200.856 183.439 219.937 183.439 219.937C183.439 219.937 184.112 414.45 184.112 425.729H215.318C215.318 425.729 215.522 336.171 227.707 271.509C228.262 268.616 232.674 268.324 233.229 271.217C245.385 335.879 253.391 425.729 253.391 425.729H284.597Z" fill="#1E394C"/>
<path d="M231.214 79.8297C231.214 79.8297 268.059 88.8292 273.143 94.7315C278.227 100.605 297.395 137.246 297.045 149.576C296.636 164.04 271.887 194.866 272.354 193.055V236.562C272.354 236.562 215.932 254.182 181.833 232.647C181.833 232.647 177.917 120.854 182.622 108.406C184.053 104.578 202.608 88.4201 208.101 86.4624C213.594 84.5047 231.214 79.8297 231.214 79.8297Z" fill="#CEE5ED"/>
<path d="M297.045 149.576C296.695 162.462 276.942 188.38 273.027 192.558C273.027 192.558 273.027 192.558 272.998 192.587C272.589 192.909 272.355 193.055 272.355 193.055L259.907 204.217L244.918 190.688C244.918 190.688 272.53 170.994 268.732 145.719C266.044 127.925 247.577 96.0463 247.577 96.0463C241.236 92.4523 235.013 85.9364 230.191 80.0633C230.834 79.888 231.214 79.8004 231.214 79.8004C231.214 79.8004 268.06 88.7999 273.144 94.673C278.228 100.605 297.367 137.246 297.045 149.576Z" fill="#CEE5ED"/>
<path d="M291.873 140.109H170.349C163.015 140.109 157.055 146.07 157.055 153.404V208.716C157.055 216.05 163.015 222.011 170.349 222.011H291.873C299.207 222.011 305.168 216.05 305.168 208.716V153.404C305.168 146.07 299.207 140.109 291.873 140.109Z" fill="#87D3F9"/>
<path opacity="0.25" d="M291.874 140.109H276.154C283.488 140.109 289.449 146.07 289.449 153.404V208.716C289.449 216.05 283.488 222.011 276.154 222.011H291.874C299.208 222.011 305.169 216.05 305.169 208.716V153.404C305.169 146.07 299.208 140.109 291.874 140.109Z" fill="#56BB6A"/>
<path d="M305.168 166.582H157.055V185.604H305.168V166.582Z" fill="#1E394C"/>
<path d="M200.271 198.431H171.11V202.463H200.271V198.431Z" fill="#1E394C"/>
<path d="M185.223 207.431H171.11V211.463H185.223V207.431Z" fill="#1E394C"/>
<path d="M233.172 59.3468V85.4982C233.172 85.4982 224.64 111.65 204.946 91.0791L203.193 70.2164L233.172 59.3468Z" fill="#EA9249"/>
<path d="M182.038 38.8932C182.038 38.8932 148.728 31.8513 169.298 3.42085C169.298 3.42085 172.834 18.4981 190.862 5.5831C200.037 -1.02048 213.682 -2.65676 228.876 5.5831C245.151 14.4074 250.82 41.4353 236.912 55.5482L209.679 50.055L182.038 38.8932Z" fill="#1E394C"/>
<path d="M182.038 38.8932C182.038 38.8932 178.123 84.1541 208.102 81.2029C231.507 78.8946 230.63 61.2168 230.63 61.2168C230.63 61.2168 238.256 59.639 238.665 52.8017C239.045 45.9351 236.912 40.2666 230.046 44.7664C230.046 44.7664 217.89 36.9355 217.101 31.4423C217.101 31.4423 202.813 39.2731 182.038 38.8932Z" fill="#F2BF75"/>
<path d="M221.543 233.348C220.023 235.218 220.549 238.199 222.77 239.981L227.854 244.101C230.075 245.883 233.084 245.796 234.604 243.926L250.557 224.056L235.305 212.31L218.708 224.027C217.539 224.845 217.569 226.628 218.767 227.388C219.468 227.826 220.374 228.118 221.513 227.943C224.64 227.446 225.925 225.693 225.925 225.693L221.543 233.348Z" fill="#F6BA8E"/>
<path d="M232.412 212.515L250.236 226.861C250.236 226.861 298.623 173.302 298.828 152.849C298.945 141.336 284.949 113.607 276.212 98.6468H244.859C244.859 98.6468 267.242 132.337 273.991 148.495C275.277 151.563 274.897 155.069 272.998 157.816C264.816 169.738 240.681 204.567 232.412 212.515Z" fill="#CEE5ED"/>
<path d="M276.182 98.6468C276.182 98.6468 294.065 142.973 293.977 151.855C293.802 169.475 255.144 211.404 245.151 222.771L250.206 226.832C250.206 226.832 298.623 173.273 298.798 152.82C298.944 141.336 284.948 113.607 276.182 98.6468Z" fill="#B4CCD3"/>
<path d="M269.316 139.729L268.323 140.08H187.473L186.362 139.729L262.362 137.772C262.362 137.772 252.486 110.364 254.034 111.153C255.641 111.971 269.316 139.729 269.316 139.729Z" fill="#B4CCD3"/>
<path d="M195.216 74.5993C192.031 71.2098 191.564 65.1906 191.564 65.1906C191.564 65.1906 187.999 65.1906 187.531 64.7231C187.064 64.2556 188.642 51.7497 188.349 49.5583C188.145 48.0097 187.356 41.9905 186.888 38.6887C184.843 38.8055 184.229 38.8932 182.009 38.864C182.009 38.864 178.093 84.1248 208.072 81.1737C200.797 81.3197 198.401 77.9887 195.216 74.5993Z" fill="#EA9249"/>
<path d="M133.591 54.438C131.107 40.588 117.871 31.4131 104.021 33.8967C90.1711 36.3804 80.9963 49.6167 83.4799 63.4667C85.9343 77.083 98.7908 86.1994 112.378 84.1248L117.608 90.144L118.689 82.3132C129.267 77.7258 135.724 66.301 133.591 54.438ZM95.5474 61.3337C93.8235 61.3337 92.421 59.9312 92.421 58.2072C92.421 56.4833 93.8235 55.0808 95.5474 55.0808C97.2714 55.0808 98.6739 56.4833 98.6739 58.2072C98.6739 59.9312 97.2714 61.3337 95.5474 61.3337ZM108.17 61.3337C106.446 61.3337 105.044 59.9312 105.044 58.2072C105.044 56.4833 106.446 55.0808 108.17 55.0808C109.894 55.0808 111.297 56.4833 111.297 58.2072C111.326 59.9312 109.923 61.3337 108.17 61.3337ZM120.647 61.3337C118.923 61.3337 117.52 59.9312 117.52 58.2072C117.52 56.4833 118.923 55.0808 120.647 55.0808C122.371 55.0808 123.773 56.4833 123.773 58.2072C123.803 59.9312 122.4 61.3337 120.647 61.3337Z" fill="#56BB6A"/>
<path d="M432.009 330.357C441.213 320.597 443.492 307.77 437.093 301.751C430.694 295.702 418.042 298.712 408.809 308.471C399.604 318.231 393.03 335.587 399.429 341.635C405.857 347.684 422.805 340.116 432.009 330.357Z" fill="#56BB6A"/>
<path opacity="0.26" d="M437.123 301.751C435.136 299.881 432.535 298.887 429.643 298.683C429.935 298.917 430.256 299.15 430.548 299.413C436.947 305.462 434.668 318.26 425.464 328.019C418.539 335.353 407.231 341.46 399.342 341.431C399.4 341.489 399.429 341.577 399.517 341.635C405.916 347.684 422.864 340.116 432.068 330.357C441.243 320.597 443.522 307.799 437.123 301.751Z" fill="#0F2A3F"/>
<path d="M385.17 292.78C386.397 279.603 380.816 268.324 372.693 267.564C364.57 266.804 356.973 276.856 355.746 290.034C354.519 303.212 359.515 320.597 367.638 321.357C375.791 322.146 383.943 305.958 385.17 292.78Z" fill="#56BB6A"/>
<path opacity="0.25" d="M372.693 267.564C371.173 267.418 369.683 267.652 368.252 268.207C374.914 270.866 379.209 281.064 378.128 292.78C377.105 303.679 371.349 316.624 364.774 320.334C365.68 320.919 366.674 321.269 367.696 321.386C375.819 322.146 383.972 305.958 385.199 292.81C386.426 279.632 380.816 268.324 372.693 267.564Z" fill="#56BB6A"/>
<path d="M345.636 282.671C339.997 271.567 329.887 265.402 323.05 268.879C316.212 272.356 315.219 284.161 320.858 295.264C326.498 306.368 339.237 317.675 346.075 314.198C352.912 310.721 351.276 293.774 345.636 282.671Z" fill="#56BB6A"/>
<path opacity="0.26" d="M345.635 282.671C339.996 271.567 329.886 265.402 323.049 268.879C320.419 270.223 318.666 272.765 317.818 276.038C318.432 275.453 319.133 274.927 319.922 274.518C326.759 271.041 336.869 277.207 342.509 288.31C346.453 296.082 348.44 306.747 346.892 313.643C352.736 309.231 351.012 293.277 345.635 282.671Z" fill="#0F2A3F"/>
<path d="M334.766 329.013C323.897 324.162 312.823 325.302 310.017 331.584C307.212 337.866 313.728 346.895 324.569 351.774C335.438 356.625 351.567 357.735 354.372 351.453C357.178 345.171 345.607 333.892 334.766 329.013Z" fill="#56BB6A"/>
<path opacity="0.25" d="M334.766 329.013C323.897 324.162 312.822 325.302 310.017 331.584C309.345 333.045 309.228 334.681 309.521 336.347C312.53 330.298 323.429 329.217 334.153 334.009C342.889 337.925 352.064 345.989 353.876 352.271C354.08 352.008 354.256 351.716 354.402 351.424C357.178 345.171 345.607 333.892 334.766 329.013Z" fill="#56BB6A"/>
<path d="M434.99 367.348C445.831 363.491 452.58 354.58 450.038 347.479C447.496 340.379 436.656 337.749 425.815 341.606C414.975 345.463 403.2 356.157 405.742 363.258C408.284 370.358 424.15 371.205 434.99 367.348Z" fill="#56BB6A"/>
<path opacity="0.26" d="M450.036 347.479C448.955 344.44 446.326 342.22 442.848 340.963C444.105 342.074 445.098 343.418 445.653 344.966C448.196 352.067 441.446 360.979 430.605 364.835C423.271 367.436 413.658 367.904 407.405 365.712C412.373 370.475 425.58 370.679 435.018 367.319C445.829 363.491 452.578 354.58 450.036 347.479Z" fill="#0F2A3F"/>
<path d="M378.595 406.415C381.108 375.559 394.607 347.509 417.135 326.266C418.012 325.419 416.697 324.104 415.791 324.922C392.912 346.544 379.267 375.033 376.725 406.415C376.637 407.613 378.507 407.613 378.595 406.415Z" fill="#1E394C"/>
<path d="M371.757 402.032C372.517 363.988 360.566 327.493 337.395 297.28C336.665 296.345 335.028 297.28 335.759 298.215C358.725 328.165 370.617 364.28 369.858 402.002C369.858 403.23 371.728 403.23 371.757 402.032Z" fill="#1E394C"/>
<path d="M363.81 346.778C368.953 330.444 370.239 313.088 370.881 296.053C370.94 294.855 369.041 294.855 369.011 296.053C368.398 312.942 367.083 330.094 361.999 346.281C361.619 347.45 363.46 347.947 363.81 346.778Z" fill="#1E394C"/>
<path d="M334.591 343.622C343.649 349.32 354.197 353.645 364.19 357.443C365.33 357.881 365.827 356.041 364.687 355.631C354.869 351.921 344.438 347.596 335.526 342.015C334.503 341.372 333.568 342.979 334.591 343.622Z" fill="#1E394C"/>
<path d="M414.71 358.29C405.652 362.06 396.389 365.157 386.864 367.582C385.695 367.874 386.192 369.686 387.361 369.394C396.886 366.969 406.149 363.871 415.207 360.102C416.317 359.635 415.82 357.823 414.71 358.29Z" fill="#1E394C"/>
<path d="M340.23 397.678L345.957 449.426C346.658 455.883 352.152 460.792 358.638 460.792H391.627C398.143 460.792 403.607 455.883 404.308 449.426L410.035 397.678C410.357 394.873 408.136 392.389 405.302 392.389H344.964C342.129 392.389 339.909 394.873 340.23 397.678Z" fill="#CEE5ED"/>
<path d="M405.303 392.39H384.382C387.216 392.39 389.407 394.844 389.115 397.678L383.388 449.426C382.687 455.883 377.194 460.792 370.707 460.792H391.628C398.144 460.792 403.608 455.883 404.309 449.426L410.036 397.678C410.329 394.873 408.137 392.39 405.303 392.39Z" fill="#AAC6CE"/>
<defs>
<linearGradient id="paint0_linear_609_3835" x1="247.011" y1="425.631" x2="247.011" y2="-82.7869" gradientUnits="userSpaceOnUse">
<stop stop-color="white"/>
<stop offset="0.1258" stop-color="#F8FCFE"/>
<stop offset="0.3051" stop-color="#E6F3FC"/>
<stop offset="0.5164" stop-color="#E6F5FF"/>
<stop offset="0.7522" stop-color="#EDF8FF"/>
<stop offset="1" stop-color="#DBEFFC"/>
</linearGradient>
</defs>
</svg>
