<svg width="637" height="100" viewBox="0 0 637 100" fill="none" xmlns="http://www.w3.org/2000/svg">
<rect width="637" height="100" rx="16" fill="#E8EBEF"/>
<path d="M35.052 30.454V43H33.414V37.276H27.024V43H25.386V30.454H27.024V35.998H33.414V30.454H35.052ZM47.1013 37.654C47.1013 37.954 47.0833 38.278 47.0473 38.626H39.1633C39.2113 39.598 39.5353 40.366 40.1353 40.93C40.7473 41.494 41.4913 41.776 42.3673 41.776C43.0753 41.776 43.6633 41.614 44.1313 41.29C44.6113 40.954 44.9473 40.51 45.1393 39.958H46.9033C46.6393 40.906 46.1113 41.68 45.3193 42.28C44.5273 42.868 43.5433 43.162 42.3673 43.162C41.4313 43.162 40.5913 42.952 39.8473 42.532C39.1153 42.112 38.5393 41.518 38.1193 40.75C37.6993 39.97 37.4893 39.07 37.4893 38.05C37.4893 37.03 37.6933 36.136 38.1013 35.368C38.5093 34.6 39.0793 34.012 39.8113 33.604C40.5553 33.184 41.4073 32.974 42.3673 32.974C43.3033 32.974 44.1253 33.178 44.8333 33.586C45.5533 33.994 46.1113 34.552 46.5073 35.26C46.9033 35.968 47.1013 36.766 47.1013 37.654ZM45.4093 37.438C45.4093 36.79 45.2713 36.238 44.9953 35.782C44.7193 35.314 44.3413 34.96 43.8613 34.72C43.3933 34.48 42.8713 34.36 42.2953 34.36C41.4553 34.36 40.7413 34.636 40.1533 35.188C39.5653 35.728 39.2413 36.478 39.1813 37.438H45.4093ZM51.1714 29.68V43H49.5334V29.68H51.1714ZM55.8711 29.68V43H54.2331V29.68H55.8711ZM63.2348 43.162C62.3108 43.162 61.4708 42.952 60.7148 42.532C59.9708 42.112 59.3828 41.518 58.9508 40.75C58.5308 39.97 58.3208 39.07 58.3208 38.05C58.3208 37.042 58.5368 36.154 58.9688 35.386C59.4128 34.606 60.0128 34.012 60.7688 33.604C61.5248 33.184 62.3708 32.974 63.3068 32.974C64.2428 32.974 65.0888 33.184 65.8448 33.604C66.6008 34.012 67.1948 34.6 67.6268 35.368C68.0708 36.136 68.2928 37.03 68.2928 38.05C68.2928 39.07 68.0648 39.97 67.6088 40.75C67.1648 41.518 66.5588 42.112 65.7908 42.532C65.0228 42.952 64.1708 43.162 63.2348 43.162ZM63.2348 41.776C63.8228 41.776 64.3748 41.638 64.8908 41.362C65.4068 41.074 65.8208 40.648 66.1328 40.084C66.4568 39.52 66.6188 38.842 66.6188 38.05C66.6188 37.258 66.4628 36.586 66.1508 36.034C65.8388 35.47 65.4308 35.05 64.9268 34.774C64.4228 34.498 63.8768 34.36 63.2888 34.36C62.6888 34.36 62.1368 34.498 61.6328 34.774C61.1408 35.05 60.7448 35.47 60.4448 36.034C60.1448 36.586 59.9948 37.258 59.9948 38.05C59.9948 38.854 60.1388 39.538 60.4268 40.102C60.7268 40.654 61.1228 41.074 61.6148 41.362C62.1068 41.638 62.6468 41.776 63.2348 41.776ZM72.4085 40.732L70.3925 45.574H69.2945L70.6085 40.732H72.4085ZM85.0822 32.956C85.8262 32.956 86.4982 33.118 87.0982 33.442C87.6982 33.754 88.1662 34.228 88.5022 34.864C88.8502 35.5 89.0242 36.274 89.0242 37.186V43H87.4042V37.42C87.4042 36.436 87.1582 35.686 86.6662 35.17C86.1742 34.642 85.5022 34.378 84.6502 34.378C83.7862 34.378 83.0962 34.648 82.5802 35.188C82.0762 35.728 81.8242 36.514 81.8242 37.546V43H80.1862V29.68H81.8242V34.54C82.1482 34.036 82.5922 33.646 83.1562 33.37C83.7322 33.094 84.3742 32.956 85.0822 32.956ZM96.2718 43.162C95.3478 43.162 94.5078 42.952 93.7518 42.532C93.0078 42.112 92.4198 41.518 91.9878 40.75C91.5678 39.97 91.3578 39.07 91.3578 38.05C91.3578 37.042 91.5738 36.154 92.0058 35.386C92.4498 34.606 93.0498 34.012 93.8058 33.604C94.5618 33.184 95.4078 32.974 96.3438 32.974C97.2798 32.974 98.1258 33.184 98.8818 33.604C99.6378 34.012 100.232 34.6 100.664 35.368C101.108 36.136 101.33 37.03 101.33 38.05C101.33 39.07 101.102 39.97 100.646 40.75C100.202 41.518 99.5958 42.112 98.8278 42.532C98.0598 42.952 97.2078 43.162 96.2718 43.162ZM96.2718 41.776C96.8598 41.776 97.4118 41.638 97.9278 41.362C98.4438 41.074 98.8578 40.648 99.1698 40.084C99.4938 39.52 99.6558 38.842 99.6558 38.05C99.6558 37.258 99.4998 36.586 99.1878 36.034C98.8758 35.47 98.4678 35.05 97.9638 34.774C97.4598 34.498 96.9138 34.36 96.3258 34.36C95.7258 34.36 95.1738 34.498 94.6698 34.774C94.1778 35.05 93.7818 35.47 93.4818 36.034C93.1818 36.586 93.0318 37.258 93.0318 38.05C93.0318 38.854 93.1758 39.538 93.4638 40.102C93.7638 40.654 94.1598 41.074 94.6518 41.362C95.1438 41.638 95.6838 41.776 96.2718 41.776ZM116.894 33.136L113.816 43H112.124L109.748 35.17L107.372 43H105.68L102.584 33.136H104.258L106.526 41.416L108.974 33.136H110.666L113.042 41.362L115.274 33.136H116.894ZM125.266 31.534C124.954 31.534 124.69 31.426 124.474 31.21C124.258 30.994 124.15 30.73 124.15 30.418C124.15 30.106 124.258 29.842 124.474 29.626C124.69 29.41 124.954 29.302 125.266 29.302C125.566 29.302 125.818 29.41 126.022 29.626C126.238 29.842 126.346 30.106 126.346 30.418C126.346 30.73 126.238 30.994 126.022 31.21C125.818 31.426 125.566 31.534 125.266 31.534ZM126.058 33.136V43H124.42V33.136H126.058ZM132.594 43.162C131.838 43.162 131.16 43.036 130.56 42.784C129.972 42.52 129.504 42.16 129.156 41.704C128.808 41.236 128.616 40.702 128.58 40.102H130.272C130.32 40.618 130.548 41.038 130.956 41.362C131.376 41.686 131.922 41.848 132.594 41.848C133.23 41.848 133.722 41.71 134.07 41.434C134.43 41.146 134.61 40.774 134.61 40.318C134.61 39.886 134.418 39.568 134.034 39.364C133.65 39.148 133.056 38.938 132.252 38.734C131.52 38.542 130.926 38.35 130.47 38.158C130.014 37.966 129.624 37.684 129.3 37.312C128.976 36.928 128.814 36.424 128.814 35.8C128.814 35.284 128.958 34.81 129.246 34.378C129.534 33.946 129.948 33.604 130.488 33.352C131.04 33.1 131.676 32.974 132.396 32.974C133.488 32.974 134.37 33.25 135.042 33.802C135.714 34.354 136.074 35.11 136.122 36.07H134.484C134.448 35.53 134.238 35.098 133.854 34.774C133.482 34.45 132.978 34.288 132.342 34.288C131.742 34.288 131.268 34.42 130.92 34.684C130.584 34.948 130.416 35.296 130.416 35.728C130.416 36.064 130.524 36.34 130.74 36.556C130.956 36.76 131.22 36.922 131.532 37.042C131.844 37.15 132.288 37.288 132.864 37.456C133.584 37.648 134.16 37.84 134.592 38.032C135.024 38.212 135.396 38.482 135.708 38.842C136.02 39.202 136.176 39.682 136.176 40.282C136.176 40.834 136.026 41.326 135.726 41.758C135.438 42.19 135.024 42.532 134.484 42.784C133.944 43.036 133.314 43.162 132.594 43.162ZM145.272 31.534C144.96 31.534 144.696 31.426 144.48 31.21C144.264 30.994 144.156 30.73 144.156 30.418C144.156 30.106 144.264 29.842 144.48 29.626C144.696 29.41 144.96 29.302 145.272 29.302C145.572 29.302 145.824 29.41 146.028 29.626C146.244 29.842 146.352 30.106 146.352 30.418C146.352 30.73 146.244 30.994 146.028 31.21C145.824 31.426 145.572 31.534 145.272 31.534ZM146.064 33.136V43H144.426V33.136H146.064ZM151.123 34.486V40.3C151.123 40.78 151.225 41.122 151.429 41.326C151.633 41.518 151.987 41.614 152.491 41.614H153.697V43H152.221C151.309 43 150.625 42.79 150.169 42.37C149.713 41.95 149.485 41.26 149.485 40.3V34.486H148.207V33.136H149.485V30.652H151.123V33.136H153.697V34.486H151.123ZM165.651 32.974C166.503 32.974 167.247 33.16 167.883 33.532C168.531 33.904 169.011 34.372 169.323 34.936V33.136H170.979V43.216C170.979 44.116 170.787 44.914 170.403 45.61C170.019 46.318 169.467 46.87 168.747 47.266C168.039 47.662 167.211 47.86 166.263 47.86C164.967 47.86 163.887 47.554 163.023 46.942C162.159 46.33 161.649 45.496 161.493 44.44H163.113C163.293 45.04 163.665 45.52 164.229 45.88C164.793 46.252 165.471 46.438 166.263 46.438C167.163 46.438 167.895 46.156 168.459 45.592C169.035 45.028 169.323 44.236 169.323 43.216V41.146C168.999 41.722 168.519 42.202 167.883 42.586C167.247 42.97 166.503 43.162 165.651 43.162C164.775 43.162 163.977 42.946 163.257 42.514C162.549 42.082 161.991 41.476 161.583 40.696C161.175 39.916 160.971 39.028 160.971 38.032C160.971 37.024 161.175 36.142 161.583 35.386C161.991 34.618 162.549 34.024 163.257 33.604C163.977 33.184 164.775 32.974 165.651 32.974ZM169.323 38.05C169.323 37.306 169.173 36.658 168.873 36.106C168.573 35.554 168.165 35.134 167.649 34.846C167.145 34.546 166.587 34.396 165.975 34.396C165.363 34.396 164.805 34.54 164.301 34.828C163.797 35.116 163.395 35.536 163.095 36.088C162.795 36.64 162.645 37.288 162.645 38.032C162.645 38.788 162.795 39.448 163.095 40.012C163.395 40.564 163.797 40.99 164.301 41.29C164.805 41.578 165.363 41.722 165.975 41.722C166.587 41.722 167.145 41.578 167.649 41.29C168.165 40.99 168.573 40.564 168.873 40.012C169.173 39.448 169.323 38.794 169.323 38.05ZM178.319 43.162C177.395 43.162 176.555 42.952 175.799 42.532C175.055 42.112 174.467 41.518 174.035 40.75C173.615 39.97 173.405 39.07 173.405 38.05C173.405 37.042 173.621 36.154 174.053 35.386C174.497 34.606 175.097 34.012 175.853 33.604C176.609 33.184 177.455 32.974 178.391 32.974C179.327 32.974 180.173 33.184 180.929 33.604C181.685 34.012 182.279 34.6 182.711 35.368C183.155 36.136 183.377 37.03 183.377 38.05C183.377 39.07 183.149 39.97 182.693 40.75C182.249 41.518 181.643 42.112 180.875 42.532C180.107 42.952 179.255 43.162 178.319 43.162ZM178.319 41.776C178.907 41.776 179.459 41.638 179.975 41.362C180.491 41.074 180.905 40.648 181.217 40.084C181.541 39.52 181.703 38.842 181.703 38.05C181.703 37.258 181.547 36.586 181.235 36.034C180.923 35.47 180.515 35.05 180.011 34.774C179.507 34.498 178.961 34.36 178.373 34.36C177.773 34.36 177.221 34.498 176.717 34.774C176.225 35.05 175.829 35.47 175.529 36.034C175.229 36.586 175.079 37.258 175.079 38.05C175.079 38.854 175.223 39.538 175.511 40.102C175.811 40.654 176.207 41.074 176.699 41.362C177.191 41.638 177.731 41.776 178.319 41.776ZM186.647 31.534C186.335 31.534 186.071 31.426 185.855 31.21C185.639 30.994 185.531 30.73 185.531 30.418C185.531 30.106 185.639 29.842 185.855 29.626C186.071 29.41 186.335 29.302 186.647 29.302C186.947 29.302 187.199 29.41 187.403 29.626C187.619 29.842 187.727 30.106 187.727 30.418C187.727 30.73 187.619 30.994 187.403 31.21C187.199 31.426 186.947 31.534 186.647 31.534ZM187.439 33.136V43H185.801V33.136H187.439ZM195.307 32.956C196.507 32.956 197.479 33.322 198.223 34.054C198.967 34.774 199.339 35.818 199.339 37.186V43H197.719V37.42C197.719 36.436 197.473 35.686 196.981 35.17C196.489 34.642 195.817 34.378 194.965 34.378C194.101 34.378 193.411 34.648 192.895 35.188C192.391 35.728 192.139 36.514 192.139 37.546V43H190.501V33.136H192.139V34.54C192.463 34.036 192.901 33.646 193.453 33.37C194.017 33.094 194.635 32.956 195.307 32.956ZM206.353 32.974C207.205 32.974 207.949 33.16 208.585 33.532C209.233 33.904 209.713 34.372 210.025 34.936V33.136H211.681V43.216C211.681 44.116 211.489 44.914 211.105 45.61C210.721 46.318 210.169 46.87 209.449 47.266C208.741 47.662 207.913 47.86 206.965 47.86C205.669 47.86 204.589 47.554 203.725 46.942C202.861 46.33 202.351 45.496 202.195 44.44H203.815C203.995 45.04 204.367 45.52 204.931 45.88C205.495 46.252 206.173 46.438 206.965 46.438C207.865 46.438 208.597 46.156 209.161 45.592C209.737 45.028 210.025 44.236 210.025 43.216V41.146C209.701 41.722 209.221 42.202 208.585 42.586C207.949 42.97 207.205 43.162 206.353 43.162C205.477 43.162 204.679 42.946 203.959 42.514C203.251 42.082 202.693 41.476 202.285 40.696C201.877 39.916 201.673 39.028 201.673 38.032C201.673 37.024 201.877 36.142 202.285 35.386C202.693 34.618 203.251 34.024 203.959 33.604C204.679 33.184 205.477 32.974 206.353 32.974ZM210.025 38.05C210.025 37.306 209.875 36.658 209.575 36.106C209.275 35.554 208.867 35.134 208.351 34.846C207.847 34.546 207.289 34.396 206.677 34.396C206.065 34.396 205.507 34.54 205.003 34.828C204.499 35.116 204.097 35.536 203.797 36.088C203.497 36.64 203.347 37.288 203.347 38.032C203.347 38.788 203.497 39.448 203.797 40.012C204.097 40.564 204.499 40.99 205.003 41.29C205.507 41.578 206.065 41.722 206.677 41.722C207.289 41.722 207.847 41.578 208.351 41.29C208.867 40.99 209.275 40.564 209.575 40.012C209.875 39.448 210.025 38.794 210.025 38.05ZM217.923 30.292C219.111 30.292 220.071 30.628 220.803 31.3C221.535 31.972 221.901 32.872 221.901 34C221.901 35.26 221.511 36.196 220.731 36.808C219.951 37.408 218.895 37.708 217.563 37.708L217.509 39.418H216.087L216.015 36.574H216.537C217.725 36.574 218.655 36.394 219.327 36.034C219.999 35.674 220.335 34.996 220.335 34C220.335 33.28 220.119 32.71 219.687 32.29C219.255 31.87 218.673 31.66 217.941 31.66C217.197 31.66 216.609 31.864 216.177 32.272C215.757 32.668 215.547 33.214 215.547 33.91H213.999C213.999 33.19 214.161 32.56 214.485 32.02C214.809 31.468 215.265 31.042 215.853 30.742C216.453 30.442 217.143 30.292 217.923 30.292ZM216.789 43.108C216.477 43.108 216.213 43 215.997 42.784C215.781 42.568 215.673 42.304 215.673 41.992C215.673 41.68 215.781 41.416 215.997 41.2C216.213 40.984 216.477 40.876 216.789 40.876C217.089 40.876 217.341 40.984 217.545 41.2C217.761 41.416 217.869 41.68 217.869 41.992C217.869 42.304 217.761 42.568 217.545 42.784C217.341 43 217.089 43.108 216.789 43.108ZM237.781 30.454V31.732H234.361V43H232.723V31.732H229.285V30.454H237.781ZM244.964 32.956C245.708 32.956 246.38 33.118 246.98 33.442C247.58 33.754 248.048 34.228 248.384 34.864C248.732 35.5 248.906 36.274 248.906 37.186V43H247.286V37.42C247.286 36.436 247.04 35.686 246.548 35.17C246.056 34.642 245.384 34.378 244.532 34.378C243.668 34.378 242.978 34.648 242.462 35.188C241.958 35.728 241.706 36.514 241.706 37.546V43H240.068V29.68H241.706V34.54C242.03 34.036 242.474 33.646 243.038 33.37C243.614 33.094 244.256 32.956 244.964 32.956ZM252.697 31.534C252.385 31.534 252.121 31.426 251.905 31.21C251.689 30.994 251.581 30.73 251.581 30.418C251.581 30.106 251.689 29.842 251.905 29.626C252.121 29.41 252.385 29.302 252.697 29.302C252.997 29.302 253.249 29.41 253.453 29.626C253.669 29.842 253.777 30.106 253.777 30.418C253.777 30.73 253.669 30.994 253.453 31.21C253.249 31.426 252.997 31.534 252.697 31.534ZM253.489 33.136V43H251.851V33.136H253.489ZM260.025 43.162C259.269 43.162 258.591 43.036 257.991 42.784C257.403 42.52 256.935 42.16 256.587 41.704C256.239 41.236 256.047 40.702 256.011 40.102H257.703C257.751 40.618 257.979 41.038 258.387 41.362C258.807 41.686 259.353 41.848 260.025 41.848C260.661 41.848 261.153 41.71 261.501 41.434C261.861 41.146 262.041 40.774 262.041 40.318C262.041 39.886 261.849 39.568 261.465 39.364C261.081 39.148 260.487 38.938 259.683 38.734C258.951 38.542 258.357 38.35 257.901 38.158C257.445 37.966 257.055 37.684 256.731 37.312C256.407 36.928 256.245 36.424 256.245 35.8C256.245 35.284 256.389 34.81 256.677 34.378C256.965 33.946 257.379 33.604 257.919 33.352C258.471 33.1 259.107 32.974 259.827 32.974C260.919 32.974 261.801 33.25 262.473 33.802C263.145 34.354 263.505 35.11 263.553 36.07H261.915C261.879 35.53 261.669 35.098 261.285 34.774C260.913 34.45 260.409 34.288 259.773 34.288C259.173 34.288 258.699 34.42 258.351 34.684C258.015 34.948 257.847 35.296 257.847 35.728C257.847 36.064 257.955 36.34 258.171 36.556C258.387 36.76 258.651 36.922 258.963 37.042C259.275 37.15 259.719 37.288 260.295 37.456C261.015 37.648 261.591 37.84 262.023 38.032C262.455 38.212 262.827 38.482 263.139 38.842C263.451 39.202 263.607 39.682 263.607 40.282C263.607 40.834 263.457 41.326 263.157 41.758C262.869 42.19 262.455 42.532 261.915 42.784C261.375 43.036 260.745 43.162 260.025 43.162ZM272.703 31.534C272.391 31.534 272.127 31.426 271.911 31.21C271.695 30.994 271.587 30.73 271.587 30.418C271.587 30.106 271.695 29.842 271.911 29.626C272.127 29.41 272.391 29.302 272.703 29.302C273.003 29.302 273.255 29.41 273.459 29.626C273.675 29.842 273.783 30.106 273.783 30.418C273.783 30.73 273.675 30.994 273.459 31.21C273.255 31.426 273.003 31.534 272.703 31.534ZM273.495 33.136V43H271.857V33.136H273.495ZM280.03 43.162C279.274 43.162 278.596 43.036 277.996 42.784C277.408 42.52 276.94 42.16 276.592 41.704C276.244 41.236 276.052 40.702 276.016 40.102H277.708C277.756 40.618 277.984 41.038 278.392 41.362C278.812 41.686 279.358 41.848 280.03 41.848C280.666 41.848 281.158 41.71 281.506 41.434C281.866 41.146 282.046 40.774 282.046 40.318C282.046 39.886 281.854 39.568 281.47 39.364C281.086 39.148 280.492 38.938 279.688 38.734C278.956 38.542 278.362 38.35 277.906 38.158C277.45 37.966 277.06 37.684 276.736 37.312C276.412 36.928 276.25 36.424 276.25 35.8C276.25 35.284 276.394 34.81 276.682 34.378C276.97 33.946 277.384 33.604 277.924 33.352C278.476 33.1 279.112 32.974 279.832 32.974C280.924 32.974 281.806 33.25 282.478 33.802C283.15 34.354 283.51 35.11 283.558 36.07H281.92C281.884 35.53 281.674 35.098 281.29 34.774C280.918 34.45 280.414 34.288 279.778 34.288C279.178 34.288 278.704 34.42 278.356 34.684C278.02 34.948 277.852 35.296 277.852 35.728C277.852 36.064 277.96 36.34 278.176 36.556C278.392 36.76 278.656 36.922 278.968 37.042C279.28 37.15 279.724 37.288 280.3 37.456C281.02 37.648 281.596 37.84 282.028 38.032C282.46 38.212 282.832 38.482 283.144 38.842C283.456 39.202 283.612 39.682 283.612 40.282C283.612 40.834 283.462 41.326 283.162 41.758C282.874 42.19 282.46 42.532 281.92 42.784C281.38 43.036 280.75 43.162 280.03 43.162ZM293.5 34.954C293.824 34.39 294.304 33.922 294.94 33.55C295.588 33.166 296.338 32.974 297.19 32.974C298.066 32.974 298.858 33.184 299.566 33.604C300.286 34.024 300.85 34.618 301.258 35.386C301.666 36.142 301.87 37.024 301.87 38.032C301.87 39.028 301.666 39.916 301.258 40.696C300.85 41.476 300.286 42.082 299.566 42.514C298.858 42.946 298.066 43.162 297.19 43.162C296.35 43.162 295.606 42.976 294.958 42.604C294.322 42.22 293.836 41.746 293.5 41.182V47.68H291.862V33.136H293.5V34.954ZM300.196 38.032C300.196 37.288 300.046 36.64 299.746 36.088C299.446 35.536 299.038 35.116 298.522 34.828C298.018 34.54 297.46 34.396 296.848 34.396C296.248 34.396 295.69 34.546 295.174 34.846C294.67 35.134 294.262 35.56 293.95 36.124C293.65 36.676 293.5 37.318 293.5 38.05C293.5 38.794 293.65 39.448 293.95 40.012C294.262 40.564 294.67 40.99 295.174 41.29C295.69 41.578 296.248 41.722 296.848 41.722C297.46 41.722 298.018 41.578 298.522 41.29C299.038 40.99 299.446 40.564 299.746 40.012C300.046 39.448 300.196 38.788 300.196 38.032ZM305.934 35.008C306.222 34.36 306.63 33.856 307.158 33.496C307.698 33.136 308.352 32.956 309.12 32.956V34.648H308.688C306.852 34.648 305.934 35.644 305.934 37.636V43H304.296V33.136H305.934V35.008ZM320.281 37.654C320.281 37.954 320.263 38.278 320.227 38.626H312.343C312.391 39.598 312.715 40.366 313.315 40.93C313.927 41.494 314.671 41.776 315.547 41.776C316.255 41.776 316.843 41.614 317.311 41.29C317.791 40.954 318.127 40.51 318.319 39.958H320.083C319.819 40.906 319.291 41.68 318.499 42.28C317.707 42.868 316.723 43.162 315.547 43.162C314.611 43.162 313.771 42.952 313.027 42.532C312.295 42.112 311.719 41.518 311.299 40.75C310.879 39.97 310.669 39.07 310.669 38.05C310.669 37.03 310.873 36.136 311.281 35.368C311.689 34.6 312.259 34.012 312.991 33.604C313.735 33.184 314.587 32.974 315.547 32.974C316.483 32.974 317.305 33.178 318.013 33.586C318.733 33.994 319.291 34.552 319.687 35.26C320.083 35.968 320.281 36.766 320.281 37.654ZM318.589 37.438C318.589 36.79 318.451 36.238 318.175 35.782C317.899 35.314 317.521 34.96 317.041 34.72C316.573 34.48 316.051 34.36 315.475 34.36C314.635 34.36 313.921 34.636 313.333 35.188C312.745 35.728 312.421 36.478 312.361 37.438H318.589ZM324.711 34.486V40.3C324.711 40.78 324.813 41.122 325.017 41.326C325.221 41.518 325.575 41.614 326.079 41.614H327.285V43H325.809C324.897 43 324.213 42.79 323.757 42.37C323.301 41.95 323.073 41.26 323.073 40.3V34.486H321.795V33.136H323.073V30.652H324.711V33.136H327.285V34.486H324.711ZM331.538 34.486V40.3C331.538 40.78 331.64 41.122 331.844 41.326C332.048 41.518 332.402 41.614 332.906 41.614H334.112V43H332.636C331.724 43 331.04 42.79 330.584 42.37C330.128 41.95 329.9 41.26 329.9 40.3V34.486H328.622V33.136H329.9V30.652H331.538V33.136H334.112V34.486H331.538ZM337.032 33.136L340.092 41.092L343.17 33.136H344.862L338.922 47.644H337.212L339.174 42.892L335.196 33.136H337.032ZM351.798 38.05C351.798 37.03 352.002 36.142 352.41 35.386C352.818 34.618 353.382 34.024 354.102 33.604C354.834 33.184 355.668 32.974 356.604 32.974C357.816 32.974 358.812 33.268 359.592 33.856C360.384 34.444 360.906 35.26 361.158 36.304H359.394C359.226 35.704 358.896 35.23 358.404 34.882C357.924 34.534 357.324 34.36 356.604 34.36C355.668 34.36 354.912 34.684 354.336 35.332C353.76 35.968 353.472 36.874 353.472 38.05C353.472 39.238 353.76 40.156 354.336 40.804C354.912 41.452 355.668 41.776 356.604 41.776C357.324 41.776 357.924 41.608 358.404 41.272C358.884 40.936 359.214 40.456 359.394 39.832H361.158C360.894 40.84 360.366 41.65 359.574 42.262C358.782 42.862 357.792 43.162 356.604 43.162C355.668 43.162 354.834 42.952 354.102 42.532C353.382 42.112 352.818 41.518 352.41 40.75C352.002 39.982 351.798 39.082 351.798 38.05ZM367.916 43.162C366.992 43.162 366.152 42.952 365.396 42.532C364.652 42.112 364.064 41.518 363.632 40.75C363.212 39.97 363.002 39.07 363.002 38.05C363.002 37.042 363.218 36.154 363.65 35.386C364.094 34.606 364.694 34.012 365.45 33.604C366.206 33.184 367.052 32.974 367.988 32.974C368.924 32.974 369.77 33.184 370.526 33.604C371.282 34.012 371.876 34.6 372.308 35.368C372.752 36.136 372.974 37.03 372.974 38.05C372.974 39.07 372.746 39.97 372.29 40.75C371.846 41.518 371.24 42.112 370.472 42.532C369.704 42.952 368.852 43.162 367.916 43.162ZM367.916 41.776C368.504 41.776 369.056 41.638 369.572 41.362C370.088 41.074 370.502 40.648 370.814 40.084C371.138 39.52 371.3 38.842 371.3 38.05C371.3 37.258 371.144 36.586 370.832 36.034C370.52 35.47 370.112 35.05 369.608 34.774C369.104 34.498 368.558 34.36 367.97 34.36C367.37 34.36 366.818 34.498 366.314 34.774C365.822 35.05 365.426 35.47 365.126 36.034C364.826 36.586 364.676 37.258 364.676 38.05C364.676 38.854 364.82 39.538 365.108 40.102C365.408 40.654 365.804 41.074 366.296 41.362C366.788 41.638 367.328 41.776 367.916 41.776ZM379.699 43.162C378.775 43.162 377.935 42.952 377.179 42.532C376.435 42.112 375.847 41.518 375.415 40.75C374.995 39.97 374.785 39.07 374.785 38.05C374.785 37.042 375.001 36.154 375.433 35.386C375.877 34.606 376.477 34.012 377.233 33.604C377.989 33.184 378.835 32.974 379.771 32.974C380.707 32.974 381.553 33.184 382.309 33.604C383.065 34.012 383.659 34.6 384.091 35.368C384.535 36.136 384.757 37.03 384.757 38.05C384.757 39.07 384.529 39.97 384.073 40.75C383.629 41.518 383.023 42.112 382.255 42.532C381.487 42.952 380.635 43.162 379.699 43.162ZM379.699 41.776C380.287 41.776 380.839 41.638 381.355 41.362C381.871 41.074 382.285 40.648 382.597 40.084C382.921 39.52 383.083 38.842 383.083 38.05C383.083 37.258 382.927 36.586 382.615 36.034C382.303 35.47 381.895 35.05 381.391 34.774C380.887 34.498 380.341 34.36 379.753 34.36C379.153 34.36 378.601 34.498 378.097 34.774C377.605 35.05 377.209 35.47 376.909 36.034C376.609 36.586 376.459 37.258 376.459 38.05C376.459 38.854 376.603 39.538 376.891 40.102C377.191 40.654 377.587 41.074 378.079 41.362C378.571 41.638 379.111 41.776 379.699 41.776ZM388.819 29.68V43H387.181V29.68H388.819ZM399.51 34.486V40.3C399.51 40.78 399.612 41.122 399.816 41.326C400.02 41.518 400.374 41.614 400.878 41.614H402.084V43H400.608C399.696 43 399.012 42.79 398.556 42.37C398.1 41.95 397.872 41.26 397.872 40.3V34.486H396.594V33.136H397.872V30.652H399.51V33.136H402.084V34.486H399.51ZM408.641 43.162C407.717 43.162 406.877 42.952 406.121 42.532C405.377 42.112 404.789 41.518 404.357 40.75C403.937 39.97 403.727 39.07 403.727 38.05C403.727 37.042 403.943 36.154 404.375 35.386C404.819 34.606 405.419 34.012 406.175 33.604C406.931 33.184 407.777 32.974 408.713 32.974C409.649 32.974 410.495 33.184 411.251 33.604C412.007 34.012 412.601 34.6 413.033 35.368C413.477 36.136 413.699 37.03 413.699 38.05C413.699 39.07 413.471 39.97 413.015 40.75C412.571 41.518 411.965 42.112 411.197 42.532C410.429 42.952 409.577 43.162 408.641 43.162ZM408.641 41.776C409.229 41.776 409.781 41.638 410.297 41.362C410.813 41.074 411.227 40.648 411.539 40.084C411.863 39.52 412.025 38.842 412.025 38.05C412.025 37.258 411.869 36.586 411.557 36.034C411.245 35.47 410.837 35.05 410.333 34.774C409.829 34.498 409.283 34.36 408.695 34.36C408.095 34.36 407.543 34.498 407.039 34.774C406.547 35.05 406.151 35.47 405.851 36.034C405.551 36.586 405.401 37.258 405.401 38.05C405.401 38.854 405.545 39.538 405.833 40.102C406.133 40.654 406.529 41.074 407.021 41.362C407.513 41.638 408.053 41.776 408.641 41.776ZM421.142 38.05C421.142 37.03 421.346 36.142 421.754 35.386C422.162 34.618 422.726 34.024 423.446 33.604C424.178 33.184 425.012 32.974 425.948 32.974C427.16 32.974 428.156 33.268 428.936 33.856C429.728 34.444 430.25 35.26 430.502 36.304H428.738C428.57 35.704 428.24 35.23 427.748 34.882C427.268 34.534 426.668 34.36 425.948 34.36C425.012 34.36 424.256 34.684 423.68 35.332C423.104 35.968 422.816 36.874 422.816 38.05C422.816 39.238 423.104 40.156 423.68 40.804C424.256 41.452 425.012 41.776 425.948 41.776C426.668 41.776 427.268 41.608 427.748 41.272C428.228 40.936 428.558 40.456 428.738 39.832H430.502C430.238 40.84 429.71 41.65 428.918 42.262C428.126 42.862 427.136 43.162 425.948 43.162C425.012 43.162 424.178 42.952 423.446 42.532C422.726 42.112 422.162 41.518 421.754 40.75C421.346 39.982 421.142 39.082 421.142 38.05ZM437.853 32.956C438.597 32.956 439.269 33.118 439.869 33.442C440.469 33.754 440.937 34.228 441.273 34.864C441.621 35.5 441.795 36.274 441.795 37.186V43H440.175V37.42C440.175 36.436 439.929 35.686 439.437 35.17C438.945 34.642 438.273 34.378 437.421 34.378C436.557 34.378 435.867 34.648 435.351 35.188C434.847 35.728 434.595 36.514 434.595 37.546V43H432.957V29.68H434.595V34.54C434.919 34.036 435.363 33.646 435.927 33.37C436.503 33.094 437.145 32.956 437.853 32.956ZM444.129 38.032C444.129 37.024 444.333 36.142 444.741 35.386C445.149 34.618 445.707 34.024 446.415 33.604C447.135 33.184 447.933 32.974 448.809 32.974C449.673 32.974 450.423 33.16 451.059 33.532C451.695 33.904 452.169 34.372 452.481 34.936V33.136H454.137V43H452.481V41.164C452.157 41.74 451.671 42.22 451.023 42.604C450.387 42.976 449.643 43.162 448.791 43.162C447.915 43.162 447.123 42.946 446.415 42.514C445.707 42.082 445.149 41.476 444.741 40.696C444.333 39.916 444.129 39.028 444.129 38.032ZM452.481 38.05C452.481 37.306 452.331 36.658 452.031 36.106C451.731 35.554 451.323 35.134 450.807 34.846C450.303 34.546 449.745 34.396 449.133 34.396C448.521 34.396 447.963 34.54 447.459 34.828C446.955 35.116 446.553 35.536 446.253 36.088C445.953 36.64 445.803 37.288 445.803 38.032C445.803 38.788 445.953 39.448 446.253 40.012C446.553 40.564 446.955 40.99 447.459 41.29C447.963 41.578 448.521 41.722 449.133 41.722C449.745 41.722 450.303 41.578 450.807 41.29C451.323 40.99 451.731 40.564 452.031 40.012C452.331 39.448 452.481 38.794 452.481 38.05ZM459.173 34.486V40.3C459.173 40.78 459.275 41.122 459.479 41.326C459.683 41.518 460.037 41.614 460.541 41.614H461.747V43H460.271C459.359 43 458.675 42.79 458.219 42.37C457.763 41.95 457.535 41.26 457.535 40.3V34.486H456.257V33.136H457.535V30.652H459.173V33.136H461.747V34.486H459.173ZM470.479 31.534C470.167 31.534 469.903 31.426 469.687 31.21C469.471 30.994 469.363 30.73 469.363 30.418C469.363 30.106 469.471 29.842 469.687 29.626C469.903 29.41 470.167 29.302 470.479 29.302C470.779 29.302 471.031 29.41 471.235 29.626C471.451 29.842 471.559 30.106 471.559 30.418C471.559 30.73 471.451 30.994 471.235 31.21C471.031 31.426 470.779 31.534 470.479 31.534ZM471.271 33.136V43H469.633V33.136H471.271ZM479.139 32.956C480.339 32.956 481.311 33.322 482.055 34.054C482.799 34.774 483.171 35.818 483.171 37.186V43H481.551V37.42C481.551 36.436 481.305 35.686 480.813 35.17C480.321 34.642 479.649 34.378 478.797 34.378C477.933 34.378 477.243 34.648 476.727 35.188C476.223 35.728 475.971 36.514 475.971 37.546V43H474.333V33.136H475.971V34.54C476.295 34.036 476.733 33.646 477.285 33.37C477.849 33.094 478.467 32.956 479.139 32.956ZM491.136 38.032C491.136 37.024 491.34 36.142 491.748 35.386C492.156 34.618 492.714 34.024 493.422 33.604C494.142 33.184 494.94 32.974 495.816 32.974C496.68 32.974 497.43 33.16 498.066 33.532C498.702 33.904 499.176 34.372 499.488 34.936V33.136H501.144V43H499.488V41.164C499.164 41.74 498.678 42.22 498.03 42.604C497.394 42.976 496.65 43.162 495.798 43.162C494.922 43.162 494.13 42.946 493.422 42.514C492.714 42.082 492.156 41.476 491.748 40.696C491.34 39.916 491.136 39.028 491.136 38.032ZM499.488 38.05C499.488 37.306 499.338 36.658 499.038 36.106C498.738 35.554 498.33 35.134 497.814 34.846C497.31 34.546 496.752 34.396 496.14 34.396C495.528 34.396 494.97 34.54 494.466 34.828C493.962 35.116 493.56 35.536 493.26 36.088C492.96 36.64 492.81 37.288 492.81 38.032C492.81 38.788 492.96 39.448 493.26 40.012C493.56 40.564 493.962 40.99 494.466 41.29C494.97 41.578 495.528 41.722 496.14 41.722C496.752 41.722 497.31 41.578 497.814 41.29C498.33 40.99 498.738 40.564 499.038 40.012C499.338 39.448 499.488 38.794 499.488 38.05ZM509.201 38.05C509.201 37.03 509.405 36.142 509.813 35.386C510.221 34.618 510.785 34.024 511.505 33.604C512.237 33.184 513.071 32.974 514.007 32.974C515.219 32.974 516.215 33.268 516.995 33.856C517.787 34.444 518.309 35.26 518.561 36.304H516.797C516.629 35.704 516.299 35.23 515.807 34.882C515.327 34.534 514.727 34.36 514.007 34.36C513.071 34.36 512.315 34.684 511.739 35.332C511.163 35.968 510.875 36.874 510.875 38.05C510.875 39.238 511.163 40.156 511.739 40.804C512.315 41.452 513.071 41.776 514.007 41.776C514.727 41.776 515.327 41.608 515.807 41.272C516.287 40.936 516.617 40.456 516.797 39.832H518.561C518.297 40.84 517.769 41.65 516.977 42.262C516.185 42.862 515.195 43.162 514.007 43.162C513.071 43.162 512.237 42.952 511.505 42.532C510.785 42.112 510.221 41.518 509.813 40.75C509.405 39.982 509.201 39.082 509.201 38.05ZM525.319 43.162C524.395 43.162 523.555 42.952 522.799 42.532C522.055 42.112 521.467 41.518 521.035 40.75C520.615 39.97 520.405 39.07 520.405 38.05C520.405 37.042 520.621 36.154 521.053 35.386C521.497 34.606 522.097 34.012 522.853 33.604C523.609 33.184 524.455 32.974 525.391 32.974C526.327 32.974 527.173 33.184 527.929 33.604C528.685 34.012 529.279 34.6 529.711 35.368C530.155 36.136 530.377 37.03 530.377 38.05C530.377 39.07 530.149 39.97 529.693 40.75C529.249 41.518 528.643 42.112 527.875 42.532C527.107 42.952 526.255 43.162 525.319 43.162ZM525.319 41.776C525.907 41.776 526.459 41.638 526.975 41.362C527.491 41.074 527.905 40.648 528.217 40.084C528.541 39.52 528.703 38.842 528.703 38.05C528.703 37.258 528.547 36.586 528.235 36.034C527.923 35.47 527.515 35.05 527.011 34.774C526.507 34.498 525.961 34.36 525.373 34.36C524.773 34.36 524.221 34.498 523.717 34.774C523.225 35.05 522.829 35.47 522.529 36.034C522.229 36.586 522.079 37.258 522.079 38.05C522.079 38.854 522.223 39.538 522.511 40.102C522.811 40.654 523.207 41.074 523.699 41.362C524.191 41.638 524.731 41.776 525.319 41.776ZM544.662 32.956C545.43 32.956 546.114 33.118 546.714 33.442C547.314 33.754 547.788 34.228 548.136 34.864C548.484 35.5 548.658 36.274 548.658 37.186V43H547.038V37.42C547.038 36.436 546.792 35.686 546.3 35.17C545.82 34.642 545.166 34.378 544.338 34.378C543.486 34.378 542.808 34.654 542.304 35.206C541.8 35.746 541.548 36.532 541.548 37.564V43H539.928V37.42C539.928 36.436 539.682 35.686 539.19 35.17C538.71 34.642 538.056 34.378 537.228 34.378C536.376 34.378 535.698 34.654 535.194 35.206C534.69 35.746 534.438 36.532 534.438 37.564V43H532.8V33.136H534.438V34.558C534.762 34.042 535.194 33.646 535.734 33.37C536.286 33.094 536.892 32.956 537.552 32.956C538.38 32.956 539.112 33.142 539.748 33.514C540.384 33.886 540.858 34.432 541.17 35.152C541.446 34.456 541.902 33.916 542.538 33.532C543.174 33.148 543.882 32.956 544.662 32.956ZM553.253 34.954C553.577 34.39 554.057 33.922 554.693 33.55C555.341 33.166 556.091 32.974 556.943 32.974C557.819 32.974 558.611 33.184 559.319 33.604C560.039 34.024 560.603 34.618 561.011 35.386C561.419 36.142 561.623 37.024 561.623 38.032C561.623 39.028 561.419 39.916 561.011 40.696C560.603 41.476 560.039 42.082 559.319 42.514C558.611 42.946 557.819 43.162 556.943 43.162C556.103 43.162 555.359 42.976 554.711 42.604C554.075 42.22 553.589 41.746 553.253 41.182V47.68H551.615V33.136H553.253V34.954ZM559.949 38.032C559.949 37.288 559.799 36.64 559.499 36.088C559.199 35.536 558.791 35.116 558.275 34.828C557.771 34.54 557.213 34.396 556.601 34.396C556.001 34.396 555.443 34.546 554.927 34.846C554.423 35.134 554.015 35.56 553.703 36.124C553.403 36.676 553.253 37.318 553.253 38.05C553.253 38.794 553.403 39.448 553.703 40.012C554.015 40.564 554.423 40.99 554.927 41.29C555.443 41.578 556.001 41.722 556.601 41.722C557.213 41.722 557.771 41.578 558.275 41.29C558.791 40.99 559.199 40.564 559.499 40.012C559.799 39.448 559.949 38.788 559.949 38.032ZM568.351 43.162C567.427 43.162 566.587 42.952 565.831 42.532C565.087 42.112 564.499 41.518 564.067 40.75C563.647 39.97 563.437 39.07 563.437 38.05C563.437 37.042 563.653 36.154 564.085 35.386C564.529 34.606 565.129 34.012 565.885 33.604C566.641 33.184 567.487 32.974 568.423 32.974C569.359 32.974 570.205 33.184 570.961 33.604C571.717 34.012 572.311 34.6 572.743 35.368C573.187 36.136 573.409 37.03 573.409 38.05C573.409 39.07 573.181 39.97 572.725 40.75C572.281 41.518 571.675 42.112 570.907 42.532C570.139 42.952 569.287 43.162 568.351 43.162ZM568.351 41.776C568.939 41.776 569.491 41.638 570.007 41.362C570.523 41.074 570.937 40.648 571.249 40.084C571.573 39.52 571.735 38.842 571.735 38.05C571.735 37.258 571.579 36.586 571.267 36.034C570.955 35.47 570.547 35.05 570.043 34.774C569.539 34.498 568.993 34.36 568.405 34.36C567.805 34.36 567.253 34.498 566.749 34.774C566.257 35.05 565.861 35.47 565.561 36.034C565.261 36.586 565.111 37.258 565.111 38.05C565.111 38.854 565.255 39.538 565.543 40.102C565.843 40.654 566.239 41.074 566.731 41.362C567.223 41.638 567.763 41.776 568.351 41.776ZM580.639 32.956C581.839 32.956 582.811 33.322 583.555 34.054C584.299 34.774 584.671 35.818 584.671 37.186V43H583.051V37.42C583.051 36.436 582.805 35.686 582.313 35.17C581.821 34.642 581.149 34.378 580.297 34.378C579.433 34.378 578.743 34.648 578.227 35.188C577.723 35.728 577.471 36.514 577.471 37.546V43H575.833V33.136H577.471V34.54C577.795 34.036 578.233 33.646 578.785 33.37C579.349 33.094 579.967 32.956 580.639 32.956ZM596.617 37.654C596.617 37.954 596.599 38.278 596.563 38.626H588.679C588.727 39.598 589.051 40.366 589.651 40.93C590.263 41.494 591.007 41.776 591.883 41.776C592.591 41.776 593.179 41.614 593.647 41.29C594.127 40.954 594.463 40.51 594.655 39.958H596.419C596.155 40.906 595.627 41.68 594.835 42.28C594.043 42.868 593.059 43.162 591.883 43.162C590.947 43.162 590.107 42.952 589.363 42.532C588.631 42.112 588.055 41.518 587.635 40.75C587.215 39.97 587.005 39.07 587.005 38.05C587.005 37.03 587.209 36.136 587.617 35.368C588.025 34.6 588.595 34.012 589.327 33.604C590.071 33.184 590.923 32.974 591.883 32.974C592.819 32.974 593.641 33.178 594.349 33.586C595.069 33.994 595.627 34.552 596.023 35.26C596.419 35.968 596.617 36.766 596.617 37.654ZM594.925 37.438C594.925 36.79 594.787 36.238 594.511 35.782C594.235 35.314 593.857 34.96 593.377 34.72C592.909 34.48 592.387 34.36 591.811 34.36C590.971 34.36 590.257 34.636 589.669 35.188C589.081 35.728 588.757 36.478 588.697 37.438H594.925ZM603.855 32.956C605.055 32.956 606.027 33.322 606.771 34.054C607.515 34.774 607.887 35.818 607.887 37.186V43H606.267V37.42C606.267 36.436 606.021 35.686 605.529 35.17C605.037 34.642 604.365 34.378 603.513 34.378C602.649 34.378 601.959 34.648 601.443 35.188C600.939 35.728 600.687 36.514 600.687 37.546V43H599.049V33.136H600.687V34.54C601.011 34.036 601.449 33.646 602.001 33.37C602.565 33.094 603.183 32.956 603.855 32.956ZM612.83 34.486V40.3C612.83 40.78 612.932 41.122 613.136 41.326C613.34 41.518 613.694 41.614 614.198 41.614H615.404V43H613.928C613.016 43 612.332 42.79 611.876 42.37C611.42 41.95 611.192 41.26 611.192 40.3V34.486H609.914V33.136H611.192V30.652H612.83V33.136H615.404V34.486H612.83ZM27.024 56.68V70H25.386V56.68H27.024ZM30.9317 58.534C30.6197 58.534 30.3557 58.426 30.1397 58.21C29.9237 57.994 29.8157 57.73 29.8157 57.418C29.8157 57.106 29.9237 56.842 30.1397 56.626C30.3557 56.41 30.6197 56.302 30.9317 56.302C31.2317 56.302 31.4837 56.41 31.6877 56.626C31.9037 56.842 32.0117 57.106 32.0117 57.418C32.0117 57.73 31.9037 57.994 31.6877 58.21C31.4837 58.426 31.2317 58.534 30.9317 58.534ZM31.7237 60.136V70H30.0857V60.136H31.7237ZM40.2934 70L36.4234 65.644V70H34.7854V56.68H36.4234V64.51L40.2214 60.136H42.5074L37.8634 65.05L42.5254 70H40.2934ZM53.319 64.654C53.319 64.954 53.301 65.278 53.265 65.626H45.381C45.429 66.598 45.753 67.366 46.353 67.93C46.965 68.494 47.709 68.776 48.585 68.776C49.293 68.776 49.881 68.614 50.349 68.29C50.829 67.954 51.165 67.51 51.357 66.958H53.121C52.857 67.906 52.329 68.68 51.537 69.28C50.745 69.868 49.761 70.162 48.585 70.162C47.649 70.162 46.809 69.952 46.065 69.532C45.333 69.112 44.757 68.518 44.337 67.75C43.917 66.97 43.707 66.07 43.707 65.05C43.707 64.03 43.911 63.136 44.319 62.368C44.727 61.6 45.297 61.012 46.029 60.604C46.773 60.184 47.625 59.974 48.585 59.974C49.521 59.974 50.343 60.178 51.051 60.586C51.771 60.994 52.329 61.552 52.725 62.26C53.121 62.968 53.319 63.766 53.319 64.654ZM51.627 64.438C51.627 63.79 51.489 63.238 51.213 62.782C50.937 62.314 50.559 61.96 50.079 61.72C49.611 61.48 49.089 61.36 48.513 61.36C47.673 61.36 46.959 61.636 46.371 62.188C45.783 62.728 45.459 63.478 45.399 64.438H51.627ZM63.3805 61.486V67.3C63.3805 67.78 63.4825 68.122 63.6865 68.326C63.8905 68.518 64.2445 68.614 64.7485 68.614H65.9545V70H64.4785C63.5665 70 62.8825 69.79 62.4265 69.37C61.9705 68.95 61.7425 68.26 61.7425 67.3V61.486H60.4645V60.136H61.7425V57.652H63.3805V60.136H65.9545V61.486H63.3805ZM73.1051 59.956C73.8491 59.956 74.5211 60.118 75.1211 60.442C75.7211 60.754 76.1891 61.228 76.5251 61.864C76.8731 62.5 77.0471 63.274 77.0471 64.186V70H75.4271V64.42C75.4271 63.436 75.1811 62.686 74.6891 62.17C74.1971 61.642 73.5251 61.378 72.6731 61.378C71.8091 61.378 71.1191 61.648 70.6031 62.188C70.0991 62.728 69.8471 63.514 69.8471 64.546V70H68.2091V56.68H69.8471V61.54C70.1711 61.036 70.6151 60.646 71.1791 60.37C71.7551 60.094 72.3971 59.956 73.1051 59.956ZM80.8388 58.534C80.5268 58.534 80.2628 58.426 80.0468 58.21C79.8308 57.994 79.7228 57.73 79.7228 57.418C79.7228 57.106 79.8308 56.842 80.0468 56.626C80.2628 56.41 80.5268 56.302 80.8388 56.302C81.1388 56.302 81.3908 56.41 81.5948 56.626C81.8108 56.842 81.9188 57.106 81.9188 57.418C81.9188 57.73 81.8108 57.994 81.5948 58.21C81.3908 58.426 81.1388 58.534 80.8388 58.534ZM81.6308 60.136V70H79.9928V60.136H81.6308ZM88.1665 70.162C87.4105 70.162 86.7325 70.036 86.1325 69.784C85.5445 69.52 85.0765 69.16 84.7285 68.704C84.3805 68.236 84.1885 67.702 84.1525 67.102H85.8445C85.8925 67.618 86.1205 68.038 86.5285 68.362C86.9485 68.686 87.4945 68.848 88.1665 68.848C88.8025 68.848 89.2945 68.71 89.6425 68.434C90.0025 68.146 90.1825 67.774 90.1825 67.318C90.1825 66.886 89.9905 66.568 89.6065 66.364C89.2225 66.148 88.6285 65.938 87.8245 65.734C87.0925 65.542 86.4985 65.35 86.0425 65.158C85.5865 64.966 85.1965 64.684 84.8725 64.312C84.5485 63.928 84.3865 63.424 84.3865 62.8C84.3865 62.284 84.5305 61.81 84.8185 61.378C85.1065 60.946 85.5205 60.604 86.0605 60.352C86.6125 60.1 87.2485 59.974 87.9685 59.974C89.0605 59.974 89.9425 60.25 90.6145 60.802C91.2865 61.354 91.6465 62.11 91.6945 63.07H90.0565C90.0205 62.53 89.8105 62.098 89.4265 61.774C89.0545 61.45 88.5505 61.288 87.9145 61.288C87.3145 61.288 86.8405 61.42 86.4925 61.684C86.1565 61.948 85.9885 62.296 85.9885 62.728C85.9885 63.064 86.0965 63.34 86.3125 63.556C86.5285 63.76 86.7925 63.922 87.1045 64.042C87.4165 64.15 87.8605 64.288 88.4365 64.456C89.1565 64.648 89.7325 64.84 90.1645 65.032C90.5965 65.212 90.9685 65.482 91.2805 65.842C91.5925 66.202 91.7485 66.682 91.7485 67.282C91.7485 67.834 91.5985 68.326 91.2985 68.758C91.0105 69.19 90.5965 69.532 90.0565 69.784C89.5165 70.036 88.8865 70.162 88.1665 70.162ZM96.0588 67.732L94.0428 72.574H92.9448L94.2588 67.732H96.0588ZM103.224 65.032C103.224 64.024 103.428 63.142 103.836 62.386C104.244 61.618 104.802 61.024 105.51 60.604C106.23 60.184 107.028 59.974 107.904 59.974C108.768 59.974 109.518 60.16 110.154 60.532C110.79 60.904 111.264 61.372 111.576 61.936V60.136H113.232V70H111.576V68.164C111.252 68.74 110.766 69.22 110.118 69.604C109.482 69.976 108.738 70.162 107.886 70.162C107.01 70.162 106.218 69.946 105.51 69.514C104.802 69.082 104.244 68.476 103.836 67.696C103.428 66.916 103.224 66.028 103.224 65.032ZM111.576 65.05C111.576 64.306 111.426 63.658 111.126 63.106C110.826 62.554 110.418 62.134 109.902 61.846C109.398 61.546 108.84 61.396 108.228 61.396C107.616 61.396 107.058 61.54 106.554 61.828C106.05 62.116 105.648 62.536 105.348 63.088C105.048 63.64 104.898 64.288 104.898 65.032C104.898 65.788 105.048 66.448 105.348 67.012C105.648 67.564 106.05 67.99 106.554 68.29C107.058 68.578 107.616 68.722 108.228 68.722C108.84 68.722 109.398 68.578 109.902 68.29C110.418 67.99 110.826 67.564 111.126 67.012C111.426 66.448 111.576 65.794 111.576 65.05ZM117.909 62.008C118.197 61.36 118.605 60.856 119.133 60.496C119.673 60.136 120.327 59.956 121.095 59.956V61.648H120.663C118.827 61.648 117.909 62.644 117.909 64.636V70H116.271V60.136H117.909V62.008ZM132.255 64.654C132.255 64.954 132.237 65.278 132.201 65.626H124.317C124.365 66.598 124.689 67.366 125.289 67.93C125.901 68.494 126.645 68.776 127.521 68.776C128.229 68.776 128.817 68.614 129.285 68.29C129.765 67.954 130.101 67.51 130.293 66.958H132.057C131.793 67.906 131.265 68.68 130.473 69.28C129.681 69.868 128.697 70.162 127.521 70.162C126.585 70.162 125.745 69.952 125.001 69.532C124.269 69.112 123.693 68.518 123.273 67.75C122.853 66.97 122.643 66.07 122.643 65.05C122.643 64.03 122.847 63.136 123.255 62.368C123.663 61.6 124.233 61.012 124.965 60.604C125.709 60.184 126.561 59.974 127.521 59.974C128.457 59.974 129.279 60.178 129.987 60.586C130.707 60.994 131.265 61.552 131.661 62.26C132.057 62.968 132.255 63.766 132.255 64.654ZM130.563 64.438C130.563 63.79 130.425 63.238 130.149 62.782C129.873 62.314 129.495 61.96 129.015 61.72C128.547 61.48 128.025 61.36 127.449 61.36C126.609 61.36 125.895 61.636 125.307 62.188C124.719 62.728 124.395 63.478 124.335 64.438H130.563ZM153.459 60.136L150.381 70H148.689L146.313 62.17L143.937 70H142.245L139.149 60.136H140.823L143.091 68.416L145.539 60.136H147.231L149.607 68.362L151.839 60.136H153.459ZM164.354 64.654C164.354 64.954 164.336 65.278 164.3 65.626H156.416C156.464 66.598 156.788 67.366 157.388 67.93C158 68.494 158.744 68.776 159.62 68.776C160.328 68.776 160.916 68.614 161.384 68.29C161.864 67.954 162.2 67.51 162.392 66.958H164.156C163.892 67.906 163.364 68.68 162.572 69.28C161.78 69.868 160.796 70.162 159.62 70.162C158.684 70.162 157.844 69.952 157.1 69.532C156.368 69.112 155.792 68.518 155.372 67.75C154.952 66.97 154.742 66.07 154.742 65.05C154.742 64.03 154.946 63.136 155.354 62.368C155.762 61.6 156.332 61.012 157.064 60.604C157.808 60.184 158.66 59.974 159.62 59.974C160.556 59.974 161.378 60.178 162.086 60.586C162.806 60.994 163.364 61.552 163.76 62.26C164.156 62.968 164.354 63.766 164.354 64.654ZM162.662 64.438C162.662 63.79 162.524 63.238 162.248 62.782C161.972 62.314 161.594 61.96 161.114 61.72C160.646 61.48 160.124 61.36 159.548 61.36C158.708 61.36 157.994 61.636 157.406 62.188C156.818 62.728 156.494 63.478 156.434 64.438H162.662ZM177.314 59.956C178.058 59.956 178.73 60.118 179.33 60.442C179.93 60.754 180.398 61.228 180.734 61.864C181.082 62.5 181.256 63.274 181.256 64.186V70H179.636V64.42C179.636 63.436 179.39 62.686 178.898 62.17C178.406 61.642 177.734 61.378 176.882 61.378C176.018 61.378 175.328 61.648 174.812 62.188C174.308 62.728 174.056 63.514 174.056 64.546V70H172.418V56.68H174.056V61.54C174.38 61.036 174.824 60.646 175.388 60.37C175.964 60.094 176.606 59.956 177.314 59.956ZM183.59 65.032C183.59 64.024 183.794 63.142 184.202 62.386C184.61 61.618 185.168 61.024 185.876 60.604C186.596 60.184 187.394 59.974 188.27 59.974C189.134 59.974 189.884 60.16 190.52 60.532C191.156 60.904 191.63 61.372 191.942 61.936V60.136H193.598V70H191.942V68.164C191.618 68.74 191.132 69.22 190.484 69.604C189.848 69.976 189.104 70.162 188.252 70.162C187.376 70.162 186.584 69.946 185.876 69.514C185.168 69.082 184.61 68.476 184.202 67.696C183.794 66.916 183.59 66.028 183.59 65.032ZM191.942 65.05C191.942 64.306 191.792 63.658 191.492 63.106C191.192 62.554 190.784 62.134 190.268 61.846C189.764 61.546 189.206 61.396 188.594 61.396C187.982 61.396 187.424 61.54 186.92 61.828C186.416 62.116 186.014 62.536 185.714 63.088C185.414 63.64 185.264 64.288 185.264 65.032C185.264 65.788 185.414 66.448 185.714 67.012C186.014 67.564 186.416 67.99 186.92 68.29C187.424 68.578 187.982 68.722 188.594 68.722C189.206 68.722 189.764 68.578 190.268 68.29C190.784 67.99 191.192 67.564 191.492 67.012C191.792 66.448 191.942 65.794 191.942 65.05ZM200.308 68.452L203.368 60.136H205.132L201.262 70H199.336L195.466 60.136H197.23L200.308 68.452ZM207.841 58.534C207.529 58.534 207.265 58.426 207.049 58.21C206.833 57.994 206.725 57.73 206.725 57.418C206.725 57.106 206.833 56.842 207.049 56.626C207.265 56.41 207.529 56.302 207.841 56.302C208.141 56.302 208.393 56.41 208.597 56.626C208.813 56.842 208.921 57.106 208.921 57.418C208.921 57.73 208.813 57.994 208.597 58.21C208.393 58.426 208.141 58.534 207.841 58.534ZM208.633 60.136V70H206.995V60.136H208.633ZM216.501 59.956C217.701 59.956 218.673 60.322 219.417 61.054C220.161 61.774 220.533 62.818 220.533 64.186V70H218.913V64.42C218.913 63.436 218.667 62.686 218.175 62.17C217.683 61.642 217.011 61.378 216.159 61.378C215.295 61.378 214.605 61.648 214.089 62.188C213.585 62.728 213.333 63.514 213.333 64.546V70H211.695V60.136H213.333V61.54C213.657 61.036 214.095 60.646 214.647 60.37C215.211 60.094 215.829 59.956 216.501 59.956ZM227.547 59.974C228.399 59.974 229.143 60.16 229.779 60.532C230.427 60.904 230.907 61.372 231.219 61.936V60.136H232.875V70.216C232.875 71.116 232.683 71.914 232.299 72.61C231.915 73.318 231.363 73.87 230.643 74.266C229.935 74.662 229.107 74.86 228.159 74.86C226.863 74.86 225.783 74.554 224.919 73.942C224.055 73.33 223.545 72.496 223.389 71.44H225.009C225.189 72.04 225.561 72.52 226.125 72.88C226.689 73.252 227.367 73.438 228.159 73.438C229.059 73.438 229.791 73.156 230.355 72.592C230.931 72.028 231.219 71.236 231.219 70.216V68.146C230.895 68.722 230.415 69.202 229.779 69.586C229.143 69.97 228.399 70.162 227.547 70.162C226.671 70.162 225.873 69.946 225.153 69.514C224.445 69.082 223.887 68.476 223.479 67.696C223.071 66.916 222.867 66.028 222.867 65.032C222.867 64.024 223.071 63.142 223.479 62.386C223.887 61.618 224.445 61.024 225.153 60.604C225.873 60.184 226.671 59.974 227.547 59.974ZM231.219 65.05C231.219 64.306 231.069 63.658 230.769 63.106C230.469 62.554 230.061 62.134 229.545 61.846C229.041 61.546 228.483 61.396 227.871 61.396C227.259 61.396 226.701 61.54 226.197 61.828C225.693 62.116 225.291 62.536 224.991 63.088C224.691 63.64 224.541 64.288 224.541 65.032C224.541 65.788 224.691 66.448 224.991 67.012C225.291 67.564 225.693 67.99 226.197 68.29C226.701 68.578 227.259 68.722 227.871 68.722C228.483 68.722 229.041 68.578 229.545 68.29C230.061 67.99 230.469 67.564 230.769 67.012C231.069 66.448 231.219 65.794 231.219 65.05ZM245.558 61.486H243.488V70H241.85V61.486H240.572V60.136H241.85V59.434C241.85 58.33 242.132 57.526 242.696 57.022C243.272 56.506 244.19 56.248 245.45 56.248V57.616C244.73 57.616 244.22 57.76 243.92 58.048C243.632 58.324 243.488 58.786 243.488 59.434V60.136H245.558V61.486ZM256.486 60.136V70H254.848V68.542C254.536 69.046 254.098 69.442 253.534 69.73C252.982 70.006 252.37 70.144 251.698 70.144C250.93 70.144 250.24 69.988 249.628 69.676C249.016 69.352 248.53 68.872 248.17 68.236C247.822 67.6 247.648 66.826 247.648 65.914V60.136H249.268V65.698C249.268 66.67 249.514 67.42 250.006 67.948C250.498 68.464 251.17 68.722 252.022 68.722C252.898 68.722 253.588 68.452 254.092 67.912C254.596 67.372 254.848 66.586 254.848 65.554V60.136H256.486ZM264.328 59.956C265.528 59.956 266.5 60.322 267.244 61.054C267.988 61.774 268.36 62.818 268.36 64.186V70H266.74V64.42C266.74 63.436 266.494 62.686 266.002 62.17C265.51 61.642 264.838 61.378 263.986 61.378C263.122 61.378 262.432 61.648 261.916 62.188C261.412 62.728 261.16 63.514 261.16 64.546V70H259.522V60.136H261.16V61.54C261.484 61.036 261.922 60.646 262.474 60.37C263.038 60.094 263.656 59.956 264.328 59.956ZM277.603 60.136L280.663 68.092L283.741 60.136H285.433L279.493 74.644H277.783L279.745 69.892L275.767 60.136H277.603ZM296.349 64.654C296.349 64.954 296.331 65.278 296.295 65.626H288.411C288.459 66.598 288.783 67.366 289.383 67.93C289.995 68.494 290.739 68.776 291.615 68.776C292.323 68.776 292.911 68.614 293.379 68.29C293.859 67.954 294.195 67.51 294.387 66.958H296.151C295.887 67.906 295.359 68.68 294.567 69.28C293.775 69.868 292.791 70.162 291.615 70.162C290.679 70.162 289.839 69.952 289.095 69.532C288.363 69.112 287.787 68.518 287.367 67.75C286.947 66.97 286.737 66.07 286.737 65.05C286.737 64.03 286.941 63.136 287.349 62.368C287.757 61.6 288.327 61.012 289.059 60.604C289.803 60.184 290.655 59.974 291.615 59.974C292.551 59.974 293.373 60.178 294.081 60.586C294.801 60.994 295.359 61.552 295.755 62.26C296.151 62.968 296.349 63.766 296.349 64.654ZM294.657 64.438C294.657 63.79 294.519 63.238 294.243 62.782C293.967 62.314 293.589 61.96 293.109 61.72C292.641 61.48 292.119 61.36 291.543 61.36C290.703 61.36 289.989 61.636 289.401 62.188C288.813 62.728 288.489 63.478 288.429 64.438H294.657ZM300.779 61.486V67.3C300.779 67.78 300.881 68.122 301.085 68.326C301.289 68.518 301.643 68.614 302.147 68.614H303.353V70H301.877C300.965 70 300.281 69.79 299.825 69.37C299.369 68.95 299.141 68.26 299.141 67.3V61.486H297.863V60.136H299.141V57.652H300.779V60.136H303.353V61.486H300.779ZM308.812 57.292C310 57.292 310.96 57.628 311.692 58.3C312.424 58.972 312.79 59.872 312.79 61C312.79 62.26 312.4 63.196 311.62 63.808C310.84 64.408 309.784 64.708 308.452 64.708L308.398 66.418H306.976L306.904 63.574H307.426C308.614 63.574 309.544 63.394 310.216 63.034C310.888 62.674 311.224 61.996 311.224 61C311.224 60.28 311.008 59.71 310.576 59.29C310.144 58.87 309.562 58.66 308.83 58.66C308.086 58.66 307.498 58.864 307.066 59.272C306.646 59.668 306.436 60.214 306.436 60.91H304.888C304.888 60.19 305.05 59.56 305.374 59.02C305.698 58.468 306.154 58.042 306.742 57.742C307.342 57.442 308.032 57.292 308.812 57.292ZM307.678 70.108C307.366 70.108 307.102 70 306.886 69.784C306.67 69.568 306.562 69.304 306.562 68.992C306.562 68.68 306.67 68.416 306.886 68.2C307.102 67.984 307.366 67.876 307.678 67.876C307.978 67.876 308.23 67.984 308.434 68.2C308.65 68.416 308.758 68.68 308.758 68.992C308.758 69.304 308.65 69.568 308.434 69.784C308.23 70 307.978 70.108 307.678 70.108Z" fill="#192434"/>
</svg>
