<svg width="122" height="30" viewBox="0 0 122 30" fill="none" xmlns="http://www.w3.org/2000/svg">
<path d="M0.896307 23H15.6406V19.1967H5.50923V13.9872H14.8416V10.1839H5.50923V4.98508H15.598V1.18182H0.896307V23ZM23.8464 23.3089C26.2647 23.3089 27.8308 22.2543 28.6298 20.7308H28.7576V23H33.0616V11.9631C33.0616 8.06392 29.7591 6.4233 26.1156 6.4233C22.1951 6.4233 19.617 8.29829 18.9885 11.2812L23.1859 11.6222C23.4949 10.5355 24.4643 9.73651 26.0943 9.73651C27.639 9.73651 28.5233 10.5142 28.5233 11.8565V11.9205C28.5233 12.9751 27.4047 13.1136 24.5602 13.3906C21.3216 13.6889 18.4132 14.7756 18.4132 18.4297C18.4132 21.6683 20.725 23.3089 23.8464 23.3089ZM25.1461 20.1768C23.7505 20.1768 22.7491 19.527 22.7491 18.2805C22.7491 17.0021 23.8038 16.3736 25.4018 16.1499C26.3926 16.0114 28.0119 15.777 28.5552 15.4148V17.1513C28.5552 18.8665 27.1383 20.1768 25.1461 20.1768ZM50.1976 11.3026C49.7928 8.28764 47.3638 6.4233 43.2303 6.4233C39.0435 6.4233 36.2843 8.36222 36.2949 11.5156C36.2843 13.9659 37.829 15.5533 41.025 16.1925L43.8588 16.7571C45.2864 17.0447 45.9363 17.5668 45.9576 18.3871C45.9363 19.3565 44.8816 20.049 43.2942 20.049C41.6749 20.049 40.5989 19.3565 40.3219 18.0249L35.8581 18.2592C36.2843 21.3913 38.9476 23.3196 43.2836 23.3196C47.5236 23.3196 50.5598 21.157 50.5705 17.929C50.5598 15.5639 49.0151 14.147 45.8404 13.4972L42.8787 12.9006C41.3553 12.5703 40.7907 12.0483 40.8013 11.2599C40.7907 10.2798 41.8986 9.64062 43.3049 9.64062C44.8816 9.64062 45.8191 10.5036 46.0428 11.5582L50.1976 11.3026ZM56.2301 29.1364C59.6072 29.1364 61.397 27.4105 62.3239 24.7685L68.6839 6.65767L63.8793 6.63636L60.4595 18.6534H60.2891L56.9013 6.63636H52.1286L57.9986 23.4688L57.7322 24.1612C57.1357 25.6953 " fill="#4385F5"/>
</svg>
