<svg width="25" height="25" viewBox="0 0 25 25" fill="none" xmlns="http://www.w3.org/2000/svg">
<path d="M2.08398 12.5L7.29232 16.6666V13.5416H16.6673V11.4583H7.29232V8.33331L2.08398 12.5Z" fill="#E32424"/>
<path d="M13.5432 3.12394C12.3115 3.12052 11.0913 3.36155 9.95338 3.83307C8.81545 4.30458 7.7824 4.9972 6.91406 5.87081L8.38698 7.34373C9.76406 5.96665 11.5953 5.20727 13.5432 5.20727C15.4911 5.20727 17.3224 5.96665 18.6995 7.34373C20.0766 8.72081 20.8359 10.5521 20.8359 12.5C20.8359 14.4479 20.0766 16.2791 18.6995 17.6562C17.3224 19.0333 15.4911 19.7927 13.5432 19.7927C11.5953 19.7927 9.76406 19.0333 8.38698 17.6562L6.91406 19.1291C8.68385 20.9 11.038 21.876 13.5432 21.876C16.0484 21.876 18.4026 20.9 20.1724 19.1291C21.9432 17.3594 22.9193 15.0052 22.9193 12.5C22.9193 9.99477 21.9432 7.6406 20.1724 5.87081C19.3041 4.9972 18.271 4.30458 17.1331 3.83307C15.9951 3.36155 14.775 3.12052 13.5432 3.12394Z" fill="#E32424"/>
</svg>
