<svg width="30" height="21" viewBox="0 0 30 21" fill="none" xmlns="http://www.w3.org/2000/svg">
<path fill-rule="evenodd" clip-rule="evenodd" d="M2.94922 18.29V1.475C2.94922 1.08381 3.10462 0.708634 3.38124 0.432017C3.65785 0.155401 4.03302 0 4.42422 0L25.0742 0C25.4654 0 25.8406 0.155401 26.1172 0.432017C26.3938 0.708634 26.5492 1.08381 26.5492 1.475V18.29H2.94922Z" fill="#2C3E50"/>
<path fill-rule="evenodd" clip-rule="evenodd" d="M4.13086 1.17969H25.3709V17.1097H4.13086V1.17969Z" fill="#35495E"/>
<path fill-rule="evenodd" clip-rule="evenodd" d="M0 18.29H29.5V19.175C29.5 19.8267 28.6767 20.06 28.025 20.06H1.475C0.823345 20.06 0 19.8267 0 19.175V18.29Z" fill="#BDC3C7"/>
<path fill-rule="evenodd" clip-rule="evenodd" d="M17.685 18.29C17.6509 18.4566 17.5604 18.6063 17.4287 18.7139C17.297 18.8214 17.1322 18.8801 16.9622 18.88H12.5372C12.3672 18.88 12.2025 18.8212 12.0708 18.7137C11.9391 18.6062 11.8486 18.4566 11.8145 18.29H17.685Z" fill="#95A5A5"/>
<path d="M18.0357 6H10.9643C10.432 6 10 6.432 10 6.96429V14.0357C10 14.568 10.432 15 10.9643 15H18.0357C18.568 15 19 14.568 19 14.0357V6.96429C19 6.432 18.568 6 18.0357 6ZM12.5515 13.0814C12.4982 13.1735 12.4105 13.2408 12.3077 13.2682C12.2048 13.2957 12.0953 13.2812 12.0031 13.228C11.911 13.1747 11.8438 13.087 11.8163 12.9841C11.7888 12.8813 11.8033 12.7718 11.8566 12.6796L12.1439 12.1833C12.4673 12.085 12.7325 12.1611 12.9395 12.4122L12.5515 13.0814ZM15.3418 11.9988H11.6875C11.4664 11.9988 11.2857 11.8179 11.2857 11.597C11.2857 11.3762 11.4667 11.1953 11.6875 11.1953H12.7122L14.0259 8.92114L13.6141 8.21014C13.5612 8.11792 13.5468 8.00848 13.5743 7.90572C13.6018 7.80297 13.6688 7.71527 13.7607 7.66179C13.8529 7.60879 13.9624 7.59446 14.0651 7.62193C14.1679 7.64939 14.2556 7.71642 14.3091 7.80836L14.4878 8.11757L14.6665 7.80836C14.6929 7.76273 14.728 7.72274 14.7698 7.69068C14.8117 7.65862 14.8594 7.63511 14.9103 7.6215C14.9612 7.60789 15.0143 7.60444 15.0666 7.61136C15.1188 7.61827 15.1692 7.6354 15.2149 7.66179C15.2605 7.68817 15.3005 7.72328 15.3325 7.76511C15.3646 7.80695 15.3881 7.85469 15.4017 7.90561C15.4153 7.95653 15.4188 8.00963 15.4119 8.06188C15.4049 8.11413 15.3878 8.16451 15.3614 8.21014L13.6379 11.1956H14.8854C15.291 11.1956 15.5183 11.6716 15.3415 11.9991L15.3418 11.9988ZM17.3125 11.9988H16.7298L17.1235 12.6799C17.2341 12.8728 17.1675 13.118 16.9769 13.2283C16.7841 13.3389 16.5388 13.2723 16.4286 13.0817C15.7677 11.9387 15.2734 11.0789 14.942 10.5084C14.6064 9.92561 14.8455 9.34318 15.0847 9.14646C15.3479 9.60257 15.7417 10.2856 16.2679 11.1956H17.3125C17.4191 11.1956 17.5213 11.2379 17.5966 11.3133C17.672 11.3886 17.7143 11.4908 17.7143 11.5974C17.7143 11.7039 17.672 11.8061 17.5966 11.8815C17.5213 11.9568 17.4191 11.9991 17.3125 11.9991V11.9988Z" fill="white"/>
</svg>
