<svg width="27" height="28" viewBox="0 0 27 28" fill="none" xmlns="http://www.w3.org/2000/svg">
<path d="M19.125 2.64648H7.875C4.77 2.64648 2.25 5.13626 2.25 8.2066V14.8832V15.9997C2.25 19.0701 4.77 21.5598 7.875 21.5598H9.5625C9.86625 21.5598 10.2712 21.7608 10.4625 22.0064L12.15 24.2282C12.8925 25.2107 14.1075 25.2107 14.85 24.2282L16.5375 22.0064C16.7512 21.7273 17.0887 21.5598 17.4375 21.5598H19.125C22.23 21.5598 24.75 19.0701 24.75 15.9997V8.2066C24.75 5.13626 22.23 2.64648 19.125 2.64648ZM14.625 15.7652H7.875C7.41375 15.7652 7.03125 15.3856 7.03125 14.9279C7.03125 14.4701 7.41375 14.0905 7.875 14.0905H14.625C15.0863 14.0905 15.4688 14.4701 15.4688 14.9279C15.4688 15.3856 15.0863 15.7652 14.625 15.7652ZM19.125 10.1828H7.875C7.41375 10.1828 7.03125 9.80319 7.03125 9.34542C7.03125 8.88766 7.41375 8.50806 7.875 8.50806H19.125C19.5863 8.50806 19.9688 8.88766 19.9688 9.34542C19.9688 9.80319 19.5863 10.1828 19.125 10.1828Z" fill="#1164F5"/>
</svg>
