<svg width="637" height="100" viewBox="0 0 637 100" fill="none" xmlns="http://www.w3.org/2000/svg">
<rect width="637" height="100" rx="16" fill="#E8EBEF"/>
<path d="M40.052 30.454V43H38.414V37.276H32.024V43H30.386V30.454H32.024V35.998H38.414V30.454H40.052ZM52.1013 37.654C52.1013 37.954 52.0833 38.278 52.0473 38.626H44.1633C44.2113 39.598 44.5353 40.366 45.1353 40.93C45.7473 41.494 46.4913 41.776 47.3673 41.776C48.0753 41.776 48.6633 41.614 49.1313 41.29C49.6113 40.954 49.9473 40.51 50.1393 39.958H51.9033C51.6393 40.906 51.1113 41.68 50.3193 42.28C49.5273 42.868 48.5433 43.162 47.3673 43.162C46.4313 43.162 45.5913 42.952 44.8473 42.532C44.1153 42.112 43.5393 41.518 43.1193 40.75C42.6993 39.97 42.4893 39.07 42.4893 38.05C42.4893 37.03 42.6933 36.136 43.1013 35.368C43.5093 34.6 44.0793 34.012 44.8113 33.604C45.5553 33.184 46.4073 32.974 47.3673 32.974C48.3033 32.974 49.1253 33.178 49.8333 33.586C50.5533 33.994 51.1113 34.552 51.5073 35.26C51.9033 35.968 52.1013 36.766 52.1013 37.654ZM50.4093 37.438C50.4093 36.79 50.2713 36.238 49.9953 35.782C49.7193 35.314 49.3413 34.96 48.8613 34.72C48.3933 34.48 47.8713 34.36 47.2953 34.36C46.4553 34.36 45.7413 34.636 45.1533 35.188C44.5653 35.728 44.2413 36.478 44.1813 37.438H50.4093ZM56.1714 29.68V43H54.5334V29.68H56.1714ZM60.8711 29.68V43H59.2331V29.68H60.8711ZM68.2348 43.162C67.3108 43.162 66.4708 42.952 65.7148 42.532C64.9708 42.112 64.3828 41.518 63.9508 40.75C63.5308 39.97 63.3208 39.07 63.3208 38.05C63.3208 37.042 63.5368 36.154 63.9688 35.386C64.4128 34.606 65.0128 34.012 65.7688 33.604C66.5248 33.184 67.3708 32.974 68.3068 32.974C69.2428 32.974 70.0888 33.184 70.8448 33.604C71.6008 34.012 72.1948 34.6 72.6268 35.368C73.0708 36.136 73.2928 37.03 73.2928 38.05C73.2928 39.07 73.0648 39.97 72.6088 40.75C72.1648 41.518 71.5588 42.112 70.7908 42.532C70.0228 42.952 69.1708 43.162 68.2348 43.162ZM68.2348 41.776C68.8228 41.776 69.3748 41.638 69.8908 41.362C70.4068 41.074 70.8208 40.648 71.1328 40.084C71.4568 39.52 71.6188 38.842 71.6188 38.05C71.6188 37.258 71.4628 36.586 71.1508 36.034C70.8388 35.47 70.4308 35.05 69.9268 34.774C69.4228 34.498 68.8768 34.36 68.2888 34.36C67.6888 34.36 67.1368 34.498 66.6328 34.774C66.1408 35.05 65.7448 35.47 65.4448 36.034C65.1448 36.586 64.9948 37.258 64.9948 38.05C64.9948 38.854 65.1388 39.538 65.4268 40.102C65.7268 40.654 66.1228 41.074 66.6148 41.362C67.1068 41.638 67.6468 41.776 68.2348 41.776ZM77.4085 40.732L75.3925 45.574H74.2945L75.6085 40.732H77.4085ZM90.0822 32.956C90.8262 32.956 91.4982 33.118 92.0982 33.442C92.6982 33.754 93.1662 34.228 93.5022 34.864C93.8502 35.5 94.0242 36.274 94.0242 37.186V43H92.4042V37.42C92.4042 36.436 92.1582 35.686 91.6662 35.17C91.1742 34.642 90.5022 34.378 89.6502 34.378C88.7862 34.378 88.0962 34.648 87.5802 35.188C87.0762 35.728 86.8242 36.514 86.8242 37.546V43H85.1862V29.68H86.8242V34.54C87.1482 34.036 87.5922 33.646 88.1562 33.37C88.7322 33.094 89.3742 32.956 90.0822 32.956ZM101.272 43.162C100.348 43.162 99.5078 42.952 98.7518 42.532C98.0078 42.112 97.4198 41.518 96.9878 40.75C96.5678 39.97 96.3578 39.07 96.3578 38.05C96.3578 37.042 96.5738 36.154 97.0058 35.386C97.4498 34.606 98.0498 34.012 98.8058 33.604C99.5618 33.184 100.408 32.974 101.344 32.974C102.28 32.974 103.126 33.184 103.882 33.604C104.638 34.012 105.232 34.6 105.664 35.368C106.108 36.136 106.33 37.03 106.33 38.05C106.33 39.07 106.102 39.97 105.646 40.75C105.202 41.518 104.596 42.112 103.828 42.532C103.06 42.952 102.208 43.162 101.272 43.162ZM101.272 41.776C101.86 41.776 102.412 41.638 102.928 41.362C103.444 41.074 103.858 40.648 104.17 40.084C104.494 39.52 104.656 38.842 104.656 38.05C104.656 37.258 104.5 36.586 104.188 36.034C103.876 35.47 103.468 35.05 102.964 34.774C102.46 34.498 101.914 34.36 101.326 34.36C100.726 34.36 100.174 34.498 99.6698 34.774C99.1778 35.05 98.7818 35.47 98.4818 36.034C98.1818 36.586 98.0318 37.258 98.0318 38.05C98.0318 38.854 98.1758 39.538 98.4638 40.102C98.7638 40.654 99.1598 41.074 99.6518 41.362C100.144 41.638 100.684 41.776 101.272 41.776ZM121.894 33.136L118.816 43H117.124L114.748 35.17L112.372 43H110.68L107.584 33.136H109.258L111.526 41.416L113.974 33.136H115.666L118.042 41.362L120.274 33.136H121.894ZM130.266 31.534C129.954 31.534 129.69 31.426 129.474 31.21C129.258 30.994 129.15 30.73 129.15 30.418C129.15 30.106 129.258 29.842 129.474 29.626C129.69 29.41 129.954 29.302 130.266 29.302C130.566 29.302 130.818 29.41 131.022 29.626C131.238 29.842 131.346 30.106 131.346 30.418C131.346 30.73 131.238 30.994 131.022 31.21C130.818 31.426 130.566 31.534 130.266 31.534ZM131.058 33.136V43H129.42V33.136H131.058ZM137.594 43.162C136.838 43.162 136.16 43.036 135.56 42.784C134.972 42.52 134.504 42.16 134.156 41.704C133.808 41.236 133.616 40.702 133.58 40.102H135.272C135.32 40.618 135.548 41.038 135.956 41.362C136.376 41.686 136.922 41.848 137.594 41.848C138.23 41.848 138.722 41.71 139.07 41.434C139.43 41.146 139.61 40.774 139.61 40.318C139.61 39.886 139.418 39.568 139.034 39.364C138.65 39.148 138.056 38.938 137.252 38.734C136.52 38.542 135.926 38.35 135.47 38.158C135.014 37.966 134.624 37.684 134.3 37.312C133.976 36.928 133.814 36.424 133.814 35.8C133.814 35.284 133.958 34.81 134.246 34.378C134.534 33.946 134.948 33.604 135.488 33.352C136.04 33.1 136.676 32.974 137.396 32.974C138.488 32.974 139.37 33.25 140.042 33.802C140.714 34.354 141.074 35.11 141.122 36.07H139.484C139.448 35.53 139.238 35.098 138.854 34.774C138.482 34.45 137.978 34.288 137.342 34.288C136.742 34.288 136.268 34.42 135.92 34.684C135.584 34.948 135.416 35.296 135.416 35.728C135.416 36.064 135.524 36.34 135.74 36.556C135.956 36.76 136.22 36.922 136.532 37.042C136.844 37.15 137.288 37.288 137.864 37.456C138.584 37.648 139.16 37.84 139.592 38.032C140.024 38.212 140.396 38.482 140.708 38.842C141.02 39.202 141.176 39.682 141.176 40.282C141.176 40.834 141.026 41.326 140.726 41.758C140.438 42.19 140.024 42.532 139.484 42.784C138.944 43.036 138.314 43.162 137.594 43.162ZM150.272 31.534C149.96 31.534 149.696 31.426 149.48 31.21C149.264 30.994 149.156 30.73 149.156 30.418C149.156 30.106 149.264 29.842 149.48 29.626C149.696 29.41 149.96 29.302 150.272 29.302C150.572 29.302 150.824 29.41 151.028 29.626C151.244 29.842 151.352 30.106 151.352 30.418C151.352 30.73 151.244 30.994 151.028 31.21C150.824 31.426 150.572 31.534 150.272 31.534ZM151.064 33.136V43H149.426V33.136H151.064ZM156.123 34.486V40.3C156.123 40.78 156.225 41.122 156.429 41.326C156.633 41.518 156.987 41.614 157.491 41.614H158.697V43H157.221C156.309 43 155.625 42.79 155.169 42.37C154.713 41.95 154.485 41.26 154.485 40.3V34.486H153.207V33.136H154.485V30.652H156.123V33.136H158.697V34.486H156.123ZM170.651 32.974C171.503 32.974 172.247 33.16 172.883 33.532C173.531 33.904 174.011 34.372 174.323 34.936V33.136H175.979V43.216C175.979 44.116 175.787 44.914 175.403 45.61C175.019 46.318 174.467 46.87 173.747 47.266C173.039 47.662 172.211 47.86 171.263 47.86C169.967 47.86 168.887 47.554 168.023 46.942C167.159 46.33 166.649 45.496 166.493 44.44H168.113C168.293 45.04 168.665 45.52 169.229 45.88C169.793 46.252 170.471 46.438 171.263 46.438C172.163 46.438 172.895 46.156 173.459 45.592C174.035 45.028 174.323 44.236 174.323 43.216V41.146C173.999 41.722 173.519 42.202 172.883 42.586C172.247 42.97 171.503 43.162 170.651 43.162C169.775 43.162 168.977 42.946 168.257 42.514C167.549 42.082 166.991 41.476 166.583 40.696C166.175 39.916 165.971 39.028 165.971 38.032C165.971 37.024 166.175 36.142 166.583 35.386C166.991 34.618 167.549 34.024 168.257 33.604C168.977 33.184 169.775 32.974 170.651 32.974ZM174.323 38.05C174.323 37.306 174.173 36.658 173.873 36.106C173.573 35.554 173.165 35.134 172.649 34.846C172.145 34.546 171.587 34.396 170.975 34.396C170.363 34.396 169.805 34.54 169.301 34.828C168.797 35.116 168.395 35.536 168.095 36.088C167.795 36.64 167.645 37.288 167.645 38.032C167.645 38.788 167.795 39.448 168.095 40.012C168.395 40.564 168.797 40.99 169.301 41.29C169.805 41.578 170.363 41.722 170.975 41.722C171.587 41.722 172.145 41.578 172.649 41.29C173.165 40.99 173.573 40.564 173.873 40.012C174.173 39.448 174.323 38.794 174.323 38.05ZM183.319 43.162C182.395 43.162 181.555 42.952 180.799 42.532C180.055 42.112 179.467 41.518 179.035 40.75C178.615 39.97 178.405 39.07 178.405 38.05C178.405 37.042 178.621 36.154 179.053 35.386C179.497 34.606 180.097 34.012 180.853 33.604C181.609 33.184 182.455 32.974 183.391 32.974C184.327 32.974 185.173 33.184 185.929 33.604C186.685 34.012 187.279 34.6 187.711 35.368C188.155 36.136 188.377 37.03 188.377 38.05C188.377 39.07 188.149 39.97 187.693 40.75C187.249 41.518 186.643 42.112 185.875 42.532C185.107 42.952 184.255 43.162 183.319 43.162ZM183.319 41.776C183.907 41.776 184.459 41.638 184.975 41.362C185.491 41.074 185.905 40.648 186.217 40.084C186.541 39.52 186.703 38.842 186.703 38.05C186.703 37.258 186.547 36.586 186.235 36.034C185.923 35.47 185.515 35.05 185.011 34.774C184.507 34.498 183.961 34.36 183.373 34.36C182.773 34.36 182.221 34.498 181.717 34.774C181.225 35.05 180.829 35.47 180.529 36.034C180.229 36.586 180.079 37.258 180.079 38.05C180.079 38.854 180.223 39.538 180.511 40.102C180.811 40.654 181.207 41.074 181.699 41.362C182.191 41.638 182.731 41.776 183.319 41.776ZM191.647 31.534C191.335 31.534 191.071 31.426 190.855 31.21C190.639 30.994 190.531 30.73 190.531 30.418C190.531 30.106 190.639 29.842 190.855 29.626C191.071 29.41 191.335 29.302 191.647 29.302C191.947 29.302 192.199 29.41 192.403 29.626C192.619 29.842 192.727 30.106 192.727 30.418C192.727 30.73 192.619 30.994 192.403 31.21C192.199 31.426 191.947 31.534 191.647 31.534ZM192.439 33.136V43H190.801V33.136H192.439ZM200.307 32.956C201.507 32.956 202.479 33.322 203.223 34.054C203.967 34.774 204.339 35.818 204.339 37.186V43H202.719V37.42C202.719 36.436 202.473 35.686 201.981 35.17C201.489 34.642 200.817 34.378 199.965 34.378C199.101 34.378 198.411 34.648 197.895 35.188C197.391 35.728 197.139 36.514 197.139 37.546V43H195.501V33.136H197.139V34.54C197.463 34.036 197.901 33.646 198.453 33.37C199.017 33.094 199.635 32.956 200.307 32.956ZM211.353 32.974C212.205 32.974 212.949 33.16 213.585 33.532C214.233 33.904 214.713 34.372 215.025 34.936V33.136H216.681V43.216C216.681 44.116 216.489 44.914 216.105 45.61C215.721 46.318 215.169 46.87 214.449 47.266C213.741 47.662 212.913 47.86 211.965 47.86C210.669 47.86 209.589 47.554 208.725 46.942C207.861 46.33 207.351 45.496 207.195 44.44H208.815C208.995 45.04 209.367 45.52 209.931 45.88C210.495 46.252 211.173 46.438 211.965 46.438C212.865 46.438 213.597 46.156 214.161 45.592C214.737 45.028 215.025 44.236 215.025 43.216V41.146C214.701 41.722 214.221 42.202 213.585 42.586C212.949 42.97 212.205 43.162 211.353 43.162C210.477 43.162 209.679 42.946 208.959 42.514C208.251 42.082 207.693 41.476 207.285 40.696C206.877 39.916 206.673 39.028 206.673 38.032C206.673 37.024 206.877 36.142 207.285 35.386C207.693 34.618 208.251 34.024 208.959 33.604C209.679 33.184 210.477 32.974 211.353 32.974ZM215.025 38.05C215.025 37.306 214.875 36.658 214.575 36.106C214.275 35.554 213.867 35.134 213.351 34.846C212.847 34.546 212.289 34.396 211.677 34.396C211.065 34.396 210.507 34.54 210.003 34.828C209.499 35.116 209.097 35.536 208.797 36.088C208.497 36.64 208.347 37.288 208.347 38.032C208.347 38.788 208.497 39.448 208.797 40.012C209.097 40.564 209.499 40.99 210.003 41.29C210.507 41.578 211.065 41.722 211.677 41.722C212.289 41.722 212.847 41.578 213.351 41.29C213.867 40.99 214.275 40.564 214.575 40.012C214.875 39.448 215.025 38.794 215.025 38.05ZM222.923 30.292C224.111 30.292 225.071 30.628 225.803 31.3C226.535 31.972 226.901 32.872 226.901 34C226.901 35.26 226.511 36.196 225.731 36.808C224.951 37.408 223.895 37.708 222.563 37.708L222.509 39.418H221.087L221.015 36.574H221.537C222.725 36.574 223.655 36.394 224.327 36.034C224.999 35.674 225.335 34.996 225.335 34C225.335 33.28 225.119 32.71 224.687 32.29C224.255 31.87 223.673 31.66 222.941 31.66C222.197 31.66 221.609 31.864 221.177 32.272C220.757 32.668 220.547 33.214 220.547 33.91H218.999C218.999 33.19 219.161 32.56 219.485 32.02C219.809 31.468 220.265 31.042 220.853 30.742C221.453 30.442 222.143 30.292 222.923 30.292ZM221.789 43.108C221.477 43.108 221.213 43 220.997 42.784C220.781 42.568 220.673 42.304 220.673 41.992C220.673 41.68 220.781 41.416 220.997 41.2C221.213 40.984 221.477 40.876 221.789 40.876C222.089 40.876 222.341 40.984 222.545 41.2C222.761 41.416 222.869 41.68 222.869 41.992C222.869 42.304 222.761 42.568 222.545 42.784C222.341 43 222.089 43.108 221.789 43.108ZM242.781 30.454V31.732H239.361V43H237.723V31.732H234.285V30.454H242.781ZM249.964 32.956C250.708 32.956 251.38 33.118 251.98 33.442C252.58 33.754 253.048 34.228 253.384 34.864C253.732 35.5 253.906 36.274 253.906 37.186V43H252.286V37.42C252.286 36.436 252.04 35.686 251.548 35.17C251.056 34.642 250.384 34.378 249.532 34.378C248.668 34.378 247.978 34.648 247.462 35.188C246.958 35.728 246.706 36.514 246.706 37.546V43H245.068V29.68H246.706V34.54C247.03 34.036 247.474 33.646 248.038 33.37C248.614 33.094 249.256 32.956 249.964 32.956ZM257.697 31.534C257.385 31.534 257.121 31.426 256.905 31.21C256.689 30.994 256.581 30.73 256.581 30.418C256.581 30.106 256.689 29.842 256.905 29.626C257.121 29.41 257.385 29.302 257.697 29.302C257.997 29.302 258.249 29.41 258.453 29.626C258.669 29.842 258.777 30.106 258.777 30.418C258.777 30.73 258.669 30.994 258.453 31.21C258.249 31.426 257.997 31.534 257.697 31.534ZM258.489 33.136V43H256.851V33.136H258.489ZM265.025 43.162C264.269 43.162 263.591 43.036 262.991 42.784C262.403 42.52 261.935 42.16 261.587 41.704C261.239 41.236 261.047 40.702 261.011 40.102H262.703C262.751 40.618 262.979 41.038 263.387 41.362C263.807 41.686 264.353 41.848 265.025 41.848C265.661 41.848 266.153 41.71 266.501 41.434C266.861 41.146 267.041 40.774 267.041 40.318C267.041 39.886 266.849 39.568 266.465 39.364C266.081 39.148 265.487 38.938 264.683 38.734C263.951 38.542 263.357 38.35 262.901 38.158C262.445 37.966 262.055 37.684 261.731 37.312C261.407 36.928 261.245 36.424 261.245 35.8C261.245 35.284 261.389 34.81 261.677 34.378C261.965 33.946 262.379 33.604 262.919 33.352C263.471 33.1 264.107 32.974 264.827 32.974C265.919 32.974 266.801 33.25 267.473 33.802C268.145 34.354 268.505 35.11 268.553 36.07H266.915C266.879 35.53 266.669 35.098 266.285 34.774C265.913 34.45 265.409 34.288 264.773 34.288C264.173 34.288 263.699 34.42 263.351 34.684C263.015 34.948 262.847 35.296 262.847 35.728C262.847 36.064 262.955 36.34 263.171 36.556C263.387 36.76 263.651 36.922 263.963 37.042C264.275 37.15 264.719 37.288 265.295 37.456C266.015 37.648 266.591 37.84 267.023 38.032C267.455 38.212 267.827 38.482 268.139 38.842C268.451 39.202 268.607 39.682 268.607 40.282C268.607 40.834 268.457 41.326 268.157 41.758C267.869 42.19 267.455 42.532 266.915 42.784C266.375 43.036 265.745 43.162 265.025 43.162ZM277.703 31.534C277.391 31.534 277.127 31.426 276.911 31.21C276.695 30.994 276.587 30.73 276.587 30.418C276.587 30.106 276.695 29.842 276.911 29.626C277.127 29.41 277.391 29.302 277.703 29.302C278.003 29.302 278.255 29.41 278.459 29.626C278.675 29.842 278.783 30.106 278.783 30.418C278.783 30.73 278.675 30.994 278.459 31.21C278.255 31.426 278.003 31.534 277.703 31.534ZM278.495 33.136V43H276.857V33.136H278.495ZM285.03 43.162C284.274 43.162 283.596 43.036 282.996 42.784C282.408 42.52 281.94 42.16 281.592 41.704C281.244 41.236 281.052 40.702 281.016 40.102H282.708C282.756 40.618 282.984 41.038 283.392 41.362C283.812 41.686 284.358 41.848 285.03 41.848C285.666 41.848 286.158 41.71 286.506 41.434C286.866 41.146 287.046 40.774 287.046 40.318C287.046 39.886 286.854 39.568 286.47 39.364C286.086 39.148 285.492 38.938 284.688 38.734C283.956 38.542 283.362 38.35 282.906 38.158C282.45 37.966 282.06 37.684 281.736 37.312C281.412 36.928 281.25 36.424 281.25 35.8C281.25 35.284 281.394 34.81 281.682 34.378C281.97 33.946 282.384 33.604 282.924 33.352C283.476 33.1 284.112 32.974 284.832 32.974C285.924 32.974 286.806 33.25 287.478 33.802C288.15 34.354 288.51 35.11 288.558 36.07H286.92C286.884 35.53 286.674 35.098 286.29 34.774C285.918 34.45 285.414 34.288 284.778 34.288C284.178 34.288 283.704 34.42 283.356 34.684C283.02 34.948 282.852 35.296 282.852 35.728C282.852 36.064 282.96 36.34 283.176 36.556C283.392 36.76 283.656 36.922 283.968 37.042C284.28 37.15 284.724 37.288 285.3 37.456C286.02 37.648 286.596 37.84 287.028 38.032C287.46 38.212 287.832 38.482 288.144 38.842C288.456 39.202 288.612 39.682 288.612 40.282C288.612 40.834 288.462 41.326 288.162 41.758C287.874 42.19 287.46 42.532 286.92 42.784C286.38 43.036 285.75 43.162 285.03 43.162ZM298.5 34.954C298.824 34.39 299.304 33.922 299.94 33.55C300.588 33.166 301.338 32.974 302.19 32.974C303.066 32.974 303.858 33.184 304.566 33.604C305.286 34.024 305.85 34.618 306.258 35.386C306.666 36.142 306.87 37.024 306.87 38.032C306.87 39.028 306.666 39.916 306.258 40.696C305.85 41.476 305.286 42.082 304.566 42.514C303.858 42.946 303.066 43.162 302.19 43.162C301.35 43.162 300.606 42.976 299.958 42.604C299.322 42.22 298.836 41.746 298.5 41.182V47.68H296.862V33.136H298.5V34.954ZM305.196 38.032C305.196 37.288 305.046 36.64 304.746 36.088C304.446 35.536 304.038 35.116 303.522 34.828C303.018 34.54 302.46 34.396 301.848 34.396C301.248 34.396 300.69 34.546 300.174 34.846C299.67 35.134 299.262 35.56 298.95 36.124C298.65 36.676 298.5 37.318 298.5 38.05C298.5 38.794 298.65 39.448 298.95 40.012C299.262 40.564 299.67 40.99 300.174 41.29C300.69 41.578 301.248 41.722 301.848 41.722C302.46 41.722 303.018 41.578 303.522 41.29C304.038 40.99 304.446 40.564 304.746 40.012C305.046 39.448 305.196 38.788 305.196 38.032ZM310.934 35.008C311.222 34.36 311.63 33.856 312.158 33.496C312.698 33.136 313.352 32.956 314.12 32.956V34.648H313.688C311.852 34.648 310.934 35.644 310.934 37.636V43H309.296V33.136H310.934V35.008ZM325.281 37.654C325.281 37.954 325.263 38.278 325.227 38.626H317.343C317.391 39.598 317.715 40.366 318.315 40.93C318.927 41.494 319.671 41.776 320.547 41.776C321.255 41.776 321.843 41.614 322.311 41.29C322.791 40.954 323.127 40.51 323.319 39.958H325.083C324.819 40.906 324.291 41.68 323.499 42.28C322.707 42.868 321.723 43.162 320.547 43.162C319.611 43.162 318.771 42.952 318.027 42.532C317.295 42.112 316.719 41.518 316.299 40.75C315.879 39.97 315.669 39.07 315.669 38.05C315.669 37.03 315.873 36.136 316.281 35.368C316.689 34.6 317.259 34.012 317.991 33.604C318.735 33.184 319.587 32.974 320.547 32.974C321.483 32.974 322.305 33.178 323.013 33.586C323.733 33.994 324.291 34.552 324.687 35.26C325.083 35.968 325.281 36.766 325.281 37.654ZM323.589 37.438C323.589 36.79 323.451 36.238 323.175 35.782C322.899 35.314 322.521 34.96 322.041 34.72C321.573 34.48 321.051 34.36 320.475 34.36C319.635 34.36 318.921 34.636 318.333 35.188C317.745 35.728 317.421 36.478 317.361 37.438H323.589ZM329.711 34.486V40.3C329.711 40.78 329.813 41.122 330.017 41.326C330.221 41.518 330.575 41.614 331.079 41.614H332.285V43H330.809C329.897 43 329.213 42.79 328.757 42.37C328.301 41.95 328.073 41.26 328.073 40.3V34.486H326.795V33.136H328.073V30.652H329.711V33.136H332.285V34.486H329.711ZM336.538 34.486V40.3C336.538 40.78 336.64 41.122 336.844 41.326C337.048 41.518 337.402 41.614 337.906 41.614H339.112V43H337.636C336.724 43 336.04 42.79 335.584 42.37C335.128 41.95 334.9 41.26 334.9 40.3V34.486H333.622V33.136H334.9V30.652H336.538V33.136H339.112V34.486H336.538ZM342.032 33.136L345.092 41.092L348.17 33.136H349.862L343.922 47.644H342.212L344.174 42.892L340.196 33.136H342.032ZM356.798 38.05C356.798 37.03 357.002 36.142 357.41 35.386C357.818 34.618 358.382 34.024 359.102 33.604C359.834 33.184 360.668 32.974 361.604 32.974C362.816 32.974 363.812 33.268 364.592 33.856C365.384 34.444 365.906 35.26 366.158 36.304H364.394C364.226 35.704 363.896 35.23 363.404 34.882C362.924 34.534 362.324 34.36 361.604 34.36C360.668 34.36 359.912 34.684 359.336 35.332C358.76 35.968 358.472 36.874 358.472 38.05C358.472 39.238 358.76 40.156 359.336 40.804C359.912 41.452 360.668 41.776 361.604 41.776C362.324 41.776 362.924 41.608 363.404 41.272C363.884 40.936 364.214 40.456 364.394 39.832H366.158C365.894 40.84 365.366 41.65 364.574 42.262C363.782 42.862 362.792 43.162 361.604 43.162C360.668 43.162 359.834 42.952 359.102 42.532C358.382 42.112 357.818 41.518 357.41 40.75C357.002 39.982 356.798 39.082 356.798 38.05ZM372.916 43.162C371.992 43.162 371.152 42.952 370.396 42.532C369.652 42.112 369.064 41.518 368.632 40.75C368.212 39.97 368.002 39.07 368.002 38.05C368.002 37.042 368.218 36.154 368.65 35.386C369.094 34.606 369.694 34.012 370.45 33.604C371.206 33.184 372.052 32.974 372.988 32.974C373.924 32.974 374.77 33.184 375.526 33.604C376.282 34.012 376.876 34.6 377.308 35.368C377.752 36.136 377.974 37.03 377.974 38.05C377.974 39.07 377.746 39.97 377.29 40.75C376.846 41.518 376.24 42.112 375.472 42.532C374.704 42.952 373.852 43.162 372.916 43.162ZM372.916 41.776C373.504 41.776 374.056 41.638 374.572 41.362C375.088 41.074 375.502 40.648 375.814 40.084C376.138 39.52 376.3 38.842 376.3 38.05C376.3 37.258 376.144 36.586 375.832 36.034C375.52 35.47 375.112 35.05 374.608 34.774C374.104 34.498 373.558 34.36 372.97 34.36C372.37 34.36 371.818 34.498 371.314 34.774C370.822 35.05 370.426 35.47 370.126 36.034C369.826 36.586 369.676 37.258 369.676 38.05C369.676 38.854 369.82 39.538 370.108 40.102C370.408 40.654 370.804 41.074 371.296 41.362C371.788 41.638 372.328 41.776 372.916 41.776ZM384.699 43.162C383.775 43.162 382.935 42.952 382.179 42.532C381.435 42.112 380.847 41.518 380.415 40.75C379.995 39.97 379.785 39.07 379.785 38.05C379.785 37.042 380.001 36.154 380.433 35.386C380.877 34.606 381.477 34.012 382.233 33.604C382.989 33.184 383.835 32.974 384.771 32.974C385.707 32.974 386.553 33.184 387.309 33.604C388.065 34.012 388.659 34.6 389.091 35.368C389.535 36.136 389.757 37.03 389.757 38.05C389.757 39.07 389.529 39.97 389.073 40.75C388.629 41.518 388.023 42.112 387.255 42.532C386.487 42.952 385.635 43.162 384.699 43.162ZM384.699 41.776C385.287 41.776 385.839 41.638 386.355 41.362C386.871 41.074 387.285 40.648 387.597 40.084C387.921 39.52 388.083 38.842 388.083 38.05C388.083 37.258 387.927 36.586 387.615 36.034C387.303 35.47 386.895 35.05 386.391 34.774C385.887 34.498 385.341 34.36 384.753 34.36C384.153 34.36 383.601 34.498 383.097 34.774C382.605 35.05 382.209 35.47 381.909 36.034C381.609 36.586 381.459 37.258 381.459 38.05C381.459 38.854 381.603 39.538 381.891 40.102C382.191 40.654 382.587 41.074 383.079 41.362C383.571 41.638 384.111 41.776 384.699 41.776ZM393.819 29.68V43H392.181V29.68H393.819ZM404.51 34.486V40.3C404.51 40.78 404.612 41.122 404.816 41.326C405.02 41.518 405.374 41.614 405.878 41.614H407.084V43H405.608C404.696 43 404.012 42.79 403.556 42.37C403.1 41.95 402.872 41.26 402.872 40.3V34.486H401.594V33.136H402.872V30.652H404.51V33.136H407.084V34.486H404.51ZM413.641 43.162C412.717 43.162 411.877 42.952 411.121 42.532C410.377 42.112 409.789 41.518 409.357 40.75C408.937 39.97 408.727 39.07 408.727 38.05C408.727 37.042 408.943 36.154 409.375 35.386C409.819 34.606 410.419 34.012 411.175 33.604C411.931 33.184 412.777 32.974 413.713 32.974C414.649 32.974 415.495 33.184 416.251 33.604C417.007 34.012 417.601 34.6 418.033 35.368C418.477 36.136 418.699 37.03 418.699 38.05C418.699 39.07 418.471 39.97 418.015 40.75C417.571 41.518 416.965 42.112 416.197 42.532C415.429 42.952 414.577 43.162 413.641 43.162ZM413.641 41.776C414.229 41.776 414.781 41.638 415.297 41.362C415.813 41.074 416.227 40.648 416.539 40.084C416.863 39.52 417.025 38.842 417.025 38.05C417.025 37.258 416.869 36.586 416.557 36.034C416.245 35.47 415.837 35.05 415.333 34.774C414.829 34.498 414.283 34.36 413.695 34.36C413.095 34.36 412.543 34.498 412.039 34.774C411.547 35.05 411.151 35.47 410.851 36.034C410.551 36.586 410.401 37.258 410.401 38.05C410.401 38.854 410.545 39.538 410.833 40.102C411.133 40.654 411.529 41.074 412.021 41.362C412.513 41.638 413.053 41.776 413.641 41.776ZM426.142 38.05C426.142 37.03 426.346 36.142 426.754 35.386C427.162 34.618 427.726 34.024 428.446 33.604C429.178 33.184 430.012 32.974 430.948 32.974C432.16 32.974 433.156 33.268 433.936 33.856C434.728 34.444 435.25 35.26 435.502 36.304H433.738C433.57 35.704 433.24 35.23 432.748 34.882C432.268 34.534 431.668 34.36 430.948 34.36C430.012 34.36 429.256 34.684 428.68 35.332C428.104 35.968 427.816 36.874 427.816 38.05C427.816 39.238 428.104 40.156 428.68 40.804C429.256 41.452 430.012 41.776 430.948 41.776C431.668 41.776 432.268 41.608 432.748 41.272C433.228 40.936 433.558 40.456 433.738 39.832H435.502C435.238 40.84 434.71 41.65 433.918 42.262C433.126 42.862 432.136 43.162 430.948 43.162C430.012 43.162 429.178 42.952 428.446 42.532C427.726 42.112 427.162 41.518 426.754 40.75C426.346 39.982 426.142 39.082 426.142 38.05ZM442.853 32.956C443.597 32.956 444.269 33.118 444.869 33.442C445.469 33.754 445.937 34.228 446.273 34.864C446.621 35.5 446.795 36.274 446.795 37.186V43H445.175V37.42C445.175 36.436 444.929 35.686 444.437 35.17C443.945 34.642 443.273 34.378 442.421 34.378C441.557 34.378 440.867 34.648 440.351 35.188C439.847 35.728 439.595 36.514 439.595 37.546V43H437.957V29.68H439.595V34.54C439.919 34.036 440.363 33.646 440.927 33.37C441.503 33.094 442.145 32.956 442.853 32.956ZM449.129 38.032C449.129 37.024 449.333 36.142 449.741 35.386C450.149 34.618 450.707 34.024 451.415 33.604C452.135 33.184 452.933 32.974 453.809 32.974C454.673 32.974 455.423 33.16 456.059 33.532C456.695 33.904 457.169 34.372 457.481 34.936V33.136H459.137V43H457.481V41.164C457.157 41.74 456.671 42.22 456.023 42.604C455.387 42.976 454.643 43.162 453.791 43.162C452.915 43.162 452.123 42.946 451.415 42.514C450.707 42.082 450.149 41.476 449.741 40.696C449.333 39.916 449.129 39.028 449.129 38.032ZM457.481 38.05C457.481 37.306 457.331 36.658 457.031 36.106C456.731 35.554 456.323 35.134 455.807 34.846C455.303 34.546 454.745 34.396 454.133 34.396C453.521 34.396 452.963 34.54 452.459 34.828C451.955 35.116 451.553 35.536 451.253 36.088C450.953 36.64 450.803 37.288 450.803 38.032C450.803 38.788 450.953 39.448 451.253 40.012C451.553 40.564 451.955 40.99 452.459 41.29C452.963 41.578 453.521 41.722 454.133 41.722C454.745 41.722 455.303 41.578 455.807 41.29C456.323 40.99 456.731 40.564 457.031 40.012C457.331 39.448 457.481 38.794 457.481 38.05ZM464.173 34.486V40.3C464.173 40.78 464.275 41.122 464.479 41.326C464.683 41.518 465.037 41.614 465.541 41.614H466.747V43H465.271C464.359 43 463.675 42.79 463.219 42.37C462.763 41.95 462.535 41.26 462.535 40.3V34.486H461.257V33.136H462.535V30.652H464.173V33.136H466.747V34.486H464.173ZM475.479 31.534C475.167 31.534 474.903 31.426 474.687 31.21C474.471 30.994 474.363 30.73 474.363 30.418C474.363 30.106 474.471 29.842 474.687 29.626C474.903 29.41 475.167 29.302 475.479 29.302C475.779 29.302 476.031 29.41 476.235 29.626C476.451 29.842 476.559 30.106 476.559 30.418C476.559 30.73 476.451 30.994 476.235 31.21C476.031 31.426 475.779 31.534 475.479 31.534ZM476.271 33.136V43H474.633V33.136H476.271ZM484.139 32.956C485.339 32.956 486.311 33.322 487.055 34.054C487.799 34.774 488.171 35.818 488.171 37.186V43H486.551V37.42C486.551 36.436 486.305 35.686 485.813 35.17C485.321 34.642 484.649 34.378 483.797 34.378C482.933 34.378 482.243 34.648 481.727 35.188C481.223 35.728 480.971 36.514 480.971 37.546V43H479.333V33.136H480.971V34.54C481.295 34.036 481.733 33.646 482.285 33.37C482.849 33.094 483.467 32.956 484.139 32.956ZM496.136 38.032C496.136 37.024 496.34 36.142 496.748 35.386C497.156 34.618 497.714 34.024 498.422 33.604C499.142 33.184 499.94 32.974 500.816 32.974C501.68 32.974 502.43 33.16 503.066 33.532C503.702 33.904 504.176 34.372 504.488 34.936V33.136H506.144V43H504.488V41.164C504.164 41.74 503.678 42.22 503.03 42.604C502.394 42.976 501.65 43.162 500.798 43.162C499.922 43.162 499.13 42.946 498.422 42.514C497.714 42.082 497.156 41.476 496.748 40.696C496.34 39.916 496.136 39.028 496.136 38.032ZM504.488 38.05C504.488 37.306 504.338 36.658 504.038 36.106C503.738 35.554 503.33 35.134 502.814 34.846C502.31 34.546 501.752 34.396 501.14 34.396C500.528 34.396 499.97 34.54 499.466 34.828C498.962 35.116 498.56 35.536 498.26 36.088C497.96 36.64 497.81 37.288 497.81 38.032C497.81 38.788 497.96 39.448 498.26 40.012C498.56 40.564 498.962 40.99 499.466 41.29C499.97 41.578 500.528 41.722 501.14 41.722C501.752 41.722 502.31 41.578 502.814 41.29C503.33 40.99 503.738 40.564 504.038 40.012C504.338 39.448 504.488 38.794 504.488 38.05ZM514.201 38.05C514.201 37.03 514.405 36.142 514.813 35.386C515.221 34.618 515.785 34.024 516.505 33.604C517.237 33.184 518.071 32.974 519.007 32.974C520.219 32.974 521.215 33.268 521.995 33.856C522.787 34.444 523.309 35.26 523.561 36.304H521.797C521.629 35.704 521.299 35.23 520.807 34.882C520.327 34.534 519.727 34.36 519.007 34.36C518.071 34.36 517.315 34.684 516.739 35.332C516.163 35.968 515.875 36.874 515.875 38.05C515.875 39.238 516.163 40.156 516.739 40.804C517.315 41.452 518.071 41.776 519.007 41.776C519.727 41.776 520.327 41.608 520.807 41.272C521.287 40.936 521.617 40.456 521.797 39.832H523.561C523.297 40.84 522.769 41.65 521.977 42.262C521.185 42.862 520.195 43.162 519.007 43.162C518.071 43.162 517.237 42.952 516.505 42.532C515.785 42.112 515.221 41.518 514.813 40.75C514.405 39.982 514.201 39.082 514.201 38.05ZM530.319 43.162C529.395 43.162 528.555 42.952 527.799 42.532C527.055 42.112 526.467 41.518 526.035 40.75C525.615 39.97 525.405 39.07 525.405 38.05C525.405 37.042 525.621 36.154 526.053 35.386C526.497 34.606 527.097 34.012 527.853 33.604C528.609 33.184 529.455 32.974 530.391 32.974C531.327 32.974 532.173 33.184 532.929 33.604C533.685 34.012 534.279 34.6 534.711 35.368C535.155 36.136 535.377 37.03 535.377 38.05C535.377 39.07 535.149 39.97 534.693 40.75C534.249 41.518 533.643 42.112 532.875 42.532C532.107 42.952 531.255 43.162 530.319 43.162ZM530.319 41.776C530.907 41.776 531.459 41.638 531.975 41.362C532.491 41.074 532.905 40.648 533.217 40.084C533.541 39.52 533.703 38.842 533.703 38.05C533.703 37.258 533.547 36.586 533.235 36.034C532.923 35.47 532.515 35.05 532.011 34.774C531.507 34.498 530.961 34.36 530.373 34.36C529.773 34.36 529.221 34.498 528.717 34.774C528.225 35.05 527.829 35.47 527.529 36.034C527.229 36.586 527.079 37.258 527.079 38.05C527.079 38.854 527.223 39.538 527.511 40.102C527.811 40.654 528.207 41.074 528.699 41.362C529.191 41.638 529.731 41.776 530.319 41.776ZM549.662 32.956C550.43 32.956 551.114 33.118 551.714 33.442C552.314 33.754 552.788 34.228 553.136 34.864C553.484 35.5 553.658 36.274 553.658 37.186V43H552.038V37.42C552.038 36.436 551.792 35.686 551.3 35.17C550.82 34.642 550.166 34.378 549.338 34.378C548.486 34.378 547.808 34.654 547.304 35.206C546.8 35.746 546.548 36.532 546.548 37.564V43H544.928V37.42C544.928 36.436 544.682 35.686 544.19 35.17C543.71 34.642 543.056 34.378 542.228 34.378C541.376 34.378 540.698 34.654 540.194 35.206C539.69 35.746 539.438 36.532 539.438 37.564V43H537.8V33.136H539.438V34.558C539.762 34.042 540.194 33.646 540.734 33.37C541.286 33.094 541.892 32.956 542.552 32.956C543.38 32.956 544.112 33.142 544.748 33.514C545.384 33.886 545.858 34.432 546.17 35.152C546.446 34.456 546.902 33.916 547.538 33.532C548.174 33.148 548.882 32.956 549.662 32.956ZM558.253 34.954C558.577 34.39 559.057 33.922 559.693 33.55C560.341 33.166 561.091 32.974 561.943 32.974C562.819 32.974 563.611 33.184 564.319 33.604C565.039 34.024 565.603 34.618 566.011 35.386C566.419 36.142 566.623 37.024 566.623 38.032C566.623 39.028 566.419 39.916 566.011 40.696C565.603 41.476 565.039 42.082 564.319 42.514C563.611 42.946 562.819 43.162 561.943 43.162C561.103 43.162 560.359 42.976 559.711 42.604C559.075 42.22 558.589 41.746 558.253 41.182V47.68H556.615V33.136H558.253V34.954ZM564.949 38.032C564.949 37.288 564.799 36.64 564.499 36.088C564.199 35.536 563.791 35.116 563.275 34.828C562.771 34.54 562.213 34.396 561.601 34.396C561.001 34.396 560.443 34.546 559.927 34.846C559.423 35.134 559.015 35.56 558.703 36.124C558.403 36.676 558.253 37.318 558.253 38.05C558.253 38.794 558.403 39.448 558.703 40.012C559.015 40.564 559.423 40.99 559.927 41.29C560.443 41.578 561.001 41.722 561.601 41.722C562.213 41.722 562.771 41.578 563.275 41.29C563.791 40.99 564.199 40.564 564.499 40.012C564.799 39.448 564.949 38.788 564.949 38.032ZM573.351 43.162C572.427 43.162 571.587 42.952 570.831 42.532C570.087 42.112 569.499 41.518 569.067 40.75C568.647 39.97 568.437 39.07 568.437 38.05C568.437 37.042 568.653 36.154 569.085 35.386C569.529 34.606 570.129 34.012 570.885 33.604C571.641 33.184 572.487 32.974 573.423 32.974C574.359 32.974 575.205 33.184 575.961 33.604C576.717 34.012 577.311 34.6 577.743 35.368C578.187 36.136 578.409 37.03 578.409 38.05C578.409 39.07 578.181 39.97 577.725 40.75C577.281 41.518 576.675 42.112 575.907 42.532C575.139 42.952 574.287 43.162 573.351 43.162ZM573.351 41.776C573.939 41.776 574.491 41.638 575.007 41.362C575.523 41.074 575.937 40.648 576.249 40.084C576.573 39.52 576.735 38.842 576.735 38.05C576.735 37.258 576.579 36.586 576.267 36.034C575.955 35.47 575.547 35.05 575.043 34.774C574.539 34.498 573.993 34.36 573.405 34.36C572.805 34.36 572.253 34.498 571.749 34.774C571.257 35.05 570.861 35.47 570.561 36.034C570.261 36.586 570.111 37.258 570.111 38.05C570.111 38.854 570.255 39.538 570.543 40.102C570.843 40.654 571.239 41.074 571.731 41.362C572.223 41.638 572.763 41.776 573.351 41.776ZM585.639 32.956C586.839 32.956 587.811 33.322 588.555 34.054C589.299 34.774 589.671 35.818 589.671 37.186V43H588.051V37.42C588.051 36.436 587.805 35.686 587.313 35.17C586.821 34.642 586.149 34.378 585.297 34.378C584.433 34.378 583.743 34.648 583.227 35.188C582.723 35.728 582.471 36.514 582.471 37.546V43H580.833V33.136H582.471V34.54C582.795 34.036 583.233 33.646 583.785 33.37C584.349 33.094 584.967 32.956 585.639 32.956ZM601.617 37.654C601.617 37.954 601.599 38.278 601.563 38.626H593.679C593.727 39.598 594.051 40.366 594.651 40.93C595.263 41.494 596.007 41.776 596.883 41.776C597.591 41.776 598.179 41.614 598.647 41.29C599.127 40.954 599.463 40.51 599.655 39.958H601.419C601.155 40.906 600.627 41.68 599.835 42.28C599.043 42.868 598.059 43.162 596.883 43.162C595.947 43.162 595.107 42.952 594.363 42.532C593.631 42.112 593.055 41.518 592.635 40.75C592.215 39.97 592.005 39.07 592.005 38.05C592.005 37.03 592.209 36.136 592.617 35.368C593.025 34.6 593.595 34.012 594.327 33.604C595.071 33.184 595.923 32.974 596.883 32.974C597.819 32.974 598.641 33.178 599.349 33.586C600.069 33.994 600.627 34.552 601.023 35.26C601.419 35.968 601.617 36.766 601.617 37.654ZM599.925 37.438C599.925 36.79 599.787 36.238 599.511 35.782C599.235 35.314 598.857 34.96 598.377 34.72C597.909 34.48 597.387 34.36 596.811 34.36C595.971 34.36 595.257 34.636 594.669 35.188C594.081 35.728 593.757 36.478 593.697 37.438H599.925ZM608.855 32.956C610.055 32.956 611.027 33.322 611.771 34.054C612.515 34.774 612.887 35.818 612.887 37.186V43H611.267V37.42C611.267 36.436 611.021 35.686 610.529 35.17C610.037 34.642 609.365 34.378 608.513 34.378C607.649 34.378 606.959 34.648 606.443 35.188C605.939 35.728 605.687 36.514 605.687 37.546V43H604.049V33.136H605.687V34.54C606.011 34.036 606.449 33.646 607.001 33.37C607.565 33.094 608.183 32.956 608.855 32.956ZM617.83 34.486V40.3C617.83 40.78 617.932 41.122 618.136 41.326C618.34 41.518 618.694 41.614 619.198 41.614H620.404V43H618.928C618.016 43 617.332 42.79 616.876 42.37C616.42 41.95 616.192 41.26 616.192 40.3V34.486H614.914V33.136H616.192V30.652H617.83V33.136H620.404V34.486H617.83ZM32.024 56.68V70H30.386V56.68H32.024ZM35.9317 58.534C35.6197 58.534 35.3557 58.426 35.1397 58.21C34.9237 57.994 34.8157 57.73 34.8157 57.418C34.8157 57.106 34.9237 56.842 35.1397 56.626C35.3557 56.41 35.6197 56.302 35.9317 56.302C36.2317 56.302 36.4837 56.41 36.6877 56.626C36.9037 56.842 37.0117 57.106 37.0117 57.418C37.0117 57.73 36.9037 57.994 36.6877 58.21C36.4837 58.426 36.2317 58.534 35.9317 58.534ZM36.7237 60.136V70H35.0857V60.136H36.7237ZM45.2934 70L41.4234 65.644V70H39.7854V56.68H41.4234V64.51L45.2214 60.136H47.5074L42.8634 65.05L47.5254 70H45.2934ZM58.319 64.654C58.319 64.954 58.301 65.278 58.265 65.626H50.381C50.429 66.598 50.753 67.366 51.353 67.93C51.965 68.494 52.709 68.776 53.585 68.776C54.293 68.776 54.881 68.614 55.349 68.29C55.829 67.954 56.165 67.51 56.357 66.958H58.121C57.857 67.906 57.329 68.68 56.537 69.28C55.745 69.868 54.761 70.162 53.585 70.162C52.649 70.162 51.809 69.952 51.065 69.532C50.333 69.112 49.757 68.518 49.337 67.75C48.917 66.97 48.707 66.07 48.707 65.05C48.707 64.03 48.911 63.136 49.319 62.368C49.727 61.6 50.297 61.012 51.029 60.604C51.773 60.184 52.625 59.974 53.585 59.974C54.521 59.974 55.343 60.178 56.051 60.586C56.771 60.994 57.329 61.552 57.725 62.26C58.121 62.968 58.319 63.766 58.319 64.654ZM56.627 64.438C56.627 63.79 56.489 63.238 56.213 62.782C55.937 62.314 55.559 61.96 55.079 61.72C54.611 61.48 54.089 61.36 53.513 61.36C52.673 61.36 51.959 61.636 51.371 62.188C50.783 62.728 50.459 63.478 50.399 64.438H56.627ZM68.3805 61.486V67.3C68.3805 67.78 68.4825 68.122 68.6865 68.326C68.8905 68.518 69.2445 68.614 69.7485 68.614H70.9545V70H69.4785C68.5665 70 67.8825 69.79 67.4265 69.37C66.9705 68.95 66.7425 68.26 66.7425 67.3V61.486H65.4645V60.136H66.7425V57.652H68.3805V60.136H70.9545V61.486H68.3805ZM78.1051 59.956C78.8491 59.956 79.5211 60.118 80.1211 60.442C80.7211 60.754 81.1891 61.228 81.5251 61.864C81.8731 62.5 82.0471 63.274 82.0471 64.186V70H80.4271V64.42C80.4271 63.436 80.1811 62.686 79.6891 62.17C79.1971 61.642 78.5251 61.378 77.6731 61.378C76.8091 61.378 76.1191 61.648 75.6031 62.188C75.0991 62.728 74.8471 63.514 74.8471 64.546V70H73.2091V56.68H74.8471V61.54C75.1711 61.036 75.6151 60.646 76.1791 60.37C76.7551 60.094 77.3971 59.956 78.1051 59.956ZM85.8388 58.534C85.5268 58.534 85.2628 58.426 85.0468 58.21C84.8308 57.994 84.7228 57.73 84.7228 57.418C84.7228 57.106 84.8308 56.842 85.0468 56.626C85.2628 56.41 85.5268 56.302 85.8388 56.302C86.1388 56.302 86.3908 56.41 86.5948 56.626C86.8108 56.842 86.9188 57.106 86.9188 57.418C86.9188 57.73 86.8108 57.994 86.5948 58.21C86.3908 58.426 86.1388 58.534 85.8388 58.534ZM86.6308 60.136V70H84.9928V60.136H86.6308ZM93.1665 70.162C92.4105 70.162 91.7325 70.036 91.1325 69.784C90.5445 69.52 90.0765 69.16 89.7285 68.704C89.3805 68.236 89.1885 67.702 89.1525 67.102H90.8445C90.8925 67.618 91.1205 68.038 91.5285 68.362C91.9485 68.686 92.4945 68.848 93.1665 68.848C93.8025 68.848 94.2945 68.71 94.6425 68.434C95.0025 68.146 95.1825 67.774 95.1825 67.318C95.1825 66.886 94.9905 66.568 94.6065 66.364C94.2225 66.148 93.6285 65.938 92.8245 65.734C92.0925 65.542 91.4985 65.35 91.0425 65.158C90.5865 64.966 90.1965 64.684 89.8725 64.312C89.5485 63.928 89.3865 63.424 89.3865 62.8C89.3865 62.284 89.5305 61.81 89.8185 61.378C90.1065 60.946 90.5205 60.604 91.0605 60.352C91.6125 60.1 92.2485 59.974 92.9685 59.974C94.0605 59.974 94.9425 60.25 95.6145 60.802C96.2865 61.354 96.6465 62.11 96.6945 63.07H95.0565C95.0205 62.53 94.8105 62.098 94.4265 61.774C94.0545 61.45 93.5505 61.288 92.9145 61.288C92.3145 61.288 91.8405 61.42 91.4925 61.684C91.1565 61.948 90.9885 62.296 90.9885 62.728C90.9885 63.064 91.0965 63.34 91.3125 63.556C91.5285 63.76 91.7925 63.922 92.1045 64.042C92.4165 64.15 92.8605 64.288 93.4365 64.456C94.1565 64.648 94.7325 64.84 95.1645 65.032C95.5965 65.212 95.9685 65.482 96.2805 65.842C96.5925 66.202 96.7485 66.682 96.7485 67.282C96.7485 67.834 96.5985 68.326 96.2985 68.758C96.0105 69.19 95.5965 69.532 95.0565 69.784C94.5165 70.036 93.8865 70.162 93.1665 70.162ZM101.059 67.732L99.0428 72.574H97.9448L99.2588 67.732H101.059ZM108.224 65.032C108.224 64.024 108.428 63.142 108.836 62.386C109.244 61.618 109.802 61.024 110.51 60.604C111.23 60.184 112.028 59.974 112.904 59.974C113.768 59.974 114.518 60.16 115.154 60.532C115.79 60.904 116.264 61.372 116.576 61.936V60.136H118.232V70H116.576V68.164C116.252 68.74 115.766 69.22 115.118 69.604C114.482 69.976 113.738 70.162 112.886 70.162C112.01 70.162 111.218 69.946 110.51 69.514C109.802 69.082 109.244 68.476 108.836 67.696C108.428 66.916 108.224 66.028 108.224 65.032ZM116.576 65.05C116.576 64.306 116.426 63.658 116.126 63.106C115.826 62.554 115.418 62.134 114.902 61.846C114.398 61.546 113.84 61.396 113.228 61.396C112.616 61.396 112.058 61.54 111.554 61.828C111.05 62.116 110.648 62.536 110.348 63.088C110.048 63.64 109.898 64.288 109.898 65.032C109.898 65.788 110.048 66.448 110.348 67.012C110.648 67.564 111.05 67.99 111.554 68.29C112.058 68.578 112.616 68.722 113.228 68.722C113.84 68.722 114.398 68.578 114.902 68.29C115.418 67.99 115.826 67.564 116.126 67.012C116.426 66.448 116.576 65.794 116.576 65.05ZM122.909 62.008C123.197 61.36 123.605 60.856 124.133 60.496C124.673 60.136 125.327 59.956 126.095 59.956V61.648H125.663C123.827 61.648 122.909 62.644 122.909 64.636V70H121.271V60.136H122.909V62.008ZM137.255 64.654C137.255 64.954 137.237 65.278 137.201 65.626H129.317C129.365 66.598 129.689 67.366 130.289 67.93C130.901 68.494 131.645 68.776 132.521 68.776C133.229 68.776 133.817 68.614 134.285 68.29C134.765 67.954 135.101 67.51 135.293 66.958H137.057C136.793 67.906 136.265 68.68 135.473 69.28C134.681 69.868 133.697 70.162 132.521 70.162C131.585 70.162 130.745 69.952 130.001 69.532C129.269 69.112 128.693 68.518 128.273 67.75C127.853 66.97 127.643 66.07 127.643 65.05C127.643 64.03 127.847 63.136 128.255 62.368C128.663 61.6 129.233 61.012 129.965 60.604C130.709 60.184 131.561 59.974 132.521 59.974C133.457 59.974 134.279 60.178 134.987 60.586C135.707 60.994 136.265 61.552 136.661 62.26C137.057 62.968 137.255 63.766 137.255 64.654ZM135.563 64.438C135.563 63.79 135.425 63.238 135.149 62.782C134.873 62.314 134.495 61.96 134.015 61.72C133.547 61.48 133.025 61.36 132.449 61.36C131.609 61.36 130.895 61.636 130.307 62.188C129.719 62.728 129.395 63.478 129.335 64.438H135.563ZM158.459 60.136L155.381 70H153.689L151.313 62.17L148.937 70H147.245L144.149 60.136H145.823L148.091 68.416L150.539 60.136H152.231L154.607 68.362L156.839 60.136H158.459ZM169.354 64.654C169.354 64.954 169.336 65.278 169.3 65.626H161.416C161.464 66.598 161.788 67.366 162.388 67.93C163 68.494 163.744 68.776 164.62 68.776C165.328 68.776 165.916 68.614 166.384 68.29C166.864 67.954 167.2 67.51 167.392 66.958H169.156C168.892 67.906 168.364 68.68 167.572 69.28C166.78 69.868 165.796 70.162 164.62 70.162C163.684 70.162 162.844 69.952 162.1 69.532C161.368 69.112 160.792 68.518 160.372 67.75C159.952 66.97 159.742 66.07 159.742 65.05C159.742 64.03 159.946 63.136 160.354 62.368C160.762 61.6 161.332 61.012 162.064 60.604C162.808 60.184 163.66 59.974 164.62 59.974C165.556 59.974 166.378 60.178 167.086 60.586C167.806 60.994 168.364 61.552 168.76 62.26C169.156 62.968 169.354 63.766 169.354 64.654ZM167.662 64.438C167.662 63.79 167.524 63.238 167.248 62.782C166.972 62.314 166.594 61.96 166.114 61.72C165.646 61.48 165.124 61.36 164.548 61.36C163.708 61.36 162.994 61.636 162.406 62.188C161.818 62.728 161.494 63.478 161.434 64.438H167.662ZM182.314 59.956C183.058 59.956 183.73 60.118 184.33 60.442C184.93 60.754 185.398 61.228 185.734 61.864C186.082 62.5 186.256 63.274 186.256 64.186V70H184.636V64.42C184.636 63.436 184.39 62.686 183.898 62.17C183.406 61.642 182.734 61.378 181.882 61.378C181.018 61.378 180.328 61.648 179.812 62.188C179.308 62.728 179.056 63.514 179.056 64.546V70H177.418V56.68H179.056V61.54C179.38 61.036 179.824 60.646 180.388 60.37C180.964 60.094 181.606 59.956 182.314 59.956ZM188.59 65.032C188.59 64.024 188.794 63.142 189.202 62.386C189.61 61.618 190.168 61.024 190.876 60.604C191.596 60.184 192.394 59.974 193.27 59.974C194.134 59.974 194.884 60.16 195.52 60.532C196.156 60.904 196.63 61.372 196.942 61.936V60.136H198.598V70H196.942V68.164C196.618 68.74 196.132 69.22 195.484 69.604C194.848 69.976 194.104 70.162 193.252 70.162C192.376 70.162 191.584 69.946 190.876 69.514C190.168 69.082 189.61 68.476 189.202 67.696C188.794 66.916 188.59 66.028 188.59 65.032ZM196.942 65.05C196.942 64.306 196.792 63.658 196.492 63.106C196.192 62.554 195.784 62.134 195.268 61.846C194.764 61.546 194.206 61.396 193.594 61.396C192.982 61.396 192.424 61.54 191.92 61.828C191.416 62.116 191.014 62.536 190.714 63.088C190.414 63.64 190.264 64.288 190.264 65.032C190.264 65.788 190.414 66.448 190.714 67.012C191.014 67.564 191.416 67.99 191.92 68.29C192.424 68.578 192.982 68.722 193.594 68.722C194.206 68.722 194.764 68.578 195.268 68.29C195.784 67.99 196.192 67.564 196.492 67.012C196.792 66.448 196.942 65.794 196.942 65.05ZM205.308 68.452L208.368 60.136H210.132L206.262 70H204.336L200.466 60.136H202.23L205.308 68.452ZM212.841 58.534C212.529 58.534 212.265 58.426 212.049 58.21C211.833 57.994 211.725 57.73 211.725 57.418C211.725 57.106 211.833 56.842 212.049 56.626C212.265 56.41 212.529 56.302 212.841 56.302C213.141 56.302 213.393 56.41 213.597 56.626C213.813 56.842 213.921 57.106 213.921 57.418C213.921 57.73 213.813 57.994 213.597 58.21C213.393 58.426 213.141 58.534 212.841 58.534ZM213.633 60.136V70H211.995V60.136H213.633ZM221.501 59.956C222.701 59.956 223.673 60.322 224.417 61.054C225.161 61.774 225.533 62.818 225.533 64.186V70H223.913V64.42C223.913 63.436 223.667 62.686 223.175 62.17C222.683 61.642 222.011 61.378 221.159 61.378C220.295 61.378 219.605 61.648 219.089 62.188C218.585 62.728 218.333 63.514 218.333 64.546V70H216.695V60.136H218.333V61.54C218.657 61.036 219.095 60.646 219.647 60.37C220.211 60.094 220.829 59.956 221.501 59.956ZM232.547 59.974C233.399 59.974 234.143 60.16 234.779 60.532C235.427 60.904 235.907 61.372 236.219 61.936V60.136H237.875V70.216C237.875 71.116 237.683 71.914 237.299 72.61C236.915 73.318 236.363 73.87 235.643 74.266C234.935 74.662 234.107 74.86 233.159 74.86C231.863 74.86 230.783 74.554 229.919 73.942C229.055 73.33 228.545 72.496 228.389 71.44H230.009C230.189 72.04 230.561 72.52 231.125 72.88C231.689 73.252 232.367 73.438 233.159 73.438C234.059 73.438 234.791 73.156 235.355 72.592C235.931 72.028 236.219 71.236 236.219 70.216V68.146C235.895 68.722 235.415 69.202 234.779 69.586C234.143 69.97 233.399 70.162 232.547 70.162C231.671 70.162 230.873 69.946 230.153 69.514C229.445 69.082 228.887 68.476 228.479 67.696C228.071 66.916 227.867 66.028 227.867 65.032C227.867 64.024 228.071 63.142 228.479 62.386C228.887 61.618 229.445 61.024 230.153 60.604C230.873 60.184 231.671 59.974 232.547 59.974ZM236.219 65.05C236.219 64.306 236.069 63.658 235.769 63.106C235.469 62.554 235.061 62.134 234.545 61.846C234.041 61.546 233.483 61.396 232.871 61.396C232.259 61.396 231.701 61.54 231.197 61.828C230.693 62.116 230.291 62.536 229.991 63.088C229.691 63.64 229.541 64.288 229.541 65.032C229.541 65.788 229.691 66.448 229.991 67.012C230.291 67.564 230.693 67.99 231.197 68.29C231.701 68.578 232.259 68.722 232.871 68.722C233.483 68.722 234.041 68.578 234.545 68.29C235.061 67.99 235.469 67.564 235.769 67.012C236.069 66.448 236.219 65.794 236.219 65.05ZM250.558 61.486H248.488V70H246.85V61.486H245.572V60.136H246.85V59.434C246.85 58.33 247.132 57.526 247.696 57.022C248.272 56.506 249.19 56.248 250.45 56.248V57.616C249.73 57.616 249.22 57.76 248.92 58.048C248.632 58.324 248.488 58.786 248.488 59.434V60.136H250.558V61.486ZM261.486 60.136V70H259.848V68.542C259.536 69.046 259.098 69.442 258.534 69.73C257.982 70.006 257.37 70.144 256.698 70.144C255.93 70.144 255.24 69.988 254.628 69.676C254.016 69.352 253.53 68.872 253.17 68.236C252.822 67.6 252.648 66.826 252.648 65.914V60.136H254.268V65.698C254.268 66.67 254.514 67.42 255.006 67.948C255.498 68.464 256.17 68.722 257.022 68.722C257.898 68.722 258.588 68.452 259.092 67.912C259.596 67.372 259.848 66.586 259.848 65.554V60.136H261.486ZM269.328 59.956C270.528 59.956 271.5 60.322 272.244 61.054C272.988 61.774 273.36 62.818 273.36 64.186V70H271.74V64.42C271.74 63.436 271.494 62.686 271.002 62.17C270.51 61.642 269.838 61.378 268.986 61.378C268.122 61.378 267.432 61.648 266.916 62.188C266.412 62.728 266.16 63.514 266.16 64.546V70H264.522V60.136H266.16V61.54C266.484 61.036 266.922 60.646 267.474 60.37C268.038 60.094 268.656 59.956 269.328 59.956ZM282.603 60.136L285.663 68.092L288.741 60.136H290.433L284.493 74.644H282.783L284.745 69.892L280.767 60.136H282.603ZM301.349 64.654C301.349 64.954 301.331 65.278 301.295 65.626H293.411C293.459 66.598 293.783 67.366 294.383 67.93C294.995 68.494 295.739 68.776 296.615 68.776C297.323 68.776 297.911 68.614 298.379 68.29C298.859 67.954 299.195 67.51 299.387 66.958H301.151C300.887 67.906 300.359 68.68 299.567 69.28C298.775 69.868 297.791 70.162 296.615 70.162C295.679 70.162 294.839 69.952 294.095 69.532C293.363 69.112 292.787 68.518 292.367 67.75C291.947 66.97 291.737 66.07 291.737 65.05C291.737 64.03 291.941 63.136 292.349 62.368C292.757 61.6 293.327 61.012 294.059 60.604C294.803 60.184 295.655 59.974 296.615 59.974C297.551 59.974 298.373 60.178 299.081 60.586C299.801 60.994 300.359 61.552 300.755 62.26C301.151 62.968 301.349 63.766 301.349 64.654ZM299.657 64.438C299.657 63.79 299.519 63.238 299.243 62.782C298.967 62.314 298.589 61.96 298.109 61.72C297.641 61.48 297.119 61.36 296.543 61.36C295.703 61.36 294.989 61.636 294.401 62.188C293.813 62.728 293.489 63.478 293.429 64.438H299.657ZM305.779 61.486V67.3C305.779 67.78 305.881 68.122 306.085 68.326C306.289 68.518 306.643 68.614 307.147 68.614H308.353V70H306.877C305.965 70 305.281 69.79 304.825 69.37C304.369 68.95 304.141 68.26 304.141 67.3V61.486H302.863V60.136H304.141V57.652H305.779V60.136H308.353V61.486H305.779ZM313.812 57.292C315 57.292 315.96 57.628 316.692 58.3C317.424 58.972 317.79 59.872 317.79 61C317.79 62.26 317.4 63.196 316.62 63.808C315.84 64.408 314.784 64.708 313.452 64.708L313.398 66.418H311.976L311.904 63.574H312.426C313.614 63.574 314.544 63.394 315.216 63.034C315.888 62.674 316.224 61.996 316.224 61C316.224 60.28 316.008 59.71 315.576 59.29C315.144 58.87 314.562 58.66 313.83 58.66C313.086 58.66 312.498 58.864 312.066 59.272C311.646 59.668 311.436 60.214 311.436 60.91H309.888C309.888 60.19 310.05 59.56 310.374 59.02C310.698 58.468 311.154 58.042 311.742 57.742C312.342 57.442 313.032 57.292 313.812 57.292ZM312.678 70.108C312.366 70.108 312.102 70 311.886 69.784C311.67 69.568 311.562 69.304 311.562 68.992C311.562 68.68 311.67 68.416 311.886 68.2C312.102 67.984 312.366 67.876 312.678 67.876C312.978 67.876 313.23 67.984 313.434 68.2C313.65 68.416 313.758 68.68 313.758 68.992C313.758 69.304 313.65 69.568 313.434 69.784C313.23 70 312.978 70.108 312.678 70.108Z" fill="#192434"/>
</svg>
