<svg width="36" height="45" viewBox="0 0 36 45" fill="none" xmlns="http://www.w3.org/2000/svg">
<path d="M31.9385 22.4961C31.9385 24.0826 31.6741 25.6101 31.1903 27.0334L28.9005 24.7436C29.0503 24.0038 29.1257 23.2509 29.1255 22.4961V19.6831C29.1255 19.31 29.2737 18.9523 29.5375 18.6885C29.8012 18.4248 30.159 18.2766 30.532 18.2766C30.905 18.2766 31.2628 18.4248 31.5266 18.6885C31.7903 18.9523 31.9385 19.31 31.9385 19.6831V22.4961ZM17.8736 33.748C20.1746 33.748 22.3125 33.0588 24.0959 31.8718L26.1156 33.8943C24.1076 35.3505 21.7485 36.2466 19.28 36.4907V42.187H27.719C28.092 42.187 28.4498 42.3352 28.7136 42.599C28.9773 42.8627 29.1255 43.2205 29.1255 43.5935C29.1255 43.9665 28.9773 44.3243 28.7136 44.588C28.4498 44.8518 28.092 45 27.719 45H8.02808C7.65506 45 7.29731 44.8518 7.03354 44.588C6.76977 44.3243 6.62159 43.9665 6.62159 43.5935C6.62159 43.2205 6.76977 42.8627 7.03354 42.599C7.29731 42.3352 7.65506 42.187 8.02808 42.187H16.4671V36.4907C12.9977 36.142 9.78163 34.5171 7.44264 31.9312C5.10365 29.3454 3.80855 25.9829 3.80859 22.4961V19.6831C3.80859 19.31 3.95678 18.9523 4.22055 18.6885C4.48432 18.4248 4.84206 18.2766 5.21509 18.2766C5.58812 18.2766 5.94586 18.4248 6.20963 18.6885C6.4734 18.9523 6.62159 19.31 6.62159 19.6831V22.4961C6.62159 25.4803 7.80706 28.3423 9.91721 30.4524C12.0274 32.5626 14.8893 33.748 17.8736 33.748ZM26.3125 8.43111V22.1557L23.4995 19.3427V8.43111C23.506 6.96346 22.9387 5.55137 21.9187 4.49611C20.8987 3.44085 19.5067 2.82598 18.0396 2.78267C16.5726 2.73936 15.1467 3.27104 14.0662 4.26429C12.9857 5.25753 12.3361 6.6337 12.256 8.09918L9.87903 5.7222C10.523 3.82973 11.8177 2.22722 13.5326 1.19994C15.2475 0.172663 17.2713 -0.212711 19.2438 0.112425C21.2162 0.437561 23.0092 1.45211 24.3037 2.97545C25.5981 4.49879 26.31 6.43207 26.3125 8.43111Z" fill="#77828F"/>
<path d="M22.0539 29.8298L19.9497 27.7257C19.0963 28.0645 18.173 28.1893 17.2602 28.0891C16.3475 27.989 15.4732 27.667 14.7135 27.1512C13.9538 26.6354 13.332 25.9416 12.9022 25.1302C12.4724 24.3188 12.2477 23.4145 12.2478 22.4963V20.0265L9.43477 17.2135V22.4963C9.43433 23.974 9.82193 25.4259 10.5588 26.7068C11.2956 27.9877 12.3559 29.0527 13.6335 29.7952C14.9112 30.5377 16.3614 30.9316 17.8391 30.9377C19.3168 30.9438 20.7702 30.5617 22.0539 29.8298ZM0 3.80117L33.7559 37.5571L35.7475 35.5655L1.9916 1.80957L0 3.80117Z" fill="#77828F"/>
</svg>
