<svg width="45" height="45" viewBox="0 0 45 45" fill="none" xmlns="http://www.w3.org/2000/svg">
<path d="M22.5 35.1563C21.6656 35.1562 20.85 35.4037 20.1562 35.8672C19.4624 36.3308 18.9217 36.9897 18.6024 37.7606C18.2831 38.5314 18.1995 39.3797 18.3623 40.198C18.5251 41.0164 18.9269 41.7681 19.5169 42.3581C20.1069 42.9481 20.8586 43.3499 21.677 43.5127C22.4953 43.6755 23.3436 43.5919 24.1144 43.2726C24.8853 42.9533 25.5442 42.4126 26.0078 41.7188C26.4713 41.025 26.7187 40.2094 26.7187 39.375C26.7187 38.2561 26.2743 37.1831 25.4831 36.3919C24.6919 35.6007 23.6189 35.1563 22.5 35.1563Z" fill="white"/>
<path d="M22.5 23.9062C21.6656 23.9062 20.85 24.1537 20.1562 24.6172C19.4624 25.0808 18.9217 25.7397 18.6024 26.5106C18.2831 27.2814 18.1995 28.1297 18.3623 28.948C18.5251 29.7664 18.9269 30.5181 19.5169 31.1081C20.1069 31.6981 20.8586 32.0999 21.677 32.2627C22.4953 32.4255 23.3436 32.3419 24.1144 32.0226C24.8853 31.7033 25.5442 31.1626 26.0078 30.4688C26.4713 29.775 26.7187 28.9594 26.7187 28.125C26.7187 27.0061 26.2743 25.9331 25.4831 25.1419C24.6919 24.3507 23.6189 23.9063 22.5 23.9062Z" fill="white"/>
<path d="M22.5 12.6562C21.6656 12.6562 20.85 12.9037 20.1562 13.3672C19.4624 13.8308 18.9217 14.4897 18.6024 15.2606C18.2831 16.0314 18.1995 16.8797 18.3623 17.698C18.5251 18.5164 18.9269 19.2681 19.5169 19.8581C20.1069 20.4481 20.8586 20.8499 21.677 21.0127C22.4953 21.1755 23.3436 21.0919 24.1144 20.7726C24.8853 20.4533 25.5442 19.9126 26.0078 19.2188C26.4713 18.525 26.7187 17.7094 26.7187 16.875C26.7187 15.7561 26.2743 14.6831 25.4831 13.8919C24.6919 13.1007 23.6189 12.6562 22.5 12.6562Z" fill="white"/>
<path d="M22.5 1.40625C21.6656 1.40625 20.85 1.65368 20.1562 2.11724C19.4624 2.5808 18.9217 3.23968 18.6024 4.01055C18.2831 4.78143 18.1995 5.62968 18.3623 6.44804C18.5251 7.26639 18.9269 8.0181 19.5169 8.60811C20.1069 9.19811 20.8586 9.59991 21.677 9.76269C22.4953 9.92547 23.3436 9.84192 24.1144 9.52262C24.8853 9.20331 25.5442 8.66258 26.0078 7.96881C26.4713 7.27504 26.7187 6.45939 26.7187 5.625C26.7187 4.50612 26.2743 3.43306 25.4831 2.64189C24.6919 1.85072 23.6189 1.40625 22.5 1.40625Z" fill="white"/>
<path d="M33.75 23.9062C32.9156 23.9062 32.1 24.1537 31.4062 24.6172C30.7124 25.0808 30.1717 25.7397 29.8524 26.5106C29.5331 27.2814 29.4495 28.1297 29.6123 28.948C29.7751 29.7664 30.1769 30.5181 30.7669 31.1081C31.3569 31.6981 32.1086 32.0999 32.927 32.2627C33.7453 32.4255 34.5936 32.3419 35.3644 32.0226C36.1353 31.7033 36.7942 31.1626 37.2578 30.4688C37.7213 29.775 37.9687 28.9594 37.9687 28.125C37.9687 27.0061 37.5243 25.9331 36.7331 25.1419C35.9419 24.3507 34.8689 23.9063 33.75 23.9062Z" fill="white"/>
<path d="M33.75 12.6562C32.9156 12.6562 32.1 12.9037 31.4062 13.3672C30.7124 13.8308 30.1717 14.4897 29.8524 15.2606C29.5331 16.0314 29.4495 16.8797 29.6123 17.698C29.7751 18.5164 30.1769 19.2681 30.7669 19.8581C31.3569 20.4481 32.1086 20.8499 32.927 21.0127C33.7453 21.1755 34.5936 21.0919 35.3644 20.7726C36.1353 20.4533 36.7942 19.9126 37.2578 19.2188C37.7213 18.525 37.9687 17.7094 37.9687 16.875C37.9687 15.7561 37.5243 14.6831 36.7331 13.8919C35.9419 13.1007 34.8689 12.6562 33.75 12.6562Z" fill="white"/>
<path d="M33.75 1.40625C32.9156 1.40625 32.1 1.65368 31.4062 2.11724C30.7124 2.5808 30.1717 3.23968 29.8524 4.01055C29.5331 4.78143 29.4495 5.62968 29.6123 6.44804C29.7751 7.26639 30.1769 8.0181 30.7669 8.60811C31.3569 9.19811 32.1086 9.59991 32.927 9.76269C33.7453 9.92547 34.5936 9.84192 35.3644 9.52262C36.1353 9.20331 36.7942 8.66258 37.2578 7.96881C37.7213 7.27504 37.9687 6.45939 37.9687 5.625C37.9687 4.50612 37.5243 3.43306 36.7331 2.64189C35.9419 1.85072 34.8689 1.40625 33.75 1.40625Z" fill="white"/>
<path d="M11.25 23.9062C10.4156 23.9062 9.59996 24.1537 8.90619 24.6172C8.21242 25.0808 7.67169 25.7397 7.35239 26.5106C7.03308 27.2814 6.94953 28.1297 7.11231 28.948C7.2751 29.7664 7.67689 30.5181 8.2669 31.1081C8.8569 31.6981 9.60861 32.0999 10.427 32.2627C11.2453 32.4255 12.0936 32.3419 12.8644 32.0226C13.6353 31.7033 14.2942 31.1626 14.7578 30.4688C15.2213 29.775 15.4688 28.9594 15.4688 28.125C15.4688 27.0061 15.0243 25.9331 14.2331 25.1419C13.4419 24.3507 12.3689 23.9063 11.25 23.9062Z" fill="white"/>
<path d="M11.25 12.6562C10.4156 12.6562 9.59996 12.9037 8.90619 13.3672C8.21242 13.8308 7.67169 14.4897 7.35239 15.2606C7.03308 16.0314 6.94953 16.8797 7.11231 17.698C7.2751 18.5164 7.67689 19.2681 8.2669 19.8581C8.8569 20.4481 9.60861 20.8499 10.427 21.0127C11.2453 21.1755 12.0936 21.0919 12.8644 20.7726C13.6353 20.4533 14.2942 19.9126 14.7578 19.2188C15.2213 18.525 15.4688 17.7094 15.4688 16.875C15.4688 15.7561 15.0243 14.6831 14.2331 13.8919C13.4419 13.1007 12.3689 12.6562 11.25 12.6562Z" fill="white"/>
<path d="M11.25 1.40625C10.4156 1.40625 9.59996 1.65368 8.90619 2.11724C8.21242 2.5808 7.67169 3.23968 7.35239 4.01055C7.03308 4.78143 6.94953 5.62968 7.11231 6.44804C7.2751 7.26639 7.67689 8.0181 8.2669 8.60811C8.8569 9.19811 9.60861 9.59991 10.427 9.76269C11.2453 9.92547 12.0936 9.84192 12.8644 9.52262C13.6353 9.20331 14.2942 8.66258 14.7578 7.96881C15.2213 7.27504 15.4688 6.45939 15.4688 5.625C15.4688 4.50612 15.0243 3.43306 14.2331 2.64189C13.4419 1.85072 12.3689 1.40625 11.25 1.40625Z" fill="white"/>
</svg>
