<svg width="42" height="40" viewBox="0 0 42 40" fill="none" xmlns="http://www.w3.org/2000/svg">
<g clip-path="url(#clip0_932_3523)">
<path d="M41.2903 23.7499C41.2903 21.8951 41.2097 20.2284 41.0484 18.7499C40.672 15.309 39.543 12.2042 37.6613 9.43538C35.7796 6.66656 33.3602 4.50259 30.4032 2.94345C27.4462 1.38431 24.2339 0.604736 20.7661 0.604736C17.1371 0.604736 13.7903 1.46495 10.7258 3.18538C7.66129 4.90581 5.18817 7.27812 3.30645 10.3023C1.42473 13.3265 0.389785 16.68 0.201613 20.3628C0.147849 21.68 0.107527 22.6881 0.0806452 23.387V23.9918C0.0806452 24.0725 0.0739247 24.1531 0.0604839 24.2338L0.0201613 24.4757L0 24.7176V35.9676C0 36.9085 0.336022 37.715 1.00806 38.387C1.68011 39.059 2.48656 39.3951 3.42742 39.3951H6.89516C7.8629 39.3951 8.67608 39.059 9.33468 38.387C9.99328 37.715 10.3226 36.9085 10.3226 35.9676V24.7176C10.3226 24.0994 10.1747 23.5281 9.87903 23.0039C9.58333 22.4797 9.17339 22.0631 8.64919 21.7539C8.125 21.4448 7.54032 21.2902 6.89516 21.2902H3.42742C3.31989 21.2902 3.20565 21.2969 3.08468 21.3104C2.96371 21.3238 2.84946 21.344 2.74194 21.3709C2.74194 21.2096 2.74866 21.0281 2.7621 20.8265L2.78226 20.5241C2.91667 18.0779 3.48118 15.7862 4.47581 13.6491C5.47043 11.512 6.76075 9.67732 8.34678 8.14506C9.9328 6.6128 11.8078 5.40312 13.9718 4.51603C16.1358 3.62893 18.4005 3.18538 20.7661 3.18538C23.0511 3.18538 25.2218 3.58861 27.2782 4.39506C29.3347 5.20151 31.1425 6.29694 32.7016 7.68135C34.2608 9.06576 35.5511 10.7391 36.5726 12.7015C37.5941 14.6639 38.2258 16.7741 38.4677 19.0322C38.5215 19.4085 38.5753 20.1881 38.629 21.3709C38.5484 21.3709 38.4677 21.3641 38.3871 21.3507C38.3065 21.3373 38.2191 21.3238 38.125 21.3104C38.0309 21.2969 37.9436 21.2902 37.8629 21.2902H34.4355C33.4677 21.2902 32.6546 21.6262 31.996 22.2983C31.3374 22.9703 31.0081 23.7768 31.0081 24.7176V35.9273C31.0081 36.3037 31.0618 36.6598 31.1694 36.9959C31.2769 37.3319 31.4382 37.641 31.6532 37.9233C31.8683 38.2055 32.1169 38.4542 32.3992 38.6693C32.6815 38.8843 32.9973 39.0523 33.3468 39.1733C33.6962 39.2943 34.0591 39.3547 34.4355 39.3547H37.8629C38.8038 39.3547 39.6102 39.0187 40.2823 38.3467C40.9543 37.6746 41.2903 36.8682 41.2903 35.9273V24.7176C41.2903 24.5295 41.2634 24.3279 41.2097 24.1128C41.2634 23.9784 41.2903 23.8574 41.2903 23.7499ZM3.42742 23.8709H6.89516C7.05645 23.8709 7.2043 23.9112 7.33871 23.9918C7.47312 24.0725 7.57393 24.1733 7.64113 24.2943C7.70833 24.4152 7.74194 24.5564 7.74194 24.7176V35.9676C7.74194 36.1827 7.66129 36.3776 7.5 36.5523C7.33871 36.7271 7.1371 36.8144 6.89516 36.8144H3.42742C3.26613 36.8144 3.125 36.7741 3.00403 36.6934C2.88306 36.6128 2.78226 36.5053 2.70161 36.3709C2.62097 36.2365 2.58065 36.1021 2.58065 35.9676V24.7176C2.58065 24.4757 2.66129 24.2741 2.82258 24.1128C2.98387 23.9515 3.18548 23.8709 3.42742 23.8709ZM38.7097 35.9273C38.7097 36.1424 38.629 36.3373 38.4677 36.512C38.3065 36.6867 38.1048 36.7741 37.8629 36.7741H34.4355C34.3548 36.7741 34.2809 36.7674 34.2137 36.7539C34.1465 36.7405 34.086 36.7136 34.0323 36.6733C33.9785 36.633 33.9315 36.5994 33.8911 36.5725C33.8508 36.5456 33.8105 36.5053 33.7702 36.4515C33.7298 36.3978 33.6962 36.344 33.6694 36.2902C33.6425 36.2365 33.6223 36.176 33.6089 36.1088C33.5954 36.0416 33.5887 35.9811 33.5887 35.9273V24.7176C33.5887 24.4757 33.6694 24.2741 33.8306 24.1128C33.9919 23.9515 34.1936 23.8709 34.4355 23.8709H37.8629C38.1048 23.8709 38.3065 23.9515 38.4677 24.1128C38.629 24.2741 38.7097 24.4757 38.7097 24.7176V35.9273Z" fill="white"/>
</g>
<defs>
<clipPath id="clip0_932_3523">
<rect width="41.2903" height="40" fill="white"/>
</clipPath>
</defs>
</svg>
