<svg width="32" height="16" viewBox="0 0 32 16" fill="none" xmlns="http://www.w3.org/2000/svg">
<path d="M1.99699 11.0175L4.34961 13.4484C4.72462 13.8556 5.23172 14.106 5.77442 14.1518C7.30488 14.281 10.2445 12.3377 10.9965 11.1405C11.5827 10.2072 11.356 8.89629 11.357 7.84465C14.4406 6.9655 17.6949 6.96212 20.7768 7.83496C20.7758 8.8866 20.5465 10.1981 21.131 11.1302C21.8795 12.3239 24.803 14.2521 26.3305 14.1317C26.8678 14.0894 27.3723 13.8466 27.7498 13.4488L30.1071 11.0131C31.0044 10.0841 30.9462 8.47968 29.9612 7.63092C22.1833 -0.41841 9.97208 -0.476733 2.14154 7.62696C1.15167 8.48056 1.09401 10.0921 1.99699 11.0175Z" stroke="white" stroke-width="2" stroke-linecap="round" stroke-linejoin="round"/>
</svg>
