<svg width="28" height="28" viewBox="0 0 28 28" fill="none" xmlns="http://www.w3.org/2000/svg">
<path d="M24 0H4C3.46957 0 2.96086 0.180612 2.58579 0.502103C2.21071 0.823594 2 1.25963 2 1.71429V25.7143C2 26.1689 2.21071 26.605 2.58579 26.9265C2.96086 27.248 3.46957 27.4286 4 27.4286H24C24.5304 27.4286 25.0391 27.248 25.4142 26.9265C25.7893 26.605 26 26.1689 26 25.7143V1.71429C26 1.25963 25.7893 0.823594 25.4142 0.502103C25.0391 0.180612 24.5304 0 24 0ZM16.52 20.8286C16.7149 20.674 16.9735 20.5921 17.2389 20.601C17.5043 20.6098 17.7547 20.7086 17.935 20.8757C18.1153 21.0428 18.2109 21.2645 18.2006 21.4919C18.1902 21.7194 18.0749 21.934 17.88 22.0886L14 25.1657L10.12 22.0886C10.0235 22.012 9.94549 21.9199 9.89049 21.8176C9.83549 21.7152 9.80455 21.6045 9.79944 21.4919C9.78913 21.2645 9.88465 21.0428 10.065 20.8757C10.2453 20.7086 10.4957 20.6098 10.7611 20.601C11.0265 20.5921 11.2851 20.674 11.48 20.8286L13 22.0371V5.39143L11.48 6.6C11.3835 6.67654 11.2703 6.73604 11.147 6.77509C11.0236 6.81415 10.8925 6.832 10.7611 6.82762C10.6297 6.82324 10.5006 6.79672 10.3812 6.74958C10.2617 6.70244 10.1543 6.63559 10.065 6.55286C9.9757 6.47013 9.90629 6.37313 9.86072 6.2674C9.81516 6.16167 9.79434 6.04929 9.79944 5.93667C9.80976 5.70921 9.92507 5.49458 10.12 5.34L14 2.26286L17.88 5.34C18.073 5.49486 18.1867 5.70895 18.1961 5.93544C18.2054 6.16193 18.1098 6.38238 17.93 6.54857C17.8368 6.63475 17.7238 6.70356 17.5983 6.75075C17.4727 6.79794 17.3371 6.82248 17.2 6.82286C16.9487 6.82444 16.7059 6.74488 16.52 6.6L15 5.39143V22.0371L16.52 20.8286Z" fill="#1164F5"/>
</svg>
