<svg width="18" height="9" viewBox="0 0 18 9" fill="none" xmlns="http://www.w3.org/2000/svg">
<path d="M17.7516 1.70158C17.7522 1.88833 17.711 2.07284 17.631 2.24156C17.5509 2.41029 17.4341 2.55894 17.2891 2.67658L9.78907 8.71408C9.5654 8.89794 9.28485 8.99844 8.99532 8.99844C8.70579 8.99844 8.42523 8.89794 8.20157 8.71408L0.701566 2.46408C0.446295 2.25191 0.285764 1.94702 0.255289 1.61649C0.224815 1.28596 0.326892 0.956855 0.539065 0.701584C0.751239 0.446313 1.05613 0.285783 1.38666 0.255308C1.71719 0.224833 2.04629 0.32691 2.30157 0.539083L9.00157 6.12658L15.7016 0.726584C15.8851 0.57373 16.1085 0.476634 16.3454 0.446785C16.5823 0.416935 16.8229 0.455582 17.0385 0.558151C17.2542 0.660721 17.436 0.822921 17.5623 1.02556C17.6887 1.2282 17.7544 1.46279 17.7516 1.70158Z" fill="#313131"/>
</svg>
