<svg width="26" height="26" viewBox="0 0 26 26" fill="none" xmlns="http://www.w3.org/2000/svg">
<path d="M21.8405 10.4106C19.9551 10.4106 19.1842 9.0773 20.1217 7.44188C20.6634 6.49396 20.3405 5.28563 19.3926 4.74396L17.5905 3.71271C16.7676 3.22313 15.7051 3.5148 15.2155 4.33771L15.1009 4.53563C14.1634 6.17105 12.6217 6.17105 11.6738 4.53563L11.5592 4.33771C11.0905 3.5148 10.028 3.22313 9.20508 3.71271L7.40299 4.74396C6.45508 5.28563 6.13216 6.50438 6.67383 7.4523C7.62174 9.0773 6.85091 10.4106 4.96549 10.4106C3.88216 10.4106 2.98633 11.296 2.98633 12.3898V14.2231C2.98633 15.3065 3.87174 16.2023 4.96549 16.2023C6.85091 16.2023 7.62174 17.5356 6.67383 19.171C6.13216 20.119 6.45508 21.3273 7.40299 21.869L9.20508 22.9002C10.028 23.3898 11.0905 23.0981 11.5801 22.2752L11.6947 22.0773C12.6322 20.4419 14.1738 20.4419 15.1217 22.0773L15.2363 22.2752C15.7259 23.0981 16.7884 23.3898 17.6113 22.9002L19.4134 21.869C20.3613 21.3273 20.6842 20.1085 20.1426 19.171C19.1947 17.5356 19.9655 16.2023 21.8509 16.2023C22.9342 16.2023 23.8301 15.3169 23.8301 14.2231V12.3898C23.8197 11.3065 22.9342 10.4106 21.8405 10.4106ZM13.403 16.6919C11.5384 16.6919 10.0176 15.171 10.0176 13.3065C10.0176 11.4419 11.5384 9.92105 13.403 9.92105C15.2676 9.92105 16.7884 11.4419 16.7884 13.3065C16.7884 15.171 15.2676 16.6919 13.403 16.6919Z" fill="#A9B1BC"/>
</svg>
