<svg width="22" height="21" viewBox="0 0 22 21" fill="none" xmlns="http://www.w3.org/2000/svg">
<path d="M19.8405 7.41048C17.9551 7.41048 17.1842 6.07714 18.1217 4.44173C18.6634 3.49381 18.3405 2.28548 17.3926 1.74381L15.5905 0.71256C14.7676 0.222977 13.7051 0.514643 13.2155 1.33756L13.1009 1.53548C12.1634 3.17089 10.6217 3.17089 9.67383 1.53548L9.55924 1.33756C9.09049 0.514643 8.02799 0.222977 7.20508 0.71256L5.40299 1.74381C4.45508 2.28548 4.13216 3.50423 4.67383 4.45214C5.62174 6.07714 4.85091 7.41048 2.96549 7.41048C1.88216 7.41048 0.986328 8.29589 0.986328 9.38964V11.223C0.986328 12.3063 1.87174 13.2021 2.96549 13.2021C4.85091 13.2021 5.62174 14.5355 4.67383 16.1709C4.13216 17.1188 4.45508 18.3271 5.40299 18.8688L7.20508 19.9001C8.02799 20.3896 9.09049 20.098 9.58008 19.2751L9.69466 19.0771C10.6322 17.4417 12.1738 17.4417 13.1217 19.0771L13.2363 19.2751C13.7259 20.098 14.7884 20.3896 15.6113 19.9001L17.4134 18.8688C18.3613 18.3271 18.6842 17.1084 18.1426 16.1709C17.1947 14.5355 17.9655 13.2021 19.8509 13.2021C20.9342 13.2021 21.8301 12.3167 21.8301 11.223V9.38964C21.8197 8.30631 20.9342 7.41048 19.8405 7.41048ZM11.403 13.6917C9.53841 13.6917 8.01758 12.1709 8.01758 10.3063C8.01758 8.44173 9.53841 6.92089 11.403 6.92089C13.2676 6.92089 14.7884 8.44173 14.7884 10.3063C14.7884 12.1709 13.2676 13.6917 11.403 13.6917Z" fill="#1164F5"/>
</svg>
