<svg width="36" height="36" viewBox="0 0 36 36" fill="none" xmlns="http://www.w3.org/2000/svg">
<mask id="mask0_200_913" style="mask-type:alpha" maskUnits="userSpaceOnUse" x="0" y="0" width="36" height="36">
<circle cx="18" cy="18" r="18" fill="#C4C4C4"/>
</mask>
<g mask="url(#mask0_200_913)">
<circle cx="18" cy="18" r="17" stroke="#5B6676" stroke-width="2"/>
<path d="M29.9119 32.9651L29.9115 32.9647C25.4013 28.8562 21.9624 26.9792 18.5829 26.9672C15.1938 26.9551 11.5713 28.8165 6.69214 32.9917C6.52591 33.1361 6.40821 33.3227 6.35054 33.5276C6.29271 33.733 6.297 33.9501 6.36307 34.1534C6.42918 34.3568 6.55509 34.5396 6.72827 34.678C6.90145 34.8165 7.11395 34.9039 7.34024 34.9274C15.6091 35.7668 20.9535 35.8468 29.2216 34.9482L29.9119 32.9651ZM29.9119 32.9651C30.1445 33.1768 30.2773 33.4807 30.2773 33.7955V33.7966C30.2773 34.3751 29.8349 34.8813 29.2218 34.9482L29.9119 32.9651Z" stroke="#5B6676" stroke-width="2"/>
<path d="M25.5578 13.5739C25.5578 15.6779 24.7771 17.683 23.4068 19.1512C22.0387 20.617 20.1984 21.4264 18.2955 21.4264C16.3926 21.4264 14.5523 20.617 13.1842 19.1512C11.8139 17.683 11.0332 15.6779 11.0332 13.5739C11.0332 11.4699 11.8139 9.46475 13.1842 7.99658C14.5523 6.53074 16.3926 5.72144 18.2955 5.72144C20.1984 5.72144 22.0387 6.53074 23.4068 7.99658C24.7771 9.46475 25.5578 11.4699 25.5578 13.5739Z" stroke="#5B6676" stroke-width="2"/>
</g>
</svg>
