<svg width="34" height="34" viewBox="0 0 34 34" fill="none" xmlns="http://www.w3.org/2000/svg">
<path d="M29 1H5C2.79086 1 1 2.79086 1 5V29C1 29.2242 1.01844 29.444 1.05386 29.658C1.3677 31.554 3.015 33 5 33H29C31.2092 33 33 31.2092 33 29V21.3802V5C33 2.79086 31.2092 1 29 1Z" stroke="#5B6676" stroke-width="2" stroke-linecap="round" stroke-linejoin="round"/>
<path d="M15 11C15 13.2092 13.2092 15 11 15C8.79086 15 7 13.2092 7 11C7 8.79086 8.79086 7 11 7C13.2092 7 15 8.79086 15 11Z" stroke="#5B6676" stroke-width="2" stroke-linecap="round" stroke-linejoin="round"/>
<path d="M1.05273 29.6585L8.69413 22.0171C10.0542 20.8271 12.0433 20.6969 13.5469 21.6993L14.5653 22.3781C16.0145 23.3443 17.9227 23.2615 19.2829 22.1735L24.5791 17.9363C25.9291 16.8563 27.8095 16.7717 29.2445 17.6973C29.4035 17.7999 29.5451 17.9269 29.6789 18.0609L32.9989 21.3807" stroke="#5B6676" stroke-width="2" stroke-linecap="round" stroke-linejoin="round"/>
</svg>
