<svg width="34" height="34" viewBox="0 0 34 34" fill="none" xmlns="http://www.w3.org/2000/svg">
<path d="M33 16.0016L17.8712 30.27C16.0178 32.018 13.504 33 10.8829 33C8.26178 33 5.74803 32.018 3.89463 30.27C2.04122 28.5221 1 26.1512 1 23.6792C1 21.2072 2.04122 18.8364 3.89463 17.0885L19.0235 2.81999C20.2591 1.65466 21.935 1 23.6824 1C25.4297 1 27.1056 1.65466 28.3412 2.81999C29.5768 3.98532 30.271 5.56583 30.271 7.21385C30.271 8.86187 29.5768 10.4424 28.3412 11.6077L13.1958 25.876C12.578 26.4588 11.7401 26.7862 10.8664 26.7862C9.99272 26.7862 9.15481 26.4588 8.537 25.876C7.91921 25.2935 7.57212 24.5032 7.57212 23.6792C7.57212 22.8552 7.91921 22.0648 8.537 21.4823L22.5134 8.31622" stroke="#5B6676" stroke-width="2" stroke-linecap="round" stroke-linejoin="round"/>
</svg>
