<svg width="27" height="27" viewBox="0 0 27 27" fill="none" xmlns="http://www.w3.org/2000/svg">
<path d="M22.3413 18.1525C22.0713 21.1562 19.9 23.125 16.75 23.125H6.625C3.52 23.125 1 20.605 1 17.5V9.625C1 6.565 2.845 4.4275 5.71375 4.0675C6.00625 4.0225 6.31 4 6.625 4H16.75C17.0425 4 17.3238 4.01125 17.5938 4.05625C20.2825 4.37125 22.105 6.25 22.3413 8.9725C22.375 9.29875 22.105 9.56875 21.7788 9.56875H20.035C18.955 9.56875 17.9538 9.985 17.2338 10.7275C16.3788 11.56 15.9513 12.73 16.0525 13.9C16.2325 15.9475 18.0325 17.5563 20.17 17.5563H21.7788C22.105 17.5563 22.375 17.8263 22.3413 18.1525Z" fill="#A9B1BC"/>
<path d="M24.7507 12.3412V14.6587C24.7507 15.2775 24.2557 15.7837 23.6257 15.8062H21.4207C20.2057 15.8062 19.092 14.9175 18.9907 13.7025C18.9232 12.9937 19.1932 12.33 19.6657 11.8687C20.082 11.4412 20.6557 11.1937 21.2857 11.1937H23.6257C24.2557 11.2162 24.7507 11.7225 24.7507 12.3412Z" fill="#A9B1BC"/>
</svg>
