<svg width="150" height="38" viewBox="0 0 150 38" fill="none" xmlns="http://www.w3.org/2000/svg">
<g clip-path="url(#clip0_539_350)">
<path d="M91.9705 16.96V10.3919H94.7017V28.285H92.3346C92.2254 27.663 92.1161 27.0226 92.0251 26.4738C91.7337 26.7299 91.4424 26.986 91.1329 27.2605C90.2407 28.0472 89.1664 28.4131 88.001 28.4497C86.508 28.4863 85.1423 28.1387 83.977 27.169C83.1212 26.4738 82.5021 25.5773 82.1562 24.5161C81.5735 22.7415 81.5553 20.9668 82.1015 19.1921C82.8481 16.8137 84.942 15.1854 87.4184 15.0573C88.5837 15.0024 89.7126 15.1671 90.7323 15.8074C91.1147 16.0453 91.4424 16.3929 91.7884 16.6856C91.8066 16.7588 91.8612 16.832 91.9705 16.96ZM92.0433 21.8084C91.9887 21.351 91.9522 20.8936 91.843 20.4545C91.4242 18.57 90.095 17.4357 88.2924 17.4174C86.9632 17.3991 85.9253 17.9297 85.197 19.0457C84.7964 19.6678 84.5779 20.363 84.505 21.0948C84.3776 22.3938 84.5779 23.6379 85.3426 24.7174C86.6718 26.5835 89.658 26.6384 91.0418 24.8272C91.7337 23.9307 91.9887 22.9061 92.0433 21.8084Z" fill="black"/>
<path d="M53.4058 28.3033C52.3133 28.3033 51.2754 28.3033 50.2557 28.3033C50.1829 28.3033 50.0737 28.2301 50.0372 28.157C48.9447 26.5835 47.8522 25.0284 46.7597 23.455C46.5412 23.1622 46.341 22.8512 46.1225 22.5402C46.0678 22.5951 46.0132 22.6317 45.9768 22.6683C45.3031 23.3818 44.6294 24.0953 43.9557 24.7906C43.8282 24.9186 43.7918 25.0467 43.7918 25.2114C43.7918 26.1444 43.7918 27.0958 43.7918 28.0289V28.3033H41.0605V10.3919H43.7736V21.5339C43.8646 21.4608 43.9192 21.4242 43.9557 21.3693C45.8857 19.3568 47.834 17.3625 49.7641 15.35C49.8369 15.2768 49.9462 15.2037 50.0372 15.2037C51.0569 15.1854 52.0948 15.2037 53.1873 15.2037C51.4393 17.0149 49.7459 18.7713 48.0343 20.546C49.8005 23.1257 51.5849 25.687 53.4058 28.3033Z" fill="black"/>
<path d="M118.154 15.039C119.155 15.0573 120.102 15.1854 121.013 15.5879C122.633 16.3197 123.762 17.5089 124.327 19.2104C125.018 21.3693 124.927 23.4916 123.78 25.4858C122.943 26.9312 121.668 27.8276 120.048 28.2118C118.773 28.5229 117.48 28.5229 116.206 28.1936C114.385 27.7179 113.019 26.6201 112.254 24.882C111.344 22.8146 111.326 20.6923 112.236 18.6066C112.91 17.0698 114.094 16.027 115.659 15.4598C116.479 15.1488 117.335 15.0573 118.154 15.039ZM121.941 21.7718C121.887 21.3693 121.868 20.9485 121.796 20.546C121.468 18.9726 120.466 17.637 118.627 17.4174C117.298 17.2711 116.169 17.6736 115.332 18.7347C114.112 20.2533 114.148 22.8512 115.095 24.4064C116.37 26.5286 119.41 26.6201 120.867 24.9003C121.614 24.0039 121.923 22.9427 121.941 21.7718Z" fill="black"/>
<path d="M140.933 16.8503C141.024 16.7771 141.079 16.7222 141.133 16.6673C142.117 15.5513 143.373 15.0756 144.811 15.0573C145.777 15.039 146.705 15.1854 147.561 15.6428C148.635 16.2282 149.309 17.143 149.655 18.2956C149.91 19.1006 150.001 19.9239 150.001 20.7655C150.001 23.2171 150.001 25.6505 150.001 28.1021C150.001 28.157 150.001 28.1936 150.001 28.285C149.91 28.285 149.837 28.3033 149.764 28.3033C149.018 28.3033 148.271 28.3033 147.506 28.3033C147.27 28.3033 147.233 28.2301 147.233 28.0106C147.233 25.5956 147.251 23.1806 147.215 20.7838C147.215 20.2533 147.106 19.6861 146.924 19.1921C146.487 17.9846 145.522 17.4357 144.192 17.4723C142.226 17.5089 141.224 18.9177 141.024 20.6192C140.97 21.04 140.97 21.4791 140.97 21.9182C140.97 23.949 140.97 25.9615 140.97 27.9923V28.285C140.878 28.285 140.787 28.3033 140.715 28.3033C140.004 28.3033 139.276 28.3033 138.566 28.3033C138.238 28.3033 138.238 28.3033 138.238 27.9557C138.238 26.5652 138.238 25.1931 138.238 23.8026C138.238 21.04 138.238 18.2956 138.238 15.533C138.238 15.1854 138.238 15.1854 138.584 15.1854C139.167 15.1854 139.768 15.1854 140.35 15.1854C140.551 15.1854 140.642 15.222 140.678 15.4415C140.733 15.844 140.824 16.2282 140.897 16.6307C140.878 16.7039 140.897 16.7588 140.933 16.8503Z" fill="black"/>
<path d="M66.9339 15.2037V28.285C66.861 28.285 66.7882 28.3033 66.7154 28.3033C66.0599 28.3033 65.4226 28.3033 64.7671 28.3033C64.5668 28.3033 64.5122 28.2484 64.4758 28.0655C64.4211 27.6813 64.3301 27.2971 64.2572 26.9129C64.239 26.858 64.2208 26.8031 64.2026 26.7299C63.9295 26.986 63.6746 27.2239 63.4015 27.4434C62.6731 28.0289 61.8355 28.3399 60.9069 28.4314C59.8508 28.5412 58.8312 28.4131 57.8661 27.9557C56.5916 27.3519 55.8814 26.2908 55.5173 24.9735C55.2988 24.1685 55.2441 23.3635 55.2441 22.5402C55.2441 20.1801 55.2441 17.8382 55.2441 15.4781C55.2441 15.2585 55.317 15.2037 55.5173 15.2037C56.2456 15.222 56.9921 15.222 57.7205 15.2037C57.9572 15.2037 58.0118 15.2768 58.0118 15.4964C58.0118 17.7467 58.0118 19.9788 58.0118 22.2292C58.0118 22.9244 58.0482 23.6013 58.2849 24.26C58.7037 25.4309 59.5777 25.9615 60.7613 26.0164C61.9084 26.0713 62.837 25.6688 63.4743 24.6991C63.8931 24.0587 64.1116 23.3452 64.1298 22.5951C64.1662 21.6254 64.1662 20.6375 64.1662 19.6495C64.1662 18.2773 64.1662 16.8869 64.1662 15.5147C64.1662 15.2768 64.239 15.2037 64.4758 15.2037C65.2951 15.222 66.0963 15.2037 66.9339 15.2037Z" fill="black"/>
<path d="M109.723 19.8508H106.865C106.828 19.7593 106.792 19.6678 106.756 19.558C106.264 17.9114 104.862 17.2162 103.278 17.4174C101.548 17.637 100.601 18.8628 100.237 20.3447C99.9456 21.5339 100 22.7049 100.455 23.8392C101.238 25.8334 103.223 26.5287 105.008 25.87C105.918 25.5407 106.464 24.8455 106.737 23.9124C106.81 23.6745 106.901 23.6014 107.138 23.6197C107.884 23.6379 108.631 23.6197 109.396 23.6197C109.487 23.6197 109.596 23.6379 109.705 23.6379C109.632 24.2051 109.469 24.7174 109.25 25.2114C108.467 26.9129 107.12 27.9008 105.335 28.285C103.733 28.6327 102.167 28.5046 100.674 27.8093C99.6179 27.3154 98.7985 26.5469 98.2158 25.5224C97.3965 24.077 97.2144 22.5036 97.3601 20.857C97.4511 19.869 97.706 18.936 98.1976 18.0761C99.0352 16.5941 100.273 15.6611 101.912 15.2586C103.405 14.8926 104.898 14.8926 106.337 15.4598C107.939 16.0819 108.977 17.2711 109.487 18.9177C109.578 19.2287 109.651 19.5214 109.723 19.8508Z" fill="black"/>
<path d="M69.6471 25.8883H69.9749C70.7032 25.8883 71.4497 25.8883 72.1781 25.8883C72.3237 25.8883 72.3966 25.87 72.3966 25.687C72.3966 23.0525 72.3966 20.4362 72.3966 17.8016C72.3966 17.637 72.3419 17.6004 72.1963 17.6004C71.4315 17.6004 70.685 17.6004 69.9202 17.6004H69.6471V15.222C69.7199 15.222 69.7928 15.2037 69.8656 15.2037C71.4862 15.2037 73.1067 15.2037 74.7454 15.2037C74.9457 15.2037 75.0186 15.2585 75.0186 15.4781C75.0368 16.027 75.0732 16.5575 75.0914 17.1064C75.0914 17.1613 75.1096 17.2345 75.1278 17.3442C75.2735 17.143 75.4009 16.9783 75.5284 16.8137C76.2931 15.8074 77.3492 15.3317 78.5874 15.2403C79.2429 15.1854 79.9166 15.2403 80.5903 15.2403V17.7833C80.4993 17.7833 80.4082 17.8016 80.3172 17.8016C79.6981 17.8016 79.079 17.8016 78.4599 17.8199C76.7666 17.8931 75.583 18.9177 75.2735 20.6009C75.2006 20.9668 75.1642 21.351 75.1642 21.7169C75.146 23.0159 75.1642 24.3332 75.146 25.6322C75.146 25.87 75.2189 25.9249 75.4374 25.9249C76.4752 25.9066 77.4949 25.9249 78.5328 25.9249H78.8423C78.8605 26.0164 78.8605 26.0896 78.8605 26.1444C78.8605 26.8031 78.8605 27.4434 78.8605 28.1021C78.8605 28.2484 78.8423 28.3399 78.6602 28.3399C75.6741 28.3399 72.6697 28.3399 69.6835 28.3399C69.6653 28.3399 69.6471 28.3216 69.6289 28.3216V25.8883H69.6471Z" fill="black"/>
<path d="M136.436 25.8883V28.285H126.221V25.8883H129.953V17.6187H126.221V15.222H132.721V25.8883H136.436Z" fill="black"/>
<path d="M131.337 13.1545C130.299 13.1545 129.498 12.3678 129.516 11.3067C129.516 10.3004 130.317 9.51372 131.337 9.51372C132.393 9.51372 133.212 10.3004 133.194 11.325C133.176 12.3678 132.393 13.1545 131.337 13.1545Z" fill="black"/>
<path d="M22.196 15.3683V11.8922H8.06641V26.0896H22.196V22.6317H11.526V15.3683H22.196Z" fill="black"/>
<path d="M2.76766 9.67838C4.18791 7.79393 6.02695 6.22051 8.1209 5.15936C10.3059 4.04333 12.673 3.47617 15.1493 3.47617C17.6256 3.47617 19.9927 4.04333 22.1777 5.15936C24.2717 6.23881 26.1107 7.79393 27.531 9.67838L27.5856 9.75156L30.2986 7.62927L30.244 7.55609C28.5142 5.26914 26.2564 3.36639 23.7254 2.0674C21.0306 0.695234 18.1537 0 15.1311 0C12.1267 0 9.23161 0.695233 6.5732 2.04911C4.02403 3.3481 1.76621 5.25084 0.0546249 7.5378L0 7.61098L2.71304 9.73327L2.76766 9.67838Z" fill="black"/>
<path d="M27.1665 28.7607C24.2168 32.4381 19.8286 34.5421 15.1491 34.5421C10.4695 34.5421 6.08132 32.4381 3.13157 28.7607L3.07695 28.6875L0.345703 30.8281L0.400328 30.9013C4.00557 35.4203 9.37702 38 15.1491 38C20.9211 38 26.2743 35.402 29.8978 30.9013L29.9524 30.8281L27.2394 28.7058L27.1665 28.7607Z" fill="black"/>
</g>
<defs>
<clipPath id="clip0_539_350">
<rect width="150" height="38" fill="white"/>
</clipPath>
</defs>
</svg>
