<svg width="150" height="37" viewBox="0 0 150 37" fill="none" xmlns="http://www.w3.org/2000/svg">
<g clip-path="url(#clip0_779_692)">
<path d="M135.208 3.37557C140.157 3.37557 144.544 5.75722 147.3 9.43284L150 7.4075C146.625 2.90674 141.263 0.0187531 135.208 0.0187531C129.152 0.0187531 123.791 2.92549 120.416 7.4075L123.116 9.43284C125.872 5.73847 130.259 3.37557 135.208 3.37557Z" fill="black"/>
<path d="M135.208 33.6244C130.259 33.6244 125.872 31.2428 123.116 27.5672L120.416 29.5925C123.791 34.0933 129.152 36.9812 135.208 36.9812C141.263 36.9812 146.625 34.0745 150 29.5925L147.3 27.5672C144.544 31.2428 140.157 33.6244 135.208 33.6244Z" fill="black"/>
<path d="M142.051 15.0213V11.6457H131.74H128.365V15.0213V21.9787V25.3355H131.74H142.051V21.9787H131.74V15.0213H142.051Z" fill="black"/>
<path d="M72.9274 22.8039C72.9274 26.742 71.6151 27.6422 68.8779 27.6422H67.4531V30.0801H70.3028C72.9462 30.0801 75.7771 28.261 75.7771 22.8226V12.077H72.9274V22.8039Z" fill="#010202"/>
<path d="M108.979 16.3903C108.848 16.1652 108.717 15.9402 108.548 15.7151C107.742 14.6275 106.561 13.8586 105.23 13.5585C105.174 13.5398 105.117 13.521 105.042 13.521L109.935 8.45767H106.617L100.749 14.5149V15.7151H103.805H103.824C105.567 15.9402 106.523 17.1779 106.88 18.6594C106.992 19.1282 107.011 19.5783 107.011 20.0659V22.8226H91.3003V18.6594C91.2815 17.8155 91.1316 16.9529 90.8503 16.0902C90.2879 14.3837 89.1443 13.1835 87.5133 12.4521C86.5946 12.077 85.6197 11.8895 84.6261 11.9083C83.7825 11.9083 82.9388 12.0395 82.1327 12.3208C80.5579 12.9209 79.3768 13.9524 78.6831 15.4901C77.7645 17.4967 77.7645 19.8033 78.6831 21.8099C79.4518 23.554 80.8203 24.6417 82.6576 25.1292C83.9137 25.4668 85.2448 25.4668 86.5196 25.148C87.1946 24.9792 87.7945 24.7354 88.3569 24.3979C88.0194 26.9858 86.7259 27.6422 84.3824 27.6422H82.9576V30.0801H85.8072C88.0007 30.0801 90.3442 28.8049 91.0566 25.2418H109.823V22.8038V20.0659C109.823 19.7846 109.804 19.4845 109.785 19.1845C109.748 18.1906 109.467 17.2342 108.979 16.3903ZM81.5515 21.3223C80.5954 19.7658 80.5766 17.1591 81.7952 15.6214C82.6576 14.5525 83.8012 14.1399 85.1323 14.3087C86.9883 14.5149 88.0007 15.8652 88.3194 17.4592C88.4131 17.853 88.4319 18.2656 88.4694 18.6781C88.4319 19.8596 88.1319 20.9285 87.3633 21.8474C85.9197 23.554 82.8451 23.4602 81.5515 21.3223Z" fill="#010202"/>
<path d="M69.291 22.8038V18.6406C69.291 18.3593 69.2723 18.0593 69.2535 17.7592C69.1785 16.7841 68.8786 15.8277 68.4099 14.965C67.6225 13.521 66.2539 12.4896 64.6603 12.1333C63.1605 11.7582 61.6607 11.7582 60.1984 12.3396C58.5674 12.9584 57.5362 14.1586 57.0113 15.8089C56.9176 16.109 56.8613 16.409 56.7676 16.7278H59.711L59.7297 16.6903C59.7485 16.6153 59.786 16.5403 59.8047 16.4653C60.2171 15.0963 61.3045 14.3087 62.7481 14.3087C62.9168 14.3087 63.0855 14.3274 63.273 14.3462C65.3353 14.6087 66.0477 16.2777 66.2914 17.2529C66.4039 17.703 66.4601 18.1718 66.4789 18.6406V22.8038H56.7676V25.2418H66.4789H69.3098V22.8038H69.291Z" fill="#010202"/>
<path d="M32.8842 7.23872H25.3477V9.65788H32.8842V7.23872Z" fill="#010202"/>
<path d="M51.0683 8.45767L45.2003 14.5149V15.7151H48.2561H48.2749C50.0184 15.9402 50.9746 17.1779 51.3308 18.6594C51.4432 19.1282 51.462 19.5783 51.462 20.0659V22.8226H35.7515V18.6594C35.7327 17.8155 35.5827 16.9529 35.3015 16.0902C34.7391 14.3837 33.5955 13.1835 31.9644 12.4521C31.0458 12.077 30.0709 11.8895 29.0773 11.9083C28.2337 11.9083 27.39 12.0395 26.5839 12.3208C25.0091 12.9209 23.828 13.9524 23.1343 15.4901C22.2157 17.4967 22.2157 19.8033 23.1343 21.8099C23.9029 23.554 25.2715 24.6417 27.1088 25.1292C28.3649 25.4668 29.696 25.4668 30.9708 25.148C31.6457 24.9792 32.2456 24.7354 32.8081 24.3979C32.4706 26.9858 31.177 27.6422 28.8336 27.6422H27.4088V30.0801H30.2584C32.4519 30.0801 34.7953 28.8049 35.5077 25.2418H54.2741V22.8038V20.0659C54.2741 19.7846 54.2554 19.4845 54.2366 19.1845C54.1617 18.2093 53.8617 17.2529 53.393 16.3903C53.2618 16.1652 53.1305 15.9402 52.9618 15.7151C52.1557 14.6275 50.9746 13.8586 49.6435 13.5585C49.5872 13.5398 49.531 13.521 49.456 13.521L54.3491 8.45767H51.0683ZM25.9839 21.3223C25.0278 19.7658 25.0091 17.1591 26.2277 15.6214C27.09 14.5525 28.2337 14.1399 29.5647 14.3087C31.4208 14.5149 32.4331 15.8652 32.7518 17.4592C32.8456 17.853 32.8643 18.2656 32.9018 18.6781C32.8643 19.8596 32.5644 20.9285 31.7957 21.8474C30.3521 23.554 27.2775 23.4602 25.9839 21.3223Z" fill="#010202"/>
<path d="M17.2478 22.8039H12.7672V14.4962H9.93626V21.0973C9.93626 21.5661 9.88002 22.035 9.74878 22.485C9.50506 23.4602 8.79265 25.1292 6.73041 25.3918C6.50544 25.4105 6.28047 25.4105 6.05549 25.3918C3.99325 25.1292 3.28084 23.4602 3.03712 22.485C2.92463 22.035 2.86839 21.5661 2.84964 21.0973V14.4962H0V21.0973C0 21.3786 0.0187477 21.6787 0.0374953 21.9787C0.0749906 22.5413 0.206224 23.1227 0.393701 23.6477C0.524934 24.0416 0.693663 24.4166 0.899888 24.7729C1.68729 26.2169 3.05587 27.2484 4.64942 27.6047H4.66817C5.79303 27.886 6.97413 27.886 8.09899 27.6047H8.11774C9.54256 27.2859 10.7799 26.4232 11.5861 25.2418H12.2047H12.7672H17.2478H20.0787V22.8039V14.4962H17.2478V22.8039Z" fill="#010202"/>
<path d="M18.0157 27.3046C17.9782 27.3046 17.9595 27.3046 17.922 27.3046C16.9283 27.3234 16.1222 28.1485 16.1409 29.1424C16.1409 30.1363 16.9283 30.9427 17.922 30.9615C18.9343 30.9802 19.7592 30.1926 19.7967 29.1799C19.8342 28.1673 19.0281 27.3234 18.0157 27.3046Z" fill="#010202"/>
<path d="M6.33604 12.4333C6.37354 12.4333 6.39229 12.4333 6.42978 12.4333C7.42341 12.4146 8.22956 11.5895 8.21081 10.5955C8.21081 9.60162 7.42341 8.79523 6.42978 8.77648C5.41741 8.75773 4.59251 9.54536 4.55502 10.558C4.53627 11.5707 5.32367 12.3958 6.33604 12.4333Z" fill="#010202"/>
<path d="M14.0802 27.3046C14.0427 27.3046 14.0239 27.3046 13.9864 27.3046C12.9928 27.3234 12.1867 28.1485 12.2054 29.1424C12.2054 30.1363 12.9928 30.9427 13.9864 30.9615C14.9988 30.9802 15.8237 30.1926 15.8612 29.1799C15.8799 28.1673 15.0925 27.3234 14.0802 27.3046Z" fill="#010202"/>
</g>
<defs>
<clipPath id="clip0_779_692">
<rect width="150" height="37" fill="white"/>
</clipPath>
</defs>
</svg>
