<svg xmlns="http://www.w3.org/2000/svg">
    <symbol id="arrow" viewBox="0 0 26 10" xmlns="http://www.w3.org/2000/svg">
        <path d="M0.575735 4.57573C0.341421 4.81005 0.341421 5.18995 0.575735 5.42426L4.39411 9.24264C4.62843 9.47695 5.00833 9.47695 5.24264 9.24264C5.47696 9.00832 5.47696 8.62843 5.24264 8.39411L1.84853 5L5.24264 1.60589C5.47696 1.37157 5.47696 0.991672 5.24264 0.757357C5.00833 0.523043 4.62843 0.523043 4.39411 0.757357L0.575735 4.57573ZM26 4.4L1 4.4L1 5.6L26 5.6L26 4.4Z" />
    </symbol>
    <symbol id="facebook" viewBox="0 0 53 53" xmlns="http://www.w3.org/2000/svg">
        <path d="M22.1011 46V28.5566H16V21.625H22.1011V16.1635C22.1011 10.2297 25.8875 7 31.4159 7C34.0648 7 36.3398 7.19043 37 7.27422V13.4746H33.1659C30.1591 13.4746 29.5784 14.8457 29.5784 16.849V21.625H36.3636L35.433 28.5566H29.5784V46" />
    </symbol>
    <symbol id="instagram" viewBox="0 0 53 53" xmlns="http://www.w3.org/2000/svg">
            <g>
            <path d="M26.5 8.84438C32.2472 8.84438 32.9262 8.84438 35.1953 8.97688C36.5587 8.99497 37.9088 9.24707 39.1869 9.72219C40.117 10.0799 40.9618 10.6288 41.6665 11.3335C42.3712 12.0382 42.9201 12.883 43.2778 13.8131C43.7529 15.0912 44.005 16.4413 44.0231 17.8047C44.1225 20.0738 44.1556 20.7528 44.1556 26.5C44.1556 32.2472 44.1556 32.9262 44.0231 35.1953C44.005 36.5587 43.7529 37.9088 43.2778 39.1869C42.9201 40.117 42.3712 40.9618 41.6665 41.6665C40.9618 42.3712 40.117 42.9201 39.1869 43.2778C37.9088 43.7529 36.5587 44.005 35.1953 44.0231C32.9262 44.1225 32.2472 44.1556 26.5 44.1556C20.7528 44.1556 20.0738 44.1556 17.8047 44.0231C16.4413 44.005 15.0912 43.7529 13.8131 43.2778C12.883 42.9201 12.0382 42.3712 11.3335 41.6665C10.6288 40.9618 10.0799 40.117 9.72219 39.1869C9.24707 37.9088 8.99497 36.5587 8.97688 35.1953C8.8775 32.9262 8.84438 32.2472 8.84438 26.5C8.84438 20.7528 8.84438 20.0738 8.97688 17.8047C8.99497 16.4413 9.24707 15.0912 9.72219 13.8131C10.0781 12.8846 10.6245 12.0408 11.3262 11.3362C12.0279 10.6317 12.8695 10.0818 13.7966 9.72219C15.0746 9.24707 16.4247 8.99497 17.7881 8.97688C20.0572 8.8775 20.7362 8.84438 26.4834 8.84438H26.5ZM26.5 4.96875C20.6534 4.96875 19.875 4.96875 17.6225 5.10125C15.8342 5.1339 14.0645 5.46992 12.3888 6.095C10.9595 6.64843 9.66154 7.49406 8.5778 8.5778C7.49406 9.66154 6.64843 10.9595 6.095 12.3888C5.46992 14.0645 5.1339 15.8342 5.10125 17.6225C4.96875 19.875 4.96875 20.6534 4.96875 26.5C4.96875 32.3466 4.96875 33.125 5.10125 35.3775C5.1339 37.1658 5.46992 38.9355 6.095 40.6113C6.64843 42.0405 7.49406 43.3385 8.5778 44.4222C9.66154 45.5059 10.9595 46.3516 12.3888 46.905C14.0645 47.5301 15.8342 47.8661 17.6225 47.8988C19.875 48.0313 20.6534 48.0312 26.5 48.0312C32.3466 48.0312 33.125 48.0313 35.3775 47.8988C37.1658 47.8661 38.9355 47.5301 40.6113 46.905C42.0405 46.3516 43.3385 45.5059 44.4222 44.4222C45.5059 43.3385 46.3516 42.0405 46.905 40.6113C47.5301 38.9355 47.8661 37.1658 47.8988 35.3775C48.0313 33.125 48.0312 32.3466 48.0312 26.5C48.0312 20.6534 48.0313 19.875 47.8988 17.6225C47.8661 15.8342 47.5301 14.0645 46.905 12.3888C46.3516 10.9595 45.5059 9.66154 44.4222 8.5778C43.3385 7.49406 42.0405 6.64843 40.6113 6.095C38.9355 5.46992 37.1658 5.1339 35.3775 5.10125C33.125 4.96875 32.3466 4.96875 26.5 4.96875Z" />
            <path d="M26.5013 15.436C24.3131 15.436 22.174 16.0849 20.3546 17.3006C18.5351 18.5163 17.1171 20.2442 16.2797 22.2659C15.4423 24.2875 15.2232 26.5121 15.6501 28.6582C16.077 30.8044 17.1307 32.7757 18.678 34.323C20.2253 35.8703 22.1967 36.9241 24.3428 37.3509C26.489 37.7778 28.7135 37.5587 30.7352 36.7214C32.7568 35.884 34.4847 34.4659 35.7004 32.6465C36.9161 30.8271 37.565 28.688 37.565 26.4998C37.565 23.5655 36.3994 20.7514 34.3245 18.6765C32.2497 16.6017 29.4355 15.436 26.5013 15.436V15.436ZM26.5013 33.6548C25.0821 33.6548 23.6949 33.2338 22.5152 32.445C21.3355 31.6562 20.4163 30.5352 19.874 29.2238C19.3317 27.9124 19.1907 26.4696 19.4687 25.078C19.7468 23.6864 20.4315 22.4086 21.4361 21.4063C22.4407 20.404 23.7201 19.7223 25.1123 19.4474C26.5046 19.1726 27.947 19.317 29.2572 19.8623C30.5673 20.4077 31.6862 21.3294 32.4723 22.511C33.2583 23.6925 33.6761 25.0807 33.6728 26.4998C33.6728 28.4018 32.9172 30.2259 31.5723 31.5708C30.2274 32.9158 28.4033 33.6713 26.5013 33.6713" />
            <path d="M40.5777 15.0056C40.5777 15.5166 40.4261 16.0162 40.1422 16.4411C39.8583 16.866 39.4548 17.1971 38.9827 17.3927C38.5105 17.5883 37.991 17.6394 37.4898 17.5397C36.9886 17.44 36.5283 17.194 36.1669 16.8326C35.8056 16.4713 35.5595 16.0109 35.4598 15.5097C35.3601 15.0085 35.4113 14.489 35.6068 14.0169C35.8024 13.5447 36.1336 13.1412 36.5585 12.8573C36.9833 12.5734 37.4829 12.4219 37.9939 12.4219C38.6792 12.4219 39.3363 12.6941 39.8209 13.1786C40.3054 13.6632 40.5777 14.3204 40.5777 15.0056Z" />
        </g>
    </symbol>
    <symbol id="linkedin" viewBox="0 0 53 53" xmlns="http://www.w3.org/2000/svg">
        <g>
            <path d="M9.52941 20.9118H16.9412V45H9.52941V20.9118ZM13.2353 9C15.6176 9 17.4706 10.8529 17.4706 13.2353C17.4706 15.6176 15.6176 17.4706 13.2353 17.4706C10.8529 17.7353 9 15.6176 9 13.2353C9 10.8529 10.8529 9 13.2353 9Z" />
            <path d="M21.7051 20.9117H28.8521V24.0882C30.1757 22.2353 32.558 20.3823 36.2639 20.3823C43.9404 20.3823 45.2639 25.4117 45.2639 31.7647V45H37.8521V33.3529C37.8521 30.4411 37.8521 27 33.8815 27C29.911 27 29.3815 29.9117 29.3815 33.0882V45H21.7051V20.9117Z" />
        </g>
    </symbol>
    <symbol id="twitter" viewBox="0 0 53 53" xmlns="http://www.w3.org/2000/svg">
        <path d="M41.1968 18.7258C41.2203 19.0648 41.2203 19.4039 41.2203 19.743C41.2203 30.0843 33.5902 42 19.6447 42C15.3484 42 11.3573 40.7163 8 38.4883C8.61043 38.5609 9.1973 38.5852 9.83122 38.5852C13.3762 38.5852 16.6396 37.35 19.2456 35.243C15.9118 35.1703 13.118 32.918 12.1554 29.818C12.625 29.8906 13.0945 29.939 13.5876 29.939C14.2684 29.939 14.9493 29.8421 15.5832 29.6727C12.1085 28.946 9.50248 25.7976 9.50248 21.9953V21.8985C10.512 22.4797 11.6859 22.843 12.9301 22.8914C10.8876 21.4867 9.54945 19.089 9.54945 16.3765C9.54945 14.9234 9.92502 13.5914 10.5824 12.4289C14.3153 17.1757 19.9264 20.2757 26.2182 20.6148C26.1009 20.0336 26.0304 19.4281 26.0304 18.8227C26.0304 14.5117 29.4112 11 33.6136 11C35.7969 11 37.769 11.9445 39.1542 13.4703C40.868 13.1313 42.5114 12.4773 43.967 11.5813C43.4035 13.3977 42.2062 14.9235 40.6333 15.8922C42.1593 15.7227 43.6384 15.2867 45 14.6813C43.9672 16.2312 42.6759 17.6116 41.1968 18.7258V18.7258Z" />
    </symbol>
    <symbol id="youtube" viewBox="0 0 53 53" xmlns="http://www.w3.org/2000/svg">
        <g>
            <path d="M51 20.3125C51 14.7143 46.2 10 40.5 10H13.5C7.8 10 3 14.7143 3 20.3125V32.6875C3 38.2857 7.8 43 13.5 43H40.5C46.2 43 51 38.2857 51 32.6875V20.3125ZM35.1 27.3839L23.1 33.2768C22.5 33.5714 21 33.2768 21 32.6875V20.6071C21 20.0179 22.5 19.7232 23.1 20.0179L34.8 26.2054C35.1 26.5 35.7 27.0893 35.1 27.3839Z" />
        </g>
    </symbol>
</svg>
