<svg xmlns="http://www.w3.org/2000/svg" viewBox="0 0 549 400" enable-background="new 0 0 549 400" xml:space="preserve"><path fill-rule="evenodd" clip-rule="evenodd" fill="#2B6CE6" d="M392 400H103V273h289z"/><path fill-rule="evenodd" clip-rule="evenodd" fill="#E7A600" d="m276 0 116 116H276z"/><path fill-rule="evenodd" clip-rule="evenodd" fill="#80BBE6" d="M549 400H392V273h157z"/><g transform="matrix(-1 0 0 1 549 115)"><defs><filter id="fc-a" filterUnits="userSpaceOnUse" x=".3" y=".5" width="0" height="0"><feColorMatrix values="1 0 0 0 0 0 1 0 0 0 0 0 1 0 0 0 0 0 1 0"/></filter></defs><mask maskUnits="userSpaceOnUse" x=".3" y=".5" width="0" height="0" id="fc-b"><g filter="url(#fc-a)"><path fill-rule="evenodd" clip-rule="evenodd" fill="#FFF" d="M.2 0h.6v1H.2z"/></g></mask><path mask="url(#fc-b)" fill="none" d="M.3.5"/></g><path fill-rule="evenodd" clip-rule="evenodd" fill="#80BBE6" d="M549 116 392 273V116z"/><g transform="matrix(-1 0 0 1 103.541 169.356)"><defs><filter id="fc-c" filterUnits="userSpaceOnUse"><feColorMatrix values="1 0 0 0 0 0 1 0 0 0 0 0 1 0 0 0 0 0 1 0"/></filter></defs><mask maskUnits="userSpaceOnUse" id="fc-d"><g filter="url(#fc-c)"><path fill-rule="evenodd" clip-rule="evenodd" fill="#FFF" d="M0 0h103.5v103.7H0z"/></g></mask><path mask="url(#fc-d)" fill-rule="evenodd" clip-rule="evenodd" fill="#DA415A" d="M0 0c57.2 0 103.5 46.4 103.5 103.6v.1H0V0z"/></g><path fill-rule="evenodd" clip-rule="evenodd" fill="#2B6CE6" d="M474.7 329.1c0 10.3 8.3 18.7 18.6 18.7 10.4-.1 18.7-8.4 18.7-18.7s-8.3-18.7-18.6-18.7-18.7 8.4-18.7 18.7"/><path fill-rule="evenodd" clip-rule="evenodd" fill="#FFF" d="M493.4 310.4c10.3 0 18.6 8.4 18.6 18.7 0 10.3-8.3 18.7-18.6 18.7s-18.6-8.4-18.6-18.7c-.1-10.3 8.3-18.7 18.6-18.7m0 7.9c-5.9 0-10.7 4.8-10.7 10.7 0 5.9 4.8 10.7 10.7 10.7s10.7-4.7 10.7-10.6c0-6-4.8-10.8-10.7-10.8"/><path fill-rule="evenodd" clip-rule="evenodd" fill="#2B6CE6" d="M427.8 329.1c0 10.3 8.3 18.7 18.6 18.7s18.6-8.4 18.6-18.7-8.3-18.7-18.6-18.7c-10.2 0-18.6 8.4-18.6 18.7"/><path fill-rule="evenodd" clip-rule="evenodd" fill="#FFF" d="M446.5 310.4c10.3 0 18.6 8.4 18.6 18.7 0 10.3-8.3 18.7-18.6 18.7s-18.6-8.4-18.6-18.7c-.1-10.3 8.3-18.7 18.6-18.7m0 7.9c-5.9 0-10.7 4.8-10.7 10.7 0 5.9 4.8 10.7 10.7 10.7s10.7-4.8 10.7-10.7c0-5.9-4.8-10.7-10.7-10.7"/><path fill-rule="evenodd" clip-rule="evenodd" fill="#2B6CE6" d="m494.6 399.8.3-73h-2.8l-.3 73z"/><path fill-rule="evenodd" clip-rule="evenodd" fill="#2B6CE6" d="m447.8 399.8.2-73h-2.8l-.3 73z"/><path fill-rule="evenodd" clip-rule="evenodd" fill="#FFF" d="M472.2 134.8c0 1.4-1.1 2.5-2.5 2.5s-2.5-1.1-2.5-2.5 1.1-2.5 2.5-2.5c1.4.1 2.5 1.2 2.5 2.5m-9.3 0c0 3.8 3.1 6.8 6.8 6.8 3.8 0 6.8-3.1 6.8-6.8s-2.9-6.8-6.7-6.8c-3.8 0-6.9 3.1-6.9 6.8"/><path fill-rule="evenodd" clip-rule="evenodd" fill="#FFF" d="M414.7 201.7c0 1.4-1.1 2.5-2.5 2.5s-2.5-1.1-2.5-2.5 1.1-2.5 2.5-2.5c1.4.1 2.5 1.2 2.5 2.5m-9.3 0c0 3.8 3.1 6.8 6.8 6.8 3.8 0 6.8-3.1 6.8-6.8 0-3.8-3.1-6.8-6.8-6.8-3.7 0-6.8 3-6.8 6.8"/><path fill-rule="evenodd" clip-rule="evenodd" fill="#FFF" d="M409.3 132.9v64.4h4.4v-60h51.4v-4.4z"/><path fill-rule="evenodd" clip-rule="evenodd" fill="#80BBE6" d="M255.1 334.3v7c0 2.6 2.1 4.8 4.8 4.8h31.3c1.2 0 2.2-1 2.2-2.2v-27.6c0-1.2-1-2.2-2.2-2.2h-31.3c-2.6 0-4.8 2.1-4.8 4.8v6.4"/><path fill-rule="evenodd" clip-rule="evenodd" fill="#80BBE6" d="M86.4 233.5v-14.2c0-3 2.5-5.5 5.5-5.5h11.4V239H91.9c-3.1 0-5.5-2.5-5.5-5.5"/><path fill-rule="evenodd" clip-rule="evenodd" fill="#FFF" d="M86.4 233.5v-14.2c0-3 2.5-5.5 5.5-5.5h18.3V239H91.9c-3.1 0-5.5-2.5-5.5-5.5"/><path fill-rule="evenodd" clip-rule="evenodd" fill="#80BBE6" d="M258.8 328.4h-67.2V315c0-1.5-1.3-2.8-2.8-2.8H75.2v-82.4h12v-5.6H72.4c-1.5 0-2.8 1.3-2.8 2.8v88c0 1.5 1.3 2.8 2.8 2.8H186v13.4c0 1.5 1.3 2.8 2.8 2.8h70"/><path fill-rule="evenodd" clip-rule="evenodd" fill="#FFF" d="M314 340v-19.8c0-1.1-.9-2-2-2h-18.6V342H312c1.1 0 2-.9 2-2"/><path fill-rule="evenodd" clip-rule="evenodd" fill="#FFF" d="M75.2 273.1v-43.3h12v-5.6H72.4c-1.5 0-2.8 1.3-2.8 2.8v46.1"/><path fill-rule="evenodd" clip-rule="evenodd" fill="#80BBE6" d="m266 170.8-23.5 4.1-50.8-12.9.3 28.9 49.6-10.6 24.2 3.7z"/><path fill-rule="evenodd" clip-rule="evenodd" fill="#2B6CE6" d="M282.8 199.9h-64.7v14.3l51.6 12.7z"/><path fill-rule="evenodd" clip-rule="evenodd" fill="#FFF" d="M159.9 199.9h58.2v14.3l-36-10.7-12.4 3.5z"/><path fill-rule="evenodd" clip-rule="evenodd" fill="#FFF" d="m263.7 240.9-21.3-48.4v-21.1l16.6 7.1-8.6 10.1 23.9 28.8z"/><path fill-rule="evenodd" clip-rule="evenodd" fill="#FFF" d="M293.7 183.9c0-6.9-5.6-12.5-12.5-12.5s-12.5 5.6-12.5 12.5 5.6 12.5 12.5 12.5c7-.1 12.5-5.6 12.5-12.5"/><path fill-rule="evenodd" clip-rule="evenodd" fill="#2B6CE6" d="M282.8 199.9h10.9c13.4 0 25.8 7.4 32.1 19.3 12 22.6 30 57 28.6 57H300l-9.5-41.6-11.5 12.1c-2.7 2.9-7 3.6-10.5 1.8-4.4-2.3-6.1-7.7-3.8-12.1l5-9.6 13.1-26.9z"/></svg>