<svg xmlns="http://www.w3.org/2000/svg" xmlns:xlink="http://www.w3.org/1999/xlink" viewBox="0 0 810 758" xml:space="preserve"><path fill="#DA415A" d="M0 577.8h810V758H0z"/><defs><path id="hero-bg-a" d="M562 365.5h-80.8l-165.1.1 59.5 178.5 11.8 34.4 245.5-.5z"/></defs><clipPath id="hero-bg-b"><use xlink:href="#hero-bg-a" overflow="visible"/></clipPath><g clip-path="url(#hero-bg-b)"><path fill="#353535" d="M632.9 365.5H316.1v213h316.8z"/></g><defs><path id="hero-bg-c" d="M111.3 384.7 99.5 405l29.9 58.1 22.6 76.2h76.2v-19.4c0-17.4-3-34.6-8.9-51l-.4-1.1c-8.2-22.4-28-38.5-51.5-42l-18.2-2.7-37.9-38.4z"/></defs><clipPath id="hero-bg-d"><use xlink:href="#hero-bg-c" overflow="visible"/></clipPath><g clip-path="url(#hero-bg-d)"><path fill="#2B6CE6" d="M228.1 384.7H99.5v154.6h128.6z"/></g><defs><path id="hero-bg-e" d="M177.9 388.1c-8.4 0-15.2 6.8-15.2 15.2s6.8 15.2 15.2 15.2c8.4 0 15.2-6.8 15.2-15.2s-6.8-15.2-15.2-15.2z"/></defs><clipPath id="hero-bg-f"><use xlink:href="#hero-bg-e" overflow="visible"/></clipPath><g clip-path="url(#hero-bg-f)"><path fill="#393938" d="M193.1 388.1h-30.5v30.5h30.5z"/></g><defs><path id="hero-bg-g" d="m133.1 309.4-5.4 28.8-35.5 35.5c-4.6 4.6-5.4 11.8-1.8 17.3l9.1 14 34.4-62.6 24.8-7.9-5.1-3.4h-11.8l12.1-15.2-7.9 4.5 2.5-8.5-7.9-1.4-5.6 9.3-1.9-10.4z"/></defs><clipPath id="hero-bg-h"><use xlink:href="#hero-bg-g" overflow="visible"/></clipPath><g clip-path="url(#hero-bg-h)"><path fill="#353535" d="M158.7 309.4H88.1V405h70.6z"/></g><defs><circle id="hero-bg-i" cx="177.9" cy="403.3" r="16.7"/></defs><clipPath id="hero-bg-j"><use xlink:href="#hero-bg-i" overflow="visible"/></clipPath><g clip-path="url(#hero-bg-j)"><path fill="#393938" d="M194.6 386.6h-33.4V420h33.4z"/></g><defs><path id="hero-bg-k" d="M179.4 490.1c-11.5 0-22.8 2.3-33.4 6.7-10.6 4.4-20.2 10.9-28.3 19-8.1 8.1-14.5 17.8-18.9 28.4-4.4 10.6-6.6 22-6.6 33.5h174.7c0-11.5-2.3-22.9-6.6-33.5-4.4-10.6-10.8-20.3-18.9-28.4s-17.7-14.6-28.3-19c-10.9-4.4-22.3-6.7-33.7-6.7z"/></defs><clipPath id="hero-bg-l"><use xlink:href="#hero-bg-k" overflow="visible"/></clipPath><g clip-path="url(#hero-bg-l)"><path fill="#E7A600" d="M266.7 490.1H92v87.6h174.7z"/></g><defs><path id="hero-bg-m" d="m218 494.6-12.9 9.2 14.9.2 3 13.6 2.3-9.3 1.6 10.1 6.5-.8 3.2-21.1z"/></defs><clipPath id="hero-bg-n"><use xlink:href="#hero-bg-m" overflow="visible"/></clipPath><g clip-path="url(#hero-bg-n)"><path fill="#353535" d="M236.6 494.6h-31.5v23.8h31.5z"/></g><defs><path id="hero-bg-o" d="m456.2 448.1 10.2 44.1c12.2 0 19.2-9.9 15.6-22.1-3.4-11.4-14.8-20.8-26.2-22h.4z"/></defs><clipPath id="hero-bg-p"><use xlink:href="#hero-bg-o" overflow="visible"/></clipPath><g clip-path="url(#hero-bg-p)"><path fill="#FFF" d="M482.9 448.1h-27.1v44.1h27.1z"/></g><defs><circle id="hero-bg-q" cx="593.7" cy="684" r="29.2"/></defs><clipPath id="hero-bg-r"><use xlink:href="#hero-bg-q" overflow="visible"/></clipPath><g clip-path="url(#hero-bg-r)"><path fill="#393938" d="M622.9 654.8h-58.4v58.4h58.4z"/></g><defs><path id="hero-bg-s" d="M593.7 654.8c-16.1 0-29.2 13.1-29.2 29.2s13.1 29.2 29.2 29.2 29.2-13.1 29.2-29.2-13.1-29.2-29.2-29.2zm0 12.4c9.3 0 16.8 7.5 16.8 16.8s-7.5 16.8-16.8 16.8-16.8-7.5-16.8-16.8 7.5-16.8 16.8-16.8z"/></defs><clipPath id="hero-bg-t"><use xlink:href="#hero-bg-s" overflow="visible"/></clipPath><g clip-path="url(#hero-bg-t)"><path fill="#FFF" d="M622.9 654.8h-58.4v58.4h58.4z"/></g><defs><circle id="hero-bg-u" cx="667.1" cy="684" r="29.2"/></defs><clipPath id="hero-bg-v"><use xlink:href="#hero-bg-u" overflow="visible"/></clipPath><g clip-path="url(#hero-bg-v)"><path fill="#393938" d="M696.3 654.8h-58.4v58.4h58.4z"/></g><defs><path id="hero-bg-w" d="M667.1 654.8c-16.1 0-29.2 13.1-29.2 29.2s13.1 29.2 29.2 29.2 29.2-13.1 29.2-29.2-13.1-29.2-29.2-29.2zm0 12.4c9.3 0 16.8 7.5 16.8 16.8s-7.5 16.8-16.8 16.8-16.8-7.5-16.8-16.8 7.6-16.8 16.8-16.8z"/></defs><clipPath id="hero-bg-x"><use xlink:href="#hero-bg-w" overflow="visible"/></clipPath><g clip-path="url(#hero-bg-x)"><path fill="#FFF" d="M696.3 654.8h-58.4v58.4h58.4z"/></g><g><defs><circle id="hero-bg-y" cx="740.6" cy="684" r="29.2"/></defs><clipPath id="hero-bg-z"><use xlink:href="#hero-bg-y" overflow="visible"/></clipPath><g clip-path="url(#hero-bg-z)"><path fill="#393938" d="M769.8 654.8h-58.4v58.4h58.4z"/></g></g><g><defs><path id="hero-bg-A" d="M740.6 654.8c-16.1 0-29.2 13.1-29.2 29.2s13.1 29.2 29.2 29.2 29.2-13.1 29.2-29.2-13.1-29.2-29.2-29.2zm0 12.4c9.3 0 16.8 7.5 16.8 16.8s-7.5 16.8-16.8 16.8-16.8-7.5-16.8-16.8c-.1-9.3 7.5-16.8 16.8-16.8z"/></defs><clipPath id="hero-bg-B"><use xlink:href="#hero-bg-A" overflow="visible"/></clipPath><g clip-path="url(#hero-bg-B)"><path fill="#FFF" d="M769.8 654.8h-58.4v58.4h58.4z"/></g></g><g><defs><path id="hero-bg-C" transform="rotate(-89.801 593.874 632.585)" d="M538.9 630.4h109.9v4.4H538.9z"/></defs><clipPath id="hero-bg-D"><use xlink:href="#hero-bg-C" overflow="visible"/></clipPath><g clip-path="url(#hero-bg-D)"><path fill="#393938" d="M596.3 577.6h-4.8v109.9h4.8z"/></g></g><g><defs><path id="hero-bg-E" transform="rotate(-89.801 667.119 632.585)" d="M612.2 630.4h109.9v4.4H612.2z"/></defs><clipPath id="hero-bg-F"><use xlink:href="#hero-bg-E" overflow="visible"/></clipPath><g clip-path="url(#hero-bg-F)"><path fill="#393938" d="M669.5 577.6h-4.8v109.9h4.8z"/></g></g><g><defs><path id="hero-bg-G" transform="rotate(-89.801 740.555 632.585)" d="M685.6 630.4h109.9v4.4H685.6z"/></defs><clipPath id="hero-bg-H"><use xlink:href="#hero-bg-G" overflow="visible"/></clipPath><g clip-path="url(#hero-bg-H)"><path fill="#393938" d="M743 577.6h-4.8v109.9h4.8z"/></g></g><g><defs><path id="hero-bg-I" d="M12.7 654.2H363v56.7H12.7z"/></defs><clipPath id="hero-bg-J"><use xlink:href="#hero-bg-I" overflow="visible"/></clipPath><g clip-path="url(#hero-bg-J)"><path fill="#FFF" d="M363 654.2H12.7v56.7H363z"/></g></g><path fill="#353535" d="M0 577.7h387.4v112.4H0z"/><g><defs><path id="hero-bg-K" d="M28.8 591.3h42.1v21.8H28.8z"/></defs><clipPath id="hero-bg-L"><use xlink:href="#hero-bg-K" overflow="visible"/></clipPath><g clip-path="url(#hero-bg-L)"><path fill="#FFF" d="M70.9 591.2H28.8v21.9h42.1z"/></g></g><g><defs><path id="hero-bg-M" d="M108.4 591.3h42.1v21.8h-42.1z"/></defs><clipPath id="hero-bg-N"><use xlink:href="#hero-bg-M" overflow="visible"/></clipPath><g clip-path="url(#hero-bg-N)"><path fill="#FFF" d="M150.5 591.3h-42.1v21.8h42.1z"/></g></g><g><defs><path id="hero-bg-O" d="M162.7 591.3h42.1v21.8h-42.1z"/></defs><clipPath id="hero-bg-P"><use xlink:href="#hero-bg-O" overflow="visible"/></clipPath><g clip-path="url(#hero-bg-P)"><path fill="#FFF" d="M204.8 591.3h-42.1v21.8h42.1z"/></g></g><g><defs><path id="hero-bg-Q" d="M162.7 636h9.6v21.8h-9.6z"/></defs><clipPath id="hero-bg-R"><use xlink:href="#hero-bg-Q" overflow="visible"/></clipPath><g clip-path="url(#hero-bg-R)"><path fill="#FFF" d="M172.3 636h-9.6v21.8h9.6z"/></g></g><g><defs><path id="hero-bg-S" d="M178.4 636h9.6v21.8h-9.6z"/></defs><clipPath id="hero-bg-T"><use xlink:href="#hero-bg-S" overflow="visible"/></clipPath><g clip-path="url(#hero-bg-T)"><path fill="#FFF" d="M188 636h-9.6v21.8h9.6z"/></g></g><g><defs><path id="hero-bg-U" d="M125.1 636h9.6v21.8h-9.6z"/></defs><clipPath id="hero-bg-V"><use xlink:href="#hero-bg-U" overflow="visible"/></clipPath><g clip-path="url(#hero-bg-V)"><path fill="#FFF" d="M134.7 636h-9.6v21.8h9.6z"/></g></g><g><defs><path id="hero-bg-W" d="M140.9 636h9.6v21.8h-9.6z"/></defs><clipPath id="hero-bg-X"><use xlink:href="#hero-bg-W" overflow="visible"/></clipPath><g clip-path="url(#hero-bg-X)"><path fill="#FFF" d="M150.5 636h-9.7v21.8h9.7z"/></g></g><g><defs><path id="hero-bg-Y" d="M329.5 636h9.6v21.8h-9.6z"/></defs><clipPath id="hero-bg-Z"><use xlink:href="#hero-bg-Y" overflow="visible"/></clipPath><g clip-path="url(#hero-bg-Z)"><path fill="#FFF" d="M339.1 636h-9.6v21.9h9.6z"/></g></g><g><defs><path id="hero-bg-aa" d="M345.2 636h9.6v21.8h-9.6z"/></defs><clipPath id="hero-bg-ab"><use xlink:href="#hero-bg-aa" overflow="visible"/></clipPath><g clip-path="url(#hero-bg-ab)"><path fill="#FFF" d="M354.9 636h-9.7v21.9h9.7z"/></g></g><g><defs><path id="hero-bg-ac" d="M18.9 674.4c-2.3 0-4.2 1.9-4.2 4.2 0 2.3 1.9 4.2 4.2 4.2 2.3 0 4.2-1.9 4.2-4.2 0-2.3-1.9-4.2-4.2-4.2z"/></defs><clipPath id="hero-bg-ad"><use xlink:href="#hero-bg-ac" overflow="visible"/></clipPath><g clip-path="url(#hero-bg-ad)"><path fill="#FFF" d="M23.1 674.4h-8.3v8.3h8.3z"/></g></g><g><defs><path id="hero-bg-ae" d="M218 674.5c-2.3 0-4.2 1.9-4.2 4.2 0 2.3 1.9 4.2 4.2 4.2 2.3 0 4.2-1.9 4.2-4.2 0-2.4-1.9-4.2-4.2-4.2z"/></defs><clipPath id="hero-bg-af"><use xlink:href="#hero-bg-ae" overflow="visible"/></clipPath><g clip-path="url(#hero-bg-af)"><path fill="#FFF" d="M222.2 674.5h-8.3v8.3h8.3z"/></g></g><g><defs><path id="hero-bg-ag" d="M373.4 674.5c-2.3 0-4.2 1.9-4.2 4.2 0 2.3 1.9 4.2 4.2 4.2 2.3 0 4.2-1.9 4.2-4.2 0-2.3-1.9-4.2-4.2-4.2z"/></defs><clipPath id="hero-bg-ah"><use xlink:href="#hero-bg-ag" overflow="visible"/></clipPath><g clip-path="url(#hero-bg-ah)"><path fill="#FFF" d="M377.6 674.5h-8.3v8.3h8.3z"/></g></g><path fill="#353535" d="M604.3 549.2H810V578H604.3z"/><g><defs><path id="hero-bg-ai" d="M810 88v269.2L540.8 88z"/></defs><clipPath id="hero-bg-aj"><use xlink:href="#hero-bg-ai" overflow="visible"/></clipPath><g clip-path="url(#hero-bg-aj)"><path fill="#80BBE8" d="M540.8 88H810v269.2H540.8z"/></g></g><g><g transform="translate(131.317 25.74)"><defs><path id="hero-bg-ak" d="M549.4 88c5.9 0 10.7 4.8 10.7 10.7s-4.8 10.7-10.7 10.7-10.7-4.8-10.7-10.7S543.5 88 549.4 88zm0 6.8c-2.1 0-3.8 1.7-3.8 3.8 0 2.1 1.7 3.8 3.8 3.8s3.8-1.7 3.8-3.8c0-2-1.7-3.8-3.8-3.8z"/></defs><clipPath id="hero-bg-al"><use xlink:href="#hero-bg-ak" overflow="visible"/></clipPath><g clip-path="url(#hero-bg-al)"><path fill="#FFF" d="M538.7 88h21.4v21.4h-21.4z"/></g></g></g><g><g transform="translate(221.16 130.128)"><defs><path id="hero-bg-am" d="M551.5 88c5.9 0 10.7 4.8 10.7 10.7s-4.8 10.7-10.7 10.7c-5.9 0-10.7-4.8-10.7-10.7S545.6 88 551.5 88zm0 6.8c-2.1 0-3.8 1.7-3.8 3.8 0 2.1 1.7 3.8 3.8 3.8 2.1 0 3.8-1.7 3.8-3.8 0-2-1.7-3.8-3.8-3.8z"/></defs><clipPath id="hero-bg-an"><use xlink:href="#hero-bg-am" overflow="visible"/></clipPath><g clip-path="url(#hero-bg-an)"><path fill="#FFF" d="M540.8 88h21.4v21.4h-21.4z"/></g></g></g><g><g transform="translate(149.27 33.442)"><defs><path id="hero-bg-ao" d="M628.1 88v100.5h-6.9V94.8h-80.4V88z"/></defs><clipPath id="hero-bg-ap"><use xlink:href="#hero-bg-ao" overflow="visible"/></clipPath><g clip-path="url(#hero-bg-ap)"><path fill="#FFF" d="M540.8 88h87.3v100.5h-87.3z"/></g></g></g></svg>