<svg xmlns="http://www.w3.org/2000/svg" viewBox="0 0 1075.8 487.3" xml:space="preserve"><path fill-rule="evenodd" clip-rule="evenodd" fill="#80BCE8" d="M463.8 487.3H264.5v-144h199.3v144z"/><path fill-rule="evenodd" clip-rule="evenodd" fill="#DA415A" d="M85.8 487.3H0v-144h85.8v144z"/><path fill-rule="evenodd" clip-rule="evenodd" fill="#6BBAEB" d="M803.8 343h-340V79h340v264z"/><path fill-rule="evenodd" clip-rule="evenodd" fill="#DA415A" d="M604.3 343.4v143.2L463.8 343.4h140.5z"/><path fill-rule="evenodd" clip-rule="evenodd" fill="#E7A600" d="M.1 343c0-145.8 118.2-264 264-264h.3v264H.1z"/><g fill-rule="evenodd" clip-rule="evenodd"><path fill="#E8A700" d="M581.8 130.4V9.3c0-4.7 3.9-8.6 8.6-8.6h60.2v3.4h-60.2c-2.9 0-5.2 2.3-5.2 5.2v121.1h-3.4z"/><path fill="#E8A700" d="M650.6 3.4h-60.2c-3.3 0-5.9 2.7-5.9 5.9v120.4h-1.9V9.3c0-4.3 3.5-7.9 7.9-7.9h60.2l-.1 2zm-64.7 127.8V9.4c0-2.5 2-4.5 4.5-4.5h60.9V.1h-60.9c-5.1 0-9.3 4.2-9.3 9.3v121.8h4.8z"/><path fill="#FFF" d="M605.2 258.3h-44.1v-32.9h44.1v32.9z"/><path fill="#E8A700" d="M608.1 153v74.6h-49.9V153c0-6.4 5.2-11.6 11.6-11.6h26.8c6.4 0 11.5 5.2 11.5 11.6"/><path fill="#E8A700" d="M591.4 146.5H575v-19.4h16.4v19.4z"/><path fill="#E8A700" d="M585.9 79.5h-4.8V9.4c0-5.1 4.2-9.3 9.3-9.3h483.9v4.8H590.4c-2.5 0-4.5 2-4.5 4.5v70.1z"/></g><g fill-rule="evenodd" clip-rule="evenodd"><path fill="#FFF" d="M17.6 459.8v-46.1c0-4.3 3.5-7.7 7.7-7.7H47v-19h18.2c3.4 0 6.1 2.7 6.1 6.1v66.7H17.6z"/><path fill="#80BCE8" d="M30.7 413.9h27.4c2.6 0 4.7 2.1 4.7 4.7V446c0 2.6-2.1 4.7-4.7 4.7H30.7c-2.6 0-4.7-2.1-4.7-4.7v-27.4c0-2.6 2.1-4.7 4.7-4.7"/><path fill="#FFF" d="M41.7 402.3h-3v-13.8h3v13.8z"/><path fill="#FFF" d="M22.8 402.3h-3v-13.8h3v13.8z"/><path fill="#FFF" d="M27.5 402.3h-2.9v-13.8h2.9v13.8z"/><path fill="#FFF" d="M32.2 402.3h-2.9v-13.8h2.9v13.8z"/><path fill="#FFF" d="M37 402.3h-3v-13.8h3v13.8z"/></g><g fill-rule="evenodd" clip-rule="evenodd"><path fill="#2B6CE6" d="M394.9 386.6c0 11.9 9.6 21.5 21.5 21.5s21.5-9.6 21.5-21.5-9.6-21.5-21.5-21.5c-11.8-.1-21.5 9.6-21.5 21.5"/><path fill="#FFF" d="M416.5 365c11.9 0 21.5 9.6 21.5 21.5s-9.6 21.5-21.5 21.5-21.5-9.6-21.5-21.5c-.1-11.8 9.6-21.5 21.5-21.5m0 9.2c-6.8 0-12.4 5.6-12.4 12.4s5.6 12.4 12.4 12.4 12.4-5.6 12.4-12.4c0-6.9-5.6-12.4-12.4-12.4"/><path fill="#2B6CE6" d="M340.8 386.6c0 11.9 9.6 21.5 21.5 21.5s21.5-9.6 21.5-21.5-9.6-21.6-21.5-21.6-21.5 9.7-21.5 21.6"/><path fill="#FFF" d="M362.3 365c11.9 0 21.5 9.6 21.5 21.5s-9.6 21.5-21.5 21.5-21.5-9.6-21.5-21.5c0-11.8 9.6-21.5 21.5-21.5m0 9.2c-6.8 0-12.4 5.6-12.4 12.4s5.6 12.4 12.4 12.4 12.4-5.6 12.4-12.4c0-6.9-5.6-12.4-12.4-12.4"/><path fill="#2B6CE6" d="M286.6 386.6c0 11.9 9.6 21.5 21.5 21.5s21.5-9.6 21.5-21.5-9.6-21.5-21.5-21.5c-11.9-.1-21.5 9.6-21.5 21.5"/><path fill="#FFF" d="M308.1 365c11.9 0 21.5 9.6 21.5 21.5S320 408 308.1 408s-21.5-9.6-21.5-21.5c0-11.8 9.6-21.5 21.5-21.5m0 9.2c-6.8 0-12.4 5.6-12.4 12.4s5.6 12.4 12.4 12.4 12.4-5.6 12.4-12.4c0-6.9-5.5-12.4-12.4-12.4"/><path fill="#2B6CE6" d="m364 487.1.3-103h-3.2l-.3 103h3.2z"/><path fill="#2B6CE6" d="m310 487.1.3-103h-3.2l-.3 103h3.2z"/><path fill="#2B6CE6" d="m418 487.1.3-103h-3.2l-.3 103h3.2z"/></g><path fill-rule="evenodd" clip-rule="evenodd" fill="#DA415A" d="M427.4 113.9h16.3c12.6 0 22.1 11.4 19.8 23.8l-13.4 72.4-55.7-29.6 33-66.6z"/><path fill-rule="evenodd" clip-rule="evenodd" fill="#A5A8B5" d="M418.6 93.5c0-7.6 6.1-13.7 13.7-13.7S446 86 446 93.5s-6.1 13.7-13.7 13.7-13.7-6.1-13.7-13.7"/><path fill-rule="evenodd" clip-rule="evenodd" fill="#A5A8B5" d="m446 179.5 1.5 8.3h-12.6v2h-65.3l-9.7-32.5h41.7l8.6 29.6h7.8l2.9-4.8c2.5-4.1 7.9-5.3 11.9-2.7 2.6 1.7 4.9 3.1 5.2 3.1.7 0 8-3 8-3"/><path fill-rule="evenodd" clip-rule="evenodd" fill="#A5A8B5" d="m403.7 254.8 8.8-40.7h-30.4l21.6 40.7zm-10 78 11.6 8.3v1.9h-19.5l-1.5-8 15-57.3H380v-2.9l19.8-8.2-42-50.1c-8.5-9.4-3.5-26.6 11.7-26.6h42.1l38.3 20.3-56.2 122.6z"/><path fill-rule="evenodd" clip-rule="evenodd" fill="#FFF" d="M359.9 157.3h41.7l8.6 29.7h7.8l-1.2 2.9h-47.2l-9.7-32.6z"/><path fill-rule="evenodd" clip-rule="evenodd" fill="#353535" d="M240.5 256.9h-94.2v-16.4h94.2v16.4z"/><path fill-rule="evenodd" clip-rule="evenodd" fill="#FFF" d="M264.5 266H137.6v-16.4h126.9V266z"/><path fill-rule="evenodd" clip-rule="evenodd" fill="#FFF" d="m264.5 249.6-36 .4 8.1-14.1h27.6l.3 13.7z"/><path fill-rule="evenodd" clip-rule="evenodd" fill="#DB415A" d="M264.5 343.4H141.2l-14.3-84.3h137.6v84.3z"/><path fill-rule="evenodd" clip-rule="evenodd" fill="#FFF" d="M223 290h-67.8v-9.2H223v9.2z"/><path fill-rule="evenodd" clip-rule="evenodd" fill="#3B1CB2" d="M784.9 487.1h291v-408h-291v408z"/><path fill-rule="evenodd" clip-rule="evenodd" fill="#FFF" d="M680.9 333.1h96v-153h-96v153z"/><path fill-rule="evenodd" clip-rule="evenodd" fill="#3B1CB2" d="M753.9 343.1h50v-174h-50v174z"/><path fill-rule="evenodd" clip-rule="evenodd" fill="#353535" d="M665.9 195.1h27v-5h-27v5z"/><path fill-rule="evenodd" clip-rule="evenodd" fill="#353535" d="M665.9 206.1h27v-5h-27v5z"/><path fill-rule="evenodd" clip-rule="evenodd" fill="#353535" d="M665.9 217.1h27v-5h-27v5z"/><path fill-rule="evenodd" clip-rule="evenodd" fill="#353535" d="M665.9 228.1h27v-5h-27v5z"/><path fill-rule="evenodd" clip-rule="evenodd" fill="#353535" d="M665.9 239.1h27v-5h-27v5z"/><path fill-rule="evenodd" clip-rule="evenodd" fill="#353535" d="M665.9 250.1h27v-5h-27v5z"/><path fill-rule="evenodd" clip-rule="evenodd" fill="#353535" d="M665.9 261.1h27v-5h-27v5z"/><path fill-rule="evenodd" clip-rule="evenodd" fill="#353535" d="M665.9 272.1h27v-5h-27v5z"/><path fill-rule="evenodd" clip-rule="evenodd" fill="#353535" d="M665.9 283.1h27v-5h-27v5z"/><path fill-rule="evenodd" clip-rule="evenodd" fill="#353535" d="M665.9 325.1h27v-26h-27v26z"/><path fill-rule="evenodd" clip-rule="evenodd" fill="#353535" d="M735.2 189.9c3 0 5.5 2.5 5.5 5.5s-2.5 5.5-5.5 5.5-5.5-2.5-5.5-5.5c0-3.1 2.5-5.5 5.5-5.5"/><path fill-rule="evenodd" clip-rule="evenodd" fill="#353535" d="M735.2 310.4c3 0 5.5 2.5 5.5 5.5s-2.5 5.5-5.5 5.5-5.5-2.5-5.5-5.5c0-3.1 2.5-5.5 5.5-5.5"/><path fill="none" stroke="#353535" stroke-width="4" d="M719.7 222.9h66v66h-66v-66z"/></svg>