<svg xmlns="http://www.w3.org/2000/svg" viewBox="0 0 1075.8 770.2" enable-background="new 0 0 1075.8 770.2" xml:space="preserve"><filter filterUnits="userSpaceOnUse" id="a"><feColorMatrix values="1 0 0 0 0 0 1 0 0 0 0 0 1 0 0 0 0 0 1 0"/></filter><path fill-rule="evenodd" clip-rule="evenodd" fill="#80BCE8" d="M463.8 770.2H264.5v-144h199.3v144z"/><path fill-rule="evenodd" clip-rule="evenodd" fill="#DA415A" d="M85.8 770.2H0v-144h85.8v144z"/><path fill-rule="evenodd" clip-rule="evenodd" fill="#6BBAEB" d="M803.8 626h-340V362h340v264z"/><path fill-rule="evenodd" clip-rule="evenodd" fill="#DA415A" d="M604.3 626.4v143.2L463.8 626.4h140.5z"/><path fill-rule="evenodd" clip-rule="evenodd" fill="#80BCE8" d="M463.8 163 264.5 362.4V163h199.3z"/><path fill-rule="evenodd" clip-rule="evenodd" fill="#E7A600" d="M.1 626c0-145.8 118.2-264 264-264h.3v264H.1z"/><g fill-rule="evenodd" clip-rule="evenodd"><path fill="#E8A700" d="M581.8 413.4V292.3c0-4.7 3.9-8.6 8.6-8.6h60.2v3.4h-60.2c-2.9 0-5.2 2.3-5.2 5.2v121.1h-3.4z"/><path fill="#E8A700" d="M650.6 286.4h-60.2c-3.3 0-5.9 2.7-5.9 5.9v120.4h-1.9V292.3c0-4.3 3.5-7.9 7.9-7.9h60.2l-.1 2zm-64.7 127.7V292.3c0-2.5 2-4.5 4.5-4.5h60.9V283h-60.9c-5.1 0-9.3 4.2-9.3 9.3v121.8h4.8z"/><path fill="#FFF" d="M605.2 541.3h-44.1v-32.9h44.1v32.9z"/><path fill="#E8A700" d="M608.1 436v74.6h-49.9V436c0-6.4 5.2-11.6 11.6-11.6h26.8c6.4 0 11.5 5.2 11.5 11.6"/><path fill="#E8A700" d="M591.4 429.5H575v-19.4h16.4v19.4z"/><path fill="#E8A700" d="M585.9 362.4h-4.8v-70.1c0-5.1 4.2-9.3 9.3-9.3h483.9v4.8H590.4c-2.5 0-4.5 2-4.5 4.5v70.1z"/></g><path fill-rule="evenodd" clip-rule="evenodd" fill="#FFF" d="M936.2 191.1c-6.9-18.8-23.5-32.3-43.3-35.3l-15.3-2.3-31.7-32.2-9.9 17.1 25.1 48.8 18.9 63.9h63.9v-16.3c.1-14.9-2.5-29.7-7.7-43.7"/><path fill-rule="evenodd" clip-rule="evenodd" fill="#3A3938" d="M914.6 136.9c0 7.1-5.7 12.8-12.8 12.8S889 144 889 136.9s5.7-12.8 12.8-12.8 12.8 5.7 12.8 12.8"/><path fill-rule="evenodd" clip-rule="evenodd" fill="#353535" d="m845.9 121.3 18.9-35.5 20.8-6.6-4.3-2.8h-9.9l10.2-12.8-6.6 3.8 2.1-7.1-6.5-1.3-4.7 7.8-1.6-8.8-4.5 24.2-30 29.8c-3.9 3.9-4.5 9.9-1.5 14.5l7.7 11.8 9.9-17z"/><path fill-rule="evenodd" clip-rule="evenodd" fill="#353535" d="M887.8 136.9c0-7.7 6.3-14 14-14s14 6.3 14 14-6.3 14-14 14-14-6.3-14-14"/><path fill-rule="evenodd" clip-rule="evenodd" fill="#E7A600" d="M976.5 283.3c0-9.7-1.9-19.2-5.6-28.2-3.7-8.9-9.1-17-15.9-23.9-6.8-6.8-14.9-12.2-23.8-15.9-8.9-3.7-18.4-5.6-28.1-5.6-9.6 0-19.2 1.9-28.1 5.6-8.9 3.7-17 9.1-23.8 15.9-6.8 6.8-12.2 14.9-15.9 23.9-3.7 8.9-5.6 18.5-5.6 28.2h146.8z"/><path fill-rule="evenodd" clip-rule="evenodd" fill="#353535" d="m951.1 215.1-15.6-1.5-10.8 7.7 12.6.1 2.5 11.5 1.9-7.8 1.3 8.4 5.5-.7 2.6-17.7z"/><g fill-rule="evenodd" clip-rule="evenodd"><path fill="#FFF" d="M17.6 742.8v-46.1c0-4.3 3.5-7.7 7.7-7.7H47v-19h18.2c3.4 0 6.1 2.7 6.1 6.1v66.7H17.6z"/><path fill="#80BCE8" d="M30.7 696.9h27.4c2.6 0 4.7 2.1 4.7 4.7V729c0 2.6-2.1 4.7-4.7 4.7H30.7c-2.6 0-4.7-2.1-4.7-4.7v-27.4c0-2.6 2.1-4.7 4.7-4.7"/><path fill="#FFF" d="M41.7 685.3h-3v-13.9h3v13.9z"/><path fill="#FFF" d="M22.8 685.3h-3v-13.9h3v13.9z"/><path fill="#FFF" d="M27.5 685.3h-2.9v-13.9h2.9v13.9z"/><path fill="#FFF" d="M32.2 685.3h-2.9v-13.9h2.9v13.9z"/><path fill="#FFF" d="M37 685.3h-3v-13.9h3v13.9z"/></g><path fill-rule="evenodd" clip-rule="evenodd" fill="#FFF" d="M368.5 198c0 1.6-1.3 2.8-2.8 2.8-1.6 0-2.8-1.3-2.8-2.8s1.3-2.8 2.8-2.8 2.8 1.2 2.8 2.8m-10.7 0c0 4.4 3.6 7.9 7.9 7.9s7.9-3.6 7.9-7.9-3.6-7.9-7.9-7.9-7.9 3.5-7.9 7.9"/><path fill-rule="evenodd" clip-rule="evenodd" fill="#FFF" d="M302 275.3c0 1.6-1.3 2.8-2.8 2.8-1.6 0-2.8-1.3-2.8-2.8 0-1.6 1.3-2.8 2.8-2.8s2.8 1.2 2.8 2.8m-10.8 0c0 4.4 3.6 7.9 7.9 7.9s7.9-3.6 7.9-7.9c0-4.4-3.6-7.9-7.9-7.9s-7.9 3.5-7.9 7.9"/><path fill-rule="evenodd" clip-rule="evenodd" fill="#FFF" d="M295.7 195.8v74.4h5v-69.3h59.6v-5.1h-64.6z"/><g fill-rule="evenodd" clip-rule="evenodd"><path fill="#2B6CE6" d="M394.9 669.6c0 11.9 9.6 21.5 21.5 21.5s21.5-9.6 21.5-21.5-9.5-21.6-21.4-21.6-21.6 9.7-21.6 21.6"/><path fill="#FFF" d="M416.5 648c11.9 0 21.5 9.6 21.5 21.5s-9.6 21.5-21.5 21.5-21.5-9.6-21.5-21.5c-.1-11.8 9.6-21.5 21.5-21.5m0 9.2c-6.8 0-12.4 5.6-12.4 12.4 0 6.8 5.6 12.4 12.4 12.4s12.4-5.6 12.4-12.4c0-6.9-5.6-12.4-12.4-12.4"/><path fill="#2B6CE6" d="M340.8 669.6c0 11.9 9.6 21.5 21.5 21.5s21.5-9.6 21.5-21.5-9.6-21.6-21.5-21.6-21.5 9.7-21.5 21.6"/><path fill="#FFF" d="M362.3 648c11.9 0 21.5 9.6 21.5 21.5s-9.6 21.5-21.5 21.5-21.5-9.6-21.5-21.5c0-11.8 9.6-21.5 21.5-21.5m0 9.2c-6.8 0-12.4 5.6-12.4 12.4 0 6.8 5.6 12.4 12.4 12.4s12.4-5.6 12.4-12.4c0-6.9-5.6-12.4-12.4-12.4"/><path fill="#2B6CE6" d="M286.6 669.6c0 11.9 9.6 21.5 21.5 21.5s21.5-9.6 21.5-21.5S320 648 308.1 648s-21.5 9.7-21.5 21.6"/><path fill="#FFF" d="M308.1 648c11.9 0 21.5 9.6 21.5 21.5S320 691 308.1 691s-21.5-9.6-21.5-21.5c0-11.8 9.6-21.5 21.5-21.5m0 9.2c-6.8 0-12.4 5.6-12.4 12.4 0 6.8 5.6 12.4 12.4 12.4s12.4-5.6 12.4-12.4c0-6.9-5.5-12.4-12.4-12.4"/><path fill="#2B6CE6" d="m364 770 .3-102.9-3.2-.1-.3 103h3.2z"/><path fill="#2B6CE6" d="m310 770 .3-102.9-3.2-.1-.3 103h3.2z"/><path fill="#2B6CE6" d="m418 770 .3-102.9-3.2-.1-.3 103h3.2z"/></g><path fill-rule="evenodd" clip-rule="evenodd" fill="#DA415A" d="M427.4 396.9h16.3c12.6 0 22.1 11.4 19.8 23.8l-13.4 72.4-55.7-29.6 33-66.6z"/><path fill-rule="evenodd" clip-rule="evenodd" fill="#353535" d="M418.6 376.5c0-7.6 6.1-13.7 13.7-13.7S446 369 446 376.5c0 7.6-6.1 13.7-13.7 13.7s-13.7-6.2-13.7-13.7"/><path fill-rule="evenodd" clip-rule="evenodd" fill="#353535" d="m446 462.5 1.5 8.3h-12.6v2h-65.3l-9.7-32.5h41.7l8.6 29.6h7.8l2.9-4.8c2.5-4.1 7.9-5.3 11.9-2.7 2.6 1.7 4.9 3.1 5.2 3.1.7 0 8-3 8-3"/><path fill-rule="evenodd" clip-rule="evenodd" fill="#353535" d="m403.7 537.8 8.8-40.7h-30.4l21.6 40.7zm-10 78 11.6 8.3v1.9h-19.5l-1.5-8 15-57.3H380v-2.9l19.8-8.2-42-50.1c-8.5-9.4-3.5-26.6 11.7-26.6h42.1l38.3 20.3-56.2 122.6z"/><path fill-rule="evenodd" clip-rule="evenodd" fill="#FFF" d="M359.9 440.3h41.7l8.6 29.6h7.8l-1.2 2.9h-47.2l-9.7-32.5z"/><path fill-rule="evenodd" clip-rule="evenodd" fill="#353535" d="M240.5 539.8h-94.2v-16.4h94.2v16.4z"/><path fill-rule="evenodd" clip-rule="evenodd" fill="#FFF" d="M264.5 548.9H137.6v-16.4h126.9v16.4z"/><path fill-rule="evenodd" clip-rule="evenodd" fill="#FFF" d="m264.5 532.6-36 .4 8.1-14.1h27.6l.3 13.7z"/><path fill-rule="evenodd" clip-rule="evenodd" fill="#DB415A" d="M264.5 626.4H141.2l-14.3-84.3h137.6v84.3z"/><path fill-rule="evenodd" clip-rule="evenodd" fill="#FFF" d="M223 572.9h-67.8v-9.2H223v9.2z"/><path fill-rule="evenodd" clip-rule="evenodd" fill="#3B1CB2" d="M784.9 770h291V362h-291v408z"/><path fill-rule="evenodd" clip-rule="evenodd" fill="#FFF" d="M680.9 616h96V463.1h-96V616z"/><path fill-rule="evenodd" clip-rule="evenodd" fill="#3B1CB2" d="M753.9 626h50V452.1h-50V626z"/><path fill-rule="evenodd" clip-rule="evenodd" fill="#353535" d="M665.9 478.1h27v-5h-27v5z"/><path fill-rule="evenodd" clip-rule="evenodd" fill="#353535" d="M665.9 489.1h27v-5h-27v5z"/><path fill-rule="evenodd" clip-rule="evenodd" fill="#353535" d="M665.9 500h27v-4.9h-27v4.9z"/><path fill-rule="evenodd" clip-rule="evenodd" fill="#353535" d="M665.9 511h27v-5h-27v5z"/><path fill-rule="evenodd" clip-rule="evenodd" fill="#353535" d="M665.9 522h27v-5h-27v5z"/><path fill-rule="evenodd" clip-rule="evenodd" fill="#353535" d="M665.9 533h27v-5h-27v5z"/><path fill-rule="evenodd" clip-rule="evenodd" fill="#353535" d="M665.9 544h27v-5h-27v5z"/><path fill-rule="evenodd" clip-rule="evenodd" fill="#353535" d="M665.9 555h27v-5h-27v5z"/><path fill-rule="evenodd" clip-rule="evenodd" fill="#353535" d="M665.9 566h27v-5h-27v5z"/><path fill-rule="evenodd" clip-rule="evenodd" fill="#353535" d="M665.9 608h27v-26h-27v26z"/><path fill-rule="evenodd" clip-rule="evenodd" fill="#353535" d="M735.2 472.8c3 0 5.5 2.5 5.5 5.5s-2.5 5.5-5.5 5.5-5.5-2.5-5.5-5.5 2.5-5.5 5.5-5.5"/><path fill-rule="evenodd" clip-rule="evenodd" fill="#353535" d="M735.2 593.3c3 0 5.5 2.5 5.5 5.5s-2.5 5.5-5.5 5.5-5.5-2.5-5.5-5.5 2.5-5.5 5.5-5.5"/><path fill="none" stroke="#353535" stroke-width="4" d="M719.7 505.8h66v66h-66v-66z"/><path fill-rule="evenodd" clip-rule="evenodd" fill="#DA415A" d="M543.2.3h-279v163h279V.3z"/><g fill-rule="evenodd" clip-rule="evenodd"><path fill="#2B6CE6" d="M394.9 100.5c0-11.9 9.6-21.5 21.5-21.5 12 0 21.6 9.6 21.6 21.5s-9.6 21.5-21.5 21.5-21.6-9.6-21.6-21.5"/><path fill="#FFF" d="M416.5 122c11.9 0 21.5-9.6 21.5-21.5S428.4 79 416.5 79 395 88.6 395 100.5c-.1 11.9 9.6 21.5 21.5 21.5m0-9.1c-6.8 0-12.4-5.6-12.4-12.4s5.6-12.4 12.4-12.4 12.4 5.6 12.4 12.4-5.6 12.4-12.4 12.4"/><path fill="#2B6CE6" d="M340.8 100.5c0-11.9 9.6-21.5 21.5-21.5s21.5 9.6 21.5 21.5-9.6 21.5-21.5 21.5-21.5-9.6-21.5-21.5"/><path fill="#FFF" d="M362.3 122c11.9 0 21.5-9.6 21.5-21.5S374.2 79 362.3 79s-21.5 9.6-21.5 21.5 9.6 21.5 21.5 21.5m0-9.1c-6.8 0-12.4-5.6-12.4-12.4s5.6-12.4 12.4-12.4 12.4 5.6 12.4 12.4-5.6 12.4-12.4 12.4"/><path fill="#2B6CE6" d="M286.6 100.5c0-11.9 9.6-21.5 21.5-21.5s21.5 9.6 21.5 21.5S320 122 308.1 122s-21.5-9.6-21.5-21.5"/><path fill="#FFF" d="M308.1 122c11.9 0 21.5-9.6 21.5-21.5S320 79 308.1 79s-21.5 9.6-21.5 21.5 9.6 21.5 21.5 21.5m0-9.1c-6.8 0-12.4-5.6-12.4-12.4s5.6-12.4 12.4-12.4 12.4 5.6 12.4 12.4-5.5 12.4-12.4 12.4"/><path fill="#2B6CE6" d="m364 0 .3 103h-3.2l-.3-103h3.2z"/><path fill="#2B6CE6" d="m310 0 .3 103h-3.2l-.3-103h3.2z"/><path fill="#2B6CE6" d="m418 0 .3 103h-3.2l-.3-103h3.2z"/></g><path fill-rule="evenodd" clip-rule="evenodd" fill="#80BCE8" d="M544.5 163.3h169.6l27.1-27.1V.3H544.5v163z"/><g transform="rotate(180 313.004 82.06)"><mask maskUnits="userSpaceOnUse" id="b"><g filter="url(#a)"><path fill-rule="evenodd" clip-rule="evenodd" fill="#FFF" d="M0 .8h164.1v164.1H0V.8z"/></g></mask><path mask="url(#b)" fill-rule="evenodd" clip-rule="evenodd" fill="#FFF" d="M81.5.8c45 0 81.5 36.5 81.5 81.5s-36.5 81.5-81.5 81.5S0 127.3 0 82.3 36.5.8 81.5.8"/></g><path fill-rule="evenodd" clip-rule="evenodd" fill="#80BCE8" d="M543.9 105.5c-13.4 0-24.2-10.8-24.2-24.2s10.8-24.2 24.2-24.2 24.2 10.8 24.2 24.2-10.8 24.2-24.2 24.2"/><path fill-rule="evenodd" clip-rule="evenodd" fill="#80BCE8" d="M614.9 84.2h-9.8v-5.9h9.8v5.9z"/><path fill-rule="evenodd" clip-rule="evenodd" fill="#FFF" d="M689.8 74.5V25.4h-32.6v49.1h32.6z"/><path fill-rule="evenodd" clip-rule="evenodd" fill="#FFF" d="m705 129.3 4-4 10.2 10.2-4 4-10.2-10.2z"/><path fill-rule="evenodd" clip-rule="evenodd" fill="#FFF" d="m705 30.9 4 4 10.2-10.2-4-4L705 30.9z"/></svg>