<svg xmlns="http://www.w3.org/2000/svg" viewBox="0 0 855 290" xml:space="preserve"><path fill-rule="evenodd" clip-rule="evenodd" fill="#2B6CE6" d="M145.6 149h405v141h-405z"/><path fill-rule="evenodd" clip-rule="evenodd" fill="#81BBE6" d="M550.6 149.1h304v141h-304z"/><path fill-rule="evenodd" clip-rule="evenodd" fill="#81BBE6" d="m699.6 0-149 149V0z"/><path fill-rule="evenodd" clip-rule="evenodd" fill="#2B6CE6" d="M673.4 227.7c0 14.4 11.6 26.2 26.1 26.2 14.4 0 26.1-11.8 26.1-26.2 0-14.4-11.6-26.2-26.1-26.2-14.3 0-26.1 11.8-26.1 26.2"/><path fill-rule="evenodd" clip-rule="evenodd" fill="#FFF" d="M699.6 212.6c-8.3 0-15 6.7-15 15s6.7 15 15 15 15-6.7 15-15c0-8.1-6.7-15-15-15m0-11.1c14.4 0 26.1 11.8 26.1 26.2 0 14.4-11.6 26.2-26.1 26.2-14.4 0-26.1-11.8-26.1-26.2-.1-14.4 11.7-26.2 26.1-26.2"/><path fill-rule="evenodd" clip-rule="evenodd" fill="#2B6CE6" d="M607.7 227.7c0 14.4 11.6 26.2 26.1 26.2 14.4 0 26.1-11.8 26.1-26.2 0-14.4-11.6-26.2-26.1-26.2-14.3 0-26.1 11.8-26.1 26.2"/><path fill-rule="evenodd" clip-rule="evenodd" fill="#FFF" d="M633.9 212.6c-8.3 0-15 6.7-15 15s6.7 15 15 15 15-6.7 15-15c0-8.1-6.7-15-15-15m0-11.1c14.4 0 26.1 11.8 26.1 26.2 0 14.4-11.6 26.2-26.1 26.2s-26.1-11.8-26.1-26.2c-.1-14.4 11.7-26.2 26.1-26.2"/><path fill-rule="evenodd" clip-rule="evenodd" fill="#2B6CE6" d="m701.7 224.5-.2 65.5h-4l.3-65.6z"/><path fill-rule="evenodd" clip-rule="evenodd" fill="#2B6CE6" d="m636 224.5-.2 65.5h-4l.3-65.5z"/><path fill-rule="evenodd" clip-rule="evenodd" fill="#FFF" d="M617.9 18c0 3.6 2.9 6.5 6.5 6.5s6.5-2.9 6.5-6.5-2.9-6.5-6.5-6.5c-3.6-.1-6.5 2.9-6.5 6.5m8.8 0c0 1.3-1 2.4-2.4 2.4s-2.4-1-2.4-2.4c0-1.3 1-2.4 2.4-2.4s2.4 1.1 2.4 2.4"/><path fill-rule="evenodd" clip-rule="evenodd" fill="#FFF" d="M563.3 81.4c0 3.6 2.9 6.5 6.5 6.5s6.5-2.9 6.5-6.5-2.9-6.5-6.5-6.5-6.5 3-6.5 6.5m8.8 0c0 1.3-1 2.4-2.4 2.4s-2.4-1-2.4-2.4c0-1.3 1-2.4 2.4-2.4 1.4.1 2.4 1.1 2.4 2.4"/><path fill-rule="evenodd" clip-rule="evenodd" fill="#FFF" d="M567 16.2v61h4.2V20.3H620v-4.1z"/><g fill-rule="evenodd" clip-rule="evenodd"><path fill="#DA415A" d="M149.3 3.7c-80.2 0-145 65-145 145.2v.1h145V3.7z"/><path fill="#81BBE6" d="M361.7 234.8v9.8c0 3.6 2.9 6.7 6.7 6.7h43.9c1.7 0 3.1-1.4 3.1-3.1v-38.7c0-1.7-1.4-3.1-3.1-3.1h-43.9c-3.6 0-6.7 2.9-6.7 6.7v9"/><path fill="#FFF" d="M125.3 93.5V73.6c0-4.2 3.5-7.7 7.7-7.7h25.6v35.3H133c-4.3 0-7.7-3.5-7.7-7.7"/><path fill="#81BBE6" d="M366.9 226.5h-94.2v-18.8c0-2.1-1.8-3.9-3.9-3.9H109.6V88.3h16.8v-7.8h-20.7c-2.1 0-3.9 1.8-3.9 3.9v123.3c0 2.1 1.8 3.9 3.9 3.9h159.2v18.8c0 2.1 1.8 3.9 3.9 3.9h98.1"/><path fill="#FFF" d="M444.2 242.7V215c0-1.5-1.3-2.8-2.8-2.8h-26.1v33.4h26.1c1.6-.1 2.8-1.3 2.8-2.9"/><path fill="#FFF" d="M109.6 149V88.3h16.8v-7.8h-20.7c-2.1 0-3.9 1.8-3.9 3.9V149"/></g><path fill-rule="evenodd" clip-rule="evenodd" fill="#81BBE6" d="m383 12.6-33 5.6L278.8.1l.4 40.5 69.6-14.9 34.1 5.2z"/><path fill-rule="evenodd" clip-rule="evenodd" fill="#2B6CE6" d="M406.6 53.2h-90.8v20.1l72.4 18z"/><path fill-rule="evenodd" clip-rule="evenodd" fill="#FFF" d="M234.2 53.2h81.6v20.1l-50.5-15-17.4 5z"/><path fill-rule="evenodd" clip-rule="evenodd" fill="#FFF" d="m379.8 110.8-29.9-67.9V13.3l23.3 9.9-12.1 14.2 33.6 40.4z"/><path fill-rule="evenodd" clip-rule="evenodd" fill="#FFF" d="M422 30.8c0-9.7-7.9-17.5-17.5-17.5-9.7 0-17.5 7.9-17.5 17.5s7.9 17.5 17.5 17.5c9.7 0 17.5-7.8 17.5-17.5"/><path fill-rule="evenodd" clip-rule="evenodd" fill="#2B6CE6" d="M406.6 53.2h15.3c18.8 0 36.2 10.4 45 27.1 16.8 31.7 42.1 80 40.1 80h-76.2l-13.3-58.4-16.1 17c-3.8 4.1-9.8 5.1-14.7 2.5-6.2-3.2-8.6-10.8-5.3-17l7-13.5 18.2-37.7z"/></svg>