<svg xmlns="http://www.w3.org/2000/svg" viewBox="0 0 598 745" xml:space="preserve"><path fill-rule="evenodd" clip-rule="evenodd" fill="#424140" d="M0 388.3h322.8v7.5H0z"/><path fill-rule="evenodd" clip-rule="evenodd" fill="#424140" d="M271.4 417.6H306v-53.4h-34.6z"/><path fill-rule="evenodd" clip-rule="evenodd" fill="#2B6CE6" d="M575.4 348.2V745H306.6l-.2-32.7-1.3-166.5V348.2z"/><path fill-rule="evenodd" clip-rule="evenodd" fill="#80BBE6" d="M512.3 348.2v197.6l.4 166.5.1 32.7H598V348.2z"/><g fill-rule="evenodd" clip-rule="evenodd"><path fill="#424140" d="M288.473 390.897c0 7.2-5.9 13.1-13.1 13.1-7.2 0-13.1-5.9-13.1-13.1s5.9-13.1 13.1-13.1c7.2 0 13.1 5.9 13.1 13.1"/><path fill="#3B78F2" d="m151.273 475.497-20.7 1c-13.7.6-25.5 10-29.3 23.2l-13.8 48.4 18.7-.9-7.8 39.2 67-3.1 1.7-54.3 25.4-27.4-41.2-26.1z"/><path fill="#3A3938" d="m192.473 501.597 49.9 16.8 18.5 9.2-3 1.8-9.1-3.2 3.9 11 5.7 9.7-14.3-9.3-5.4-14-62-5z"/><path fill="#3A3938" d="M115.173 453.397c-.3-7.5 5.5-14 13.1-14.3 7.6-.4 14 5.5 14.4 13.1.4 7.6-5.5 14-13.1 14.4-7.6.3-14-5.6-14.4-13.2"/><path fill="#3A3938" d="M120.473 445.197c.8 4.6-2 9-6.3 9.8s-8.4-2.4-9.3-7c-.8-4.6 2-9 6.3-9.8 1.3-.2 2.7-.1 3.9.3-.2-.5-.4-1.1-.5-1.7-.9-5.1 2.1-9.9 6.8-10.7 3.6-.6 7.1 1.2 8.9 4.4 0 0 2.9-3.6 9.9-4.9 5.5-1 10.6 2.3 11.5 7.4.7 3.6-1.1 7.2-4.1 9.2 0 0-10.5 9.5-26.4 2.1-.3 0-.9.4-.7.9"/><path fill="#EAEAEA" d="m126.973 533.297 11.3-40.4 25.7-1.2-11.8 41.2z"/><path fill="#3A3938" d="m87.473 548.097 35.5-32.4 10.7-11.5.3 5.7 21.6-1.7.1 1.2-10.2 2.3-3 7.2-14.4.1-19 31.3c-1 1.6-2.4 2.9-4 3.8-6.6 3.6-14.7.8-17.6-6z"/><path fill="#2E2AAC" d="m98.373 586.397 67-3.1-18.9 150.9 14.3 5.2.2 5.6h-28.5l2.3-10.9-8.8-112.8-41.5 113.7 3.8 10h-31l1.4-3.3 14.4-6.8z"/></g><path fill-rule="evenodd" clip-rule="evenodd" fill="#FFF" d="m578.5 699-25.9.4V745h-7.4v-52.9l25.8-.4-1.8-147.2-24-.3v-147h-32.8l-1-181.3 33.8.3V0h7.4v223.7l-33.8-.2.9 166.4h32.9V537l24 .2z"/><g fill-rule="evenodd" clip-rule="evenodd"><path fill="#3A3938" d="M341.083 621.945h104.1v-66h-104.1z"/><path fill="#FFF" d="M350.583 612.745h33.7v-7.7h-33.7z"/><path fill="#FFF" d="M350.583 600.345h33.7v-7.7h-33.7z"/><path fill="#FFF" d="M350.583 587.845h33.7v-7.7h-33.7z"/><path fill="#FFF" d="M350.583 575.445h33.7v-7.7h-33.7z"/><path fill="#FFF" d="M460.683 576.845h20.9v-20.9h-20.9z"/><path fill="#E83A52" d="M460.683 621.945h20.9v-20.9h-20.9z"/><path fill="#3A3938" d="M341.083 719.445h104.1v-65.9h-104.1z"/><path fill="#FFF" d="M350.583 710.345h33.7v-7.7h-33.7z"/><path fill="#FFF" d="M350.583 697.845h33.7v-7.7h-33.7z"/><path fill="#FFF" d="M350.583 685.345h33.7v-7.7h-33.7z"/><path fill="#FFF" d="M350.583 672.945h33.7v-7.7h-33.7z"/><path fill="#FFF" d="M460.683 674.345h20.9v-20.8h-20.9z"/><path fill="#E83A52" d="M460.683 719.445h20.9v-20.8h-20.9z"/></g></svg>