<svg xmlns="http://www.w3.org/2000/svg" viewBox="0 0 598 745" xml:space="preserve"><g fill-rule="evenodd" clip-rule="evenodd"><path fill="#3A3938" d="M546.1 651.686H598V-.014h-51.9z"/><path fill="#3A3938" d="M198 723.186h400v-85.3H198z"/><path fill="#DEE9E8" d="m564.2 411.086-.1-41.4h2.5l.1 41.4z"/><path fill="#DEE9E8" d="M565.366 363.386c-1.3 0-2.3 1-2.3 2.3 0 1.3 1 2.3 2.3 2.3 1.3 0 2.3-1 2.3-2.3 0-1.3-1-2.3-2.3-2.3m0 7.1c-2.7 0-4.8-2.2-4.8-4.8 0-2.7 2.2-4.8 4.8-4.8 2.7 0 4.8 2.2 4.8 4.8 0 2.7-2.1 4.8-4.8 4.8"/><path fill="#DEE9E8" d="M565.366 412.386c-1.3 0-2.3 1-2.3 2.3 0 1.3 1 2.3 2.3 2.3 1.3 0 2.3-1 2.3-2.3 0-1.3-1-2.3-2.3-2.3m0 7.1c-2.7 0-4.8-2.2-4.8-4.8 0-2.7 2.2-4.8 4.8-4.8 2.7 0 4.8 2.2 4.8 4.8 0 2.6-2.1 4.8-4.8 4.8"/><path fill="#DEE9E8" d="M571.266 696.686c-2.3 0-4.2 1.9-4.2 4.2s1.9 4.2 4.2 4.2c2.3 0 4.2-1.9 4.2-4.2s-1.9-4.2-4.2-4.2m0 11.7c-4.2 0-7.5-3.4-7.5-7.5 0-4.2 3.4-7.5 7.5-7.5 4.2 0 7.5 3.4 7.5 7.5s-3.4 7.5-7.5 7.5"/><path fill="#DEE9E8" d="m217.666 650.886 15.3.2-.2 23.9-15-.1z"/><path fill="#DEE9E8" d="M226.966 662.986c0-3.2 2.7-5.8 5.9-5.8s5.8 2.7 5.8 5.9-2.7 5.8-5.9 5.8-5.8-2.7-5.8-5.9"/><path fill="#DEE9E8" d="m217.666 688.886 15.3.3-.2 23.8-15-.1z"/><path fill="#DEE9E8" d="M226.966 701.086c0-3.2 2.7-5.8 5.9-5.8s5.8 2.7 5.8 5.9-2.7 5.8-5.9 5.8c-3.2-.1-5.8-2.7-5.8-5.9"/><path fill="#E7F9FF" d="M573.766 695.786h-3.4v-131.3l11.7-.2-.8-66.6-10.9-.1v-66.6l-46.4-.7-.4-82 46.8.8V-.014h3.4v352.5l-46.9-.8.4 75.3 46.5.7v66.6l10.8.1.9 73.2-11.7.2z"/><path fill="#DEE9E8" d="M233.166 702.686h332.3v-3.3h-332.3z"/><path fill="#3A3938" d="m545.766 430.686-21.8-.4-.4-82 22.6.4-.1 3.4-19.2-.4.4 75.3 18.6.3z"/><path fill="#E7F9FF" d="M546.566 672.586h-70.8v-20.9h-53.5l.3 13h-189.4v-3.4h185.9l-.2-12.9h60.2l.1 20.9h64l1.8-669.3h3.3z"/></g><path fill-rule="evenodd" clip-rule="evenodd" fill="#2967E9" d="M0 643h250V406H0z"/><path fill-rule="evenodd" clip-rule="evenodd" fill="#E83A52" d="M0 745h598V637H0z"/><path fill-rule="evenodd" clip-rule="evenodd" fill="#FFF" d="m320 695-241-.7V689l241 .7z"/><path fill-rule="evenodd" clip-rule="evenodd" fill="#FFF" d="M93.1 691.9c0 7.3-5.9 13.2-13.2 13.2-7.3 0-13.2-5.9-13.2-13.2s5.9-13.2 13.2-13.2c7.3 0 13.2 5.9 13.2 13.2"/><path fill-rule="evenodd" clip-rule="evenodd" fill="#FFF" d="M333.2 691.9c0 7.3-5.9 13.2-13.2 13.2-7.3 0-13.2-5.9-13.2-13.2s5.9-13.2 13.2-13.2c7.3 0 13.2 5.9 13.2 13.2"/><path fill-rule="evenodd" clip-rule="evenodd" fill="#FFF" d="M253.2 691.9c0 7.3-5.9 13.2-13.2 13.2-7.3 0-13.2-5.9-13.2-13.2s5.9-13.2 13.2-13.2c7.3 0 13.2 5.9 13.2 13.2"/><path fill-rule="evenodd" clip-rule="evenodd" fill="#FFF" d="M173.1 691.9c0 7.3-5.9 13.2-13.2 13.2-7.3 0-13.2-5.9-13.2-13.2s5.9-13.2 13.2-13.2c7.3 0 13.2 5.9 13.2 13.2"/><path fill-rule="evenodd" clip-rule="evenodd" fill="#3A3938" d="M23.4 511.2h147v-25.6h-147z"/><path fill-rule="evenodd" clip-rule="evenodd" fill="#FFF" d="M0 525.4h184v-25.6H0z"/><path fill-rule="evenodd" clip-rule="evenodd" fill="#FFF" d="M42.2 501.2 0 500.5v-22h32.6z"/><path fill-rule="evenodd" clip-rule="evenodd" fill="#E83A52" d="M0 646.1h180.1L201 514.7H0z"/><path fill-rule="evenodd" clip-rule="evenodd" fill="#FFF" d="M50.7 562.8h105.9v-14.3H50.7z"/><path fill-rule="evenodd" clip-rule="evenodd" fill="#EE344C" d="M285.1 417.7h-15.6c-12.1 0-21.2 10.9-19 22.8l12.8 69.4 53.4-28.3-31.6-63.9z"/><path fill-rule="evenodd" clip-rule="evenodd" fill="#3A3938" d="M293.6 398.2c0-7.3-5.9-13.2-13.2-13.2s-13.2 5.9-13.2 13.2 5.9 13.2 13.2 13.2 13.2-6 13.2-13.2"/><path fill-rule="evenodd" clip-rule="evenodd" fill="#3A3938" d="m267.2 480.5-1.5 8h12.1v1.9h62.6l9.3-31.1h-39.9l-8.2 28.4h-7.5l-2.8-4.6c-2.4-3.9-7.5-5.1-11.4-2.6-2.4 1.6-4.7 3-5 3-.7-.1-7.7-3-7.7-3"/><path fill-rule="evenodd" clip-rule="evenodd" fill="#2D2AA9" d="m307.8 552.7-8.5-38.9h29.2l-20.7 38.9zm9.6 74.6-11.1 8v1.8h18.6l1.5-7.6-14.4-54.9h18.5v-2.8l-19-7.9 40.2-48c9.9-9.9 4.3-25.5-11.2-25.5l3.9 4.4-3.9-4.4h-40.4l-36.7 19.5 54 117.4z"/><path fill-rule="evenodd" clip-rule="evenodd" fill="#FFF" d="M485 659.7h-55.1c-5.1 0-9.2 4.1-9.2 9.2v26H398v21.8c0 4 3.3 7.3 7.3 7.3H485v-64.3z"/><path fill-rule="evenodd" clip-rule="evenodd" fill="#80BCE8" d="M430.1 675.5v32.8c0 3.1 2.5 5.6 5.6 5.6h32.8c3.1 0 5.6-2.5 5.6-5.6v-32.8c0-3.1-2.5-5.6-5.6-5.6h-32.8c-3.1-.1-5.6 2.4-5.6 5.6"/><path fill-rule="evenodd" clip-rule="evenodd" fill="#FFF" d="M399.7 688.6h16.5V685h-16.5z"/><path fill-rule="evenodd" clip-rule="evenodd" fill="#FFF" d="M399.7 665.9h16.5v-3.5h-16.5z"/><path fill-rule="evenodd" clip-rule="evenodd" fill="#FFF" d="M399.7 671.6h16.5v-3.5h-16.5z"/><path fill-rule="evenodd" clip-rule="evenodd" fill="#FFF" d="M399.7 677.2h16.5v-3.5h-16.5z"/><path fill-rule="evenodd" clip-rule="evenodd" fill="#FFF" d="M399.7 682.9h16.5v-3.5h-16.5z"/></svg>