<svg xmlns="http://www.w3.org/2000/svg" viewBox="0 0 810 758" xml:space="preserve"><path fill-rule="evenodd" clip-rule="evenodd" fill="#2B6CE6" d="M338.9 758h346.8V606.2H338.9z"/><path fill-rule="evenodd" clip-rule="evenodd" fill="#80BBE6" d="M150.5 758h188.4V606.2H150.5z"/><path fill-rule="evenodd" clip-rule="evenodd" fill="#80BBE6" d="m150.5 417.8 188.4 188.4V417.8z"/><path fill-rule="evenodd" clip-rule="evenodd" fill="#E7A600" d="M481.5 276 338.9 418.5h142.6z"/><path fill-rule="evenodd" clip-rule="evenodd" fill="#DA415A" d="M685.7 481.9c68.6 0 124.3 55.7 124.3 124.3v.1H685.7V481.9z"/><path fill-rule="evenodd" clip-rule="evenodd" fill="#2B6CE6" d="M240.1 673.4c0 12.4-10 22.4-22.4 22.4-12.4 0-22.4-10-22.4-22.4s10-22.4 22.4-22.4c12.3 0 22.4 10 22.4 22.4"/><path fill-rule="evenodd" clip-rule="evenodd" fill="#FFF" d="M217.7 651c-12.4 0-22.4 10-22.4 22.4s10 22.4 22.4 22.4c12.4 0 22.4-10 22.4-22.4S230 651 217.7 651m0 9.5c7.1 0 12.9 5.7 12.9 12.9s-5.7 12.9-12.9 12.9-12.9-5.7-12.9-12.9 5.7-12.9 12.9-12.9"/><path fill-rule="evenodd" clip-rule="evenodd" fill="#2B6CE6" d="M296.3 673.4c0 12.4-10 22.4-22.4 22.4-12.4 0-22.4-10-22.4-22.4s10-22.4 22.4-22.4c12.4 0 22.4 10 22.4 22.4"/><path fill-rule="evenodd" clip-rule="evenodd" fill="#FFF" d="M273.9 651c-12.4 0-22.4 10-22.4 22.4s10 22.4 22.4 22.4c12.4 0 22.4-10 22.4-22.4s-10-22.4-22.4-22.4m0 9.5c7.1 0 12.9 5.7 12.9 12.9s-5.7 12.9-12.9 12.9-12.9-5.7-12.9-12.9 5.9-12.9 12.9-12.9"/><path fill-rule="evenodd" clip-rule="evenodd" fill="#2B6CE6" d="m216.1 754.9-.3-84.2h3.4l.2 84.2z"/><path fill-rule="evenodd" clip-rule="evenodd" fill="#2B6CE6" d="m272.4 754.9-.3-84.2h3.4l.3 84.2z"/><path fill-rule="evenodd" clip-rule="evenodd" fill="#FFF" d="M243.1 440.4c0 1.7 1.3 3 3 3s3-1.3 3-3-1.3-3-3-3-3 1.4-3 3m11.1 0c0 4.5-3.6 8.2-8.2 8.2s-8.2-3.6-8.2-8.2c0-4.5 3.6-8.2 8.2-8.2 4.4 0 8.2 3.7 8.2 8.2"/><path fill-rule="evenodd" clip-rule="evenodd" fill="#FFF" d="M312 520.6c0 1.7 1.3 3 3 3s3-1.3 3-3-1.3-3-3-3c-1.7.1-3 1.4-3 3m11.3 0c0 4.5-3.6 8.2-8.2 8.2-4.5 0-8.2-3.6-8.2-8.2 0-4.5 3.6-8.2 8.2-8.2 4.4 0 8.2 3.7 8.2 8.2"/><path fill-rule="evenodd" clip-rule="evenodd" fill="#FFF" d="M318.6 438.2v77.2h-5.3v-72h-61.8v-5.2z"/><path fill-rule="evenodd" clip-rule="evenodd" fill="#80BBE6" d="M503.7 679.7v8.4c0 3.2-2.5 5.7-5.7 5.7h-37.6c-1.4 0-2.6-1.2-2.6-2.6V658c0-1.4 1.2-2.6 2.6-2.6H498c3.2 0 5.7 2.5 5.7 5.7v7.7"/><path fill-rule="evenodd" clip-rule="evenodd" fill="#80BBE6" d="M706.3 558.8v-17c0-3.6-3-6.6-6.6-6.6H686v30.2h13.7c3.6 0 6.6-3 6.6-6.6"/><path fill-rule="evenodd" clip-rule="evenodd" fill="#FFF" d="M706.3 558.8v-17c0-3.6-3-6.6-6.6-6.6h-22.1v30.2h22.1c3.6 0 6.6-3 6.6-6.6"/><path fill-rule="evenodd" clip-rule="evenodd" fill="#80BBE6" d="M499.3 672.6H580v-16.1c0-1.9 1.5-3.3 3.3-3.3h136.5v-98.8h-14.3v-6.7h17.8c1.9 0 3.3 1.5 3.3 3.3v105.6c0 1.9-1.5 3.3-3.3 3.3H586.7V676c0 1.9-1.5 3.3-3.3 3.3h-84"/><path fill-rule="evenodd" clip-rule="evenodd" fill="#FFF" d="M433 686.5v-23.7c0-1.3 1.1-2.4 2.4-2.4h22.3V689h-22.3c-1.3-.2-2.4-1.2-2.4-2.5"/><path fill-rule="evenodd" clip-rule="evenodd" fill="#FFF" d="M719.8 606.3v-52h-14.3v-6.7h17.8c1.9 0 3.3 1.5 3.3 3.3v55.3"/><path fill-rule="evenodd" clip-rule="evenodd" fill="#80BBE6" d="m490.6 483.6 28.3 4.9 61-15.5-.4 34.7L520 495l-29.2 4.4z"/><path fill-rule="evenodd" clip-rule="evenodd" fill="#2B6CE6" d="M470 518.5h78.2v17.1l-62.4 15.3z"/><path fill-rule="evenodd" clip-rule="evenodd" fill="#3A3938" d="M618 518.5h-70v17.1l43.2-12.8 15 4.2z"/><path fill-rule="evenodd" clip-rule="evenodd" fill="#3A3938" d="m493.5 567.7 25.5-58.1v-25.3l-20 8.5 10.4 12.1-28.8 34.6z"/><path fill-rule="evenodd" clip-rule="evenodd" fill="#3A3938" d="M457.3 499.2c0-8.3 6.7-15 15-15s15 6.7 15 15-6.7 15-15 15-15-6.7-15-15"/><path fill-rule="evenodd" clip-rule="evenodd" fill="#2B6CE6" d="M470.5 518.5h-13c-16.1 0-31 8.9-38.5 23.2-14.3 27.1-36 68.4-34.3 68.4h65.2l11.4-49.9 13.8 14.6c3.3 3.4 8.4 4.3 12.6 2.2 5.3-2.8 7.4-9.3 4.6-14.5l-6.1-11.5-15.7-32.5z"/></svg>