<svg xmlns="http://www.w3.org/2000/svg" viewBox="0 0 598 437" xml:space="preserve"><path fill-rule="evenodd" clip-rule="evenodd" fill="#2B6CE6" d="M171 436.9h314.3V299.3H171z"/><path fill-rule="evenodd" clip-rule="evenodd" fill="#80BBE6" d="M.2 436.9H171V299.3H.2z"/><path fill-rule="evenodd" clip-rule="evenodd" fill="#80BBE6" d="M.2 128.5 171 299.3V128.5z"/><path fill-rule="evenodd" clip-rule="evenodd" fill="#E7A600" d="M300.2 0 171 129.2h129.2z"/><path fill-rule="evenodd" clip-rule="evenodd" fill="#DA415A" d="M485.3 186.6c62.2 0 112.7 50.5 112.7 112.7v.1H485.3V186.6z"/><path fill-rule="evenodd" clip-rule="evenodd" fill="#2B6CE6" d="M81.4 360.2c0 11.2-9.1 20.3-20.3 20.3s-20.3-9.1-20.3-20.3 9.1-20.3 20.3-20.3 20.3 9.1 20.3 20.3"/><path fill-rule="evenodd" clip-rule="evenodd" fill="#FFF" d="M61.1 339.9c-11.2 0-20.3 9.1-20.3 20.3s9.1 20.3 20.3 20.3 20.3-9.1 20.3-20.3-9.1-20.3-20.3-20.3m0 8.6c6.4 0 11.7 5.2 11.7 11.7s-5.2 11.7-11.7 11.7-11.7-5.2-11.7-11.7 5.2-11.7 11.7-11.7"/><path fill-rule="evenodd" clip-rule="evenodd" fill="#2B6CE6" d="M132.4 360.2c0 11.2-9.1 20.3-20.3 20.3s-20.3-9.1-20.3-20.3 9.1-20.3 20.3-20.3 20.3 9.1 20.3 20.3"/><path fill-rule="evenodd" clip-rule="evenodd" fill="#FFF" d="M112.1 339.9c-11.2 0-20.3 9.1-20.3 20.3s9.1 20.3 20.3 20.3 20.3-9.1 20.3-20.3-9.1-20.3-20.3-20.3m0 8.6c6.4 0 11.7 5.2 11.7 11.7s-5.2 11.7-11.7 11.7-11.7-5.2-11.7-11.7 5.3-11.7 11.7-11.7"/><path fill-rule="evenodd" clip-rule="evenodd" fill="#2B6CE6" d="m59.7 434.1-.3-76.3h3.1l.2 76.3z"/><path fill-rule="evenodd" clip-rule="evenodd" fill="#2B6CE6" d="m110.7 434.1-.3-76.3h3.1l.3 76.3z"/><path fill-rule="evenodd" clip-rule="evenodd" fill="#FFF" d="M84.1 149c0 1.5 1.2 2.7 2.7 2.7s2.7-1.2 2.7-2.7-1.2-2.7-2.7-2.7-2.7 1.3-2.7 2.7m10.1 0c0 4.1-3.3 7.4-7.4 7.4s-7.4-3.3-7.4-7.4c0-4.1 3.3-7.4 7.4-7.4 4 0 7.4 3.3 7.4 7.4"/><path fill-rule="evenodd" clip-rule="evenodd" fill="#FFF" d="M146.6 221.7c0 1.5 1.2 2.7 2.7 2.7s2.7-1.2 2.7-2.7-1.2-2.7-2.7-2.7c-1.5.1-2.7 1.3-2.7 2.7m10.2 0c0 4.1-3.3 7.4-7.4 7.4-4.1 0-7.4-3.3-7.4-7.4s3.3-7.4 7.4-7.4c4 0 7.4 3.3 7.4 7.4"/><path fill-rule="evenodd" clip-rule="evenodd" fill="#FFF" d="M152.6 147v70h-4.8v-65.3h-56V147z"/><path fill-rule="evenodd" clip-rule="evenodd" fill="#80BBE6" d="M320.4 365.9v7.6c0 2.9-2.3 5.2-5.2 5.2h-34.1c-1.3 0-2.4-1.1-2.4-2.4v-30.1c0-1.3 1.1-2.4 2.4-2.4h34.1c2.9 0 5.2 2.3 5.2 5.2v7"/><path fill-rule="evenodd" clip-rule="evenodd" fill="#80BBE6" d="M504 256.3v-15.4c0-3.3-2.7-6-6-6h-12.4v27.4H498c3.3 0 6-2.7 6-6"/><path fill-rule="evenodd" clip-rule="evenodd" fill="#FFF" d="M504 256.3v-15.4c0-3.3-2.7-6-6-6h-20v27.4h20c3.3 0 6-2.7 6-6"/><path fill-rule="evenodd" clip-rule="evenodd" fill="#80BBE6" d="M316.4 359.5h73.1v-14.6c0-1.7 1.4-3 3-3h123.7v-89.6h-13v-6.1h16.1c1.7 0 3 1.4 3 3v95.7c0 1.7-1.4 3-3 3H395.6v14.6c0 1.7-1.4 3-3 3h-76.1"/><path fill-rule="evenodd" clip-rule="evenodd" fill="#FFF" d="M256.3 372.1v-21.5c0-1.2 1-2.2 2.2-2.2h20.2v25.9h-20.2c-1.2-.1-2.2-1-2.2-2.2"/><path fill-rule="evenodd" clip-rule="evenodd" fill="#FFF" d="M516.2 299.4v-47.1h-13v-6.1h16.1c1.7 0 3 1.4 3 3v50.1"/><path fill-rule="evenodd" clip-rule="evenodd" fill="#80BBE6" d="m308.5 188.2 25.6 4.4 55.3-14-.3 31.4-54-11.5-26.4 4z"/><path fill-rule="evenodd" clip-rule="evenodd" fill="#2B6CE6" d="M289.8 219.8h70.9v15.5l-56.6 13.9z"/><path fill-rule="evenodd" clip-rule="evenodd" fill="#3A3938" d="M424 219.8h-63.5v15.5l39.2-11.6 13.6 3.8z"/><path fill-rule="evenodd" clip-rule="evenodd" fill="#3A3938" d="m311.1 264.4 23.1-52.7v-22.9l-18.1 7.7 9.4 11-26.1 31.3z"/><path fill-rule="evenodd" clip-rule="evenodd" fill="#3A3938" d="M278.3 202.3c0-7.5 6.1-13.6 13.6-13.6s13.6 6.1 13.6 13.6-6.1 13.6-13.6 13.6-13.6-6.1-13.6-13.6"/><path fill-rule="evenodd" clip-rule="evenodd" fill="#2B6CE6" d="M290.3 219.8h-11.8c-14.6 0-28.1 8.1-34.9 21-13 24.6-32.6 62-31.1 62h59.1l10.3-45.2 12.5 13.2c3 3.1 7.6 3.9 11.4 2 4.8-2.5 6.7-8.4 4.2-13.1l-5.5-10.4-14.2-29.5z"/></svg>