<svg xmlns="http://www.w3.org/2000/svg" viewBox="0 0 810 758" xml:space="preserve"><path fill-rule="evenodd" clip-rule="evenodd" fill="#3A3938" d="M743.5 0H810v638.5h-66.5z"/><path fill-rule="evenodd" clip-rule="evenodd" fill="#3A3938" d="M297.9 730.1H810V620.9H297.9z"/><path fill-rule="evenodd" clip-rule="evenodd" fill="#DEE9E8" d="m766.7 313.8-.1-53h3.2l.1 53z"/><path fill-rule="evenodd" clip-rule="evenodd" fill="#DEE9E8" d="M768.2 252.8c-1.7 0-2.9 1.3-2.9 2.9 0 1.7 1.3 2.9 2.9 2.9 1.7 0 2.9-1.3 2.9-2.9.1-1.7-1.2-2.9-2.9-2.9m0 9.1c-3.5 0-6.1-2.8-6.1-6.1 0-3.5 2.8-6.1 6.1-6.1 3.5 0 6.1 2.8 6.1 6.1.1 3.4-2.6 6.1-6.1 6.1"/><path fill-rule="evenodd" clip-rule="evenodd" fill="#DEE9E8" d="M768.2 315.5c-1.7 0-2.9 1.3-2.9 2.9s1.3 2.9 2.9 2.9c1.7 0 2.9-1.3 2.9-2.9s-1.2-2.9-2.9-2.9m0 9.1c-3.5 0-6.1-2.8-6.1-6.1 0-3.5 2.8-6.1 6.1-6.1 3.5 0 6.1 2.8 6.1 6.1s-2.6 6.1-6.1 6.1"/><path fill-rule="evenodd" clip-rule="evenodd" fill="#DEE9E8" d="M775.8 696.1c-2.9 0-5.4 2.4-5.4 5.4s2.4 5.4 5.4 5.4c2.9 0 5.4-2.4 5.4-5.4s-2.5-5.4-5.4-5.4m0 15c-5.4 0-9.6-4.4-9.6-9.6 0-5.4 4.4-9.6 9.6-9.6 5.4 0 9.6 4.4 9.6 9.6s-4.4 9.6-9.6 9.6"/><path fill-rule="evenodd" clip-rule="evenodd" fill="#DEE9E8" d="m323 637.5 19.6.3-.2 30.6-19.2-.2z"/><path fill-rule="evenodd" clip-rule="evenodd" fill="#DEE9E8" d="M334.9 653c0-4.1 3.5-7.4 7.6-7.4s7.4 3.5 7.4 7.6-3.5 7.4-7.6 7.4-7.4-3.5-7.4-7.6"/><path fill-rule="evenodd" clip-rule="evenodd" fill="#DEE9E8" d="m323 686.2 19.6.3-.2 30.5-19.2-.1z"/><path fill-rule="evenodd" clip-rule="evenodd" fill="#DEE9E8" d="M334.9 701.8c0-4.1 3.5-7.4 7.6-7.4s7.4 3.5 7.4 7.6-3.5 7.4-7.6 7.4c-4-.2-7.4-3.5-7.4-7.6"/><path fill-rule="evenodd" clip-rule="evenodd" fill="#E7F9FF" d="m794 514.2-15 .3v163.9h-4.4V510.2l15-.2-1-85.3-14-.1v-85.3l-29.7-.4-1.4-.1h-2.9l-25.4-.4-.5-105 26.2.5h2.6l1.7.1 29.4.5V0h4.4v238.8l-33.8-.6h-4.3l-22-.4.5 96.4 21.2.3 2.9.1h1.5l34 .5v85.3l13.8.1z"/><path fill-rule="evenodd" clip-rule="evenodd" fill="#DEE9E8" d="M342.9 703.8h425.4v-4.2H342.9z"/><path fill-rule="evenodd" clip-rule="evenodd" fill="#3A3938" d="m743.1 338.9-27.9-.5-.5-105 28.9.5-.1 4.4-24.6-.5.5 96.4 23.8.4z"/><path fill-rule="evenodd" clip-rule="evenodd" fill="#E7F9FF" d="m745.8 0-.6 234v4.2l-.2 96.4-.1 4.3-.7 280.8h-4.3l.7-280.9v-4.3l.3-96.3v-4.3L741.5 0z"/><path fill-rule="evenodd" clip-rule="evenodd" fill="#2967E9" d="M0 627.4h320.1V324H0z"/><path fill-rule="evenodd" clip-rule="evenodd" fill="#E83A52" d="M0 758h810V619.7H0z"/><path fill-rule="evenodd" clip-rule="evenodd" fill="#FFF" d="m454.1 694-308.6-.9v-6.8l308.6.9z"/><path fill-rule="evenodd" clip-rule="evenodd" fill="#FFF" d="M163.5 690c0 9.3-7.6 16.9-16.9 16.9-9.3 0-16.9-7.6-16.9-16.9s7.6-16.9 16.9-16.9c9.4 0 16.9 7.6 16.9 16.9"/><path fill-rule="evenodd" clip-rule="evenodd" fill="#FFF" d="M471 690c0 9.3-7.6 16.9-16.9 16.9-9.3 0-16.9-7.6-16.9-16.9s7.6-16.9 16.9-16.9c9.3 0 16.9 7.6 16.9 16.9"/><path fill-rule="evenodd" clip-rule="evenodd" fill="#FFF" d="M368.5 690c0 9.3-7.6 16.9-16.9 16.9s-16.9-7.6-16.9-16.9 7.6-16.9 16.9-16.9 16.9 7.6 16.9 16.9"/><path fill-rule="evenodd" clip-rule="evenodd" fill="#FFF" d="M266 690c0 9.3-7.6 16.9-16.9 16.9s-16.9-7.6-16.9-16.9 7.6-16.9 16.9-16.9c9.3 0 16.9 7.6 16.9 16.9"/><path fill-rule="evenodd" clip-rule="evenodd" fill="#3A3938" d="M30 458.7h188.2v-32.8H30z"/><path fill-rule="evenodd" clip-rule="evenodd" fill="#FFF" d="M0 476.8h235.6v-32.7H0z"/><path fill-rule="evenodd" clip-rule="evenodd" fill="#FFF" d="M54 445.8 0 445v-28.2h41.7z"/><path fill-rule="evenodd" clip-rule="evenodd" fill="#E83A52" d="M0 631.4h230.6l26.8-168.3H0z"/><path fill-rule="evenodd" clip-rule="evenodd" fill="#FFF" d="M64.9 524.7h135.6v-18.3H64.9z"/><path fill-rule="evenodd" clip-rule="evenodd" fill="#EE344C" d="M365 338.9h-20c-15.5 0-27.1 14-24.3 29.2l16.4 88.9 68.4-36.2-40.5-81.9z"/><path fill-rule="evenodd" clip-rule="evenodd" fill="#3A3938" d="M375.9 314c0-9.3-7.6-16.9-16.9-16.9-9.3 0-16.9 7.6-16.9 16.9s7.6 16.9 16.9 16.9c9.4 0 16.9-7.7 16.9-16.9"/><path fill-rule="evenodd" clip-rule="evenodd" fill="#3A3938" d="m342.1 419.3-1.9 10.2h15.5v2.4h80.2l11.9-39.8h-51.1l-10.5 36.4h-9.6l-3.6-5.9c-3.1-5-9.6-6.5-14.6-3.3-3.1 2-6 3.8-6.4 3.8-.9 0-9.9-3.8-9.9-3.8"/><path fill-rule="evenodd" clip-rule="evenodd" fill="#2D2AA9" d="M394.1 511.8 383.2 462h37.4l-26.5 49.8zm12.3 95.5-14.2 10.2v2.3H416l1.9-9.7-18.4-70.3h23.7v-3.6l-24.3-10.1 51.5-61.5C463 452 455.8 432 436 432l5 5.6-5-5.6h-51.7l-47 25 69.1 150.3z"/><path fill-rule="evenodd" clip-rule="evenodd" fill="#FFF" d="M665.3 648.8h-70.5c-6.5 0-11.8 5.2-11.8 11.8v33.3h-29.1v27.9c0 5.1 4.2 9.3 9.3 9.3h102.1v-82.3z"/><path fill-rule="evenodd" clip-rule="evenodd" fill="#80BCE8" d="M595 669v42c0 4 3.2 7.2 7.2 7.2h42c4 0 7.2-3.2 7.2-7.2v-42c0-4-3.2-7.2-7.2-7.2h-42c-4-.1-7.2 3.1-7.2 7.2"/><path fill-rule="evenodd" clip-rule="evenodd" fill="#FFF" d="M556.1 685.8h21.1v-4.6h-21.1z"/><path fill-rule="evenodd" clip-rule="evenodd" fill="#FFF" d="M556.1 656.7h21.1v-4.5h-21.1z"/><path fill-rule="evenodd" clip-rule="evenodd" fill="#FFF" d="M556.1 664h21.1v-4.5h-21.1z"/><path fill-rule="evenodd" clip-rule="evenodd" fill="#FFF" d="M556.1 671.2h21.1v-4.5h-21.1z"/><path fill-rule="evenodd" clip-rule="evenodd" fill="#FFF" d="M556.1 678.5h21.1V674h-21.1z"/></svg>