<svg xmlns="http://www.w3.org/2000/svg" xmlns:xlink="http://www.w3.org/1999/xlink" viewBox="0 0 810 758" xml:space="preserve"><path fill="#424140" d="M0 361.5h375.7v8.3H0z"/><path fill="#424140" d="M318.5 334.7h38.6v59.4h-38.6z"/><defs><path id="clo-sol-bg-a" d="M656.7 316.9v441.4h-299l-.3-36.3-1.4-185.3V316.9z"/></defs><clipPath id="clo-sol-bg-b"><use xlink:href="#clo-sol-bg-a" overflow="visible"/></clipPath><g clip-path="url(#clo-sol-bg-b)"><path fill="#2B6CE6" d="M356 316.9h300.7v441.4H356z"/></g><path fill="#80BAE6" d="M586.6 316.9H810v441.4H586.6z"/><g transform="translate(228.032)"><defs><circle id="clo-sol-bg-c" cx="94.9" cy="364.4" r="14.6"/></defs><clipPath id="clo-sol-bg-d"><use xlink:href="#clo-sol-bg-c" overflow="visible"/></clipPath><g clip-path="url(#clo-sol-bg-d)"><path fill="#424140" d="M80.3 349.8h29.2V379H80.3z"/></g></g><g transform="translate(33.609 108.754)"><defs><path id="clo-sol-bg-e" d="m151.2 349.8 45.9 28.9-28.3 30.5-1.9 60.4-74.5 3.5 8.7-43.6-20.8 1 15.3-53.9c4.2-14.7 17.3-25.1 32.6-25.8l23-1z"/></defs><clipPath id="clo-sol-bg-f"><use xlink:href="#clo-sol-bg-e" overflow="visible"/></clipPath><g clip-path="url(#clo-sol-bg-f)"><path fill="#3A78F1" d="M80.3 349.8h116.8v123.4H80.3z"/></g></g><g transform="translate(132.849 137.704)"><defs><path id="clo-sol-bg-g" d="m97.9 349.8 55.5 18.8 20.5 10.1-3.3 2.1-10-3.6 4.2 12.3 6.4 10.7-15.9-10.3-6-15.6-69-5.5z"/></defs><clipPath id="clo-sol-bg-h"><use xlink:href="#clo-sol-bg-g" overflow="visible"/></clipPath><g clip-path="url(#clo-sol-bg-h)"><path fill="#393938" d="M80.3 349.8h93.6v50.4H80.3z"/></g></g><g transform="translate(64.416 68.17)"><defs><path id="clo-sol-bg-i" d="M110.9 364.4c.4 8.4-6.1 15.6-14.6 16-8.4.4-15.6-6.1-16-14.6-.4-8.4 6.1-15.6 14.6-16 8.4-.4 15.6 6.2 16 14.6z"/></defs><clipPath id="clo-sol-bg-j"><use xlink:href="#clo-sol-bg-i" overflow="visible"/></clipPath><g clip-path="url(#clo-sol-bg-j)"><path fill="#393938" d="M80.3 349.8h30.6v30.6H80.3z"/></g></g><g transform="translate(52.83 53.13)"><defs><path id="clo-sol-bg-k" d="M132.6 358.2c.7 4-1.2 8-4.5 10.3 0 0-11.6 10.5-29.3 2.4-.6-.3-1.2.2-1 .8.9 5.2-2.2 10.1-7 10.9-4.8.9-9.4-2.6-10.3-7.8-.9-5.2 2.2-10.1 7-10.9 1.5-.3 3-.1 4.3.4-.2-.6-.4-1.2-.5-1.9-1-5.6 2.4-11 7.6-11.9 4-.7 7.9 1.4 10 4.9 0 0 3.2-4.1 11-5.5 6-1 11.7 2.7 12.7 8.3z"/></defs><clipPath id="clo-sol-bg-l"><use xlink:href="#clo-sol-bg-k" overflow="visible"/></clipPath><g clip-path="url(#clo-sol-bg-l)"><path fill="#393938" d="M80.3 349.8h52.5v33H80.3z"/></g></g><g transform="translate(77.532 126.696)"><defs><path id="clo-sol-bg-m" d="m121.5 349.8-13.1 45.9-28.1.5 12.6-45.1z"/></defs><clipPath id="clo-sol-bg-n"><use xlink:href="#clo-sol-bg-m" overflow="visible"/></clipPath><g clip-path="url(#clo-sol-bg-n)"><path fill="#EAEAEA" d="M80.3 349.8h41.2v46.4H80.3z"/></g></g><g transform="translate(33.608 140.748)"><defs><path id="clo-sol-bg-o" d="m131.7 349.8.3 6.3 24.1-1.9.1 1.4-11.3 2.5-3.3 8-16.1.1-21.2 34.8c-1 1.7-2.4 3.1-4.1 4l-.3.2c-7.2 3.9-16.2.7-19.4-6.8l39.5-36 11.7-12.6z"/></defs><clipPath id="clo-sol-bg-p"><use xlink:href="#clo-sol-bg-o" overflow="visible"/></clipPath><g clip-path="url(#clo-sol-bg-p)"><path fill="#393938" d="M80.3 349.8h75.8v57.3H80.3z"/></g></g><g transform="translate(0 228.687)"><defs><path id="clo-sol-bg-q" d="m200.6 349.8-21.1 167.9 16 5.7.2 6.3H164l2.5-12.2-9.7-125.5-46.2 126.6 4.3 11.1H80.3l1.5-3.7 16.1-7.6 28.2-165.1z"/></defs><clipPath id="clo-sol-bg-r"><use xlink:href="#clo-sol-bg-q" overflow="visible"/></clipPath><g clip-path="url(#clo-sol-bg-r)"><path fill="#2D2AAC" d="M80.3 349.8h120.3v179.9H80.3z"/></g></g><path fill="#FFF" d="m660.2 707.2-28.9.4v50.7h-8.2v-58.8l28.8-.5-2-163.7-26.8-.3V371.4h-36.5l-1-201.7 37.5.3V0h8.2v178.4l-37.5-.3 1 185.2h36.5v163.6l26.7.3z"/><path fill="#E4ECEC" d="M713.8 407.5h6.4v103.2h-6.4z"/><path fill="#E4ECEC" d="M717 385.6c6.6 0 12 5.4 12 12s-5.4 12-12 12-12-5.4-12-12c0-6.7 5.4-12 12-12zm0 6.2c-3.2 0-5.7 2.6-5.7 5.7 0 3.2 2.6 5.7 5.7 5.7s5.7-2.6 5.7-5.7-2.5-5.7-5.7-5.7z"/><path fill="#E4ECEC" d="M717 507.6c6.6 0 12 5.4 12 12s-5.4 12-12 12-12-5.4-12-12 5.4-12 12-12zm0 6.2c-3.2 0-5.7 2.6-5.7 5.7 0 3.2 2.6 5.7 5.7 5.7s5.7-2.6 5.7-5.7-2.5-5.7-5.7-5.7z"/><g transform="translate(0 162.482)"><defs><path id="clo-sol-bg-s" d="M396.1 385.6h115.8V459H396.1z"/></defs><clipPath id="clo-sol-bg-t"><use xlink:href="#clo-sol-bg-s" overflow="visible"/></clipPath><g clip-path="url(#clo-sol-bg-t)"><path fill="#393938" d="M396.1 385.6h115.8V459H396.1z"/></g></g><g transform="translate(10.606 217.11)"><defs><path id="clo-sol-bg-u" d="M396.1 385.6h37.5v8.6h-37.5z"/></defs><clipPath id="clo-sol-bg-v"><use xlink:href="#clo-sol-bg-u" overflow="visible"/></clipPath><g clip-path="url(#clo-sol-bg-v)"><path fill="#FFF" d="M396.1 385.6h37.5v8.5h-37.5z"/></g></g><g transform="translate(10.606 203.251)"><defs><path id="clo-sol-bg-w" d="M396.1 385.6h37.5v8.6h-37.5z"/></defs><clipPath id="clo-sol-bg-x"><use xlink:href="#clo-sol-bg-w" overflow="visible"/></clipPath><g clip-path="url(#clo-sol-bg-x)"><path fill="#FFF" d="M396.1 385.6h37.5v8.5h-37.5z"/></g></g><g transform="translate(10.606 189.389)"><defs><path id="clo-sol-bg-y" d="M396.1 385.6h37.5v8.6h-37.5z"/></defs><clipPath id="clo-sol-bg-z"><use xlink:href="#clo-sol-bg-y" overflow="visible"/></clipPath><g clip-path="url(#clo-sol-bg-z)"><path fill="#FFF" d="M396.1 385.6h37.5v8.5h-37.5z"/></g></g><g transform="translate(10.606 175.532)"><defs><path id="clo-sol-bg-A" d="M396.1 385.6h37.5v8.6h-37.5z"/></defs><clipPath id="clo-sol-bg-B"><use xlink:href="#clo-sol-bg-A" overflow="visible"/></clipPath><g clip-path="url(#clo-sol-bg-B)"><path fill="#FFF" d="M396.1 385.6h37.5v8.5h-37.5z"/></g></g><path fill="#FFF" d="M529.2 548.1h23.2v23.2h-23.2z"/><path fill="#E83952" d="M529.2 598.2h23.2v23.2h-23.2z"/><g transform="translate(0 270.99)"><defs><path id="clo-sol-bg-C" d="M396.1 385.6h115.8V459H396.1z"/></defs><clipPath id="clo-sol-bg-D"><use xlink:href="#clo-sol-bg-C" overflow="visible"/></clipPath><g clip-path="url(#clo-sol-bg-D)"><path fill="#393938" d="M396.1 385.6h115.8V459H396.1z"/></g></g><g transform="translate(10.606 325.62)"><defs><path id="clo-sol-bg-E" d="M396.1 385.6h37.5v8.6h-37.5z"/></defs><clipPath id="clo-sol-bg-F"><use xlink:href="#clo-sol-bg-E" overflow="visible"/></clipPath><g clip-path="url(#clo-sol-bg-F)"><path fill="#FFF" d="M396.1 385.6h37.5v8.5h-37.5z"/></g></g><g transform="translate(10.606 311.76)"><defs><path id="clo-sol-bg-G" d="M396.1 385.6h37.5v8.6h-37.5z"/></defs><clipPath id="clo-sol-bg-H"><use xlink:href="#clo-sol-bg-G" overflow="visible"/></clipPath><g clip-path="url(#clo-sol-bg-H)"><path fill="#FFF" d="M396.1 385.6h37.5v8.5h-37.5z"/></g></g><g transform="translate(10.606 297.898)"><defs><path id="clo-sol-bg-I" d="M396.1 385.6h37.5v8.6h-37.5z"/></defs><clipPath id="clo-sol-bg-J"><use xlink:href="#clo-sol-bg-I" overflow="visible"/></clipPath><g clip-path="url(#clo-sol-bg-J)"><path fill="#FFF" d="M396.1 385.6h37.5v8.5h-37.5z"/></g></g><g transform="translate(10.606 284.041)"><defs><path id="clo-sol-bg-K" d="M396.1 385.6h37.5v8.6h-37.5z"/></defs><clipPath id="clo-sol-bg-L"><use xlink:href="#clo-sol-bg-K" overflow="visible"/></clipPath><g clip-path="url(#clo-sol-bg-L)"><path fill="#FFF" d="M396.1 385.6h37.5v8.5h-37.5z"/></g></g><g><path fill="#FFF" d="M529.2 656.6h23.2v23.2h-23.2z"/></g><path fill="#E83952" d="M529.2 706.7h23.2V730h-23.2z"/></svg>