<svg xmlns="http://www.w3.org/2000/svg" viewBox="0 0 810 758" xml:space="preserve"><path fill-rule="evenodd" clip-rule="evenodd" fill="#2B6CE6" d="M420.4 758h-270V563.7h270z"/><g fill-rule="evenodd" clip-rule="evenodd"><path fill="#80BCE8" d="M289.135 668.353c0 13.5 11 24.5 24.6 24.5 13.6 0 24.6-11 24.6-24.5s-11-24.5-24.6-24.5c-13.6 0-24.6 11-24.6 24.5"/><path fill="#FFF" d="M313.735 643.853c13.6 0 24.6 11 24.6 24.5s-11 24.5-24.6 24.5-24.6-11-24.6-24.5 11-24.5 24.6-24.5m0 10.4c-7.8 0-14.1 6.3-14.1 14.1s6.3 14.1 14.1 14.1 14.1-6.3 14.1-14.1-6.3-14.1-14.1-14.1"/><path fill="#80BCE8" d="M227.335 668.353c0 13.5 11 24.5 24.6 24.5 13.6 0 24.6-11 24.6-24.5s-11-24.5-24.6-24.5c-13.6 0-24.6 11-24.6 24.5"/><path fill="#FFF" d="M251.935 643.853c13.6 0 24.6 11 24.6 24.5s-11 24.5-24.6 24.5c-13.6 0-24.6-11-24.6-24.5s11-24.5 24.6-24.5m0 10.4c-7.8 0-14.1 6.3-14.1 14.1s6.3 14.1 14.1 14.1 14.1-6.3 14.1-14.1-6.3-14.1-14.1-14.1"/><path fill="#80BCE8" d="m315.435 757.653.3-92.3h-3.7l-.4 92.3z"/><path fill="#80BCE8" d="m253.635 757.653.3-92.3h-3.7l-.3 92.3z"/></g><path fill-rule="evenodd" clip-rule="evenodd" fill="#80BCE8" d="M418.2 757.9H810V295.7H418.2z"/><g fill-rule="evenodd" clip-rule="evenodd"><path fill="#DA415A" d="m150.4 563.697 267.8-267.9v267.9z"/><path fill="#FFF" d="M293.8 523.197c0-1.9 1.5-3.4 3.4-3.4s3.4 1.5 3.4 3.4-1.5 3.4-3.4 3.4-3.4-1.5-3.4-3.4m12.9 0c0-5.2-4.2-9.5-9.5-9.5s-9.5 4.2-9.5 9.5c0 5.2 4.2 9.5 9.5 9.5s9.5-4.2 9.5-9.5"/><path fill="#FFF" d="M373.3 430.897c0-1.9 1.5-3.4 3.4-3.4s3.4 1.5 3.4 3.4-1.5 3.4-3.4 3.4-3.4-1.5-3.4-3.4m12.9 0c0-5.2-4.2-9.5-9.5-9.5-5.2 0-9.5 4.2-9.5 9.5 0 5.2 4.2 9.5 9.5 9.5 5.2-.1 9.5-4.3 9.5-9.5"/><path fill="#FFF" d="M380.9 525.897v-89h-6.1v82.9h-71.2v6.1z"/></g><path fill-rule="evenodd" clip-rule="evenodd" fill="#FFF" d="M643.6 591.6V758L810 591.6z"/><path fill-rule="evenodd" clip-rule="evenodd" fill="#DA415A" d="M516.3 757.9c0-54.1-43.9-98-98-98h-.1v98h98.1z"/><g fill-rule="evenodd" clip-rule="evenodd"><path fill="#E7A600" d="m633.093 547.494 34.8-16.8-31.1-20.1z"/><path fill="#353535" d="M692.493 592.394h-48.8l7.5 47.2 6 5.6v5.9l-18.9 19.3 5.1-23.2-14.2-49.3-54.8 44.1 2.4 9.1-32.3 9.5v-3.6l20.4-19.4 48.6-58.3c-2.4-6.1.5-12.9 6.4-15.5 1.6-.7 3.4-1 5.2-1l32 .9 35.4 28.7z"/><path fill="#DA415A" d="m679.693 517.094-22.6 46.7 35.4 28.7 36.8-86.4-9.7-4.1c-15.3-6.3-32.7.3-39.9 15.1"/><path fill="#353535" d="M686.993 480.594c0-7.5 6-13.5 13.5-13.5s13.5 6 13.5 13.5-6 13.5-13.5 13.5c-7.4 0-13.5-6.1-13.5-13.5"/><path fill="#353535" d="m685.093 554.894-39.5-6-6-13.9s-1.1-.1-1.2.1c-.2.3.9 8.1.9 8.1l-4.2-1.1s-.2-8.5-.6-8.4c-.4.1-1.2.1-1.2.1l-1.2 14 49.6 22.6c2.8 1.3 6.1.4 7.8-2.1 1.5-2.2 1.6-5 .1-7.2l-4.5-6.2z"/></g><path fill-rule="evenodd" clip-rule="evenodd" fill="#FFF" d="M446.7 479.4h79.5V352.7h-79.5z"/><path fill-rule="evenodd" clip-rule="evenodd" fill="#DA415A" d="M417.3 488.5h49.1v-144h-49.1z"/><path fill-rule="evenodd" clip-rule="evenodd" fill="#3A3938" d="M516.2 470.9H539v-4h-22.8z"/><path fill-rule="evenodd" clip-rule="evenodd" fill="#3A3938" d="M516.2 461.7H539v-3.9h-22.8z"/><path fill-rule="evenodd" clip-rule="evenodd" fill="#3A3938" d="M516.2 452.6H539v-3.9h-22.8z"/><path fill-rule="evenodd" clip-rule="evenodd" fill="#3A3938" d="M516.2 443.5H539v-3.9h-22.8z"/><path fill-rule="evenodd" clip-rule="evenodd" fill="#3A3938" d="M516.2 434.4H539v-3.9h-22.8z"/><path fill-rule="evenodd" clip-rule="evenodd" fill="#3A3938" d="M516.2 425.3H539v-3.9h-22.8z"/><path fill-rule="evenodd" clip-rule="evenodd" fill="#3A3938" d="M516.2 416.2H539v-3.9h-22.8z"/><path fill-rule="evenodd" clip-rule="evenodd" fill="#3A3938" d="M516.2 407.1H539v-4h-22.8z"/><path fill-rule="evenodd" clip-rule="evenodd" fill="#3A3938" d="M516.2 398H539v-4h-22.8z"/><path fill-rule="evenodd" clip-rule="evenodd" fill="#3A3938" d="M516.2 381H539v-21.6h-22.8z"/><path fill-rule="evenodd" clip-rule="evenodd" fill="#3A3938" d="M481.6 471.5c-2.5 0-4.6-2-4.6-4.6 0-2.5 2-4.6 4.6-4.6 2.5 0 4.6 2 4.6 4.6-.1 2.5-2.1 4.6-4.6 4.6"/><path fill-rule="evenodd" clip-rule="evenodd" fill="#3A3938" d="M481.6 371.5c-2.5 0-4.6-2-4.6-4.6 0-2.5 2-4.6 4.6-4.6 2.5 0 4.6 2 4.6 4.6-.1 2.6-2.1 4.6-4.6 4.6"/></svg>