<svg xmlns="http://www.w3.org/2000/svg" viewBox="0 0 598 745" xml:space="preserve"><path fill-rule="evenodd" clip-rule="evenodd" fill="#2B6CE6" d="M270 745H0V550.7h270z"/><g fill-rule="evenodd" clip-rule="evenodd"><path fill="#80BCE8" d="M138.735 655.353c0 13.5 11 24.5 24.6 24.5s24.6-11 24.6-24.5-11-24.5-24.6-24.5-24.6 11-24.6 24.5"/><path fill="#FFF" d="M163.335 630.853c13.6 0 24.6 11 24.6 24.5s-11 24.5-24.6 24.5-24.6-11-24.6-24.5 11-24.5 24.6-24.5m0 10.4c-7.8 0-14.1 6.3-14.1 14.1s6.3 14.1 14.1 14.1 14.1-6.3 14.1-14.1-6.3-14.1-14.1-14.1"/><path fill="#80BCE8" d="M77.035 655.353c0 13.5 11 24.5 24.6 24.5s24.6-11 24.6-24.5-11-24.5-24.6-24.5-24.6 11-24.6 24.5"/><path fill="#FFF" d="M101.535 630.853c13.6 0 24.6 11 24.6 24.5s-11 24.5-24.6 24.5-24.6-11-24.6-24.5c.1-13.5 11.1-24.5 24.6-24.5m0 10.4c-7.8 0-14.1 6.3-14.1 14.1s6.3 14.1 14.1 14.1 14.1-6.3 14.1-14.1c.1-7.8-6.3-14.1-14.1-14.1"/><path fill="#80BCE8" d="m165.035 744.653.3-92.3h-3.7l-.3 92.3z"/><path fill="#80BCE8" d="m103.235 744.653.3-92.3h-3.7l-.3 92.3z"/></g><path fill-rule="evenodd" clip-rule="evenodd" fill="#80BCE8" d="M267.8 744.9h329.8V282.7H267.8z"/><g fill-rule="evenodd" clip-rule="evenodd"><path fill="#DA415A" d="m0 550.697 267.8-267.9v267.9z"/><path fill="#FFF" d="M143.4 510.297c0-1.9 1.5-3.4 3.4-3.4s3.4 1.5 3.4 3.4-1.5 3.4-3.4 3.4c-1.8 0-3.4-1.6-3.4-3.4m12.9 0c0-5.2-4.2-9.5-9.5-9.5-5.2 0-9.5 4.2-9.5 9.5 0 5.2 4.2 9.5 9.5 9.5 5.2-.1 9.5-4.3 9.5-9.5"/><path fill="#FFF" d="M222.9 417.897c0-1.9 1.5-3.4 3.4-3.4s3.4 1.5 3.4 3.4-1.5 3.4-3.4 3.4-3.4-1.5-3.4-3.4m12.9 0c0-5.2-4.2-9.5-9.5-9.5s-9.5 4.2-9.5 9.5c0 5.2 4.2 9.5 9.5 9.5s9.5-4.3 9.5-9.5"/><path fill="#FFF" d="M230.5 512.897v-89h-6.1v82.9h-71.1v6.1z"/></g><path fill-rule="evenodd" clip-rule="evenodd" fill="#FFF" d="M431.2 578.6V745l166.4-166.4z"/><path fill-rule="evenodd" clip-rule="evenodd" fill="#DA415A" d="M365.9 744.9c0-54.1-43.9-98-98-98h-.1v98h98.1z"/><g fill-rule="evenodd" clip-rule="evenodd"><path fill="#E7A600" d="m420.693 534.494 34.9-16.8-31.2-20.1z"/><path fill="#353535" d="M480.093 579.394h-48.8l7.5 47.2 6 5.6v5.9l-18.9 19.3 5.1-23.2-14.2-49.3-54.8 44.1 2.4 9.1-32.3 9.5v-3.6l20.4-19.4 48.8-58.3c-2.4-6.1.5-12.9 6.4-15.5 1.6-.7 3.4-1 5.2-1l32 .9 35.2 28.7z"/><path fill="#DA415A" d="m467.293 504.094-22.6 46.7 35.4 28.7 36.8-86.4-9.7-4.1c-15.2-6.3-32.7.3-39.9 15.1"/><path fill="#353535" d="M474.693 467.594c0-7.5 6-13.5 13.5-13.5s13.5 6 13.5 13.5-6 13.5-13.5 13.5-13.5-6.1-13.5-13.5"/><path fill="#353535" d="m472.693 541.894-39.5-6-6-13.9s-1.1-.1-1.2.1c-.2.3.9 8.1.9 8.1l-4.2-1.1s-.2-8.5-.6-8.4c-.4.1-1.2.1-1.2.1l-1.2 14 49.6 22.6c2.8 1.3 6.1.4 7.8-2.1 1.5-2.2 1.6-5 .1-7.2l-4.5-6.2z"/></g><path fill-rule="evenodd" clip-rule="evenodd" fill="#FFF" d="M296.3 466.4h79.6V339.7h-79.6z"/><path fill-rule="evenodd" clip-rule="evenodd" fill="#DA415A" d="M266.9 475.5H316v-144h-49.1z"/><path fill-rule="evenodd" clip-rule="evenodd" fill="#3A3938" d="M365.8 457.9h22.8v-4h-22.8z"/><path fill-rule="evenodd" clip-rule="evenodd" fill="#3A3938" d="M365.8 448.7h22.8v-3.9h-22.8z"/><path fill-rule="evenodd" clip-rule="evenodd" fill="#3A3938" d="M365.8 439.6h22.8v-3.9h-22.8z"/><path fill-rule="evenodd" clip-rule="evenodd" fill="#3A3938" d="M365.8 430.5h22.8v-3.9h-22.8z"/><path fill-rule="evenodd" clip-rule="evenodd" fill="#3A3938" d="M365.8 421.4h22.8v-3.9h-22.8z"/><path fill-rule="evenodd" clip-rule="evenodd" fill="#3A3938" d="M365.8 412.3h22.8v-3.9h-22.8z"/><path fill-rule="evenodd" clip-rule="evenodd" fill="#3A3938" d="M365.8 403.2h22.8v-3.9h-22.8z"/><path fill-rule="evenodd" clip-rule="evenodd" fill="#3A3938" d="M365.8 394.1h22.8v-4h-22.8z"/><path fill-rule="evenodd" clip-rule="evenodd" fill="#3A3938" d="M365.8 385h22.8v-4h-22.8z"/><path fill-rule="evenodd" clip-rule="evenodd" fill="#3A3938" d="M365.8 368h22.8v-21.6h-22.8z"/><path fill-rule="evenodd" clip-rule="evenodd" fill="#3A3938" d="M331.2 458.5c-2.5 0-4.6-2-4.6-4.6 0-2.5 2-4.6 4.6-4.6 2.5 0 4.6 2 4.6 4.6-.1 2.5-2.1 4.6-4.6 4.6"/><path fill-rule="evenodd" clip-rule="evenodd" fill="#3A3938" d="M331.2 358.6c-2.5 0-4.6-2-4.6-4.6 0-2.5 2-4.6 4.6-4.6 2.5 0 4.6 2 4.6 4.6-.1 2.5-2.1 4.6-4.6 4.6"/></svg>