<svg xmlns="http://www.w3.org/2000/svg" viewBox="0 0 418.6 260" xml:space="preserve"><g fill-rule="evenodd" clip-rule="evenodd"><path fill="#2B6CE6" d="M102.1 260H290v-82.3H102.1z"/><path fill="#E7A600" d="m177.7 0-75.6 75.6h75.6z"/><path fill="#80BBE6" d="M0 260h102.1v-82.3H0z"/><path fill="#80BBE6" d="M102.1 75.6H0l102.1 102.1z"/><path fill="#DA415A" d="M289.996 110.3c37.2 0 67.4 30.2 67.4 67.4v.1h-67.4v-67.5z"/><path fill="#2B6CE6" d="M48.496 214.2c0 6.7-5.4 12.1-12.1 12.1s-12.1-5.4-12.1-12.1c0-6.7 5.4-12.1 12.1-12.1s12.1 5.4 12.1 12.1"/><path fill="#FFF" d="M36.396 202c-6.7 0-12.1 5.4-12.1 12.1 0 6.7 5.4 12.1 12.1 12.1s12.1-5.4 12.1-12.1c0-6.6-5.4-12.1-12.1-12.1m0 5.2c3.9 0 7 3.1 7 7s-3.1 7-7 7-7-3.1-7-7 3.1-7 7-7"/><path fill="#2B6CE6" d="M78.996 214.2c0 6.7-5.4 12.1-12.1 12.1s-12.1-5.4-12.1-12.1c0-6.7 5.4-12.1 12.1-12.1s12.1 5.4 12.1 12.1"/><path fill="#FFF" d="M66.896 202c-6.7 0-12.1 5.4-12.1 12.1 0 6.7 5.4 12.1 12.1 12.1s12.1-5.4 12.1-12.1c0-6.6-5.4-12.1-12.1-12.1m0 5.2c3.9 0 7 3.1 7 7s-3.1 7-7 7-7-3.1-7-7 3.1-7 7-7"/><path fill="#2B6CE6" d="m35.496 258.3-.1-45.6h1.8l.2 45.6z"/><path fill="#2B6CE6" d="m65.996 258.3-.1-45.6h1.8l.2 45.6z"/><path fill="#FFF" d="M50.096 87.9c0 .9.7 1.6 1.6 1.6.9 0 1.6-.7 1.6-1.6s-.7-1.6-1.6-1.6c-.9 0-1.6.7-1.6 1.6m6.1 0c0 2.5-2 4.5-4.5 4.5s-4.5-2-4.5-4.5 2-4.5 4.5-4.5c2.5.1 4.5 2.1 4.5 4.5"/><path fill="#FFF" d="M87.496 131.4c0 .9.7 1.6 1.6 1.6s1.6-.7 1.6-1.6c0-.9-.7-1.6-1.6-1.6s-1.6.7-1.6 1.6m6.1 0c0 2.5-2 4.5-4.5 4.5s-4.5-2-4.5-4.5 2-4.5 4.5-4.5 4.5 2 4.5 4.5"/><path fill="#FFF" d="M91.096 86.7v41.8h-2.9v-39h-33.5v-2.8z"/><path fill="#80BBE6" d="M191.396 217.6v4.5c0 1.7-1.4 3.1-3.1 3.1h-20.4c-.8 0-1.4-.6-1.4-1.4v-18c0-.8.6-1.4 1.4-1.4h20.4c1.7 0 3.1 1.4 3.1 3.1v4.2"/><path fill="#80BBE6" d="M301.196 152v-9.2c0-2-1.6-3.6-3.6-3.6h-7.4v16.4h7.4c2 0 3.6-1.6 3.6-3.6"/><path fill="#FFF" d="M301.196 152v-9.2c0-2-1.6-3.6-3.6-3.6h-11.9v16.4h11.9c2 0 3.6-1.6 3.6-3.6"/><path fill="#80BBE6" d="M188.996 213.7h43.7V205c0-1 .8-1.8 1.8-1.8h73.9v-53.5h-7.8V146h9.6c1 0 1.8.8 1.8 1.8V205c0 1-.8 1.8-1.8 1.8h-73.9v8.7c0 1-.8 1.8-1.8 1.8h-45.5"/><path fill="#FFF" d="M153.096 221.3v-12.9c0-.7.6-1.3 1.3-1.3h12.1v15.5h-12.1c-.7 0-1.3-.6-1.3-1.3"/><path fill="#FFF" d="M308.496 177.8v-28.1h-7.8V146h9.6c1 0 1.8.8 1.8 1.8v30"/><path fill="#80BBE6" d="m184.296 111.3 15.3 2.6 33.1-8.3-.2 18.8-32.3-6.9-15.8 2.4z"/><path fill="#2B6CE6" d="M173.396 130.2h42.1v9.3l-33.6 8.3z"/><path fill="#A5A8B5" d="M253.396 130.2h-37.9v9.3l23.4-7 8.1 2.3z"/><path fill="#A5A8B5" d="m185.796 156.9 13.9-31.5v-13.7l-10.8 4.6 5.6 6.6-15.6 18.7z"/><path fill="#A5A8B5" d="M166.296 119.8c0-4.5 3.6-8.1 8.1-8.1s8.1 3.6 8.1 8.1-3.6 8.1-8.1 8.1-8.1-3.6-8.1-8.1"/><path fill="#2B6CE6" d="M173.396 130.2h-7.1c-8.7 0-16.8 4.8-20.9 12.6-7.8 14.7-19.5 37.1-18.6 37.1h35.3l6.2-27 7.5 7.9c1.8 1.9 4.6 2.3 6.8 1.2 2.9-1.5 4-5 2.5-7.9l-3.3-6.2-8.4-17.7z"/><path fill="#DA415A" d="M359.496 75.6h59.3V0h-59.3z"/><path fill="#FFF" d="M404.996 59.3V32.1c0-2.5-2-4.6-4.6-4.6h-12.8V16.3h-10.8c-2 0-3.6 1.6-3.6 3.6v39.4h31.8z"/><path fill="#80BCE8" d="M397.196 32.2h-16.2c-1.5 0-2.8 1.2-2.8 2.8v16.2c0 1.5 1.2 2.8 2.8 2.8h16.2c1.5 0 2.8-1.2 2.8-2.8V35c0-1.5-1.2-2.8-2.8-2.8"/><path fill="#FFF" d="M390.796 25.3h1.7v-8.1h-1.7z"/><path fill="#FFF" d="M401.896 25.3h1.8v-8.1h-1.8z"/><path fill="#FFF" d="M399.096 25.3h1.8v-8.1h-1.8z"/><path fill="#FFF" d="M396.296 25.3h1.8v-8.1h-1.8z"/><path fill="#FFF" d="M393.596 25.3h1.7v-8.1h-1.7z"/><path fill="#2B6CE6" d="m390.196 110.4-.3 103.3h-2.5l.3-103.3z"/><path fill="#2B6CE6" d="M388.796 208c3.1 0 5.7 2.5 5.7 5.7 0 3.1-2.5 5.7-5.7 5.7-3.1 0-5.7-2.5-5.7-5.7s2.6-5.7 5.7-5.7"/><path fill="#2B6CE6" d="M388.796 104.8c3.1 0 5.7 2.5 5.7 5.7 0 3.1-2.5 5.7-5.7 5.7-3.1 0-5.7-2.5-5.7-5.7s2.6-5.7 5.7-5.7"/><path fill="#2B6CE6" d="M388.796 139.2c3.1 0 5.7 2.5 5.7 5.7 0 3.1-2.5 5.7-5.7 5.7-3.1 0-5.7-2.5-5.7-5.7s2.6-5.7 5.7-5.7"/><path fill="#2B6CE6" d="M388.796 173.6c3.1 0 5.7 2.5 5.7 5.7s-2.5 5.7-5.7 5.7c-3.1 0-5.7-2.5-5.7-5.7s2.6-5.7 5.7-5.7"/></g></svg>