<svg xmlns="http://www.w3.org/2000/svg" viewBox="0 0 986 425" xml:space="preserve"><path fill-rule="evenodd" clip-rule="evenodd" fill="#2B6CE6" d="M468.2 425h307.2V290.5H468.2z"/><path fill-rule="evenodd" clip-rule="evenodd" fill="#80BBE6" d="M301.3 425h166.9V290.5H301.3z"/><path fill="none" d="M301.3 123.6"/><path fill-rule="evenodd" clip-rule="evenodd" fill="#80BBE6" d="M468.2 123.6H301.4l166.8 166.9z"/><path fill-rule="evenodd" clip-rule="evenodd" fill="#E8A700" d="M0 425h301.3L0 123.6z"/><g fill-rule="evenodd" clip-rule="evenodd"><path fill="#DA415A" d="M775.374 180.4c60.8 0 110.1 49.3 110.1 110.1v.1h-110.1V180.4z"/><path fill="#2B6CE6" d="M380.674 350.1c0 10.9-8.9 19.8-19.8 19.8s-19.9-8.9-19.9-19.8 8.9-19.8 19.8-19.8 19.9 8.8 19.9 19.8"/><path fill="#FFF" d="M360.774 330.3c-10.9 0-19.8 8.8-19.8 19.8 0 10.9 8.9 19.8 19.8 19.8s19.8-8.9 19.8-19.8c.1-11-8.8-19.8-19.8-19.8m0 8.4c6.3 0 11.4 5.1 11.4 11.4 0 6.3-5.1 11.4-11.4 11.4s-11.4-5.1-11.4-11.4c0-6.3 5.1-11.4 11.4-11.4"/><path fill="#2B6CE6" d="M430.474 350.1c0 10.9-8.9 19.8-19.8 19.8s-19.8-8.9-19.8-19.8 8.9-19.8 19.8-19.8 19.8 8.8 19.8 19.8"/><path fill="#FFF" d="M410.674 330.3c-10.9 0-19.8 8.9-19.8 19.8s8.9 19.8 19.8 19.8 19.8-8.9 19.8-19.8c0-11-8.9-19.8-19.8-19.8m0 8.4c6.3 0 11.4 5.1 11.4 11.4 0 6.3-5.1 11.4-11.4 11.4s-11.4-5.1-11.4-11.4c0-6.3 5.1-11.4 11.4-11.4"/><path fill="#2B6CE6" d="m359.474 422.3-.3-74.6h3l.3 74.6z"/><path fill="#2B6CE6" d="m409.274 422.3-.2-74.6h3l.2 74.6z"/><path fill="#FFF" d="M383.274 143.7c0 1.4 1.2 2.6 2.6 2.6 1.4 0 2.6-1.2 2.6-2.6 0-1.4-1.2-2.6-2.6-2.6-1.4 0-2.6 1.2-2.6 2.6m9.9 0c0 4-3.3 7.3-7.3 7.3s-7.3-3.3-7.3-7.3 3.3-7.3 7.3-7.3 7.3 3.3 7.3 7.3"/><path fill="#FFF" d="M444.374 214.8c0 1.4 1.2 2.6 2.6 2.6 1.4 0 2.6-1.2 2.6-2.6 0-1.4-1.2-2.6-2.6-2.6-1.4-.1-2.6 1.1-2.6 2.6m9.9 0c0 4-3.3 7.3-7.3 7.3s-7.3-3.3-7.3-7.3 3.3-7.3 7.3-7.3c4.1 0 7.3 3.2 7.3 7.3"/><path fill="#FFF" d="M450.274 141.7v68.4h-4.7v-63.8h-54.8v-4.6z"/><path fill="#80BBE6" d="M614.174 355.7v7.4c0 2.8-2.3 5.1-5.1 5.1h-33.3c-1.3 0-2.3-1-2.3-2.3v-29.4c0-1.3 1-2.3 2.3-2.3h33.3c2.8 0 5.1 2.3 5.1 5.1v6.8"/><path fill="#80BBE6" d="M793.674 248.5v-15.1c0-3.2-2.6-5.9-5.9-5.9h-12.1v26.8h12.1c3.3.1 5.9-2.5 5.9-5.8"/><path fill="#FFF" d="M793.674 248.5v-15.1c0-3.2-2.6-5.9-5.9-5.9h-19.5v26.8h19.5c3.3.1 5.9-2.5 5.9-5.8"/><path fill="#80BBE6" d="M610.274 349.4h71.4v-14.3c0-1.6 1.3-3 3-3h120.9v-87.5h-12.7v-6h15.7c1.6 0 3 1.3 3 3v93.5c0 1.6-1.3 3-3 3h-120.9v14.3c0 1.6-1.3 3-3 3h-74.4"/><path fill="#FFF" d="M551.574 361.7v-21.1c0-1.2 1-2.1 2.1-2.1h19.8v25.3h-19.8c-1.1 0-2.1-1-2.1-2.1"/><path fill="#FFF" d="M805.574 290.6v-46h-12.7v-6h15.7c1.6 0 3 1.3 3 3v49"/><path fill="#80BBE6" d="m602.574 182 25 4.2 54.1-13.6-.3 30.7-52.8-11.3-25.8 3.9z"/><path fill="#2B6CE6" d="M584.774 212.8h68.8V228l-54.9 13.6z"/><path fill="#A5A8B5" d="M715.474 212.8h-61.9V228l38.2-11.4 13.3 3.8z"/><path fill="#A5A8B5" d="m605.074 256.4 22.7-51.4v-22.5l-17.7 7.6 9.1 10.7-25.4 30.6z"/><path fill="#A5A8B5" d="M573.074 195.8c0-7.3 5.9-13.3 13.3-13.3 7.3 0 13.3 5.9 13.3 13.3 0 7.3-5.9 13.3-13.3 13.3-7.3 0-13.3-6-13.3-13.3"/><path fill="#2B6CE6" d="M584.774 212.8h-11.6c-14.3 0-27.4 7.9-34.1 20.5-12.7 24-31.9 60.6-30.4 60.6h57.8l10.1-44.2 12.2 12.9c2.9 3 7.4 3.8 11.2 1.9 4.7-2.4 6.5-8.2 4.1-12.8l-5.3-10.1-14-28.8z"/><path fill="#DA415A" d="M888.874 123.6h97V0h-97z"/><path fill="#FFF" d="M963.374 97V52.5c0-4.1-3.3-7.4-7.4-7.4h-21V26.7h-17.6c-3.3 0-5.9 2.6-5.9 5.9V97h51.9z"/><path fill="#80BCE8" d="M950.674 52.6h-26.5c-2.5 0-4.6 2-4.6 4.6v26.5c0 2.5 2 4.6 4.6 4.6h26.5c2.5 0 4.6-2 4.6-4.6V57.2c-.1-2.5-2.1-4.6-4.6-4.6"/><path fill="#FFF" d="M940.074 41.4h2.8V28.1h-2.8z"/><path fill="#FFF" d="M958.374 41.4h2.8V28.1h-2.8z"/><path fill="#FFF" d="M953.774 41.4h2.9V28.1h-2.9z"/><path fill="#FFF" d="M949.174 41.4h2.9V28.1h-2.9z"/><path fill="#FFF" d="M944.674 41.4h2.8V28.1h-2.8z"/><path fill="#2B6CE6" d="m939.174 180.5-.6 168.8h-4l.6-168.8z"/><path fill="#2B6CE6" d="M936.874 340c5.1 0 9.3 4.1 9.3 9.3s-4.1 9.3-9.3 9.3-9.3-4.1-9.3-9.3 4.2-9.3 9.3-9.3"/><path fill="#2B6CE6" d="M936.874 171.3c5.1 0 9.3 4.1 9.3 9.3s-4.1 9.3-9.3 9.3-9.3-4.1-9.3-9.3 4.2-9.3 9.3-9.3"/><path fill="#2B6CE6" d="M936.874 227.5c5.1 0 9.3 4.1 9.3 9.3s-4.1 9.3-9.3 9.3-9.3-4.1-9.3-9.3 4.2-9.3 9.3-9.3"/><path fill="#2B6CE6" d="M936.874 283.8c5.1 0 9.3 4.1 9.3 9.3s-4.1 9.3-9.3 9.3-9.3-4.1-9.3-9.3 4.2-9.3 9.3-9.3"/></g></svg>