<svg xmlns="http://www.w3.org/2000/svg" viewBox="0 0 540 668" xml:space="preserve"><path fill-rule="evenodd" clip-rule="evenodd" fill="#3B1CB2" d="M0 0h540v668H0z"/><path fill-rule="evenodd" clip-rule="evenodd" fill="#2B6CE6" d="M540 126.6H406v268h134z"/><path fill-rule="evenodd" clip-rule="evenodd" fill="#DA415A" d="M540 126.6V0L406 126.6z"/><path fill-rule="evenodd" clip-rule="evenodd" fill="#80BBE6" d="M473.7 346v115.7c0 4.5 3.7 8.2 8.2 8.2h57.4v-3.2h-57.4c-2.7 0-5-2.2-5-5V346h-3.2z"/><path fill-rule="evenodd" clip-rule="evenodd" fill="#80BBE6" d="M539.3 467.3h-57.4c-3.1 0-5.6-2.5-5.6-5.7v-115h-1.8v115c0 4.1 3.4 7.5 7.5 7.5h57.4v-1.8zm-61.7-122v116.4c0 2.4 1.9 4.3 4.3 4.3H540v4.6h-58.1c-4.9 0-8.9-4-8.9-8.9V345.3h4.6z"/><path fill-rule="evenodd" clip-rule="evenodd" fill="#FFF" d="M496 223.8h-42v31.4h42z"/><path fill-rule="evenodd" clip-rule="evenodd" fill="#80BBE6" d="M498.8 324.4v-71.2h-47.6v71.2c0 6.1 4.9 11 11 11h25.5c6.2.1 11.1-4.9 11.1-11"/><path fill-rule="evenodd" clip-rule="evenodd" fill="#80BBE6" d="M482.9 330.6h-15.8v18.6h15.8z"/><path fill-rule="evenodd" clip-rule="evenodd" fill="#2B6CE6" d="M477.6 461.7v-67H473v67c0 4.9 4 8.9 8.9 8.9H540V466h-58.1c-2.4-.1-4.3-2-4.3-4.3"/><path fill-rule="evenodd" clip-rule="evenodd" fill="#80BDE9" d="M339 466H0v202h339z"/><path fill-rule="evenodd" clip-rule="evenodd" fill="#2B6CE7" d="M233 278H0v188h233z"/><path fill-rule="evenodd" clip-rule="evenodd" fill="#DD415A" d="M540 668 339 467v201z"/><path fill-rule="evenodd" clip-rule="evenodd" fill="#FFF" d="M126 592V466L0 592z"/><g fill-rule="evenodd" clip-rule="evenodd"><path fill="#E8A700" d="M232.431 359.457c-58.9 0-106.6 47.8-106.6 106.7v.1h106.6v-106.8z"/><path fill="#DD415A" d="M339.131 466.157c0-58.9-47.7-106.7-106.6-106.7h-.1v106.7h106.7z"/><path fill="#FFF" d="M432.431 637.557c0-1.4-1.1-2.5-2.5-2.5s-2.6 1.1-2.6 2.5 1.1 2.5 2.6 2.5c1.4 0 2.5-1.1 2.5-2.5m-9.6 0c0-3.9 3.2-7.1 7.1-7.1 3.9 0 7.1 3.2 7.1 7.1s-3.2 7.1-7.1 7.1c-4 0-7.1-3.2-7.1-7.1"/><path fill="#FFF" d="M372.831 568.257c0-1.4-1.1-2.5-2.5-2.5s-2.6 1.1-2.6 2.5 1.1 2.5 2.6 2.5c1.3 0 2.5-1.1 2.5-2.5m-9.7 0c0-3.9 3.2-7.1 7.1-7.1 3.9 0 7.1 3.2 7.1 7.1s-3.2 7.1-7.1 7.1c-3.9 0-7.1-3.2-7.1-7.1"/><path fill="#FFF" d="M367.131 639.557v-66.8h4.5v62.2h53.4v4.6z"/><path fill="#80BDE9" d="M84.931 362.457c0-12.8 10.4-23.2 23.2-23.2 12.8 0 23.2 10.4 23.2 23.2 0 12.8-10.4 23.2-23.2 23.2-12.9 0-23.2-10.4-23.2-23.2"/><path fill="#FFF" d="M108.131 385.657c12.8 0 23.2-10.4 23.2-23.2s-10.4-23.2-23.2-23.2c-12.8 0-23.2 10.4-23.2 23.2s10.3 23.2 23.2 23.2m0-9.8c-7.4 0-13.3-6-13.3-13.4s6-13.4 13.3-13.4 13.3 6 13.3 13.4-6 13.4-13.3 13.4"/><path fill="#80BDE9" d="M26.631 362.457c0-12.8 10.4-23.2 23.2-23.2s23.2 10.4 23.2 23.2c0 12.8-10.4 23.2-23.2 23.2s-23.2-10.4-23.2-23.2"/><path fill="#FFF" d="M49.731 385.657c12.8 0 23.2-10.4 23.2-23.2s-10.4-23.2-23.2-23.2-23.2 10.4-23.2 23.2 10.4 23.2 23.2 23.2m0-9.8c-7.4 0-13.3-6-13.3-13.4s6-13.4 13.3-13.4 13.3 6 13.3 13.4c.1 7.4-5.9 13.4-13.3 13.4"/><path fill="#80BDE9" d="m109.731 277.957.3 87.3h-3.6l-.3-87.2z"/><path fill="#80BDE9" d="m51.331 277.957.3 87.3h-3.5l-.3-87.2z"/><path fill="#FFF" d="M317.831 530.157h-59.7v95h59.7z"/><path fill="#DD415A" d="M339.131 523.357h-36.2v108h36.2z"/><path fill="#3A3938" d="M265.631 536.557h-17.1v2.9h17.1z"/><path fill="#3A3938" d="M265.631 543.357h-17.1v3h17.1z"/><path fill="#3A3938" d="M265.631 550.257h-17.1v2.9h17.1z"/><path fill="#3A3938" d="M265.631 557.057h-17.1v3h17.1z"/><path fill="#3A3938" d="M265.631 563.857h-17.1v3h17.1z"/><path fill="#3A3938" d="M265.631 570.757h-17.1v2.9h17.1z"/><path fill="#3A3938" d="M265.631 577.557h-17.1v3h17.1z"/><path fill="#3A3938" d="M265.631 584.357h-17.1v3h17.1z"/><path fill="#3A3938" d="M265.631 591.257h-17.1v2.9h17.1z"/><path fill="#3A3938" d="M265.631 603.957h-17.1v16.2h17.1z"/><path fill="#3A3938" d="M291.631 536.057c1.9 0 3.4 1.5 3.4 3.4s-1.5 3.4-3.4 3.4-3.4-1.5-3.4-3.4c0-1.8 1.5-3.4 3.4-3.4"/><path fill="#3A3938" d="M291.631 611.057c1.9 0 3.4 1.5 3.4 3.4s-1.5 3.4-3.4 3.4-3.4-1.5-3.4-3.4 1.5-3.4 3.4-3.4"/></g></svg>