<svg xmlns="http://www.w3.org/2000/svg" viewBox="0 0 540 668" enable-background="new 0 0 540 668" xml:space="preserve"><path fill-rule="evenodd" clip-rule="evenodd" fill="#3B1CB2" d="M0 0h540v668H0z"/><defs><filter id="tbg-a" filterUnits="userSpaceOnUse" x="0" y="203" width="134" height="465"><feColorMatrix values="1 0 0 0 0 0 1 0 0 0 0 0 1 0 0 0 0 0 1 0"/></filter></defs><mask maskUnits="userSpaceOnUse" x="0" y="203" width="134" height="465" id="tbg-b"><g filter="url(#tbg-a)"><path fill-rule="evenodd" clip-rule="evenodd" fill="#FFF" d="M0 0h540v668H0z"/></g></mask><g mask="url(#tbg-b)"><path fill-rule="evenodd" clip-rule="evenodd" fill="#2B6CE6" d="M0 546.999h134v-268H0z"/><path fill-rule="evenodd" clip-rule="evenodd" fill="#DA415A" d="M0 546.999v121l118.4-121z"/><path fill-rule="evenodd" clip-rule="evenodd" fill="#80BBE6" d="M66.3 327.599v-115.7c0-4.5-3.7-8.2-8.2-8.2H.7v3.2h57.4c2.7 0 5 2.2 5 5v115.7h3.2z"/><path fill-rule="evenodd" clip-rule="evenodd" fill="#80BBE6" d="M.7 206.199h57.4c3.1 0 5.6 2.5 5.6 5.7v115h1.8v-115c0-4.1-3.4-7.5-7.5-7.5H.7v1.8zm61.7 122.1v-116.4c0-2.4-1.9-4.3-4.3-4.3H0v-4.6h58.1c4.9 0 8.9 4 8.9 8.9v116.4h-4.6z"/><path fill-rule="evenodd" clip-rule="evenodd" fill="#FFF" d="M44 449.799h42v-31.5H44z"/><path fill-rule="evenodd" clip-rule="evenodd" fill="#80BBE6" d="M41.2 349.199v71.2h47.6v-71.2c0-6.1-4.9-11-11-11H52.2c-6.1-.1-11 4.9-11 11"/><path fill-rule="evenodd" clip-rule="evenodd" fill="#80BBE6" d="M57.1 342.899h15.8v-18.5H57.1z"/><path fill-rule="evenodd" clip-rule="evenodd" fill="#2B6CE6" d="M62.4 211.899v67H67v-67c0-4.9-4-8.9-8.9-8.9H0v4.6h58.1c2.4 0 4.3 1.9 4.3 4.3"/></g><defs><filter id="tbg-c" filterUnits="userSpaceOnUse" x="0" y="0" width="540" height="390"><feColorMatrix values="1 0 0 0 0 0 1 0 0 0 0 0 1 0 0 0 0 0 1 0"/></filter></defs><mask maskUnits="userSpaceOnUse" x="0" y="0" width="540" height="390" id="tbg-d"><g filter="url(#tbg-c)"><path fill-rule="evenodd" clip-rule="evenodd" fill="#FFF" d="M0 0h540v668H0z"/></g></mask><g mask="url(#tbg-d)" fill-rule="evenodd" clip-rule="evenodd"><path fill="#80BDE9" d="M201 202h339V0H201z"/><path fill="#2B6CE7" d="M307 390h233V202H307z"/><path fill="#DD415A" d="m0 0 201 201V0z"/><path fill="#FFF" d="M414 76v126L540 76z"/><path fill="#E8A700" d="M307.531 308.557c58.9 0 106.6-47.8 106.6-106.7v-.1h-106.6v106.8z"/><path fill="#DD415A" d="M200.931 201.857c0 58.9 47.7 106.7 106.6 106.7h.1v-106.7h-106.7z"/><path fill="#FFF" d="M107.531 30.457c0 1.4 1.1 2.5 2.5 2.5s2.6-1.1 2.6-2.5-1.1-2.6-2.5-2.6-2.6 1.2-2.6 2.6m9.7 0c0 3.9-3.2 7.1-7.1 7.1-3.9 0-7.1-3.2-7.1-7.1s3.2-7.1 7.1-7.1c3.9 0 7.1 3.2 7.1 7.1"/><path fill="#FFF" d="M167.231 99.757c0 1.4 1.1 2.5 2.5 2.5s2.6-1.1 2.6-2.5-1.1-2.5-2.6-2.5c-1.4 0-2.5 1.1-2.5 2.5m9.6 0c0 3.9-3.2 7.1-7.1 7.1-3.9 0-7.1-3.2-7.1-7.1 0-3.9 3.2-7.1 7.1-7.1 3.9 0 7.1 3.2 7.1 7.1"/><path fill="#FFF" d="M172.831 28.457v66.8h-4.5v-62.2h-53.4v-4.6z"/><path fill="#80BDE9" d="M455.131 305.557c0 12.8-10.4 23.2-23.2 23.2-12.8 0-23.2-10.4-23.2-23.2 0-12.8 10.4-23.2 23.2-23.2 12.8 0 23.2 10.4 23.2 23.2"/><path fill="#FFF" d="M431.931 282.357c-12.8 0-23.2 10.4-23.2 23.2s10.4 23.2 23.2 23.2c12.8 0 23.2-10.4 23.2-23.2s-10.4-23.2-23.2-23.2m0 9.8c7.4 0 13.3 6 13.3 13.4s-6 13.4-13.3 13.4-13.3-6-13.3-13.4c-.1-7.4 5.9-13.4 13.3-13.4"/><path fill="#80BDE9" d="M513.431 305.557c0 12.8-10.4 23.2-23.2 23.2s-23.2-10.4-23.2-23.2c0-12.8 10.4-23.2 23.2-23.2s23.2 10.4 23.2 23.2"/><path fill="#FFF" d="M490.231 282.357c-12.8 0-23.2 10.4-23.2 23.2s10.4 23.2 23.2 23.2 23.2-10.4 23.2-23.2-10.4-23.2-23.2-23.2m0 9.8c7.4 0 13.3 6 13.3 13.4s-6 13.4-13.3 13.4-13.3-6-13.3-13.4 5.9-13.4 13.3-13.4"/><path fill="#80BDE9" d="m430.331 389.957-.3-87.2 3.5-.1.3 87.3z"/><path fill="#80BDE9" d="m488.631 389.957-.3-87.2 3.5-.1.3 87.3z"/><path fill="#FFF" d="M222.231 137.857h59.7v-95h-59.7z"/><path fill="#DD415A" d="M200.931 144.657h36.1v-108h-36.1z"/><path fill="#3A3938" d="M274.431 131.457h17v-3h-17z"/><path fill="#3A3938" d="M274.431 124.657h17v-3h-17z"/><path fill="#3A3938" d="M274.431 117.757h17v-2.9h-17z"/><path fill="#3A3938" d="M274.431 110.957h17v-3h-17z"/><path fill="#3A3938" d="M274.431 104.157h17v-3h-17z"/><path fill="#3A3938" d="M274.431 97.257h17v-2.9h-17z"/><path fill="#3A3938" d="M274.431 90.457h17v-3h-17z"/><path fill="#3A3938" d="M274.431 83.657h17v-3h-17z"/><path fill="#3A3938" d="M274.431 76.757h17v-2.9h-17z"/><path fill="#3A3938" d="M274.431 63.957h17v-16.1h-17z"/><path fill="#3A3938" d="M248.431 131.957c-1.9 0-3.4-1.5-3.4-3.4s1.5-3.4 3.4-3.4 3.4 1.5 3.4 3.4c0 1.8-1.5 3.4-3.4 3.4"/><path fill="#3A3938" d="M248.431 56.957c-1.9 0-3.4-1.5-3.4-3.4s1.5-3.4 3.4-3.4 3.4 1.5 3.4 3.4c0 1.8-1.5 3.4-3.4 3.4"/></g></svg>